<svg width="124" height="44" viewBox="0 0 124 44" fill="none" xmlns="http://www.w3.org/2000/svg">
<path d="M14.4289 28.7138C13.692 29.1529 12.7243 29.3719 11.5248 29.3701C9.53869 29.3701 8.06674 28.6812 7.11079 27.3025C6.15394 25.9238 5.67687 23.9277 5.67777 21.3152C5.67777 18.3215 6.10505 16.1434 6.95871 14.7801C7.81237 13.4177 9.01636 12.7342 10.5707 12.7315C10.883 12.7152 11.1953 12.7895 11.4678 12.9452C11.6796 13.0864 11.8444 13.3733 11.9458 13.816C11.9965 14.2207 11.9965 14.6307 11.9458 15.0345C11.8926 15.516 11.8799 16.0011 11.9077 16.4847C11.9458 17.2614 12.2264 18.0055 12.7107 18.6103C12.9282 18.8737 13.2032 19.0839 13.5145 19.2247C13.8258 19.3654 14.1652 19.433 14.5067 19.4223C15.1266 19.4509 15.7331 19.2361 16.1969 18.8239C16.4189 18.6059 16.5918 18.343 16.7041 18.0528C16.8163 17.7625 16.8653 17.4517 16.8477 17.141C16.8373 16.2598 16.5571 15.403 16.0448 14.686C15.4558 13.8486 14.6534 13.1841 13.721 12.7614C12.7008 12.2726 11.4515 12.0281 9.97321 12.0263C8.23997 12.0091 6.5286 12.4142 4.98706 13.2068C3.48446 13.9815 2.22743 15.1595 1.35698 16.6087C0.451723 18.0934 0 19.8776 0 21.9651C0 24.0789 0.414608 25.8614 1.24292 27.3107C2.02094 28.7189 3.18778 29.8735 4.60414 30.6366C6.0572 31.4067 7.68065 31.799 9.32505 31.7772C11.1338 31.7772 12.7008 31.3653 14.0251 30.5397C15.3554 29.7093 16.3863 28.4764 16.9681 27.0201L16.5861 26.7105C16.0005 27.4949 15.2746 28.164 14.4452 28.684L14.4289 28.7138ZM37.1354 29.4951L37.4794 29.8056C37.0465 30.3792 36.5079 30.8647 35.8925 31.2359C35.3195 31.5708 34.5111 31.7383 33.4664 31.7383C32.3457 31.7383 31.4604 31.4749 30.8104 30.9471C30.1553 30.4113 29.7035 29.6672 29.5304 28.8387C28.817 29.6173 28.0304 30.3234 27.1803 30.948C26.3719 31.5274 25.3336 31.817 24.0663 31.817C22.5889 31.8143 21.3478 31.387 20.3402 30.5343C19.3327 29.6815 18.8293 28.4576 18.8293 26.8608C18.8293 25.6477 19.4404 24.5324 20.6634 23.514C21.8855 22.4965 23.8101 21.7298 26.4344 21.2129C26.8418 21.1359 27.3007 21.0526 27.8104 20.963C28.3191 20.8734 28.8542 20.7747 29.4163 20.6724V17.6163C29.4136 15.8673 29.2018 14.6362 28.7826 13.9237C28.3626 13.2113 27.7063 12.8546 26.8146 12.8546C26.5435 12.8409 26.2728 12.8874 26.0219 12.9909C25.771 13.0944 25.5461 13.2522 25.3635 13.453C25.005 13.854 24.7751 14.5438 24.6746 15.5233L24.5985 15.9506C24.546 17.0595 24.2781 17.8716 23.7956 18.3858C23.5692 18.636 23.2916 18.8346 22.9818 18.9681C22.6719 19.1017 22.3369 19.167 21.9996 19.1597C21.6985 19.1701 21.3984 19.1207 21.1166 19.0144C20.8347 18.9081 20.5767 18.7471 20.3574 18.5405C20.1369 18.3258 19.9647 18.0664 19.8523 17.7798C19.7399 17.4932 19.6899 17.1859 19.7056 16.8785C19.6949 16.3818 19.7865 15.8882 19.9745 15.4283C20.1619 14.9693 20.4425 14.5547 20.7965 14.2098C21.6086 13.4373 22.6 12.8789 23.6815 12.5849C24.948 12.2137 26.2615 12.0327 27.5796 12.0444C29.8454 12.0453 31.5962 12.6057 32.8328 13.7273C34.0702 14.8471 34.6885 16.6712 34.6885 19.1987V27.7524C34.6885 28.9112 35.2226 29.4905 36.2927 29.4905L37.1354 29.4951ZM29.4199 21.4482L28.655 21.6021C28.4106 21.6537 28.1082 21.7053 27.7769 21.756C26.7119 22.0046 25.7385 22.5479 24.9679 23.3239C24.2636 24.0599 23.9115 25.0457 23.9115 26.2814C23.9115 27.3406 24.1532 28.1336 24.6357 28.6613C24.8548 28.9118 25.1254 29.1121 25.4289 29.2486C25.7324 29.3851 26.0618 29.4547 26.3946 29.4525C26.8954 29.455 27.3884 29.3291 27.8267 29.0868C28.3903 28.7569 28.9216 28.3747 29.4136 27.9453L29.4199 21.4482ZM50.7252 12.0761C52.9177 12.0779 54.6567 12.9225 55.9422 14.6108C57.2285 16.2982 57.8722 18.7153 57.8722 21.8619C57.8776 24.9552 57.1733 27.3912 55.7584 29.1701C54.3444 30.9489 52.3501 31.8388 49.7765 31.8388C47.7704 31.8388 46.0794 31.5428 44.7052 30.9489V37.6387C44.7052 38.6617 45.1633 39.3035 46.0812 39.5624L46.8072 39.7552V40.1418H37.5202V39.7552L37.9791 39.6013C38.9206 39.3433 39.3922 38.7242 39.3922 37.7456V16.7056C39.4237 16.2592 39.324 15.8133 39.1053 15.4228C38.9088 15.1404 38.5576 14.9458 38.0488 14.8435L37.5138 14.7276V14.3411L44.01 12.0933L44.392 12.4799L44.736 13.6802C45.6107 13.1491 46.5565 12.7449 47.545 12.4799C48.5846 12.1943 49.658 12.0506 50.736 12.0526L50.7252 12.0761ZM50.975 28.7057C51.7255 27.365 52.1012 25.1344 52.1012 22.0158C52.1012 18.8945 51.7445 16.7092 51.0311 15.4591C50.3187 14.2089 49.2867 13.5834 47.9352 13.5834C46.9937 13.5852 45.949 13.8948 44.8021 14.5122V30.098C45.7938 30.5152 46.8602 30.7256 47.9361 30.7163C49.2098 30.7181 50.2218 30.0473 50.9741 28.7066L50.975 28.7057ZM70.4598 29.6625C70.0395 29.9361 69.5471 30.0776 69.0458 30.069C68.7576 30.0761 68.4717 30.017 68.2101 29.8961C67.9484 29.7753 67.7181 29.5959 67.5367 29.3719C67.1411 28.9066 66.9428 28.2241 66.9428 27.3224V13.3996H71.2627V12.6238H66.9854L67.1013 7.20945H66.7192L63.5852 10.7291C63.0834 11.2521 62.5152 11.7071 61.8951 12.0824C61.2572 12.4432 60.5679 12.7042 59.8511 12.8564L58.9322 13.0103V13.3978H61.5692V26.6236C61.5692 28.4287 62.0219 29.7431 62.9262 30.5687C63.8306 31.3943 65.0988 31.8071 66.7301 31.8071C67.8619 31.8413 68.9826 31.5742 69.9773 31.0331C70.8507 30.5349 71.5763 29.8139 72.0802 28.9438L71.6982 28.5572C71.3398 28.9763 70.9284 29.347 70.4742 29.6598L70.4598 29.6625ZM77.834 10.0384C78.6409 10.0602 79.4236 9.761 80.0102 9.20645C80.5719 8.64455 80.8874 7.88261 80.8874 7.08814C80.8874 6.29368 80.5719 5.53174 80.0102 4.96984C79.4178 4.42715 78.6371 4.13682 77.834 4.16054C77.0244 4.13777 76.2371 4.42795 75.636 4.97075C75.3526 5.24598 75.1274 5.57527 74.9735 5.93913C74.8197 6.30298 74.7404 6.69401 74.7404 7.08905C74.7404 7.48409 74.8197 7.87512 74.9735 8.23897C75.1274 8.60283 75.3526 8.93212 75.636 9.20735C76.2319 9.76093 77.0209 10.0592 77.834 10.0384ZM80.8648 30.0364C80.6578 29.6576 80.5591 29.2292 80.5796 28.798V17.9766L80.6937 12.4853L80.3117 12.0978L73.3167 14.3791V14.7683L73.8536 14.8842C74.3623 14.9883 74.7136 15.1748 74.91 15.4446C75.1255 15.8121 75.2259 16.2367 75.197 16.663V28.7681C75.2169 29.1999 75.1173 29.6281 74.91 30.0065C74.6552 30.3602 74.2792 30.6076 73.8536 30.7018L73.3167 30.8557V31.2341H82.2598V30.8466L81.8796 30.7316C81.469 30.6293 81.1082 30.3825 80.8648 30.0364ZM102.906 13.0121V12.6229H97.364V13.0103L98.319 13.243C98.8278 13.3969 99.1338 13.6431 99.2379 13.9762C99.3411 14.3103 99.2868 14.7376 99.084 15.2599L95.3389 25.9727L91.3241 15.182C90.9421 14.1003 91.2481 13.4304 92.2411 13.1724L92.9282 13.0167V12.6229H83.0302V13.0103L83.567 13.166C83.9834 13.2955 84.3645 13.5191 84.6822 13.8205C85 14.122 85.2462 14.4931 85.401 14.9041L92.1633 31.3418H94.3803L99.9965 15.0218C100.126 14.5879 100.355 14.1905 100.666 13.8613C100.986 13.5756 101.374 13.3763 101.793 13.2819L102.906 13.0121Z" fill="#809CBF"/>
<path d="M122.746 20.1519C124.806 23.3565 124.325 27.7751 121.322 30.1767C119.522 31.6152 117.114 32.3339 114.097 32.3339C111.021 32.3312 108.672 31.722 107.047 30.5053C105.423 29.2896 104.611 27.6384 104.611 25.5536C104.611 24.0508 105.206 22.7292 106.396 21.5886C107.668 20.3883 109.16 19.4447 110.789 18.8094C108.702 17.7159 106.737 16.1145 105.826 13.8667C104.915 11.6199 105.07 8.73933 106.483 6.72061C106.993 5.99729 107.624 5.36786 108.349 4.86031C111.264 2.81443 115.707 2.37538 118.972 3.9469C120.76 4.80871 122.543 6.56491 122.543 8.76106C122.561 9.06357 122.513 9.3663 122.404 9.64891C122.295 9.93152 122.126 10.1875 121.91 10.3996C121.46 10.8001 120.872 11.0093 120.271 10.9826C118.663 10.9826 117.707 9.6627 117.736 8.11923C117.745 7.47741 118.082 5.6343 117.659 5.15723C116.339 3.67985 113.44 3.61558 111.931 4.83496C111.374 5.29683 110.932 5.88278 110.642 6.5459C110.13 7.67023 109.796 9.27977 109.92 11.5936C109.92 11.5936 110.302 17.246 116.183 17.246C116.449 17.275 116.718 17.2705 116.983 17.2334C117.638 17.1485 118.269 16.9347 118.841 16.6042L118.961 16.5445L119.012 16.5101C119.797 15.9502 120.493 15.2748 121.076 14.5067L121.512 14.8571C121.14 15.7624 120.619 16.5993 119.971 17.3329C121.07 18.087 122.014 19.0456 122.751 20.1564L122.746 20.1519ZM117.62 30.0328C118.375 29.0795 118.752 27.8393 118.752 26.3122C118.771 25.4253 118.563 24.5483 118.148 23.7639C117.739 23.0216 117.035 22.2956 116.035 21.5822C114.721 20.7082 113.33 19.9567 111.878 19.3372C111.728 19.278 111.582 19.2065 111.443 19.1235C110.89 19.6367 110.407 20.2212 110.008 20.8616C109.684 21.4199 109.462 22.0319 109.355 22.6685C109.228 23.4769 109.171 24.2946 109.183 25.1127C109.179 26.9902 109.643 28.5165 110.572 29.6915C111.502 30.8656 112.749 31.4531 114.315 31.4531C115.764 31.4531 116.867 30.9761 117.621 30.0228L117.62 30.0328Z" fill="#809CBF"/>
</svg>
