<?xml version="1.0" encoding="utf-8"?>
<!-- Generator: Adobe Illustrator 22.0.1, SVG Export Plug-In . SVG Version: 6.00 Build 0)  -->
<svg version="1.1" id="Layer_1" xmlns="http://www.w3.org/2000/svg" xmlns:xlink="http://www.w3.org/1999/xlink" x="0px" y="0px"
	 viewBox="0 0 469 472" style="enable-background:new 0 0 469 472;" xml:space="preserve">
<style type="text/css">
	.st0{fill:none;stroke:#F0C808;stroke-miterlimit:10;stroke-dasharray:2,4;}
	.st1{fill:url(#SVGID_1_);}
	.st2{stroke:#25312B;stroke-miterlimit:10;}
	.st3{fill:#15201B;}
	.st4{fill:url(#SVGID_2_);}
	.st5{fill:#EAFFEC;}
	.st6{fill:#131F18;}
	.st7{fill:url(#SVGID_3_);}
	.st8{fill:url(#SVGID_4_);}
	.st9{fill:url(#SVGID_5_);}
</style>
<line class="st0" x1="0.5" y1="0" x2="0.5" y2="472"/>
<line class="st0" x1="94.1" y1="0" x2="94.1" y2="472"/>
<line class="st0" x1="187.7" y1="0" x2="187.7" y2="472"/>
<line class="st0" x1="281.3" y1="0" x2="281.3" y2="472"/>
<line class="st0" x1="374.9" y1="0" x2="374.9" y2="472"/>
<line class="st0" x1="468.5" y1="0" x2="468.5" y2="472"/>
<linearGradient id="SVGID_1_" gradientUnits="userSpaceOnUse" x1="0" y1="143" x2="468" y2="143">
	<stop  offset="0" style="stop-color:#E2B80C;stop-opacity:0"/>
	<stop  offset="1" style="stop-color:#F0C807"/>
</linearGradient>
<path class="st1" d="M0,119h444c13.3,0,24,10.7,24,24l0,0c0,13.3-10.7,24-24,24H0V119z"/>
<path class="st2" d="M444.8,128.8l11.3,11.3c1.6,1.6,1.6,4.1,0,5.7l-11.3,11.3c-1.6,1.6-4.1,1.6-5.7,0l-11.3-11.3
	c-1.6-1.6-1.6-4.1,0-5.7l11.3-11.3C440.7,127.3,443.3,127.3,444.8,128.8z"/>
<path class="st3" d="M17.2,148v-9.7h1.9l2.7,8.2l2.7-8.2h1.9v9.7h-1.1v-8.5h-0.2l-2.8,8.2h-1.2l-2.8-8.2h-0.2v8.5H17.2z M29.3,148
	v-7h1v7H29.3z M29.3,139.4v-1.2h1v1.2H29.3z M33,148v-10.1h1V148H33z M41.5,147.1l0.4,0l0,0.8c-1.1,0.1-2,0.2-2.7,0.2
	c-1,0-1.7-0.3-2.1-0.9c-0.4-0.6-0.6-1.5-0.6-2.7c0-2.5,1-3.7,2.9-3.7c0.9,0,1.6,0.3,2.1,0.8c0.5,0.5,0.7,1.3,0.7,2.5l-0.1,0.8h-4.6
	c0,0.8,0.1,1.3,0.4,1.7s0.8,0.6,1.5,0.6C40.1,147.2,40.8,147.2,41.5,147.1z M41.1,144.1c0-0.9-0.1-1.5-0.4-1.8
	c-0.3-0.4-0.7-0.5-1.3-0.5c-0.6,0-1.1,0.2-1.4,0.6c-0.3,0.4-0.5,1-0.5,1.8H41.1z M46.6,141.8c-1,0-1.5,0.4-1.5,1.1
	c0,0.3,0.1,0.6,0.3,0.7c0.2,0.1,0.8,0.3,1.6,0.4c0.8,0.1,1.4,0.3,1.8,0.6s0.5,0.8,0.5,1.5s-0.2,1.2-0.7,1.6c-0.5,0.3-1.1,0.5-2,0.5
	c-0.6,0-1.3-0.1-2-0.2l-0.4-0.1l0.1-0.9c1.1,0.2,1.9,0.2,2.4,0.2c0.5,0,1-0.1,1.2-0.3c0.3-0.2,0.4-0.5,0.4-0.9
	c0-0.4-0.1-0.7-0.4-0.8c-0.2-0.1-0.8-0.3-1.6-0.4s-1.4-0.3-1.8-0.6c-0.3-0.3-0.5-0.7-0.5-1.4s0.2-1.2,0.7-1.5
	c0.5-0.3,1.1-0.5,1.8-0.5c0.6,0,1.3,0.1,2.1,0.2l0.4,0.1l0,0.9C48,141.9,47.2,141.8,46.6,141.8z M55.1,141.9h-2.2v3.3
	c0,0.8,0.1,1.3,0.2,1.6c0.1,0.3,0.4,0.4,0.8,0.4l1.2-0.1l0.1,0.9c-0.6,0.1-1.1,0.2-1.4,0.2c-0.7,0-1.2-0.2-1.5-0.5
	c-0.3-0.4-0.4-1-0.4-2v-3.7h-1V141h1v-2.1h1v2.1h2.2V141.9z M56.6,144.5c0-1.3,0.2-2.2,0.7-2.8c0.5-0.6,1.2-0.9,2.3-0.9
	c1.1,0,1.9,0.3,2.3,0.9c0.5,0.6,0.7,1.5,0.7,2.8c0,1.3-0.2,2.2-0.6,2.8c-0.4,0.6-1.2,0.9-2.4,0.9c-1.1,0-1.9-0.3-2.4-0.9
	C56.8,146.7,56.6,145.8,56.6,144.5z M57.7,144.5c0,1,0.1,1.7,0.4,2.1c0.3,0.4,0.8,0.6,1.6,0.6c0.8,0,1.3-0.2,1.6-0.6
	c0.2-0.4,0.4-1.1,0.4-2.2s-0.1-1.7-0.4-2.1c-0.3-0.4-0.8-0.6-1.5-0.6c-0.7,0-1.2,0.2-1.5,0.6C57.8,142.7,57.7,143.4,57.7,144.5z
	 M65.9,148h-1.1v-7h1v0.5c0.8-0.4,1.5-0.6,2.2-0.6c0.9,0,1.6,0.3,1.9,0.8c0.3,0.5,0.5,1.4,0.5,2.7v3.7h-1v-3.7c0-1-0.1-1.6-0.3-2
	c-0.2-0.4-0.6-0.5-1.2-0.5c-0.3,0-0.6,0-1,0.1c-0.3,0.1-0.6,0.2-0.8,0.3l-0.3,0.1V148z M77.7,147.1l0.4,0l0,0.8
	c-1.1,0.1-2,0.2-2.7,0.2c-1,0-1.7-0.3-2.1-0.9c-0.4-0.6-0.6-1.5-0.6-2.7c0-2.5,1-3.7,2.9-3.7c0.9,0,1.6,0.3,2.1,0.8
	c0.5,0.5,0.7,1.3,0.7,2.5l-0.1,0.8h-4.6c0,0.8,0.1,1.3,0.4,1.7s0.8,0.6,1.5,0.6C76.3,147.2,77,147.2,77.7,147.1z M77.3,144.1
	c0-0.9-0.1-1.5-0.4-1.8c-0.3-0.4-0.7-0.5-1.3-0.5c-0.6,0-1.1,0.2-1.4,0.6c-0.3,0.4-0.5,1-0.5,1.8H77.3z"/>
<linearGradient id="SVGID_2_" gradientUnits="userSpaceOnUse" x1="0" y1="195" x2="425" y2="195">
	<stop  offset="0" style="stop-color:#0E1D25;stop-opacity:0"/>
	<stop  offset="1" style="stop-color:#101A16"/>
</linearGradient>
<path class="st4" d="M0,171h401c13.3,0,24,10.7,24,24s-10.7,24-24,24H0V171z"/>
<path class="st3" d="M16.2,191.3v-1h7v1h-3v8.7h-1.1v-8.7H16.2z M28.6,195.1v3.6c0,0.3,0.3,0.6,0.8,0.6l0,0.8
	c-0.7,0-1.3-0.2-1.7-0.6c-0.8,0.4-1.7,0.6-2.5,0.6c-0.6,0-1.1-0.2-1.5-0.5c-0.3-0.4-0.5-0.9-0.5-1.6s0.2-1.2,0.5-1.5
	c0.3-0.3,0.9-0.5,1.6-0.6l2.2-0.2v-0.6c0-0.5-0.1-0.8-0.3-1c-0.2-0.2-0.5-0.3-0.8-0.3c-0.7,0-1.5,0-2.3,0.1l-0.4,0l0-0.8
	c1-0.2,1.9-0.3,2.7-0.3c0.8,0,1.4,0.2,1.7,0.5C28.5,193.8,28.6,194.3,28.6,195.1z M24.3,198c0,0.9,0.4,1.3,1.1,1.3
	c0.6,0,1.3-0.1,1.9-0.3l0.3-0.1v-2.3l-2.1,0.2c-0.4,0-0.7,0.2-0.9,0.4C24.4,197.3,24.3,197.6,24.3,198z M33.5,193.8
	c-1,0-1.5,0.4-1.5,1.1c0,0.3,0.1,0.6,0.4,0.7c0.2,0.1,0.8,0.3,1.6,0.4c0.8,0.1,1.4,0.3,1.8,0.6c0.3,0.3,0.5,0.8,0.5,1.5
	s-0.2,1.2-0.7,1.6c-0.5,0.3-1.1,0.5-2,0.5c-0.6,0-1.3-0.1-2-0.2l-0.4-0.1L31,199c1.1,0.2,1.9,0.2,2.4,0.2c0.5,0,1-0.1,1.2-0.3
	c0.3-0.2,0.4-0.5,0.4-0.9c0-0.4-0.1-0.7-0.4-0.8c-0.2-0.1-0.8-0.3-1.6-0.4c-0.8-0.1-1.4-0.3-1.8-0.6c-0.3-0.3-0.5-0.7-0.5-1.4
	s0.2-1.2,0.7-1.5c0.5-0.3,1.1-0.5,1.8-0.5c0.6,0,1.3,0.1,2.1,0.2l0.4,0.1l0,0.9C34.9,193.9,34.1,193.8,33.5,193.8z M39.4,200h-1
	v-10.1h1v5.9l1.1-0.1l2-2.8h1.2l-2.3,3.2l2.4,3.8h-1.2l-2.1-3.2l-1.1,0V200z M52.9,200h-3.5v-9.7h3.5c1.6,0,2.6,0.6,3.1,1.9
	c0.3,0.7,0.4,1.7,0.4,2.8c0,2.4-0.6,4-1.8,4.6C54.1,199.9,53.6,200,52.9,200z M55.3,195c0-1.9-0.4-3-1.2-3.5
	c-0.3-0.2-0.7-0.3-1.2-0.3h-2.4v7.8h2.4C54.5,199,55.3,197.7,55.3,195z"/>
<circle class="st5" cx="400" cy="195" r="16"/>
<path class="st6" d="M397,199.2l-4.2-4.2l-1.4,1.4l5.6,5.6l12-12l-1.4-1.4L397,199.2z"/>
<linearGradient id="SVGID_3_" gradientUnits="userSpaceOnUse" x1="0" y1="227" x2="378" y2="227" gradientTransform="matrix(1 0 0 -1 0 474)">
	<stop  offset="0" style="stop-color:#0E1D25;stop-opacity:0"/>
	<stop  offset="1" style="stop-color:#101A16"/>
</linearGradient>
<path class="st7" d="M0,223h354c13.3,0,24,10.7,24,24s-10.7,24-24,24H0V223z"/>
<path class="st3" d="M16.2,243.3v-1h7v1h-3v8.7h-1.1v-8.7H16.2z M28.6,247.1v3.6c0,0.3,0.3,0.6,0.8,0.6l0,0.8
	c-0.7,0-1.3-0.2-1.7-0.6c-0.8,0.4-1.7,0.6-2.5,0.6c-0.6,0-1.1-0.2-1.5-0.5c-0.3-0.4-0.5-0.9-0.5-1.6s0.2-1.2,0.5-1.5
	c0.3-0.3,0.9-0.5,1.6-0.6l2.2-0.2v-0.6c0-0.5-0.1-0.8-0.3-1c-0.2-0.2-0.5-0.3-0.8-0.3c-0.7,0-1.5,0-2.3,0.1l-0.4,0l0-0.8
	c1-0.2,1.9-0.3,2.7-0.3c0.8,0,1.4,0.2,1.7,0.5C28.5,245.8,28.6,246.3,28.6,247.1z M24.3,250c0,0.9,0.4,1.3,1.1,1.3
	c0.6,0,1.3-0.1,1.9-0.3l0.3-0.1v-2.3l-2.1,0.2c-0.4,0-0.7,0.2-0.9,0.4C24.4,249.3,24.3,249.6,24.3,250z M33.5,245.8
	c-1,0-1.5,0.4-1.5,1.1c0,0.3,0.1,0.6,0.4,0.7c0.2,0.1,0.8,0.3,1.6,0.4c0.8,0.1,1.4,0.3,1.8,0.6c0.3,0.3,0.5,0.8,0.5,1.5
	s-0.2,1.2-0.7,1.6c-0.5,0.3-1.1,0.5-2,0.5c-0.6,0-1.3-0.1-2-0.2l-0.4-0.1L31,251c1.1,0.2,1.9,0.2,2.4,0.2c0.5,0,1-0.1,1.2-0.3
	c0.3-0.2,0.4-0.5,0.4-0.9c0-0.4-0.1-0.7-0.4-0.8c-0.2-0.1-0.8-0.3-1.6-0.4c-0.8-0.1-1.4-0.3-1.8-0.6c-0.3-0.3-0.5-0.7-0.5-1.4
	s0.2-1.2,0.7-1.5c0.5-0.3,1.1-0.5,1.8-0.5c0.6,0,1.3,0.1,2.1,0.2l0.4,0.1l0,0.9C34.9,245.9,34.1,245.8,33.5,245.8z M39.4,252h-1
	v-10.1h1v5.9l1.1-0.1l2-2.8h1.2l-2.3,3.2l2.4,3.8h-1.2l-2.1-3.2l-1.1,0V252z M55.3,251.8c-1,0.2-1.8,0.3-2.6,0.3
	c-0.8,0-1.4-0.1-1.9-0.3c-0.5-0.2-0.8-0.5-1.1-1c-0.3-0.4-0.4-1-0.5-1.5c-0.1-0.6-0.1-1.3-0.1-2.2c0-0.9,0-1.6,0.1-2.2
	c0.1-0.6,0.3-1.1,0.5-1.6c0.3-0.4,0.6-0.8,1.1-1c0.5-0.2,1.1-0.3,1.8-0.3c0.7,0,1.6,0.1,2.6,0.3l0,0.9c-0.9-0.2-1.8-0.3-2.5-0.3
	c-1,0-1.7,0.3-2,0.9c-0.3,0.6-0.5,1.6-0.5,3.1c0,0.7,0,1.3,0.1,1.8c0.1,0.4,0.2,0.9,0.4,1.2c0.2,0.4,0.4,0.6,0.8,0.8
	c0.3,0.1,0.8,0.2,1.5,0.2c0.7,0,1.4-0.1,2.3-0.3L55.3,251.8z"/>
<circle class="st5" cx="353" cy="247" r="16"/>
<path class="st6" d="M350,251.2l-4.2-4.2l-1.4,1.4l5.6,5.6l12-12l-1.4-1.4L350,251.2z"/>
<linearGradient id="SVGID_4_" gradientUnits="userSpaceOnUse" x1="0" y1="175" x2="330" y2="175" gradientTransform="matrix(1 0 0 -1 0 474)">
	<stop  offset="0" style="stop-color:#0E1D25;stop-opacity:0"/>
	<stop  offset="1" style="stop-color:#101A16"/>
</linearGradient>
<path class="st8" d="M0,275h306c13.3,0,24,10.7,24,24s-10.7,24-24,24H0V275z"/>
<path class="st3" d="M16.2,295.3v-1h7v1h-3v8.7h-1.1v-8.7H16.2z M28.6,299.1v3.6c0,0.3,0.3,0.6,0.8,0.6l0,0.8
	c-0.7,0-1.3-0.2-1.7-0.6c-0.8,0.4-1.7,0.6-2.5,0.6c-0.6,0-1.1-0.2-1.5-0.5c-0.3-0.4-0.5-0.9-0.5-1.6s0.2-1.2,0.5-1.5
	c0.3-0.3,0.9-0.5,1.6-0.6l2.2-0.2v-0.6c0-0.5-0.1-0.8-0.3-1c-0.2-0.2-0.5-0.3-0.8-0.3c-0.7,0-1.5,0-2.3,0.1l-0.4,0l0-0.8
	c1-0.2,1.9-0.3,2.7-0.3c0.8,0,1.4,0.2,1.7,0.5C28.5,297.8,28.6,298.3,28.6,299.1z M24.3,302c0,0.9,0.4,1.3,1.1,1.3
	c0.6,0,1.3-0.1,1.9-0.3l0.3-0.1v-2.3l-2.1,0.2c-0.4,0-0.7,0.2-0.9,0.4C24.4,301.3,24.3,301.6,24.3,302z M33.5,297.8
	c-1,0-1.5,0.4-1.5,1.1c0,0.3,0.1,0.6,0.4,0.7c0.2,0.1,0.8,0.3,1.6,0.4c0.8,0.1,1.4,0.3,1.8,0.6c0.3,0.3,0.5,0.8,0.5,1.5
	c0,0.7-0.2,1.2-0.7,1.6c-0.5,0.3-1.1,0.5-2,0.5c-0.6,0-1.3-0.1-2-0.2l-0.4-0.1L31,303c1.1,0.2,1.9,0.2,2.4,0.2c0.5,0,1-0.1,1.2-0.3
	c0.3-0.2,0.4-0.5,0.4-0.9c0-0.4-0.1-0.7-0.4-0.8c-0.2-0.1-0.8-0.3-1.6-0.4c-0.8-0.1-1.4-0.3-1.8-0.6c-0.3-0.3-0.5-0.7-0.5-1.4
	s0.2-1.2,0.7-1.5c0.5-0.3,1.1-0.5,1.8-0.5c0.6,0,1.3,0.1,2.1,0.2l0.4,0.1l0,0.9C34.9,297.9,34.1,297.8,33.5,297.8z M39.4,304h-1
	v-10.1h1v5.9l1.1-0.1l2-2.8h1.2l-2.3,3.2l2.4,3.8h-1.2l-2.1-3.2l-1.1,0V304z M49.4,294.3h3.5c1,0,1.7,0.2,2.2,0.6
	c0.5,0.4,0.7,1,0.7,1.9c0,0.6-0.1,1.1-0.3,1.4c-0.2,0.3-0.5,0.6-0.9,0.8c1,0.4,1.5,1.1,1.5,2.3c0,1-0.3,1.7-0.8,2.1
	c-0.5,0.4-1.3,0.6-2.2,0.6h-3.7V294.3z M53,299.5h-2.5v3.5h2.6c0.6,0,1.1-0.1,1.4-0.4c0.3-0.3,0.5-0.7,0.5-1.4
	c0-0.4-0.1-0.7-0.2-0.9c-0.1-0.2-0.3-0.4-0.5-0.5C53.9,299.6,53.4,299.5,53,299.5z M52.9,295.3h-2.4v3.3H53c0.6,0,1-0.1,1.3-0.4
	c0.3-0.3,0.4-0.7,0.4-1.3c0-0.6-0.1-1-0.4-1.2C54,295.4,53.5,295.3,52.9,295.3z"/>
<circle class="st5" cx="305" cy="299" r="16"/>
<path class="st6" d="M302,303.2l-4.2-4.2l-1.4,1.4l5.6,5.6l12-12l-1.4-1.4L302,303.2z"/>
<linearGradient id="SVGID_5_" gradientUnits="userSpaceOnUse" x1="0" y1="123" x2="283" y2="123" gradientTransform="matrix(1 0 0 -1 0 474)">
	<stop  offset="0" style="stop-color:#0E1D25;stop-opacity:0"/>
	<stop  offset="1" style="stop-color:#101A16"/>
</linearGradient>
<path class="st9" d="M0,327h259c13.3,0,24,10.7,24,24s-10.7,24-24,24H0V327z"/>
<path class="st3" d="M16.2,347.3v-1h7v1h-3v8.7h-1.1v-8.7H16.2z M28.6,351.1v3.6c0,0.3,0.3,0.6,0.8,0.6l0,0.8
	c-0.7,0-1.3-0.2-1.7-0.6c-0.8,0.4-1.7,0.6-2.5,0.6c-0.6,0-1.1-0.2-1.5-0.5c-0.3-0.4-0.5-0.9-0.5-1.6s0.2-1.2,0.5-1.5
	c0.3-0.3,0.9-0.5,1.6-0.6l2.2-0.2v-0.6c0-0.5-0.1-0.8-0.3-1c-0.2-0.2-0.5-0.3-0.8-0.3c-0.7,0-1.5,0-2.3,0.1l-0.4,0l0-0.8
	c1-0.2,1.9-0.3,2.7-0.3c0.8,0,1.4,0.2,1.7,0.5C28.5,349.8,28.6,350.3,28.6,351.1z M24.3,354c0,0.9,0.4,1.3,1.1,1.3
	c0.6,0,1.3-0.1,1.9-0.3l0.3-0.1v-2.3l-2.1,0.2c-0.4,0-0.7,0.2-0.9,0.4C24.4,353.3,24.3,353.6,24.3,354z M33.5,349.8
	c-1,0-1.5,0.4-1.5,1.1c0,0.3,0.1,0.6,0.4,0.7c0.2,0.1,0.8,0.3,1.6,0.4c0.8,0.1,1.4,0.3,1.8,0.6c0.3,0.3,0.5,0.8,0.5,1.5
	c0,0.7-0.2,1.2-0.7,1.6c-0.5,0.3-1.1,0.5-2,0.5c-0.6,0-1.3-0.1-2-0.2l-0.4-0.1L31,355c1.1,0.2,1.9,0.2,2.4,0.2c0.5,0,1-0.1,1.2-0.3
	c0.3-0.2,0.4-0.5,0.4-0.9c0-0.4-0.1-0.7-0.4-0.8c-0.2-0.1-0.8-0.3-1.6-0.4c-0.8-0.1-1.4-0.3-1.8-0.6c-0.3-0.3-0.5-0.7-0.5-1.4
	s0.2-1.2,0.7-1.5c0.5-0.3,1.1-0.5,1.8-0.5c0.6,0,1.3,0.1,2.1,0.2l0.4,0.1l0,0.9C34.9,349.9,34.1,349.8,33.5,349.8z M39.4,356h-1
	v-10.1h1v5.9l1.1-0.1l2-2.8h1.2l-2.3,3.2l2.4,3.8h-1.2l-2.1-3.2l-1.1,0V356z M48.6,356l2.7-9.7h2.4l2.7,9.7h-1.1l-0.7-2.5h-4.1
	l-0.7,2.5H48.6z M52,347.2l-1.5,5.3h3.7l-1.5-5.3H52z"/>
<circle class="st5" cx="258" cy="351" r="16"/>
<path class="st6" d="M255,355.2l-4.2-4.2l-1.4,1.4l5.6,5.6l12-12l-1.4-1.4L255,355.2z"/>
</svg>
