<svg width="147" height="40" viewBox="0 0 147 40" fill="none" xmlns="http://www.w3.org/2000/svg">
<path d="M54.1863 30.5958H47.1055V10.1245H54.1863C57.3367 10.1245 59.4969 10.9194 60.637 12.5241C61.7772 14.1288 62.3772 16.6183 62.3772 20.0227C62.3922 21.4925 62.2872 22.9772 62.0322 24.4319C61.8222 25.5867 61.4171 26.6965 60.8171 27.7013C59.6919 29.636 57.4717 30.5958 54.1863 30.5958ZM58.9418 20.0077C58.9418 17.5332 58.6268 15.7485 58.0117 14.6537C57.3967 13.5589 56.1215 13.004 54.1863 13.004H50.4209V27.6563H54.1863C56.1665 27.6563 57.4717 26.9215 58.1318 25.4667C58.4618 24.7169 58.6718 23.922 58.7768 23.0972C58.8968 22.0924 58.9568 21.0425 58.9418 20.0077Z" fill="#E8E8E8"/>
<path d="M75.969 27.8963L76.8091 27.8063L76.8691 30.2209C74.6038 30.6708 72.5786 30.9108 70.8234 30.9108C68.6181 30.9108 67.0279 30.2959 66.0528 29.0811C65.0777 27.8663 64.5977 25.9167 64.5977 23.2471C64.5977 17.9531 66.7579 15.2986 71.0784 15.2986C75.2639 15.2986 77.3641 17.5782 77.3641 22.1523L77.1541 24.4769H67.883C67.898 25.7067 68.1681 26.6215 68.6931 27.1914C69.2182 27.7763 70.1783 28.0613 71.5885 28.0613C72.9986 28.0613 74.4688 28.0313 75.969 27.8963ZM74.1688 21.9874C74.1688 20.5176 73.9287 19.4828 73.4637 18.8979C72.9986 18.313 72.2035 18.0131 71.0934 18.0131C69.9833 18.0131 69.1582 18.328 68.6631 18.9429C68.1681 19.5578 67.898 20.5776 67.868 21.9874H74.1688Z" fill="#E8E8E8"/>
<path d="M78.3691 15.6435H81.7745L84.6399 27.8063H85.6L88.5853 15.6435H91.9007L88.0153 30.5808H82.2096L78.3691 15.6435Z" fill="#E8E8E8"/>
<path d="M93.9863 30.5958V9.43463H97.2417V30.5958H93.9863Z" fill="#E8E8E8"/>
<path d="M111.687 20.2477V27.0565C111.702 27.4914 111.822 27.8213 112.032 28.0313C112.242 28.2413 112.572 28.3762 113.007 28.4362L112.917 30.9258C111.207 30.9258 109.872 30.5508 108.942 29.816C107.441 30.5358 105.791 30.9108 104.141 30.9258C101.171 30.9258 99.6855 29.3361 99.6855 26.1716C99.6855 24.6569 100.091 23.5621 100.901 22.8872C101.711 22.2124 102.956 21.8074 104.621 21.6575L108.477 21.3275V20.2477C108.477 19.4529 108.297 18.883 107.952 18.568C107.606 18.2531 107.081 18.0881 106.406 18.0881C105.131 18.0881 103.541 18.1631 101.621 18.3281L100.661 18.388L100.541 16.0935C102.506 15.5985 104.516 15.3436 106.541 15.3136C108.372 15.3136 109.677 15.7035 110.487 16.4984C111.297 17.2932 111.687 18.538 111.687 20.2477ZM104.981 23.952C103.601 24.072 102.926 24.8219 102.926 26.1866C102.926 27.5664 103.541 28.2563 104.756 28.2563C105.836 28.2413 106.901 28.0913 107.921 27.7763L108.462 27.5964V23.6221L104.981 23.952Z" fill="#E8E8E8"/>
<path d="M118.408 30.5958H115.152V15.6435H118.378V16.5734C119.833 15.7335 121.213 15.3136 122.503 15.3136C124.498 15.3136 125.864 15.8835 126.584 17.0083C127.304 18.1331 127.679 19.9928 127.679 22.5873V30.5958H124.453V22.6773C124.453 21.0576 124.273 19.9178 123.928 19.2429C123.583 18.568 122.863 18.2231 121.798 18.2231C120.793 18.2231 119.788 18.433 118.873 18.823L118.423 19.0029L118.408 30.5958Z" fill="#E8E8E8"/>
<path d="M141.526 27.8963L142.366 27.8063L142.426 30.2209C140.16 30.6708 138.135 30.9108 136.38 30.9108C134.175 30.9108 132.585 30.2959 131.609 29.0811C130.649 27.8663 130.154 25.9167 130.154 23.2471C130.154 17.9531 132.315 15.2986 136.635 15.2986C140.821 15.2986 142.921 17.5782 142.921 22.1523L142.711 24.4769H133.44C133.455 25.7067 133.725 26.6215 134.25 27.1914C134.775 27.7613 135.735 28.0613 137.145 28.0613C138.585 28.0913 140.04 28.0313 141.526 27.8963ZM139.725 21.9874C139.725 20.5176 139.485 19.4828 139.02 18.8979C138.555 18.313 137.76 18.0131 136.65 18.0131C135.54 18.0131 134.715 18.328 134.22 18.9429C133.725 19.5578 133.455 20.5776 133.425 21.9874H139.725Z" fill="#E8E8E8"/>
<path d="M36.9207 18.5679L22.099 3.75055C21.4689 3.10567 20.4338 3.09067 19.7887 3.70556C19.1436 4.32045 19.1286 5.37026 19.7437 6.01514C19.7587 6.03014 19.7737 6.04514 19.7887 6.06013L33.3353 19.5877C33.6353 19.8876 33.6353 20.3675 33.3353 20.6675L21.6489 32.3054C21.2439 32.7103 20.5988 32.7103 20.2087 32.3054L6.8572 18.9728C6.22712 18.3429 5.192 18.3429 4.56193 18.9728C3.91686 19.6027 3.91686 20.6375 4.56193 21.2824L19.3386 36.0697C20.2388 36.9696 21.6789 36.9696 22.579 36.0697L36.9207 21.7323C37.8058 20.8475 37.8058 19.4377 36.9207 18.5679C36.9357 18.5679 36.9207 18.5679 36.9207 18.5679Z" fill="#1A6CD6"/>
<path d="M13.4727 14.0837L16.6681 10.8893L14.3578 8.59473L8.86719 14.0837H13.4727Z" fill="#9C1488"/>
<path d="M16.6681 17.2781L13.4727 14.0837H8.86719L14.3578 19.5727L16.6681 17.2781Z" fill="#710E63"/>
</svg>
