<svg width="124" height="44" viewBox="0 0 124 44" fill="none" xmlns="http://www.w3.org/2000/svg">
<path d="M0 27.6361V16.0004H9.31436V18.3218H2.32142V20.6432H6.96427V22.9933H2.32142V25.3147H9.31436V27.6361H0Z" fill="#809CBF"/>
<path d="M19.402 27.6361L14.7305 16.0003H17.2239L20.577 24.2829L23.8729 16.0003H26.3663L21.7234 27.6361H19.402Z" fill="#809CBF"/>
<path d="M32.4141 27.6361V16.0003H41.7284V18.3217H34.7355V20.6432H39.3783V22.9932H34.7355V25.3147H41.7284V27.6361H32.4141Z" fill="#809CBF"/>
<path d="M57.1175 22.5347L58.7797 27.6361H56.3436L54.8247 22.9932H50.755V27.6361H48.4336V16.0003H55.3979C55.8592 15.9941 56.3171 16.0796 56.7452 16.2518C57.1732 16.424 57.5627 16.6795 57.8913 17.0034C58.2227 17.3264 58.483 17.715 58.6557 18.1443C58.8285 18.5736 58.9097 19.0343 58.8943 19.4968C58.9094 20.1182 58.7512 20.7315 58.4374 21.2681C58.1235 21.8047 57.6665 22.2432 57.1175 22.5347V22.5347ZM50.755 20.6432H55.3979C55.5524 20.6448 55.7057 20.6152 55.8486 20.5561C55.9914 20.497 56.1208 20.4096 56.229 20.2992C56.3415 20.1926 56.4302 20.0635 56.4895 19.9203C56.5488 19.7771 56.5772 19.623 56.5729 19.4681C56.5729 19.3138 56.5425 19.161 56.4835 19.0184C56.4244 18.8759 56.3379 18.7464 56.2288 18.6372C56.1196 18.5281 55.9901 18.4416 55.8475 18.3825C55.705 18.3235 55.5522 18.2931 55.3979 18.2931H50.755V20.6432V20.6432Z" fill="#809CBF"/>
<path d="M65.8008 27.6361V16.0003H68.1222V25.3147H73.9401V27.6361H65.8008Z" fill="#809CBF"/>
<path d="M87.9284 25.3147H83.1423L82.1965 27.6361H79.7031L84.3746 16.0003H86.6961L91.3676 27.6361H88.8742L87.9284 25.3147ZM86.9827 22.9932L85.521 19.3535L84.0594 22.9932H86.9827V22.9932Z" fill="#809CBF"/>
<path d="M107.472 16.0003V27.6361H105.151L99.3331 19.898V27.6361H97.0117V16.0003H99.3331L105.151 23.7384V16.0003H107.472Z" fill="#809CBF"/>
<path d="M114.496 27.6361V16.0003H123.81V18.3217H116.818V20.6432H121.46V22.9932H116.818V25.3147H123.81V27.6361H114.496Z" fill="#809CBF"/>
</svg>
