<svg width="124" height="44" viewBox="0 0 124 44" fill="none" xmlns="http://www.w3.org/2000/svg">
<path fill-rule="evenodd" clip-rule="evenodd" d="M53 9.76567C53 4.38064 48.6205 0 43.2353 0H18.7665C18.7657 0 18.7651 0 18.7642 0C18.6003 0 18.4368 0.00442204 18.2732 0.012386C18.2434 0.01386 18.214 0.0170939 18.1842 0.0188539C18.051 0.0268179 17.9178 0.0359482 17.7848 0.0492142C17.7512 0.0527562 17.718 0.0574638 17.6843 0.0612918C17.5547 0.0757458 17.4253 0.091366 17.2962 0.110814C17.272 0.114356 17.2482 0.119064 17.224 0.122892C17.084 0.145002 16.9446 0.169752 16.8055 0.198044C16.7993 0.199232 16.7928 0.200706 16.7867 0.201872C14.9786 0.572638 13.2557 1.45559 11.8558 2.85549C10.4609 4.25066 9.57911 5.96649 9.20629 7.76778C9.20335 7.78224 9.19983 7.79638 9.19688 7.81081C9.17035 7.94198 9.14736 8.07371 9.12615 8.20574C9.12113 8.23726 9.11493 8.26822 9.11022 8.29974C9.09196 8.42175 9.07722 8.54407 9.06367 8.66668C9.05894 8.70705 9.05304 8.74654 9.04921 8.78691C9.03654 8.91334 9.02801 9.03978 9.02033 9.1665C9.01797 9.20247 9.01443 9.23782 9.01239 9.27408C9.00442 9.43705 9 9.60032 9 9.7636C9 9.76448 9 9.76507 9 9.76567C9 9.76595 9 9.76626 9 9.76626C9 9.76655 9 9.76683 9 9.76714V34.2353C9 39.6205 13.3812 44 18.7665 44C24.1516 44 28.5323 39.6205 28.5323 34.2353V33.3436L29.1579 33.9693C32.9659 37.7773 39.1605 37.7762 42.9684 33.9682C46.7762 30.1605 46.7771 23.9661 42.9691 20.1582L42.3434 19.5323H43.2353C48.6205 19.5323 53 15.151 53 9.76567ZM18.7679 17.0238C16.7102 17.0238 14.8517 16.1621 13.5296 14.7823C13.4277 14.6759 13.3295 14.5671 13.2349 14.4563C13.1657 14.3747 13.0982 14.291 13.0325 14.2064C12.9488 14.0985 12.868 13.9892 12.7911 13.8781C12.7316 13.7917 12.6744 13.7039 12.6184 13.6149C12.5371 13.4852 12.4584 13.3544 12.3859 13.2209C12.3481 13.1513 12.3131 13.0803 12.2774 13.0093C12.2043 12.8631 12.1345 12.7157 12.072 12.566C12.0469 12.5068 12.0245 12.4466 12.0013 12.3871C11.937 12.2206 11.8769 12.0529 11.8253 11.8831C11.8112 11.8372 11.7988 11.7906 11.7858 11.744C11.7337 11.5601 11.6874 11.3748 11.6503 11.1879C11.6429 11.1511 11.637 11.1133 11.6302 11.0762C11.5945 10.8811 11.5651 10.6854 11.5456 10.4886C11.5421 10.4541 11.5406 10.4193 11.5377 10.3845C11.5218 10.1974 11.5123 10.0099 11.5108 9.82249C11.5108 9.80335 11.5094 9.78479 11.5094 9.76562C11.5094 9.74087 11.5111 9.71641 11.5111 9.69164C11.5129 9.51423 11.5221 9.33711 11.5365 9.16027C11.5403 9.11519 11.5424 9.07009 11.5468 9.0253C11.5651 8.84583 11.5925 8.66692 11.624 8.48892C11.6346 8.42998 11.6438 8.37074 11.6558 8.31239C11.688 8.15265 11.7284 7.99469 11.7717 7.83702C11.797 7.74506 11.8232 7.65369 11.8521 7.56323C11.8895 7.44445 11.9317 7.32686 11.9756 7.20955C12.0396 7.0404 12.11 6.87419 12.1858 6.71119C12.2025 6.67555 12.2185 6.63929 12.2356 6.60392C12.9491 5.13654 14.1421 3.94412 15.6103 3.23209C15.6351 3.22001 15.6598 3.2091 15.6849 3.19761C15.8588 3.11538 16.0368 3.04022 16.218 2.97187C16.3212 2.93326 16.4252 2.89672 16.5298 2.8631C16.6347 2.82891 16.7406 2.79767 16.8472 2.76822C16.9999 2.72666 17.1532 2.68745 17.3079 2.65593C17.3716 2.64297 17.4361 2.63294 17.5003 2.62145C17.6689 2.59197 17.8378 2.56604 18.0075 2.54835C18.0623 2.54276 18.1178 2.5395 18.1729 2.5348C18.3414 2.52124 18.51 2.51269 18.6792 2.51093C18.7087 2.51033 18.7378 2.50857 18.7673 2.50857C18.7903 2.50857 18.813 2.51005 18.836 2.51033C19.0163 2.51211 19.1967 2.52096 19.3765 2.53598C19.4154 2.53922 19.4549 2.54098 19.4938 2.54511C19.6868 2.56428 19.8793 2.59316 20.0705 2.62792C20.1112 2.63529 20.1525 2.64178 20.1929 2.65003C20.3767 2.68657 20.5589 2.73227 20.7398 2.78324C20.7893 2.7971 20.8389 2.81037 20.8878 2.82539C21.0552 2.87637 21.2205 2.93531 21.3844 2.99869C21.4463 3.02284 21.5085 3.04612 21.5697 3.07177C21.7177 3.13366 21.863 3.20263 22.0074 3.27452C22.0802 3.31137 22.1536 3.34763 22.2252 3.38653C22.3566 3.45785 22.4857 3.53564 22.6133 3.61552C22.705 3.67327 22.7955 3.73223 22.8845 3.79381C22.9932 3.86896 23.1002 3.94797 23.206 4.02989C23.2918 4.09649 23.3761 4.16486 23.4589 4.235C23.5694 4.32903 23.6775 4.42658 23.7834 4.52824C25.1635 5.85033 26.0255 7.70911 26.0255 9.7671V17.0238H18.7679ZM26.0238 19.5323V27.2892L18.2533 19.5186C18.4231 19.5276 18.594 19.5323 18.7661 19.5323H26.0238ZM28.5186 9.25346L36.289 17.0239H28.532V9.76714C28.532 9.59473 28.5274 9.4235 28.5186 9.25346ZM26.0258 34.2353C26.0258 38.2369 22.7695 41.4927 18.7676 41.4927C14.7654 41.4927 11.5094 38.2369 11.5094 34.2353V16.3015C11.6217 16.4259 11.7375 16.5479 11.8574 16.6679L26.0258 30.8363V34.2353ZM41.1952 21.9311C44.0249 24.7608 44.0247 29.3654 41.1948 32.1952C38.3649 35.0251 33.7603 35.0253 30.9307 32.1959L28.5314 29.7966V19.5323H38.7966L41.1952 21.9311ZM25.6677 2.85644C25.5475 2.73649 25.4249 2.62007 25.3002 2.50749H43.2353C47.2369 2.50749 50.4927 5.7638 50.4927 9.76573C50.4927 13.768 47.2369 17.024 43.2353 17.024H39.8352L25.6677 2.85644Z" fill="#809CBF"/>
<path d="M66.9489 13.84H75.8489V15.64H68.8689V20.08H75.3689V21.88H68.8689V28H66.9489V13.84ZM79.3333 23.92C79.3333 24.3333 79.4199 24.7133 79.5933 25.06C79.7799 25.3933 80.0199 25.68 80.3133 25.92C80.6066 26.16 80.9466 26.3467 81.3333 26.48C81.7199 26.6133 82.1199 26.68 82.5333 26.68C83.0933 26.68 83.5799 26.5533 83.9933 26.3C84.4066 26.0333 84.7866 25.6867 85.1333 25.26L86.4933 26.3C85.4933 27.5933 84.0933 28.24 82.2933 28.24C81.5466 28.24 80.8666 28.1133 80.2533 27.86C79.6533 27.6067 79.1399 27.26 78.7133 26.82C78.2999 26.3667 77.9799 25.84 77.7533 25.24C77.5266 24.6267 77.4133 23.9667 77.4133 23.26C77.4133 22.5533 77.5333 21.9 77.7733 21.3C78.0266 20.6867 78.3666 20.16 78.7933 19.72C79.2333 19.2667 79.7533 18.9133 80.3533 18.66C80.9533 18.4067 81.6066 18.28 82.3133 18.28C83.1533 18.28 83.8599 18.4267 84.4333 18.72C85.0199 19.0133 85.4999 19.4 85.8733 19.88C86.2466 20.3467 86.5133 20.88 86.6733 21.48C86.8466 22.0667 86.9333 22.6667 86.9333 23.28V23.92H79.3333ZM85.0133 22.48C84.9999 22.08 84.9333 21.7133 84.8133 21.38C84.7066 21.0467 84.5399 20.76 84.3133 20.52C84.0866 20.2667 83.7999 20.0733 83.4533 19.94C83.1199 19.7933 82.7266 19.72 82.2733 19.72C81.8333 19.72 81.4266 19.8067 81.0533 19.98C80.6933 20.14 80.3866 20.3533 80.1333 20.62C79.8799 20.8867 79.6799 21.1867 79.5333 21.52C79.3999 21.84 79.3333 22.16 79.3333 22.48H85.0133ZM90.4466 23.92C90.4466 24.3333 90.5332 24.7133 90.7066 25.06C90.8932 25.3933 91.1332 25.68 91.4266 25.92C91.7199 26.16 92.0599 26.3467 92.4466 26.48C92.8332 26.6133 93.2332 26.68 93.6466 26.68C94.2066 26.68 94.6932 26.5533 95.1066 26.3C95.5199 26.0333 95.8999 25.6867 96.2466 25.26L97.6066 26.3C96.6066 27.5933 95.2066 28.24 93.4066 28.24C92.6599 28.24 91.9799 28.1133 91.3666 27.86C90.7666 27.6067 90.2532 27.26 89.8266 26.82C89.4132 26.3667 89.0932 25.84 88.8666 25.24C88.6399 24.6267 88.5266 23.9667 88.5266 23.26C88.5266 22.5533 88.6466 21.9 88.8866 21.3C89.1399 20.6867 89.4799 20.16 89.9066 19.72C90.3466 19.2667 90.8666 18.9133 91.4666 18.66C92.0666 18.4067 92.7199 18.28 93.4266 18.28C94.2666 18.28 94.9732 18.4267 95.5466 18.72C96.1332 19.0133 96.6132 19.4 96.9866 19.88C97.3599 20.3467 97.6266 20.88 97.7866 21.48C97.9599 22.0667 98.0466 22.6667 98.0466 23.28V23.92H90.4466ZM96.1266 22.48C96.1132 22.08 96.0466 21.7133 95.9266 21.38C95.8199 21.0467 95.6532 20.76 95.4266 20.52C95.1999 20.2667 94.9132 20.0733 94.5666 19.94C94.2332 19.7933 93.8399 19.72 93.3866 19.72C92.9466 19.72 92.5399 19.8067 92.1666 19.98C91.8066 20.14 91.4999 20.3533 91.2466 20.62C90.9932 20.8867 90.7932 21.1867 90.6466 21.52C90.5132 21.84 90.4466 22.16 90.4466 22.48H96.1266ZM100.34 12.88H102.14V28H100.34V12.88ZM114.505 28H112.705V26.64H112.665C112.318 27.1467 111.838 27.54 111.225 27.82C110.625 28.1 110.005 28.24 109.365 28.24C108.631 28.24 107.965 28.1133 107.365 27.86C106.778 27.6067 106.271 27.2533 105.845 26.8C105.431 26.3467 105.111 25.82 104.885 25.22C104.658 24.62 104.545 23.9667 104.545 23.26C104.545 22.5533 104.658 21.9 104.885 21.3C105.111 20.6867 105.431 20.16 105.845 19.72C106.271 19.2667 106.778 18.9133 107.365 18.66C107.965 18.4067 108.631 18.28 109.365 18.28C110.045 18.28 110.685 18.4267 111.285 18.72C111.885 19 112.345 19.3867 112.665 19.88H112.705V12.88H114.505V28ZM109.585 26.56C110.065 26.56 110.498 26.48 110.885 26.32C111.271 26.1467 111.598 25.92 111.865 25.64C112.131 25.3467 112.338 25 112.485 24.6C112.631 24.1867 112.705 23.74 112.705 23.26C112.705 22.78 112.631 22.34 112.485 21.94C112.338 21.5267 112.131 21.18 111.865 20.9C111.598 20.6067 111.271 20.38 110.885 20.22C110.498 20.0467 110.065 19.96 109.585 19.96C109.105 19.96 108.671 20.0467 108.285 20.22C107.898 20.38 107.571 20.6067 107.305 20.9C107.038 21.18 106.831 21.5267 106.685 21.94C106.538 22.34 106.465 22.78 106.465 23.26C106.465 23.74 106.538 24.1867 106.685 24.6C106.831 25 107.038 25.3467 107.305 25.64C107.571 25.92 107.898 26.1467 108.285 26.32C108.671 26.48 109.105 26.56 109.585 26.56Z" fill="#809CBF"/>
</svg>
