<?xml version="1.0" encoding="utf-8"?>
<!-- Generator: Adobe Illustrator 22.0.1, SVG Export Plug-In . SVG Version: 6.00 Build 0)  -->
<svg version="1.1" id="Layer_1" xmlns="http://www.w3.org/2000/svg" xmlns:xlink="http://www.w3.org/1999/xlink" x="0px" y="0px"
	 viewBox="0 0 473 466" style="enable-background:new 0 0 473 466;" xml:space="preserve">
<style type="text/css">
	.st0{fill:url(#SVGID_1_);}
	.st1{fill:url(#SVGID_2_);}
	.st2{fill:url(#SVGID_3_);stroke:#25312B;stroke-miterlimit:10;}
	.st3{fill:#EAFFEC;}
	.st4{fill:url(#SVGID_4_);}
	.st5{fill:url(#SVGID_5_);}
	.st6{fill:url(#SVGID_6_);}
	.st7{fill:url(#SVGID_7_);}
	.st8{fill:#25312B;}
</style>
<linearGradient id="SVGID_1_" gradientUnits="userSpaceOnUse" x1="118.45" y1="407.4009" x2="118.45" y2="60.8436" gradientTransform="matrix(1 0 0 -1 0 468)">
	<stop  offset="0" style="stop-color:#F0C807"/>
	<stop  offset="1" style="stop-color:#131E19;stop-opacity:0.8"/>
</linearGradient>
<path class="st0" d="M112.8,233.7c3.1-3.1,8.2-3.1,11.3,0l106.6,106.6c3.1,3.1,3.1,8.2,0,11.3l0,0L124.1,458.3
	c-3.1,3.1-8.2,3.1-11.3,0L6.2,351.7c-3.1-3.1-3.1-8.2,0-11.3l0,0L112.8,233.7L112.8,233.7z"/>
<linearGradient id="SVGID_2_" gradientUnits="userSpaceOnUse" x1="354.55" y1="407.4009" x2="354.55" y2="60.8436" gradientTransform="matrix(1 0 0 -1 0 468)">
	<stop  offset="0" style="stop-color:#F0C807"/>
	<stop  offset="1" style="stop-color:#131E19;stop-opacity:0.8"/>
</linearGradient>
<path class="st1" d="M348.9,233.7c3.1-3.1,8.2-3.1,11.3,0l0,0l106.6,106.6c3.1,3.1,3.1,8.2,0,11.3l0,0L360.2,458.3
	c-3.1,3.1-8.2,3.1-11.3,0l0,0L242.3,351.7c-3.1-3.1-3.1-8.2,0-11.3l0,0L348.9,233.7z"/>
<linearGradient id="SVGID_3_" gradientUnits="userSpaceOnUse" x1="236.95" y1="287" x2="236.95" y2="-67.3614" gradientTransform="matrix(1 0 0 -1 0 468)">
	<stop  offset="0" style="stop-color:#000000"/>
	<stop  offset="1" style="stop-color:#F0C807"/>
</linearGradient>
<path class="st2" d="M231.3,118.7c3.1-3.1,8.2-3.1,11.3,0l0,0l106.6,106.6c3.1,3.1,3.1,8.2,0,11.3l0,0L242.6,343.3
	c-3.1,3.1-8.2,3.1-11.3,0l0,0L124.7,236.7c-3.1-3.1-3.1-8.2,0-11.3l0,0C124.7,225.3,231.3,118.7,231.3,118.7z"/>
<path class="st3" d="M237,119c-1.1,0-2-0.9-2-2V2c0-1.1,0.9-2,2-2s2,0.9,2,2v115C239,118.1,238.1,119,237,119z"/>
<linearGradient id="SVGID_4_" gradientUnits="userSpaceOnUse" x1="245.3189" y1="435.3893" x2="424.6522" y2="418.0558" gradientTransform="matrix(1 0 0 -1 0 468)">
	<stop  offset="0" style="stop-color:#25312B"/>
	<stop  offset="1" style="stop-color:#F0C808"/>
</linearGradient>
<path class="st4" d="M297.5,31.5L239,2v60L297.5,31.5L297.5,31.5z"/>
<linearGradient id="SVGID_5_" gradientUnits="userSpaceOnUse" x1="236.95" y1="314.4056" x2="236.95" y2="90.6703" gradientTransform="matrix(1 0 0 -1 0 468)">
	<stop  offset="0" style="stop-color:#F0C807"/>
	<stop  offset="1" style="stop-color:#131E19;stop-opacity:0.8"/>
</linearGradient>
<path class="st5" d="M231.3,233.7c3.1-3.1,8.2-3.1,11.3,0l0,0l106.6,106.6c3.1,3.1,3.1,8.2,0,11.3l0,0L242.6,458.3
	c-3.1,3.1-8.2,3.1-11.3,0l0,0L124.7,351.7c-3.1-3.1-3.1-8.2,0-11.3l0,0L231.3,233.7L231.3,233.7z"/>
<linearGradient id="SVGID_6_" gradientUnits="userSpaceOnUse" x1="234.001" y1="950.5" x2="233.999" y2="965" gradientTransform="matrix(1 0 0 1 0 -612)">
	<stop  offset="0" style="stop-color:#1A6CD6"/>
	<stop  offset="1" style="stop-color:#104589"/>
</linearGradient>
<path class="st6" d="M240,346c0,3.3-2.7,6-6,6s-6-2.7-6-6s2.7-6,6-6S240,342.7,240,346z"/>
<linearGradient id="SVGID_7_" gradientUnits="userSpaceOnUse" x1="180.001" y1="892.5" x2="179.999" y2="907" gradientTransform="matrix(1 0 0 1 0 -612)">
	<stop  offset="0" style="stop-color:#1A6CD6"/>
	<stop  offset="1" style="stop-color:#104589"/>
</linearGradient>
<path class="st7" d="M186,288c0,3.3-2.7,6-6,6s-6-2.7-6-6s2.7-6,6-6S186,284.7,186,288z"/>
<path class="st3" d="M246.4,120.3c-0.8-0.8-2-0.8-2.8,0s-0.8,2,0,2.8l0,0l2.8,2.8c0.8,0.8,2,0.8,2.8,0s0.8-2,0-2.8l0,0L246.4,120.3z
	 M260.2,134.1c-0.8-0.8-2-0.8-2.8,0s-0.8,2,0,2.8l0,0l5.5,5.5c0.8,0.8,2,0.8,2.8,0s0.8-2,0-2.8l0,0L260.2,134.1z M276.7,150.6
	c-0.8-0.8-2-0.8-2.8,0s-0.8,2,0,2.8l0,0l5.5,5.5c0.8,0.8,2,0.8,2.8,0s0.8-2,0-2.8l0,0L276.7,150.6z M282.1,186.5
	c0.8-0.8,0.8-2,0-2.8s-2-0.8-2.8,0l0,0l-5.6,5.6c-0.8,0.8-0.8,2,0,2.8s2,0.8,2.8,0L282.1,186.5L282.1,186.5z M265.4,203.2
	c0.8-0.8,0.8-2,0-2.8s-2-0.8-2.8,0L257,206c-0.8,0.8-0.8,2,0,2.8s2,0.8,2.8,0l0,0L265.4,203.2L265.4,203.2z M248.7,219.9
	c0.8-0.8,0.8-2,0-2.8s-2-0.8-2.8,0l0,0l-5.6,5.6c-0.8,0.8-0.8,2,0,2.8s2,0.8,2.8,0l0,0L248.7,219.9L248.7,219.9z M232.1,236.5
	c0.8-0.8,0.8-2,0-2.8s-2-0.8-2.8,0l-5.6,5.6c-0.8,0.8-0.8,2,0,2.8s2,0.8,2.8,0L232.1,236.5L232.1,236.5z M215.4,253.2
	c0.8-0.8,0.8-2,0-2.8s-2-0.8-2.8,0l0,0L207,256c-0.8,0.8-0.8,2,0,2.8s2,0.8,2.8,0L215.4,253.2L215.4,253.2z M198.7,269.9
	c0.8-0.8,0.8-2,0-2.8s-2-0.8-2.8,0l-5.6,5.6c-0.8,0.8-0.8,2,0,2.8s2,0.8,2.8,0L198.7,269.9L198.7,269.9z M195.5,302.7
	c-0.8-0.8-2-0.8-2.8,0s-0.8,2,0,2.8l0,0l6.5,6.5c0.8,0.8,2,0.8,2.8,0s0.8-2,0-2.8L195.5,302.7z M215,322.1c-0.8-0.8-2-0.8-2.8,0
	s-0.8,2,0,2.8l6.5,6.5c0.8,0.8,2,0.8,2.8,0s0.8-2,0-2.8l0,0L215,322.1L215,322.1z M223.7,361.7c0.8-0.8,0.8-2,0-2.8s-2-0.8-2.8,0
	l-5.6,5.6c-0.8,0.8-0.8,2,0,2.8s2,0.8,2.8,0l0,0L223.7,361.7z M206.9,378.4c0.8-0.8,0.8-2,0-2.8s-2-0.8-2.8,0l0,0l-5.6,5.6
	c-0.8,0.8-0.8,2,0,2.8s2,0.8,2.8,0l0,0L206.9,378.4z M190.1,395.2c0.8-0.8,0.8-2,0-2.8s-2-0.8-2.8,0l-5.6,5.6c-0.8,0.8-0.8,2,0,2.8
	s2,0.8,2.8,0l0,0L190.1,395.2z M173.3,412c0.8-0.8,0.8-2,0-2.8s-2-0.8-2.8,0l0,0l-5.6,5.6c-0.8,0.8-0.8,2,0,2.8s2,0.8,2.8,0l0,0
	L173.3,412z M156.6,428.8c0.8-0.8,0.8-2,0-2.8s-2-0.8-2.8,0l0,0l-5.6,5.6c-0.8,0.8-0.8,2,0,2.8s2,0.8,2.8,0L156.6,428.8z
	 M139.8,445.6c0.8-0.8,0.8-2,0-2.8s-2-0.8-2.8,0l-5.6,5.6c-0.8,0.8-0.8,2,0,2.8s2,0.8,2.8,0l0,0L139.8,445.6z M123,462.4
	c0.8-0.8,0.8-2,0-2.8s-2-0.8-2.8,0l0,0l-2.8,2.8c-0.8,0.8-0.8,2,0,2.8s2,0.8,2.8,0l0,0L123,462.4z"/>
<path class="st3" d="M245,346c0,6.1-4.9,11-11,11s-11-4.9-11-11s4.9-11,11-11S245,339.9,245,346z M243,346c0,5-4,9-9,9s-9-4-9-9
	s4-9,9-9S243,341,243,346z M180,299c6.1,0,11-4.9,11-11s-4.9-11-11-11s-11,4.9-11,11S173.9,299,180,299z M180,297c5,0,9-4,9-9
	s-4-9-9-9l0,0c-5,0-9,4-9,9S175,297,180,297z M304,172c0,6.1-4.9,11-11,11s-11-4.9-11-11s4.9-11,11-11S304,165.9,304,172z M302,172
	c0,5-4,9-9,9s-9-4-9-9s4-9,9-9S302,167,302,172z"/>
<path class="st8" d="M299,172c0,3.3-2.7,6-6,6s-6-2.7-6-6s2.7-6,6-6S299,168.7,299,172z"/>
<image style="overflow:visible;" width="51" height="50" xlink:href="../../Logosss/favicon-white SG.png"  transform="matrix(0.4021 0 0 0.4021 249.047 20.947)">
</image>
</svg>
