<svg width="124" height="44" viewBox="0 0 124 44" fill="none" xmlns="http://www.w3.org/2000/svg">
<path d="M46.1133 22.229C45.7809 21.5837 45.3792 20.9766 44.9151 20.4184C43.9795 19.2808 42.9598 18.2207 41.9838 17.1202C40.7621 15.7437 38.201 12.8998 38.1538 12.8426C38.1067 12.7854 37.999 12.6844 37.9351 12.6844C37.8711 12.6844 37.8038 12.7349 37.7163 12.8426C37.6288 12.9503 35.1148 15.7471 33.8931 17.1202C32.9171 18.2207 31.8974 19.2808 30.9584 20.4184C30.4954 20.9766 30.0947 21.5838 29.7636 22.229C28.9218 23.8904 28.6015 25.7673 28.8448 27.6138C29.1069 30.4071 30.686 32.9077 33.0955 34.3449C36.0382 36.2787 39.8488 36.2787 42.7915 34.3449C45.203 32.9092 46.7837 30.4081 47.0455 27.6138C47.2864 25.7659 46.9613 23.8884 46.1133 22.229ZM43.3838 27.2773C43.3838 27.4153 43.3401 27.5465 43.3132 27.6778C42.7348 30.1855 40.5019 31.9621 37.9283 31.9621C35.3548 31.9621 33.1219 30.1855 32.5435 27.6778C32.5166 27.5465 32.4931 27.4153 32.4729 27.2773C32.2272 25.369 32.8936 23.7603 34.1186 22.3569C35.3436 20.9535 36.5418 19.6443 37.75 18.2847C37.7902 18.227 37.8547 18.191 37.925 18.1871C37.9755 18.1871 38.0293 18.2106 38.0966 18.2847C39.3048 19.6309 40.5366 20.9771 41.7314 22.3569C42.9261 23.7368 43.6362 25.3522 43.3906 27.2605L43.3838 27.2773Z" fill="#809CBF"/>
<path d="M37.9469 11.7083C35.8132 11.7083 33.6817 11.7083 31.5525 11.7083C30.6332 11.7311 29.8658 11.0118 29.8293 10.0929C29.7418 9.04286 30.2971 8.22504 31.1991 8.04667C31.3334 8.02125 31.4697 8.00774 31.6063 8.00629H44.2909C45.3477 8.00629 46.0612 8.75006 46.0679 9.84722C46.1065 10.3369 45.9346 10.8198 45.5955 11.175C45.2563 11.5303 44.7818 11.7242 44.2909 11.7083C42.1774 11.7083 40.0627 11.7083 37.9469 11.7083Z" fill="#809CBF"/>
<path d="M31.1638 35.1324C31.0763 35.0583 30.9787 34.9944 30.8945 34.9136C30.0489 34.057 29.2912 33.1179 28.6329 32.1101C28.5031 31.9071 28.2746 31.789 28.0339 31.8005C26.6136 31.8005 24.6684 31.7769 23.2313 31.6928C22.0231 31.6221 21.3264 31.0837 21.01 29.9158C20.9136 29.5388 20.8672 29.1506 20.8721 28.7615C20.8721 25.6495 20.8721 22.5353 20.8721 19.4188V9.91798C20.9135 9.3976 20.724 8.88533 20.3539 8.51717C19.9838 8.14901 19.4705 7.96222 18.9504 8.00638H16.3219C14.6122 8.00638 12.9564 8.00638 11.1289 8.00638C10.2766 7.99217 9.42478 8.05752 8.58459 8.20158C5.78786 8.71313 3.84932 10.2141 3.03487 13.0176C2.69387 14.3352 2.55318 15.6967 2.61755 17.0562C2.61755 17.6553 2.6714 17.6048 2.08243 17.6082H1.80646C1.09839 17.5578 0.439809 17.9737 0.180922 18.6346C-0.139319 19.3034 -0.0279498 20.0989 0.463624 20.6539C0.81371 21.0591 1.33253 21.2781 1.86704 21.2463C2.62765 21.2463 2.62765 21.2463 2.62765 22.017C2.62765 25.8873 2.62765 29.7588 2.62765 33.6313C2.6022 34.2975 2.94416 34.9239 3.51824 35.2628C4.09231 35.6016 4.80599 35.5983 5.37689 35.2541C5.94779 34.91 6.28393 34.2804 6.2523 33.6145C6.2523 29.641 6.2523 25.6652 6.2523 21.6872C6.2523 21.2463 6.2523 21.2463 6.67972 21.2463H9.83656C10.0786 21.2573 10.3204 21.2184 10.5467 21.1319C11.3606 20.8054 11.8271 19.946 11.6573 19.0856C11.502 18.2212 10.7416 17.5977 9.86348 17.6149C8.7697 17.6149 7.67591 17.6149 6.58212 17.6149C6.33643 17.6149 6.24557 17.5442 6.24557 17.2783C6.26239 16.8476 6.24557 16.4134 6.24557 15.9826C6.26939 15.3267 6.39894 14.6789 6.62923 14.0643C7.18454 12.6239 8.56776 11.7084 10.2875 11.7084C12.4078 11.6882 14.2588 11.7084 16.3219 11.7084H16.7224C17.2373 11.7084 17.2373 11.7084 17.2373 12.2267C17.2373 17.7641 17.2373 23.2981 17.2373 28.8288C17.2373 30.1043 17.2373 31.6053 17.7556 32.7799C18.2473 33.9946 19.3176 34.8801 20.6028 35.1357C21.4767 35.286 22.3614 35.3636 23.2481 35.3679C25.7386 35.4083 28.5656 35.4117 31.0595 35.4285C31.1571 35.4285 31.2715 35.4285 31.2984 35.3511C31.3253 35.2737 31.2412 35.1963 31.1638 35.1324Z" fill="#809CBF"/>
<path d="M77.4376 29.3504H77.414L73.8937 24.3729H71.3359V35.2704H74.3144L74.3178 28.9701H74.3413L76.7847 32.5578H78.1309L80.507 28.9264H80.5305L80.5271 35.2704H83.5124V24.3729H80.7998L77.4376 29.3504Z" fill="#809CBF"/>
<path d="M91.7221 24.1945C90.292 24.1484 88.8922 24.6138 87.7744 25.507C86.5405 26.6006 85.8582 28.1872 85.9132 29.8351C85.9132 31.7164 86.6099 33.241 87.8181 34.2304C88.9188 35.0869 90.2845 35.531 91.6784 35.4858C93.1102 35.5388 94.5123 35.0686 95.6227 34.1631C96.8108 33.1737 97.4637 31.6491 97.4637 29.8351C97.4637 28.0211 96.8579 26.6042 95.7574 25.5945C94.6348 24.6394 93.195 24.1398 91.7221 24.1945ZM91.6784 33.1636C90.0192 33.1636 89.0095 31.9082 89.0095 29.8452C89.0095 27.7821 89.9956 26.5167 91.6784 26.5167C93.3611 26.5167 94.3237 27.7956 94.3237 29.8586C94.3237 31.9217 93.3578 33.1636 91.6784 33.1636Z" fill="#809CBF"/>
<path d="M106.301 26.6143L107.038 24.3729H99.5938V35.2704H106.84V33.0289H102.555V30.8077H106.301V28.6773H102.555V26.6143H106.301Z" fill="#809CBF"/>
<path d="M117.259 24.3729L117.255 30.875H117.235L112.278 24.3729H109.363V35.2704H112.318L112.322 28.5663H112.345L117.481 35.2704H120.237V24.3729H117.259Z" fill="#809CBF"/>
<path d="M57.9612 32.0328C57.8372 31.8735 57.6856 31.7378 57.5135 31.6323C57.3438 31.5286 57.155 31.4599 56.9582 31.4303C57.3135 31.3496 57.6312 31.1516 57.8602 30.8683C58.1158 30.5433 58.246 30.1371 58.227 29.724C58.2248 29.4935 58.1803 29.2654 58.0958 29.0509C58.0051 28.8219 57.8675 28.6145 57.6919 28.4418C57.4988 28.2536 57.2699 28.1059 57.0188 28.0076C56.7128 27.8905 56.3872 27.8334 56.0596 27.8393H51.8359V35.267H56.1909C56.5179 35.2733 56.8432 35.2185 57.1501 35.1055C57.4029 35.0074 57.6322 34.8572 57.8232 34.6646C58.0032 34.4818 58.142 34.2626 58.2304 34.0218C58.321 33.775 58.3666 33.514 58.365 33.2511C58.3678 33.0219 58.3302 32.7941 58.2539 32.578C58.1841 32.3826 58.0854 32.1989 57.9612 32.0328ZM53.7543 29.4447H55.6188C55.7921 29.4391 55.9608 29.5006 56.0899 29.6163C56.2127 29.7295 56.2802 29.8904 56.275 30.0572C56.2828 30.2285 56.2152 30.3945 56.0899 30.5116C55.9608 30.6273 55.7921 30.6888 55.6188 30.6832H53.7543V29.4447ZM56.2246 33.4833C56.0755 33.6115 55.8824 33.6767 55.6861 33.665H53.7543V32.3188H55.6861C55.8868 32.3072 56.0836 32.3776 56.2313 32.514C56.3559 32.6401 56.4239 32.8114 56.4197 32.9886C56.4222 33.1715 56.3463 33.3466 56.2111 33.4698L56.2246 33.4833Z" fill="#809CBF"/>
<path d="M63.0914 30.5721L61.4726 27.8258H59.3086L62.1323 32.2683V35.2703H64.0506V32.2683L66.8642 27.8258H64.6867L63.0914 30.5721Z" fill="#809CBF"/>
<path d="M121.418 34.1328H122.397V34.328H122.03V35.2704H121.785V34.328H121.418V34.1328Z" fill="#809CBF"/>
<path d="M122.637 34.1328H122.909L123.222 34.8429L123.532 34.1328H123.808V35.2704H123.562V34.5703L123.31 35.166H123.135L122.879 34.5703V35.2704H122.637V34.1328Z" fill="#809CBF"/>
</svg>
