<svg width="124" height="44" viewBox="0 0 124 44" fill="none" xmlns="http://www.w3.org/2000/svg">
<path d="M28.093 8.82767C27.5229 8.26687 26.9198 7.74075 26.287 7.25213C26.1784 7.17052 26.0542 7.1123 25.9221 7.08114C25.79 7.04997 25.6529 7.04653 25.5194 7.07103C21.7873 7.68923 18.014 8.0252 14.2316 8.07612C10.4418 8.00842 6.6625 7.65428 2.92579 7.0167C2.79233 6.99165 2.65512 6.99481 2.52294 7.026C2.39077 7.05718 2.26654 7.1157 2.15822 7.1978C1.51775 7.70345 0.908587 8.24775 0.334118 8.82767C0.149312 8.98333 0.0299734 9.20326 0 9.4434L0 11.6528C0 11.6528 0 13.2102 0.0541814 14.1157C0.301625 20.3001 1.50179 26.4089 3.61209 32.2254C3.66746 32.3789 3.76065 32.516 3.883 32.6238C6.75461 35.132 11.2155 37.2055 14.2316 37.2055C17.2477 37.2055 21.6725 35.141 24.5622 32.6238C24.6846 32.516 24.7778 32.3789 24.8331 32.2254C26.9373 26.4079 28.1313 20.2992 28.373 14.1157C28.373 13.2102 28.4272 12.4134 28.4272 11.6618V9.45245C28.3994 9.20907 28.2798 8.98554 28.093 8.82767V8.82767ZM12.0824 25.887L12.0283 25.9775C10.8995 27.9877 9.07538 28.2412 7.02552 27.4263C4.97566 26.6114 3.26894 24.9272 3.98233 22.5729C4.6596 20.4541 7.95563 21.3143 9.48174 21.6674C11.6309 22.2017 13.2654 23.4784 12.1186 25.7783C12.1637 25.724 12.1818 25.7059 12.0824 25.887V25.887ZM24.4719 24.4201C23.9482 26.5661 21.808 27.6889 19.6949 27.9153C17.7534 28.1145 16.0377 26.2311 15.9654 24.2933V24.2118V24.1484C16.0287 21.8576 19.3969 21.432 21.0946 21.2781C23.3341 21.0607 25.095 21.8304 24.4719 24.4201Z" fill="#809CBF"/>
<path d="M69.7148 16.8231C69.7404 16.668 69.7312 16.5091 69.6879 16.358C69.6447 16.2068 69.5684 16.0672 69.4647 15.9493C69.3609 15.8314 69.2323 15.7382 69.0881 15.6763C68.944 15.6144 68.7879 15.5855 68.6312 15.5917C67.6454 15.6418 66.6677 15.7966 65.7144 16.0535C64.493 16.3699 63.3394 16.9069 62.31 17.6381C61.2055 18.4592 60.283 19.5014 59.6009 20.6986C59.1559 21.4699 58.8014 22.2903 58.5444 23.1434V22.4371C58.5442 21.9347 58.5141 21.4328 58.4541 20.934C58.3399 20.0069 58.1218 19.0957 57.8039 18.2176L57.1086 16.2979C57.0374 16.105 56.893 15.9482 56.7069 15.8617C56.5208 15.7751 56.3081 15.766 56.1153 15.8361L45.279 19.8022C45.0866 19.8735 44.9302 20.0183 44.8439 20.205C44.7576 20.3916 44.7485 20.6048 44.8185 20.7982L46.4168 25.1264C46.488 25.3193 46.6324 25.4762 46.8185 25.5627C47.0046 25.6492 47.2173 25.6584 47.4101 25.5882L52.2323 23.8316C51.9422 25.0511 51.2893 26.1534 50.3601 26.9924C49.4309 27.8314 48.2694 28.3674 47.0296 28.5293C45.7897 28.6912 44.53 28.4715 43.4175 27.8992C42.305 27.3268 41.3923 26.429 40.8003 25.3246C40.2084 24.2203 39.9651 22.9616 40.1028 21.7155C40.2405 20.4694 40.7527 19.2946 41.5715 18.347C42.3902 17.3995 43.4768 16.7238 44.6873 16.4096C45.8977 16.0954 47.1748 16.1575 48.3493 16.5877C48.5421 16.6579 48.7548 16.6487 48.9409 16.5622C49.127 16.4757 49.2714 16.3188 49.3426 16.1259L50.9319 11.7796C51.0019 11.5862 50.9928 11.373 50.9065 11.1863C50.8202 10.9997 50.6638 10.8549 50.4714 10.7836C49.1166 10.2909 47.6863 10.0397 46.2452 10.0411C43.9867 10.0353 41.7698 10.6501 39.8352 11.8186C37.9006 12.9871 36.3221 14.6647 35.2713 16.6693C34.2204 18.6739 33.7373 20.9288 33.8743 23.1893C34.0114 25.4498 34.7634 27.6294 36.0487 29.4916C37.334 31.3538 39.1035 32.8273 41.165 33.7522C43.2266 34.6771 45.5015 35.018 47.7426 34.738C49.9838 34.458 52.1056 33.5677 53.8778 32.1637C55.6499 30.7598 57.0047 28.8959 57.7949 26.7744L56.63 33.5836C56.6052 33.7349 56.6134 33.8898 56.6541 34.0376C56.6948 34.1854 56.767 34.3226 56.8657 34.4397C56.9645 34.5568 57.0874 34.651 57.226 34.7158C57.3646 34.7806 57.5156 34.8145 57.6685 34.8151H62.0301C62.2825 34.8134 62.526 34.7212 62.7165 34.5551C62.907 34.389 63.0319 34.16 63.0685 33.9096L64.5856 25.1264C64.6639 24.2938 65.0203 23.5121 65.597 22.908C66.2049 22.4385 66.9624 22.2067 67.7281 22.256H67.8997C68.1522 22.2544 68.3957 22.1622 68.5861 21.9961C68.7766 21.83 68.9015 21.601 68.9382 21.3505L69.7148 16.8231ZM77.3273 18.788L77.6614 16.9771C77.6806 16.8659 77.676 16.7519 77.648 16.6426C77.62 16.5334 77.5692 16.4313 77.4989 16.3432C77.4297 16.2559 77.3419 16.1854 77.2418 16.1368C77.1418 16.0882 77.0321 16.0628 76.9209 16.0625H72.5413C72.362 16.0646 72.1892 16.1304 72.0537 16.2481C71.9181 16.3657 71.8285 16.5278 71.8008 16.7054L69.2543 31.6821L68.9021 33.9096C68.8829 34.0208 68.8874 34.1347 68.9155 34.244C68.9435 34.3533 68.9943 34.4553 69.0646 34.5434C69.1338 34.6307 69.2216 34.7013 69.3217 34.7499C69.4217 34.7985 69.5314 34.8238 69.6426 34.8241H74.0042C74.1834 34.822 74.3562 34.7563 74.4918 34.6386C74.6273 34.5209 74.7169 34.3589 74.7446 34.1812L77.2912 19.2317C77.3134 19.0848 77.3255 18.9366 77.3273 18.788V18.788ZM123.535 15.9448C123.43 15.8274 123.3 15.7348 123.155 15.6737C123.009 15.6127 122.852 15.5847 122.695 15.5917C121.709 15.6419 120.732 15.7967 119.778 16.0535C118.576 16.3759 117.441 16.9126 116.428 17.6381C115.324 18.4592 114.401 19.5014 113.719 20.6986C113.285 21.4476 112.937 22.2435 112.681 23.071L114.685 11.4264C114.71 11.2751 114.702 11.1202 114.661 10.9724C114.621 10.8246 114.548 10.6874 114.45 10.5703C114.351 10.4533 114.228 10.359 114.089 10.2942C113.951 10.2294 113.8 10.1956 113.647 10.195H109.267C109.015 10.1966 108.771 10.2888 108.581 10.4549C108.39 10.621 108.265 10.85 108.229 11.1005L107.262 16.796C106.165 16.2966 104.973 16.0403 103.768 16.0444C101.694 16.101 99.6867 16.7947 98.0184 18.0319C96.3501 19.2692 95.1009 20.9902 94.4396 22.9623C94.7195 20.2459 94.1416 18.3262 92.7058 17.2849C91.1836 16.1987 89.3542 15.6306 87.4863 15.6641C85.5368 15.7664 83.6435 16.3546 81.9778 17.3755C80.1718 18.4802 78.9437 20.6352 78.3658 23.7772L76.65 33.8281C76.6308 33.9393 76.6354 34.0533 76.6634 34.1625C76.6914 34.2718 76.7423 34.3738 76.8126 34.4619C76.8817 34.5492 76.9696 34.6198 77.0696 34.6684C77.1697 34.717 77.2793 34.7423 77.3905 34.7426H81.7521C81.9314 34.7405 82.1041 34.6748 82.2397 34.5571C82.3752 34.4394 82.4648 34.2774 82.4926 34.0997L84.3618 23.1434C84.3891 22.8066 84.4829 22.4786 84.638 22.1785C84.793 21.8785 85.0061 21.6124 85.2648 21.3958C85.752 21.0286 86.3441 20.8286 86.9535 20.8254C87.472 20.8082 87.9769 20.9932 88.3622 21.3415C88.4796 21.4501 88.8228 21.7671 88.6331 22.8808L87.1431 31.6459V32.0171L86.818 33.9458C86.7988 34.057 86.8034 34.171 86.8314 34.2802C86.8594 34.3895 86.9103 34.4916 86.9806 34.5796C87.0497 34.6669 87.1376 34.7375 87.2376 34.7861C87.3377 34.8347 87.4474 34.8601 87.5585 34.8603H91.9201C92.0994 34.8582 92.2722 34.7925 92.4077 34.6748C92.5433 34.5571 92.6329 34.3951 92.6606 34.2175L93.9158 26.8197C94.0001 28.9759 94.9164 31.015 96.4715 32.5068C98.0265 33.9985 100.099 34.8261 102.251 34.8151C104.629 34.7318 106.903 33.8172 108.679 32.2297C110.455 30.6421 111.622 28.4816 111.976 26.1224L110.703 33.6108C110.677 33.7623 110.684 33.9178 110.724 34.0663C110.764 34.2148 110.836 34.3526 110.935 34.4701C111.034 34.5876 111.158 34.6818 111.297 34.7461C111.436 34.8104 111.588 34.8432 111.741 34.8422H116.103C116.356 34.8406 116.599 34.7484 116.789 34.5823C116.98 34.4162 117.105 34.1872 117.142 33.9368L118.659 25.1264C118.737 24.2938 119.093 23.5121 119.67 22.908C120.282 22.4396 121.043 22.211 121.81 22.2651H121.982C122.234 22.2634 122.478 22.1712 122.668 22.0051C122.859 21.839 122.984 21.61 123.02 21.3596L123.797 16.8322C123.823 16.674 123.813 16.512 123.768 16.3583C123.722 16.2046 123.643 16.0632 123.535 15.9448V15.9448ZM106.612 25.4162C106.531 26.418 106.084 27.3548 105.358 28.0478C104.632 28.7408 103.677 29.1417 102.675 29.1739C102.2 29.176 101.731 29.0769 101.297 28.8831C100.863 28.6894 100.476 28.4055 100.16 28.0502C99.8439 27.6949 99.6069 27.2763 99.4645 26.8222C99.3222 26.3681 99.2776 25.8888 99.3339 25.4162C99.4155 24.4143 99.8619 23.4776 100.588 22.7845C101.314 22.0915 102.269 21.6907 103.271 21.6584C103.746 21.6563 104.216 21.7554 104.649 21.9492C105.083 22.1429 105.47 22.4268 105.786 22.7821C106.102 23.1374 106.339 23.556 106.482 24.0101C106.624 24.4642 106.669 24.9435 106.612 25.4162V25.4162Z" fill="#809CBF"/>
</svg>
