<?xml version="1.0" encoding="utf-8"?>
<!-- Generator: Adobe Illustrator 22.0.1, SVG Export Plug-In . SVG Version: 6.00 Build 0)  -->
<svg version="1.1" id="Layer_1" xmlns="http://www.w3.org/2000/svg" xmlns:xlink="http://www.w3.org/1999/xlink" x="0px" y="0px"
	 viewBox="0 0 268 360" style="enable-background:new 0 0 268 360;" xml:space="preserve">
<style type="text/css">
	.st0{fill:none;stroke:#26302B;stroke-width:4;}
	.st1{fill:#101A16;}
	.st2{fill:#EBFFEB;}
	.st3{fill:#131E19;}
	.st4{fill:none;stroke:#F0C808;stroke-width:4;}
	.st5{clip-path:url(#SVGID_2_);}
</style>
<path d="M2,2h256c4.4,0,8,3.6,8,8v338c0,4.4-3.6,8-8,8H10c-4.4,0-8-3.6-8-8V2z"/>
<path class="st0" d="M70,2h188c4.4,0,8,3.1,8,7v342c0,3.9-3.6,7-8,7H10c-4.4,0-8-3.1-8-7V65.1"/>
<path class="st1" d="M28,20h212c4.4,0,8,3.6,8,8v76c0,4.4-3.6,8-8,8H28c-4.4,0-8-3.6-8-8V28C20,23.6,23.6,20,28,20z"/>
<path class="st2" d="M117.6,51c-1.7,0-2.5,0.6-2.5,1.8c0,0.6,0.2,1.1,0.6,1.3c0.4,0.3,1.3,0.6,2.6,1c1.4,0.4,2.3,0.8,2.9,1.4
	c0.6,0.5,0.8,1.3,0.8,2.5c0,1.4-0.4,2.5-1.2,3.2c-0.8,0.7-1.9,1.1-3.3,1.1c-1.1,0-2.4-0.1-3.8-0.4l-0.7-0.1l0.2-1.8
	c1.8,0.2,3.2,0.4,4.1,0.4c1.7,0,2.5-0.7,2.5-2.2c0-0.6-0.2-1-0.6-1.3c-0.4-0.3-1.2-0.6-2.5-0.9c-1.3-0.3-2.3-0.8-2.9-1.4
	s-1-1.5-1-2.7s0.4-2.2,1.2-2.8c0.8-0.6,1.9-1,3.4-1c1,0,2.2,0.1,3.6,0.4l0.7,0.1l-0.2,1.8C119.7,51.1,118.4,51,117.6,51z M125,63V53
	h2.2v1.2c1.1-0.7,2.3-1.2,3.4-1.4V55c-1.1,0.2-2.1,0.5-2.9,0.9l-0.4,0.2v7H125z M131.9,63v-2.9h2.3V63H131.9z M147.7,63H143V49.3
	h4.7c2.1,0,3.5,0.5,4.3,1.6c0.8,1.1,1.2,2.7,1.2,5c0,1.2-0.1,2.1-0.2,3c-0.1,0.8-0.4,1.5-0.8,2.2C151.4,62.4,149.9,63,147.7,63z
	 M150.9,55.9c0-1.7-0.2-2.8-0.6-3.6s-1.3-1.1-2.6-1.1h-2.5V61h2.5c1.3,0,2.2-0.5,2.6-1.5c0.2-0.5,0.4-1,0.4-1.6
	C150.9,57.4,150.9,56.7,150.9,55.9z M163.7,56.1v4.6c0,0.3,0.1,0.5,0.2,0.7c0.1,0.1,0.4,0.2,0.7,0.3l-0.1,1.7c-1.1,0-2-0.2-2.7-0.7
	c-1.1,0.5-2.1,0.7-3.2,0.7c-2,0-3-1.1-3-3.2c0-1,0.3-1.7,0.8-2.2c0.5-0.5,1.4-0.7,2.5-0.8l2.6-0.2v-0.7c0-0.5-0.1-0.9-0.4-1.1
	c-0.2-0.2-0.6-0.3-1-0.3c-0.9,0-1.9,0.1-3.2,0.2l-0.6,0l-0.1-1.5c1.5-0.3,2.8-0.5,4-0.5c1.2,0,2.1,0.3,2.6,0.8
	C163.5,54.1,163.7,54.9,163.7,56.1L163.7,56.1z M159.3,58.6c-0.9,0.1-1.4,0.6-1.4,1.5s0.4,1.4,1.2,1.4c0.7,0,1.4-0.1,2.1-0.3
	l0.4-0.1v-2.7L159.3,58.6L159.3,58.6z M172.7,54.9h-2.8v4.4c0,0.8,0.1,1.4,0.2,1.6s0.4,0.4,0.9,0.4l1.6-0.1l0.1,1.7
	c-0.9,0.2-1.6,0.3-2,0.3c-1.1,0-1.9-0.3-2.3-0.8c-0.4-0.5-0.6-1.5-0.6-2.9v-4.6h-1.3V53h1.3v-2.9h2.2V53h2.8L172.7,54.9L172.7,54.9z
	 M182.6,56.1v4.6c0,0.3,0.1,0.5,0.2,0.7c0.1,0.1,0.4,0.2,0.7,0.3l-0.1,1.7c-1.1,0-2-0.2-2.7-0.7c-1.1,0.5-2.1,0.7-3.2,0.7
	c-2,0-3-1.1-3-3.2c0-1,0.3-1.7,0.8-2.2c0.5-0.5,1.4-0.7,2.5-0.8l2.6-0.2v-0.7c0-0.5-0.1-0.9-0.4-1.1c-0.2-0.2-0.6-0.3-1-0.3
	c-0.9,0-1.9,0.1-3.2,0.2l-0.6,0l-0.1-1.5c1.5-0.3,2.8-0.5,4-0.5c1.2,0,2.1,0.3,2.6,0.8C182.4,54.1,182.6,54.9,182.6,56.1L182.6,56.1
	z M178.2,58.6c-0.9,0.1-1.4,0.6-1.4,1.5s0.4,1.4,1.2,1.4c0.7,0,1.4-0.1,2.1-0.3l0.4-0.1v-2.7L178.2,58.6L178.2,58.6z M113.6,87V73.3
	h8.6v1.9h-6.4v3.9h5.2V81h-5.2v4h6.4v2H113.6z M127.4,87h-2.2V77h2.2v0.6c1-0.6,1.9-0.8,2.8-0.8c1.3,0,2.2,0.4,2.7,1.1
	c0.5,0.7,0.7,2,0.7,3.7V87h-2.2v-5.3c0-1.1-0.1-1.8-0.4-2.3c-0.2-0.5-0.7-0.7-1.4-0.7c-0.7,0-1.3,0.1-2,0.4l-0.3,0.1V87z
	 M145.6,88.4c0,2.2-1.6,3.3-4.7,3.3c-1.5,0-2.6-0.2-3.4-0.6c-0.7-0.4-1.1-1.2-1.1-2.3c0-0.5,0.1-0.9,0.4-1.3
	c0.2-0.3,0.6-0.7,1.2-1.1c-0.4-0.3-0.7-0.8-0.7-1.5c0-0.3,0.2-0.7,0.5-1.3l0.2-0.3c-1-0.6-1.4-1.6-1.4-3c0-1.2,0.4-2.1,1.1-2.6
	s1.7-0.8,2.9-0.8c0.6,0,1.2,0.1,1.7,0.2l0.3,0.1l3.1-0.1v1.8l-1.7-0.1c0.4,0.5,0.5,1,0.5,1.6c0,1.3-0.3,2.2-1,2.7
	c-0.7,0.5-1.7,0.7-3.1,0.7c-0.3,0-0.6,0-0.9-0.1c-0.2,0.5-0.3,0.8-0.3,1.1c0,0.2,0.1,0.4,0.4,0.5c0.3,0.1,0.9,0.1,1.8,0.2
	c1.6,0,2.7,0.2,3.3,0.6C145.3,86.4,145.6,87.2,145.6,88.4L145.6,88.4z M138.6,88.6c0,0.5,0.2,0.8,0.6,1c0.4,0.2,1,0.3,1.9,0.3
	c1.6,0,2.4-0.5,2.4-1.4c0-0.5-0.1-0.9-0.4-1c-0.3-0.1-0.8-0.2-1.7-0.2l-2-0.1c-0.3,0.2-0.5,0.5-0.6,0.7
	C138.6,88,138.6,88.3,138.6,88.6z M138.7,80.3c0,0.6,0.1,1.1,0.4,1.4c0.3,0.3,0.8,0.4,1.4,0.4c0.7,0,1.1-0.1,1.4-0.4
	c0.3-0.3,0.4-0.7,0.4-1.4s-0.1-1.1-0.4-1.3c-0.3-0.3-0.8-0.4-1.4-0.4C139.3,78.5,138.7,79.1,138.7,80.3z M148.2,87V77h2.2v10H148.2z
	 M148.2,75.3V73h2.2v2.3H148.2z M156,87h-2.2V77h2.2v0.6c1-0.6,1.9-0.8,2.8-0.8c1.3,0,2.2,0.4,2.7,1.1c0.5,0.7,0.7,2,0.7,3.7V87H160
	v-5.3c0-1.1-0.1-1.8-0.4-2.3c-0.2-0.5-0.7-0.7-1.4-0.7c-0.7,0-1.3,0.1-2,0.4l-0.3,0.1V87z M172.7,85.2l0.6-0.1l0,1.6
	c-1.5,0.3-2.9,0.5-4,0.5c-1.5,0-2.5-0.4-3.2-1.2c-0.6-0.8-1-2.1-1-3.9c0-3.5,1.4-5.3,4.3-5.3c2.8,0,4.2,1.5,4.2,4.6l-0.1,1.6h-6.2
	c0,0.8,0.2,1.4,0.5,1.8c0.3,0.4,1,0.6,1.9,0.6C170.7,85.3,171.7,85.3,172.7,85.2L172.7,85.2z M171.5,81.2c0-1-0.2-1.7-0.5-2.1
	c-0.3-0.4-0.8-0.6-1.6-0.6c-0.7,0-1.3,0.2-1.6,0.6c-0.3,0.4-0.5,1.1-0.5,2C167.2,81.2,171.5,81.2,171.5,81.2z M183.6,85.2l0.6-0.1
	l0,1.6c-1.5,0.3-2.9,0.5-4,0.5c-1.5,0-2.5-0.4-3.2-1.2c-0.6-0.8-1-2.1-1-3.9c0-3.5,1.4-5.3,4.3-5.3c2.8,0,4.2,1.5,4.2,4.6l-0.1,1.6
	h-6.2c0,0.8,0.2,1.4,0.5,1.8s1,0.6,1.9,0.6S182.6,85.3,183.6,85.2L183.6,85.2z M182.4,81.2c0-1-0.2-1.7-0.5-2.1
	c-0.3-0.4-0.8-0.6-1.6-0.6c-0.7,0-1.3,0.2-1.6,0.6c-0.3,0.4-0.5,1.1-0.5,2C178.2,81.2,182.4,81.2,182.4,81.2z M187.5,87V77h2.2v1.2
	c1.1-0.7,2.3-1.2,3.4-1.4V79c-1.1,0.2-2.1,0.5-2.9,0.9l-0.4,0.2v7H187.5z"/>
<circle class="st2" cx="66" cy="66" r="30"/>
<path class="st1" d="M66.4,78h-7.6V56.1h7.6c3.4,0,5.7,0.9,6.9,2.6s1.9,4.4,1.9,8c0,1.9-0.1,3.4-0.4,4.7c-0.2,1.2-0.6,2.4-1.3,3.5
	C72.3,77,69.9,78,66.4,78z M71.4,66.7c0-2.6-0.3-4.6-1-5.7c-0.7-1.2-2-1.8-4.1-1.8h-4v15.7h4c2.1,0,3.5-0.8,4.2-2.3
	c0.3-0.8,0.6-1.7,0.7-2.5C71.4,69.1,71.5,68,71.4,66.7z M20,136c0-4.4,3.6-8,8-8h212c4.4,0,8,3.6,8,8v40H20V136z"/>
<path class="st2" d="M89.3,154.6H87v3.4h-1.8v-11h4c2.5,0,3.7,1.2,3.7,3.7c0,1.3-0.3,2.2-0.9,2.9C91.4,154.3,90.5,154.6,89.3,154.6z
	 M87,153.1h2.2c1.3,0,1.9-0.8,1.9-2.3c0-0.7-0.2-1.3-0.5-1.6c-0.3-0.3-0.8-0.5-1.5-0.5H87V153.1z M94.4,150h1.7l1.7,6.5h0.4l1.7-6.5
	h1.7l-3,11.4h-1.7l1-3.4h-1.4L94.4,150L94.4,150z M108,151.5h-2.2v3.5c0,0.7,0,1.1,0.1,1.3c0.1,0.2,0.3,0.3,0.7,0.3l1.3,0l0.1,1.4
	c-0.7,0.1-1.3,0.2-1.6,0.2c-0.9,0-1.5-0.2-1.9-0.6c-0.3-0.4-0.5-1.2-0.5-2.4v-3.7h-1V150h1v-2.3h1.7v2.3h2.2L108,151.5L108,151.5z
	 M111.8,158H110v-11.3h1.7v3.7c0.8-0.4,1.5-0.6,2.2-0.6c1.1,0,1.8,0.3,2.2,0.9c0.4,0.6,0.6,1.6,0.6,3v4.3H115v-4.2
	c0-0.9-0.1-1.5-0.3-1.8c-0.2-0.4-0.6-0.5-1.2-0.5c-0.5,0-1,0.1-1.5,0.3l-0.3,0.1V158z M119.8,150.9c0.6-0.7,1.5-1,2.8-1
	s2.2,0.3,2.7,1c0.6,0.7,0.8,1.7,0.8,3.1s-0.3,2.4-0.8,3.1c-0.5,0.7-1.5,1.1-2.8,1.1s-2.2-0.4-2.8-1.1s-0.8-1.7-0.8-3.1
	S119.3,151.6,119.8,150.9z M121.2,156.1c0.2,0.4,0.7,0.6,1.4,0.6s1.2-0.2,1.4-0.6s0.4-1.1,0.4-2.1s-0.1-1.7-0.4-2.1
	c-0.3-0.4-0.7-0.6-1.4-0.6s-1.2,0.2-1.4,0.6c-0.3,0.4-0.4,1.1-0.4,2.1S120.9,155.6,121.2,156.1z M130.3,158h-1.7v-8h1.7v0.5
	c0.8-0.4,1.5-0.7,2.2-0.7c1.1,0,1.8,0.3,2.2,0.9c0.4,0.6,0.6,1.6,0.6,3v4.3h-1.7v-4.2c0-0.9-0.1-1.5-0.3-1.8
	c-0.2-0.4-0.6-0.5-1.1-0.5c-0.5,0-1.1,0.1-1.6,0.3l-0.2,0.1L130.3,158L130.3,158z"/>
<circle class="st2" cx="52" cy="152" r="16"/>
<path class="st3" d="M51.9,144c-4.1,0-3.8,1.8-3.8,1.8l0,1.8H52v0.5h-5.4c0,0-2.6-0.3-2.6,3.8c0,4.1,2.3,4,2.3,4h1.4V154
	c0,0-0.1-2.3,2.2-2.3h3.8c0,0,2.2,0,2.2-2.1v-3.5C55.9,146.1,56.2,144,51.9,144z M49.8,145.2c0.4,0,0.7,0.3,0.7,0.7
	c0,0.4-0.3,0.7-0.7,0.7c-0.4,0-0.7-0.3-0.7-0.7C49.1,145.5,49.4,145.2,49.8,145.2L49.8,145.2z"/>
<path class="st3" d="M52.1,159.9c4.1,0,3.8-1.8,3.8-1.8l0-1.8H52v-0.5h5.4c0,0,2.6,0.3,2.6-3.8s-2.3-4-2.3-4h-1.4v1.9
	c0,0,0.1,2.3-2.2,2.3h-3.8c0,0-2.2,0-2.2,2.1v3.5C48.1,157.8,47.8,159.9,52.1,159.9z M54.2,158.7c-0.4,0-0.7-0.3-0.7-0.7
	c0-0.4,0.3-0.7,0.7-0.7c0,0,0,0,0,0c0.4,0,0.7,0.3,0.7,0.7C54.9,158.4,54.6,158.7,54.2,158.7z"/>
<path class="st1" d="M20,178h228v48H20V178z"/>
<path class="st2" d="M84.3,208l2.7-11h3.5l2.7,11h-1.8l-0.6-2.4h-4.2l-0.6,2.4H84.3z M88.4,198.5l-1.4,5.6h3.5l-1.3-5.6
	C89.2,198.5,88.4,198.5,88.4,198.5z M95.3,211.4V200H97v0.5c0.7-0.4,1.4-0.7,2.1-0.7c1.1,0,1.8,0.3,2.3,1c0.5,0.6,0.7,1.7,0.7,3.2
	c0,1.5-0.3,2.6-0.8,3.2c-0.6,0.6-1.5,0.9-2.7,0.9c-0.5,0-1-0.1-1.5-0.1v3.4H95.3z M98.8,201.4c-0.5,0-1,0.1-1.5,0.3l-0.2,0.1v4.7
	c0.5,0.1,0.9,0.1,1.4,0.1c0.7,0,1.2-0.2,1.5-0.6s0.4-1.1,0.4-2.1C100.3,202.2,99.8,201.4,98.8,201.4z M110.4,202.5v3.6
	c0,0.2,0.1,0.4,0.2,0.5c0.1,0.1,0.3,0.2,0.5,0.2l0,1.3c-0.9,0-1.6-0.2-2.1-0.6c-0.9,0.4-1.7,0.6-2.6,0.6c-1.6,0-2.4-0.8-2.4-2.5
	c0-0.8,0.2-1.4,0.6-1.8c0.4-0.4,1.1-0.6,2-0.7l2.1-0.2v-0.6c0-0.4-0.1-0.7-0.3-0.9c-0.2-0.2-0.5-0.3-0.8-0.3c-0.7,0-1.5,0-2.6,0.1
	l-0.5,0l-0.1-1.2c1.2-0.3,2.2-0.4,3.2-0.4c1,0,1.7,0.2,2.1,0.6C110.2,200.9,110.4,201.5,110.4,202.5z M106.8,204.4
	c-0.7,0.1-1.1,0.5-1.1,1.2s0.3,1.1,1,1.1c0.5,0,1.1-0.1,1.7-0.3l0.3-0.1v-2.1L106.8,204.4z M116.2,199.8c0.6,0,1.2,0.1,2,0.2
	l0.4,0.1l-0.1,1.4c-0.8-0.1-1.5-0.1-1.9-0.1c-0.8,0-1.4,0.2-1.6,0.5c-0.3,0.4-0.4,1-0.4,2s0.1,1.7,0.4,2.1c0.3,0.4,0.8,0.6,1.7,0.6
	l1.9-0.1l0,1.4c-1.1,0.2-1.9,0.3-2.4,0.3c-1.2,0-2.1-0.3-2.6-1c-0.5-0.7-0.7-1.7-0.7-3.2s0.3-2.6,0.8-3.2
	C114.2,200.1,115.1,199.8,116.2,199.8z M122.7,208H121v-11.3h1.7v3.7c0.8-0.4,1.5-0.6,2.2-0.6c1.1,0,1.8,0.3,2.2,0.9
	c0.4,0.6,0.6,1.6,0.6,3v4.3h-1.7v-4.2c0-0.9-0.1-1.5-0.3-1.8c-0.2-0.4-0.6-0.5-1.2-0.5c-0.5,0-1,0.1-1.5,0.3l-0.3,0.1V208z
	 M136,206.6l0.4,0l0,1.3c-1.2,0.2-2.3,0.4-3.2,0.4c-1.2,0-2-0.3-2.6-1c-0.5-0.7-0.8-1.7-0.8-3.1c0-2.8,1.2-4.3,3.5-4.3
	c2.2,0,3.4,1.2,3.4,3.7l-0.1,1.2h-5c0,0.7,0.2,1.1,0.4,1.5c0.3,0.3,0.8,0.5,1.6,0.5C134.5,206.7,135.2,206.6,136,206.6L136,206.6z
	 M135.1,203.4c0-0.8-0.1-1.3-0.4-1.6c-0.2-0.3-0.7-0.5-1.3-0.5c-0.6,0-1,0.2-1.3,0.5c-0.3,0.3-0.4,0.9-0.4,1.6L135.1,203.4
	L135.1,203.4z M142.5,208l2.7-11h3.5l2.7,11h-1.8l-0.6-2.4h-4.2l-0.6,2.4H142.5z M146.6,198.5l-1.4,5.6h3.5l-1.3-5.6H146.6z
	 M153.5,208v-8h1.7v8H153.5z M153.5,198.6v-1.8h1.7v1.8H153.5z M158,208v-8h1.7v1c0.9-0.6,1.8-1,2.7-1.1v1.7
	c-0.9,0.2-1.7,0.4-2.4,0.7l-0.4,0.1v5.6H158L158,208z M166.5,201.5v6.5h-1.7v-6.5h-0.9V200h0.9v-0.5c0-1.1,0.2-1.9,0.5-2.4
	c0.3-0.4,0.9-0.6,1.8-0.6l1.7,0.2l0,1.4c-0.4,0-0.9,0-1.3,0c-0.3,0-0.6,0.1-0.7,0.3c-0.1,0.2-0.2,0.6-0.2,1.1v0.5h2.1v1.5H166.5z
	 M170.7,208v-11.3h1.7V208H170.7z M175.7,200.9c0.6-0.7,1.5-1,2.8-1s2.2,0.3,2.7,1c0.6,0.7,0.8,1.7,0.8,3.1s-0.3,2.4-0.8,3.1
	c-0.5,0.7-1.5,1.1-2.8,1.1c-1.3,0-2.2-0.4-2.8-1.1c-0.5-0.7-0.8-1.7-0.8-3.1S175.2,201.6,175.7,200.9L175.7,200.9z M177,206.1
	c0.2,0.4,0.7,0.6,1.4,0.6c0.7,0,1.2-0.2,1.4-0.6c0.2-0.4,0.4-1.1,0.4-2.1s-0.1-1.7-0.4-2.1c-0.3-0.4-0.7-0.6-1.4-0.6
	c-0.7,0-1.2,0.2-1.4,0.6c-0.3,0.4-0.4,1.1-0.4,2.1S176.8,205.6,177,206.1z M183.8,200h1.7l1.3,6.5h0.3l1.5-6.4h1.8l1.5,6.4h0.3
	l1.2-6.5h1.7l-1.7,8h-2.8l-1.2-5.5l-1.2,5.5h-2.8L183.8,200L183.8,200z"/>
<circle class="st2" cx="52" cy="202" r="16"/>
<path class="st3" d="M45.2,208.9l6.7-6.9c0,0,0-0.1,0-0.2c-0.4-0.6-1.2-0.7-1.4-1.1c-0.8-1.1-1-1.8-1.4-1.7c0,0,0,0-0.1,0l-2.4,2.5
	c-1.4,1.4-1.6,4.6-1.6,7.2C45,208.9,45.1,209,45.2,208.9C45.1,209,45.1,209,45.2,208.9C45.2,209,45.2,209,45.2,208.9L45.2,208.9z"/>
<path class="st3" d="M58.9,208.8l-6.9-6.7c0,0-0.1,0-0.2,0c-0.6,0.4-0.7,1.2-1,1.4c-1.1,0.8-1.8,1-1.7,1.4c0,0,0,0,0,0.1l2.5,2.4
	c1.4,1.4,4.6,1.6,7.2,1.6c0.1,0,0.1,0,0.1-0.1C59,208.9,59,208.8,58.9,208.8z"/>
<path class="st3" d="M51.6,207.4c-0.8-0.8-1.1-2.3,0.4-5.4c-2.4,1.1-3.3,2.5-2.9,2.9L51.6,207.4L51.6,207.4z M58.8,195.1l-6.7,6.9
	c0,0,0,0.1,0,0.2c0.4,0.6,1.2,0.7,1.4,1.1c0.8,1.1,1,1.8,1.4,1.7c0,0,0,0,0.1,0l2.4-2.5c1.4-1.4,1.6-4.6,1.6-7.2
	C59,195.1,58.9,195,58.8,195.1C58.9,195,58.8,195,58.8,195.1C58.8,195,58.8,195,58.8,195.1L58.8,195.1z"/>
<path class="st3" d="M57.4,202.4c-0.8,0.8-2.3,1.1-5.4-0.4c1.1,2.4,2.5,3.3,2.9,2.9L57.4,202.4L57.4,202.4z M45.1,195.2l6.9,6.7
	c0,0,0,0,0.1,0c0,0,0.1,0,0.1,0c0.6-0.4,0.7-1.2,1-1.4c1.1-0.8,1.8-1,1.7-1.4c0,0,0,0,0-0.1l-2.5-2.4c-1.4-1.4-4.6-1.6-7.2-1.6
	c0,0-0.1,0-0.1,0C45,195.1,45,195.1,45.1,195.2C45,195.2,45,195.2,45.1,195.2z"/>
<path class="st3" d="M52.4,196.6c0.8,0.8,1.1,2.3-0.4,5.4c2.4-1.1,3.3-2.5,2.9-2.9L52.4,196.6L52.4,196.6z"/>
<path class="st3" d="M46.6,201.6c0.8-0.8,2.3-1.1,5.4,0.4c-1.1-2.4-2.5-3.3-2.9-2.9C49.1,199.1,46.6,201.6,46.6,201.6z"/>
<path class="st4" d="M54,2H2v56"/>
<path class="st1" d="M28,292h212c4.4,0,8,3.6,8,8v32c0,4.4-3.6,8-8,8H28c-4.4,0-8-3.6-8-8v-32C20,295.6,23.6,292,28,292z"/>
<path class="st2" d="M85.3,322v-11h6.9v1.6H87v3.1h4.2v1.5H87v3.2h5.1v1.6H85.3z M93.8,314h1.9l1.6,2.8l1.6-2.8h1.9l-2.4,3.9
	l2.4,4.1h-1.9l-1.6-2.7l-1.6,2.7h-1.9l2.3-4C96.1,318,93.8,314,93.8,314z M106.9,315.5h-2.2v3.5c0,0.7,0,1.1,0.1,1.3
	c0.1,0.2,0.3,0.3,0.7,0.3l1.3,0l0.1,1.4c-0.7,0.1-1.3,0.2-1.6,0.2c-0.9,0-1.5-0.2-1.9-0.6c-0.3-0.4-0.5-1.2-0.5-2.4v-3.7h-1V314h1
	v-2.3h1.7v2.3h2.2L106.9,315.5L106.9,315.5z M114.7,320.6l0.4,0l0,1.3c-1.2,0.2-2.3,0.4-3.2,0.4c-1.2,0-2-0.3-2.6-1
	c-0.5-0.7-0.8-1.7-0.8-3.1c0-2.8,1.2-4.3,3.5-4.3c2.2,0,3.4,1.2,3.4,3.7l-0.1,1.2h-5c0,0.7,0.2,1.1,0.4,1.5s0.8,0.5,1.6,0.5
	S113.9,320.6,114.7,320.6L114.7,320.6z M113.7,317.4c0-0.8-0.1-1.3-0.4-1.6c-0.2-0.3-0.7-0.5-1.3-0.5s-1,0.2-1.3,0.5
	c-0.3,0.3-0.4,0.9-0.4,1.6L113.7,317.4L113.7,317.4z M119.5,322h-1.7v-8h1.7v0.5c0.8-0.4,1.5-0.7,2.2-0.7c1.1,0,1.8,0.3,2.2,0.9
	c0.4,0.6,0.6,1.6,0.6,3v4.3h-1.7v-4.2c0-0.9-0.1-1.5-0.3-1.8c-0.2-0.4-0.6-0.5-1.1-0.5c-0.5,0-1.1,0.1-1.6,0.3l-0.2,0.1V322z
	 M133.6,310.7V322h-1.7v-0.4c-0.8,0.4-1.5,0.6-2.1,0.6c-1,0-1.8-0.3-2.3-0.9c-0.5-0.6-0.7-1.7-0.7-3.2s0.3-2.6,0.8-3.2
	c0.5-0.7,1.4-1,2.5-1c0.4,0,1,0.1,1.8,0.2v-3.4L133.6,310.7L133.6,310.7z M131.6,320.3l0.3-0.1v-4.7c-0.6-0.1-1.2-0.2-1.8-0.2
	c-1.1,0-1.6,0.9-1.6,2.7c0,1,0.1,1.7,0.4,2c0.3,0.4,0.7,0.6,1.2,0.6C130.6,320.6,131.1,320.5,131.6,320.3z M139.7,312.6V311h8v1.6
	h-3.1v9.4h-1.8v-9.4H139.7z M154,320.6l0.4,0l0,1.3c-1.2,0.2-2.3,0.4-3.2,0.4c-1.2,0-2-0.3-2.6-1c-0.5-0.7-0.8-1.7-0.8-3.1
	c0-2.8,1.2-4.3,3.5-4.3c2.2,0,3.4,1.2,3.4,3.7l-0.1,1.2h-5c0,0.7,0.2,1.1,0.4,1.5c0.3,0.3,0.8,0.5,1.6,0.5S153.2,320.6,154,320.6
	L154,320.6z M153.1,317.4c0-0.8-0.1-1.3-0.4-1.6c-0.2-0.3-0.7-0.5-1.3-0.5s-1,0.2-1.3,0.5c-0.3,0.3-0.4,0.9-0.4,1.6L153.1,317.4
	L153.1,317.4z M163,316.5v3.6c0,0.2,0.1,0.4,0.2,0.5c0.1,0.1,0.3,0.2,0.5,0.2l0,1.3c-0.9,0-1.6-0.2-2.1-0.6
	c-0.9,0.4-1.7,0.6-2.6,0.6c-1.6,0-2.4-0.8-2.4-2.5c0-0.8,0.2-1.4,0.6-1.8c0.4-0.4,1.1-0.6,2-0.7l2.1-0.2v-0.6c0-0.4-0.1-0.7-0.3-0.9
	c-0.2-0.2-0.5-0.3-0.8-0.3c-0.7,0-1.5,0-2.6,0.1l-0.5,0l-0.1-1.2c1.2-0.3,2.2-0.4,3.2-0.4c1,0,1.7,0.2,2.1,0.6
	C162.8,314.9,163,315.5,163,316.5L163,316.5z M159.4,318.4c-0.7,0.1-1.1,0.5-1.1,1.2s0.3,1.1,1,1.1c0.5,0,1.1-0.1,1.7-0.3l0.3-0.1
	v-2.1L159.4,318.4L159.4,318.4z M167.6,322h-1.7v-8h1.7v0.5c0.8-0.4,1.5-0.7,2.1-0.7c0.9,0,1.6,0.3,2,0.8c1-0.5,1.9-0.8,2.9-0.8
	s1.6,0.3,2,0.9c0.4,0.6,0.6,1.6,0.6,3v4.3h-1.7v-4.2c0-0.9-0.1-1.5-0.3-1.8c-0.2-0.4-0.5-0.5-1.1-0.5c-0.5,0-1,0.1-1.6,0.3l-0.3,0.1
	c0.1,0.2,0.1,0.9,0.1,2v4.1h-1.7v-4.1c0-0.9-0.1-1.6-0.3-2c-0.2-0.4-0.5-0.5-1.1-0.5c-0.5,0-1,0.1-1.5,0.3l-0.2,0.1L167.6,322
	L167.6,322z"/>
<circle class="st2" cx="52" cy="316" r="16"/>
<path class="st3" d="M48.9,319.7l-3.3-3.3c-0.4-0.4-1-0.4-1.3,0c-0.4,0.4-0.4,1,0,1.3l4,4c0.4,0.4,1,0.4,1.3,0l10.1-10.1
	c0.4-0.4,0.4-1,0-1.3c-0.4-0.4-1-0.4-1.3,0L48.9,319.7L48.9,319.7z"/>
<path class="st1" d="M20,228h228v40c0,4.4-3.6,8-8,8H28c-4.4,0-8-3.6-8-8V228z"/>
<path class="st2" d="M88.5,248.4c-1.4,0-2,0.5-2,1.4c0,0.5,0.2,0.8,0.5,1.1c0.3,0.2,1,0.5,2.1,0.8c1.1,0.3,1.9,0.7,2.3,1.1
	c0.4,0.4,0.7,1.1,0.7,2c0,1.2-0.3,2-1,2.6c-0.7,0.6-1.5,0.8-2.7,0.8c-0.9,0-1.9-0.1-3-0.3l-0.6-0.1l0.2-1.4c1.4,0.2,2.5,0.3,3.3,0.3
	c1.3,0,2-0.6,2-1.8c0-0.5-0.2-0.8-0.4-1c-0.3-0.2-1-0.5-2-0.7c-1-0.3-1.8-0.6-2.3-1.1s-0.8-1.2-0.8-2.2c0-1,0.3-1.7,1-2.2
	c0.7-0.5,1.5-0.8,2.7-0.8c0.8,0,1.8,0.1,2.9,0.3l0.6,0.1l-0.1,1.4C90.2,248.5,89.1,248.4,88.5,248.4L88.5,248.4z M94.4,261.4V250
	h1.7v0.5c0.7-0.4,1.4-0.7,2.1-0.7c1.1,0,1.8,0.3,2.3,1c0.5,0.6,0.7,1.7,0.7,3.2c0,1.5-0.3,2.6-0.8,3.2c-0.6,0.6-1.5,0.9-2.7,0.9
	c-0.5,0-1-0.1-1.5-0.1v3.4H94.4L94.4,261.4z M97.9,251.4c-0.5,0-1,0.1-1.5,0.3l-0.2,0.1v4.7c0.4,0.1,0.9,0.1,1.4,0.1
	c0.7,0,1.2-0.2,1.5-0.6c0.3-0.4,0.4-1.1,0.4-2.1C99.5,252.2,98.9,251.4,97.9,251.4L97.9,251.4z M109.5,252.5v3.6
	c0,0.2,0.1,0.4,0.2,0.5c0.1,0.1,0.3,0.2,0.5,0.2l0,1.3c-0.9,0-1.6-0.2-2.1-0.6c-0.9,0.4-1.7,0.6-2.6,0.6c-1.6,0-2.4-0.8-2.4-2.5
	c0-0.8,0.2-1.4,0.6-1.8c0.4-0.4,1.1-0.6,2-0.7l2.1-0.2v-0.6c0-0.4-0.1-0.7-0.3-0.9c-0.2-0.2-0.5-0.3-0.8-0.3c-0.7,0-1.5,0-2.6,0.1
	l-0.5,0l-0.1-1.2c1.2-0.3,2.2-0.4,3.2-0.4c1,0,1.7,0.2,2.1,0.6C109.3,250.9,109.5,251.5,109.5,252.5L109.5,252.5z M106,254.4
	c-0.7,0.1-1.1,0.5-1.1,1.2c0,0.7,0.3,1.1,1,1.1c0.5,0,1.1-0.1,1.7-0.3l0.3-0.1v-2.1L106,254.4L106,254.4z M112.4,258v-8h1.7v1
	c0.9-0.6,1.8-1,2.7-1.1v1.7c-0.9,0.2-1.7,0.4-2.4,0.7l-0.4,0.1v5.6H112.4z M120.5,258h-1.7v-11.3h1.7v6.5l1-0.1l1.9-3.1h2l-2.3,3.7
	l2.4,4.3h-2l-2-3.4l-1,0.1C120.5,254.7,120.5,258,120.5,258z"/>
<circle class="st2" cx="52" cy="252" r="16"/>
<g>
	<defs>
		<polyline id="SVGID_1_" points="60,260 44,260 44,244 60,244 		"/>
	</defs>
	<clipPath id="SVGID_2_">
		<use xlink:href="#SVGID_1_"  style="overflow:visible;"/>
	</clipPath>
	<g class="st5">
		<path class="st3" d="M56.3,255.9c0-0.1-0.1-0.1-0.1-0.2c-0.5-1-1.1-2-1.6-3c-0.1-0.1,0-0.2,0-0.2c0.9-1,1.7-2,2.6-3
			c0,0,0.1-0.1,0.1-0.1l-0.8,0.2c-1,0.3-2.1,0.5-3.1,0.8c-0.1,0-0.1,0-0.2-0.1c-0.6-1-1.2-1.9-1.8-2.9c0-0.1-0.1-0.1-0.1-0.1
			l-0.1,0.8l-0.5,2.8c0,0.1,0,0.2-0.1,0.3c0,0.1-0.1,0.1-0.1,0.2c-1.2,0.4-2.5,0.8-3.7,1.1c-0.1,0-0.1,0-0.2,0.1l3,1.2
			c0,0-0.1,0.1-0.1,0.1c-0.6,0.4-1.3,0.8-1.9,1.2c-0.1,0-0.1,0.1-0.2,0c-0.7-0.3-1.5-0.7-2.3-1c-0.3-0.1-0.6-0.3-0.9-0.6
			c-0.5-0.6-0.4-1.4,0.3-1.8c0.2-0.1,0.5-0.3,0.8-0.3c1.2-0.4,2.4-0.8,3.6-1.1c0.1,0,0.1-0.1,0.2-0.2c0.2-0.9,0.3-1.8,0.5-2.8
			c0.1-0.5,0.1-1,0.4-1.4c0.1-0.2,0.2-0.3,0.3-0.5c0.5-0.5,1.1-0.5,1.7,0c0.2,0.2,0.3,0.4,0.4,0.6c0.6,0.9,1.1,1.8,1.7,2.7
			c0.1,0.1,0.1,0.1,0.2,0.1c1.3-0.4,2.7-0.7,4-1.1c0.3-0.1,0.6-0.1,0.8,0c0.6,0.1,0.9,0.6,0.7,1.2c-0.1,0.3-0.3,0.5-0.4,0.7
			c-0.9,1.1-1.9,2.2-2.8,3.3c-0.1,0.1-0.1,0.2,0,0.3c0.6,1,1.1,2.1,1.7,3.1c0.1,0.3,0.2,0.5,0.2,0.8c0,0.7-0.5,1.2-1.1,1.3
			c-0.4,0.1-0.7,0-1.1-0.1c-0.8-0.3-1.7-0.5-2.5-0.8c-0.1,0-0.1-0.1-0.1-0.1c-0.1-0.6-0.2-1.2-0.3-1.8c0,0,0,0,0-0.1L56.3,255.9
			L56.3,255.9z"/>
	</g>
</g>
</svg>
