<?xml version="1.0" encoding="utf-8"?>
<!-- Generator: Adobe Illustrator 22.0.1, SVG Export Plug-In . SVG Version: 6.00 Build 0)  -->
<svg version="1.1" id="Layer_1" xmlns="http://www.w3.org/2000/svg" xmlns:xlink="http://www.w3.org/1999/xlink" x="0px" y="0px"
	 viewBox="0 0 268 360" style="enable-background:new 0 0 268 360;" xml:space="preserve">
<style type="text/css">
	.st0{fill:none;stroke:#26302B;stroke-width:4;}
	.st1{fill:#101A16;}
	.st2{fill:#EBFFEB;}
	.st3{fill:#68A8FF;}
	.st4{fill:#131E19;}
	.st5{fill:none;stroke:#F0C808;stroke-width:4;}
</style>
<path d="M2,2h256c4.4,0,8,3.6,8,8v338c0,4.4-3.6,8-8,8H10c-4.4,0-8-3.6-8-8V2z"/>
<path class="st0" d="M70,2h188c4.4,0,8,3.1,8,7v342c0,3.9-3.6,7-8,7H10c-4.4,0-8-3.1-8-7V65.1"/>
<path class="st1" d="M28,20h212c4.4,0,8,3.6,8,8v76c0,4.4-3.6,8-8,8H28c-4.4,0-8-3.6-8-8V28C20,23.6,23.6,20,28,20z"/>
<path class="st2" d="M117.6,51c-1.7,0-2.5,0.6-2.5,1.8c0,0.6,0.2,1.1,0.6,1.3c0.4,0.3,1.3,0.6,2.6,1c1.4,0.4,2.3,0.8,2.9,1.4
	c0.6,0.5,0.8,1.3,0.8,2.5c0,1.4-0.4,2.5-1.2,3.2c-0.8,0.7-1.9,1.1-3.3,1.1c-1.1,0-2.4-0.1-3.8-0.4l-0.7-0.1l0.2-1.8
	c1.8,0.2,3.2,0.4,4.1,0.4c1.7,0,2.5-0.7,2.5-2.2c0-0.6-0.2-1-0.6-1.3c-0.4-0.3-1.2-0.6-2.5-0.9c-1.3-0.3-2.3-0.8-2.9-1.4
	s-1-1.5-1-2.7s0.4-2.2,1.2-2.8c0.8-0.6,1.9-1,3.4-1c1,0,2.2,0.1,3.6,0.4l0.7,0.1l-0.2,1.8C119.7,51.1,118.4,51,117.6,51z M125,63V53
	h2.2v1.2c1.1-0.7,2.3-1.2,3.4-1.4V55c-1.1,0.2-2.1,0.5-2.9,0.9l-0.4,0.2v7H125z M131.9,63v-2.9h2.3V63H131.9z M143,49.3h5.2
	c1.4,0,2.4,0.3,3.1,0.9c0.7,0.6,1,1.5,1,2.7c0,0.8-0.1,1.5-0.4,1.9c-0.3,0.5-0.7,0.9-1.2,1.2c1.3,0.5,2,1.6,2,3.2
	c0,2.6-1.5,3.9-4.4,3.9H143V49.3z M148.2,57h-3v4.1h3c0.7,0,1.3-0.2,1.6-0.5c0.4-0.3,0.6-0.8,0.6-1.6s-0.2-1.3-0.6-1.6
	C149.4,57.2,148.8,57,148.2,57z M148.1,51.2h-2.9v3.9h2.9c1.3,0,2-0.7,2-2C150.1,51.9,149.4,51.2,148.1,51.2L148.1,51.2z
	 M163.2,56.1v4.6c0,0.3,0.1,0.5,0.2,0.7c0.1,0.1,0.4,0.2,0.7,0.3l-0.1,1.7c-1.1,0-2-0.2-2.7-0.7c-1.1,0.5-2.1,0.7-3.2,0.7
	c-2,0-3-1.1-3-3.2c0-1,0.3-1.7,0.8-2.2c0.5-0.5,1.4-0.7,2.5-0.8l2.6-0.2v-0.7c0-0.5-0.1-0.9-0.4-1.1c-0.2-0.2-0.6-0.3-1-0.3
	c-0.9,0-1.9,0.1-3.2,0.2l-0.6,0l-0.1-1.5c1.5-0.3,2.8-0.5,4-0.5c1.2,0,2.1,0.3,2.6,0.8C162.9,54.1,163.2,54.9,163.2,56.1L163.2,56.1
	z M158.7,58.6c-0.9,0.1-1.4,0.6-1.4,1.5s0.4,1.4,1.2,1.4c0.7,0,1.4-0.1,2.1-0.3L161,61v-2.7L158.7,58.6L158.7,58.6z M170.5,52.8
	c0.7,0,1.5,0.1,2.5,0.3l0.5,0.1l-0.1,1.7c-1.1-0.1-1.8-0.2-2.3-0.2c-1,0-1.7,0.2-2,0.7c-0.3,0.5-0.5,1.3-0.5,2.6
	c0,1.3,0.2,2.1,0.5,2.6c0.3,0.5,1,0.7,2.1,0.7l2.3-0.2l0.1,1.7c-1.3,0.2-2.4,0.4-3,0.4c-1.5,0-2.6-0.4-3.2-1.2
	c-0.6-0.8-0.9-2.2-0.9-4s0.3-3.2,1-4C167.9,53.2,169,52.8,170.5,52.8z M178.5,63h-2.2V48.8h2.2V57l1.2-0.1l2.4-3.9h2.4l-2.9,4.7
	l3,5.3h-2.5l-2.4-4.2l-1.3,0.1L178.5,63L178.5,63z M194,61.2l0.6-0.1l0,1.6c-1.5,0.3-2.9,0.5-4,0.5c-1.5,0-2.5-0.4-3.2-1.2
	c-0.6-0.8-1-2.1-1-3.9c0-3.5,1.4-5.3,4.3-5.3c2.8,0,4.2,1.5,4.2,4.6l-0.1,1.6h-6.2c0,0.8,0.2,1.4,0.5,1.8s1,0.6,1.9,0.6
	S193,61.3,194,61.2L194,61.2z M192.8,57.2c0-1-0.2-1.7-0.5-2.1c-0.3-0.4-0.8-0.6-1.6-0.6c-0.7,0-1.3,0.2-1.6,0.6
	c-0.3,0.4-0.5,1.1-0.5,2H192.8z M200.1,63h-2.2V53h2.2v0.6c1-0.6,1.9-0.8,2.8-0.8c1.3,0,2.2,0.4,2.7,1.1c0.5,0.7,0.7,2,0.7,3.7V63
	h-2.2v-5.3c0-1.1-0.1-1.8-0.4-2.3c-0.2-0.5-0.7-0.7-1.4-0.7c-0.7,0-1.3,0.1-2,0.4l-0.3,0.1V63z M217.8,48.8V63h-2.2v-0.5
	c-1,0.5-1.9,0.7-2.7,0.7c-1.3,0-2.3-0.4-2.9-1.2c-0.6-0.8-0.9-2.1-0.9-4s0.3-3.2,1-4c0.7-0.8,1.7-1.3,3.2-1.3c0.5,0,1.2,0.1,2.3,0.3
	v-4.2H217.8z M215.2,60.9l0.3-0.1v-5.9c-0.8-0.1-1.5-0.2-2.2-0.2c-1.3,0-2,1.1-2,3.4c0,1.2,0.2,2.1,0.5,2.6c0.3,0.5,0.8,0.7,1.5,0.7
	S214.6,61.2,215.2,60.9z M118.3,87h-4.7V73.3h4.7c2.1,0,3.5,0.5,4.3,1.6s1.2,2.7,1.2,5c0,1.2-0.1,2.1-0.2,3
	c-0.1,0.8-0.4,1.5-0.8,2.2C122,86.4,120.5,87,118.3,87z M121.5,79.9c0-1.7-0.2-2.8-0.6-3.6s-1.3-1.1-2.6-1.1h-2.5V85h2.5
	c1.3,0,2.2-0.5,2.6-1.5c0.2-0.5,0.4-1,0.4-1.6C121.5,81.4,121.5,80.7,121.5,79.9z M134.1,85.2l0.6-0.1l0,1.6c-1.5,0.3-2.9,0.5-4,0.5
	c-1.5,0-2.5-0.4-3.2-1.2c-0.6-0.8-1-2.1-1-3.9c0-3.5,1.4-5.3,4.3-5.3c2.8,0,4.2,1.5,4.2,4.6l-0.1,1.6h-6.2c0,0.8,0.2,1.4,0.5,1.8
	c0.3,0.4,1,0.6,1.9,0.6C132.1,85.3,133.1,85.3,134.1,85.2z M132.9,81.2c0-1-0.2-1.7-0.5-2.1c-0.3-0.4-0.8-0.6-1.6-0.6
	c-0.7,0-1.3,0.2-1.6,0.6c-0.3,0.4-0.5,1.1-0.5,2C128.6,81.2,132.9,81.2,132.9,81.2z M136.8,77h2.3l1.9,8.1h0.6l2-8.1h2.2l-2.6,10
	h-3.9L136.8,77L136.8,77z M155.3,85.2l0.6-0.1l0,1.6c-1.5,0.3-2.9,0.5-4,0.5c-1.5,0-2.5-0.4-3.2-1.2c-0.6-0.8-1-2.1-1-3.9
	c0-3.5,1.4-5.3,4.3-5.3c2.8,0,4.2,1.5,4.2,4.6l-0.1,1.6h-6.2c0,0.8,0.2,1.4,0.5,1.8s1,0.6,1.9,0.6S154.3,85.3,155.3,85.2L155.3,85.2
	z M154.1,81.2c0-1-0.2-1.7-0.5-2.1c-0.3-0.4-0.8-0.6-1.6-0.6c-0.7,0-1.3,0.2-1.6,0.6c-0.3,0.4-0.5,1.1-0.5,2
	C149.9,81.2,154.1,81.2,154.1,81.2z M159.3,87V72.8h2.2V87H159.3z M165.6,78.1c0.7-0.9,1.8-1.3,3.4-1.3s2.7,0.4,3.4,1.3
	c0.7,0.9,1,2.2,1,3.9s-0.3,3-1,3.9s-1.8,1.3-3.5,1.3s-2.8-0.4-3.5-1.3s-1-2.2-1-3.9S164.9,78.9,165.6,78.1L165.6,78.1z M167.2,84.6
	c0.3,0.5,0.9,0.8,1.8,0.8s1.5-0.3,1.8-0.8c0.3-0.5,0.5-1.4,0.5-2.6s-0.2-2.1-0.5-2.6c-0.3-0.5-0.9-0.8-1.8-0.8s-1.4,0.3-1.8,0.8
	c-0.3,0.5-0.5,1.4-0.5,2.6S166.9,84,167.2,84.6L167.2,84.6z M176.4,91.3V77h2.2v0.6c0.9-0.6,1.8-0.8,2.6-0.8c1.3,0,2.3,0.4,2.9,1.2
	c0.6,0.8,0.9,2.2,0.9,4.1c0,1.9-0.4,3.2-1.1,4c-0.7,0.8-1.8,1.2-3.4,1.2c-0.5,0-1.2-0.1-1.9-0.2v4.3L176.4,91.3L176.4,91.3z
	 M180.8,78.7c-0.6,0-1.3,0.1-1.9,0.4l-0.3,0.1v5.9c0.6,0.1,1.2,0.2,1.8,0.2c0.9,0,1.5-0.3,1.9-0.8c0.3-0.5,0.5-1.4,0.5-2.7
	C182.8,79.8,182.1,78.7,180.8,78.7z M195.1,85.2l0.6-0.1l0,1.6c-1.5,0.3-2.9,0.5-4,0.5c-1.5,0-2.5-0.4-3.2-1.2c-0.6-0.8-1-2.1-1-3.9
	c0-3.5,1.4-5.3,4.3-5.3c2.8,0,4.2,1.5,4.2,4.6l-0.1,1.6h-6.2c0,0.8,0.2,1.4,0.5,1.8c0.3,0.4,1,0.6,1.9,0.6
	C193.1,85.3,194.1,85.3,195.1,85.2L195.1,85.2z M193.9,81.2c0-1-0.2-1.7-0.5-2.1c-0.3-0.4-0.8-0.6-1.6-0.6c-0.7,0-1.3,0.2-1.6,0.6
	c-0.3,0.4-0.5,1.1-0.5,2C189.7,81.2,193.9,81.2,193.9,81.2z M198.9,87V77h2.2v1.2c1.1-0.7,2.3-1.2,3.4-1.4V79
	c-1.1,0.2-2.1,0.5-2.9,0.9l-0.4,0.2v7C201.1,87,198.9,87,198.9,87z"/>
<circle class="st2" cx="66" cy="66" r="30"/>
<path class="st1" d="M58.7,56.1h8.3c2.2,0,3.9,0.5,5,1.4c1.1,0.9,1.7,2.3,1.7,4.3c0,1.3-0.2,2.3-0.6,3.1c-0.4,0.7-1.1,1.4-2,1.9
	c2.1,0.8,3.1,2.5,3.1,5.1c0,4.1-2.3,6.2-7,6.2h-8.6V56.1z M67.1,68.4h-4.8v6.5h4.8c1.2,0,2-0.2,2.6-0.7c0.6-0.5,0.9-1.3,0.9-2.5
	s-0.3-2-1-2.5C68.9,68.7,68.1,68.4,67.1,68.4z M66.9,59.2h-4.6v6.3H67c2.1,0,3.1-1.1,3.1-3.2C70.1,60.2,69,59.2,66.9,59.2z M20,136
	c0-4.4,3.6-8,8-8h212c4.4,0,8,3.6,8,8v40H20V136z"/>
<path class="st2" d="M87,154.1v3.9h-1.8v-11h4.2c2.5,0,3.7,1.2,3.7,3.5c0,1.6-0.6,2.6-1.8,3.2l1.8,4.3h-2l-1.6-3.9H87z M91.3,150.5
	c0-1.3-0.6-2-1.9-2H87v4h2.4c0.6,0,1.1-0.2,1.4-0.5C91.2,151.6,91.3,151.2,91.3,150.5L91.3,150.5z M100.4,150h1.7v8h-1.7v-0.5
	c-0.8,0.4-1.5,0.7-2.2,0.7c-1.1,0-1.8-0.3-2.2-0.9c-0.4-0.6-0.6-1.6-0.6-3.1V150h1.7v4.2c0,1,0.1,1.6,0.2,1.9
	c0.2,0.3,0.5,0.5,1.1,0.5c0.6,0,1.1-0.1,1.6-0.3l0.2-0.1V150L100.4,150z M108.6,149.8c1.1,0,1.9,0.3,2.4,0.9
	c0.5,0.6,0.7,1.7,0.7,3.2s-0.3,2.6-0.9,3.3c-0.6,0.6-1.6,0.9-3,0.9c-0.5,0-1.3,0-2.4-0.1l-0.5,0v-11.3h1.7v3.6
	C107.4,150,108,149.8,108.6,149.8z M107.8,156.6c0.9,0,1.4-0.2,1.7-0.6c0.3-0.4,0.4-1.1,0.4-2s-0.1-1.6-0.4-2
	c-0.2-0.4-0.6-0.6-1.2-0.6c-0.5,0-1,0.1-1.5,0.2l-0.3,0.1v4.9C107.2,156.6,107.6,156.6,107.8,156.6z M113.3,150h1.7l1.7,6.5h0.4
	l1.7-6.5h1.7l-3,11.4h-1.7l1-3.4h-1.4C115.4,158,113.3,150,113.3,150z M127.1,150.9c0.6-0.7,1.5-1,2.8-1s2.2,0.3,2.7,1
	c0.6,0.7,0.8,1.7,0.8,3.1s-0.3,2.4-0.8,3.1s-1.5,1.1-2.8,1.1c-1.3,0-2.2-0.4-2.8-1.1s-0.8-1.7-0.8-3.1S126.6,151.6,127.1,150.9
	L127.1,150.9z M128.4,156.1c0.2,0.4,0.7,0.6,1.4,0.6s1.2-0.2,1.4-0.6s0.4-1.1,0.4-2.1s-0.1-1.7-0.4-2.1c-0.3-0.4-0.7-0.6-1.4-0.6
	s-1.2,0.2-1.4,0.6c-0.3,0.4-0.4,1.1-0.4,2.1S128.2,155.6,128.4,156.1z M137.5,158h-1.7v-8h1.7v0.5c0.8-0.4,1.5-0.7,2.2-0.7
	c1.1,0,1.8,0.3,2.2,0.9c0.4,0.6,0.6,1.6,0.6,3v4.3h-1.7v-4.2c0-0.9-0.1-1.5-0.3-1.8c-0.2-0.4-0.6-0.5-1.1-0.5
	c-0.5,0-1.1,0.1-1.6,0.3l-0.2,0.1L137.5,158L137.5,158z M151.3,154.1v3.9h-1.8v-11h4.2c2.5,0,3.7,1.2,3.7,3.5c0,1.6-0.6,2.6-1.8,3.2
	l1.8,4.3h-2l-1.6-3.9H151.3z M155.6,150.5c0-1.3-0.6-2-1.9-2h-2.4v4h2.4c0.6,0,1.1-0.2,1.4-0.5C155.4,151.6,155.6,151.2,155.6,150.5
	L155.6,150.5z M165.7,152.5v3.6c0,0.2,0.1,0.4,0.2,0.5c0.1,0.1,0.3,0.2,0.5,0.2l0,1.3c-0.9,0-1.6-0.2-2.1-0.6
	c-0.9,0.4-1.7,0.6-2.6,0.6c-1.6,0-2.4-0.8-2.4-2.5c0-0.8,0.2-1.4,0.6-1.8c0.4-0.4,1.1-0.6,2-0.7l2.1-0.2v-0.6c0-0.4-0.1-0.7-0.3-0.9
	c-0.2-0.2-0.5-0.3-0.8-0.3c-0.7,0-1.5,0-2.6,0.1l-0.5,0l-0.1-1.2c1.2-0.3,2.2-0.4,3.2-0.4c1,0,1.7,0.2,2.1,0.6
	C165.5,150.9,165.7,151.5,165.7,152.5z M162.1,154.4c-0.7,0.1-1.1,0.5-1.1,1.2s0.3,1.1,1,1.1c0.5,0,1.1-0.1,1.7-0.3l0.3-0.1v-2.1
	L162.1,154.4L162.1,154.4z M168.6,158v-8h1.7v8H168.6z M168.6,148.6v-1.8h1.7v1.8H168.6z M173.1,158v-11.3h1.7V158H173.1z
	 M183.3,151.6c-1.3-0.2-2.2-0.3-2.7-0.3s-1,0.1-1.2,0.2c-0.2,0.1-0.3,0.3-0.3,0.6s0.1,0.5,0.4,0.6c0.2,0.1,0.8,0.3,1.7,0.4
	c0.9,0.1,1.5,0.4,1.9,0.7s0.6,0.9,0.6,1.8s-0.3,1.5-0.8,1.9c-0.5,0.4-1.3,0.6-2.4,0.6c-0.7,0-1.5-0.1-2.5-0.3l-0.5-0.1l0.1-1.5
	c1.3,0.2,2.2,0.3,2.8,0.3s1-0.1,1.2-0.2c0.2-0.1,0.4-0.4,0.4-0.7s-0.1-0.5-0.4-0.7c-0.2-0.1-0.8-0.3-1.6-0.4
	c-0.9-0.1-1.5-0.4-1.9-0.7c-0.4-0.3-0.6-0.9-0.6-1.7s0.3-1.4,0.8-1.8c0.6-0.4,1.3-0.6,2.2-0.6c0.7,0,1.5,0.1,2.5,0.3l0.5,0.1
	L183.3,151.6L183.3,151.6z"/>
<circle class="st2" cx="52" cy="152" r="16"/>
<path class="st3" d="M44.5,156.8h5.6c0,0-1.1-4.9,2.5-6.8c0.8-0.4,3.2-1.8,7.2,1.2c0.1-0.1,0.2-0.2,0.2-0.2s-3.7-3.7-7.8-3.3
	c-2.1,0.2-4.6,2.1-6.1,4.5C44.7,154.7,44.5,156.8,44.5,156.8L44.5,156.8z"/>
<path class="st3" d="M44.5,156.8h5.6c0,0-1.1-4.9,2.5-6.8c0.8-0.4,3.2-1.8,7.2,1.2c0.1-0.1,0.2-0.2,0.2-0.2s-3.7-3.7-7.8-3.3
	c-2.1,0.2-4.6,2.1-6.1,4.5C44.7,154.7,44.5,156.8,44.5,156.8L44.5,156.8z"/>
<path class="st4" d="M44.5,156.8h5.6c0,0-1.1-4.9,2.5-6.8c0.8-0.4,3.2-1.8,7.2,1.2c0.1-0.1,0.2-0.2,0.2-0.2s-3.7-3.7-7.8-3.3
	c-2.1,0.2-4.6,2.1-6.1,4.5C44.7,154.7,44.5,156.8,44.5,156.8L44.5,156.8z M56.1,148.1l0-0.5c-0.1,0-0.2-0.1-0.7-0.2l0,0.5
	C55.7,148,55.9,148,56.1,148.1z"/>
<path class="st4" d="M55.4,149.6l0,0.4c0.2,0,0.5,0,0.7,0.1l0-0.4C55.9,149.7,55.7,149.6,55.4,149.6L55.4,149.6z M52.8,147.4
	L52.8,147.4l-0.1-0.4c-0.2,0-0.4,0-0.7,0l0.1,0.4C52.4,147.4,52.6,147.4,52.8,147.4L52.8,147.4z M53.2,150l0.2,0.5
	c0.2-0.1,0.4-0.2,0.6-0.2l-0.2-0.5C53.6,149.9,53.4,149.9,53.2,150L53.2,150z M50,148.2l-0.3-0.5c-0.2,0.1-0.4,0.2-0.5,0.3l0.3,0.5
	C49.6,148.4,49.8,148.3,50,148.2z M51.4,151.3l0.3,0.5c0.1-0.2,0.3-0.3,0.4-0.5l-0.3-0.5C51.7,151,51.5,151.2,51.4,151.3z
	 M50.4,153.6l0.6,0.5c0-0.3,0.1-0.6,0.2-0.8l-0.5-0.4C50.5,153.1,50.4,153.4,50.4,153.6z M47.3,150.3l-0.5-0.4
	c-0.2,0.2-0.4,0.4-0.5,0.5l0.5,0.5C47,150.6,47.1,150.4,47.3,150.3L47.3,150.3z M45.2,153.4l-0.8-0.3c-0.1,0.3-0.3,0.7-0.4,0.8
	l0.8,0.3C44.9,154,45.1,153.7,45.2,153.4L45.2,153.4z M50.3,155.4c0,0.4,0,0.7,0.1,0.9l0.8,0.3c-0.1-0.3-0.1-0.6-0.2-0.9L50.3,155.4
	z"/>
<path class="st1" d="M20,178h228v48H20V178z"/>
<path class="st2" d="M84.3,209.1v-1.6c0.6,0,0.9-0.1,1.2-0.3c0.2-0.2,0.3-0.5,0.3-1.1V197h1.8l0,9.3c0,1.1-0.2,1.9-0.7,2.3
	S85.5,209.1,84.3,209.1L84.3,209.1z M96.3,202.5v3.6c0,0.2,0.1,0.4,0.2,0.5c0.1,0.1,0.3,0.2,0.5,0.2l0,1.3c-0.9,0-1.6-0.2-2.1-0.6
	c-0.9,0.4-1.7,0.6-2.6,0.6c-1.6,0-2.4-0.8-2.4-2.5c0-0.8,0.2-1.4,0.6-1.8c0.4-0.4,1.1-0.6,2-0.7l2.1-0.2v-0.6c0-0.4-0.1-0.7-0.3-0.9
	c-0.2-0.2-0.5-0.3-0.8-0.3c-0.7,0-1.5,0-2.6,0.1l-0.5,0l-0.1-1.2c1.2-0.3,2.2-0.4,3.2-0.4c1,0,1.7,0.2,2.1,0.6
	C96.1,200.9,96.3,201.5,96.3,202.5z M92.8,204.4c-0.7,0.1-1.1,0.5-1.1,1.2s0.3,1.1,1,1.1c0.5,0,1.1-0.1,1.7-0.3l0.3-0.1v-2.1
	L92.8,204.4z M98.3,200h1.8l1.5,6.5h0.5l1.6-6.5h1.8l-2.1,8h-3.1L98.3,200z M113.4,202.5v3.6c0,0.2,0.1,0.4,0.2,0.5
	c0.1,0.1,0.3,0.2,0.5,0.2l0,1.3c-0.9,0-1.6-0.2-2.1-0.6c-0.9,0.4-1.7,0.6-2.6,0.6c-1.6,0-2.4-0.8-2.4-2.5c0-0.8,0.2-1.4,0.6-1.8
	c0.4-0.4,1.1-0.6,2-0.7l2.1-0.2v-0.6c0-0.4-0.1-0.7-0.3-0.9c-0.2-0.2-0.5-0.3-0.8-0.3c-0.7,0-1.5,0-2.6,0.1l-0.5,0l-0.1-1.2
	c1.2-0.3,2.2-0.4,3.2-0.4c1,0,1.7,0.2,2.1,0.6C113.2,200.9,113.4,201.5,113.4,202.5z M109.8,204.4c-0.7,0.1-1.1,0.5-1.1,1.2
	s0.3,1.1,1,1.1c0.5,0,1.1-0.1,1.7-0.3l0.3-0.1v-2.1L109.8,204.4z M121.8,201.6c-1.3-0.2-2.2-0.3-2.7-0.3s-1,0.1-1.2,0.2
	c-0.2,0.1-0.3,0.3-0.3,0.6s0.1,0.5,0.4,0.6c0.2,0.1,0.8,0.3,1.7,0.4c0.9,0.1,1.5,0.4,1.9,0.7s0.6,0.9,0.6,1.8s-0.3,1.5-0.8,1.9
	c-0.5,0.4-1.3,0.6-2.4,0.6c-0.7,0-1.5-0.1-2.5-0.3l-0.5-0.1l0.1-1.5c1.3,0.2,2.2,0.3,2.8,0.3s1-0.1,1.2-0.2c0.2-0.1,0.4-0.4,0.4-0.7
	s-0.1-0.5-0.4-0.7c-0.2-0.1-0.8-0.3-1.6-0.4c-0.9-0.1-1.5-0.4-1.9-0.7s-0.6-0.9-0.6-1.7s0.3-1.4,0.8-1.8c0.6-0.4,1.3-0.6,2.2-0.6
	c0.7,0,1.5,0.1,2.5,0.3l0.5,0.1L121.8,201.6L121.8,201.6z M127.4,199.8c0.6,0,1.2,0.1,2,0.2l0.4,0.1l-0.1,1.4
	c-0.8-0.1-1.5-0.1-1.9-0.1c-0.8,0-1.4,0.2-1.6,0.5c-0.3,0.4-0.4,1-0.4,2s0.1,1.7,0.4,2.1s0.8,0.6,1.7,0.6l1.9-0.1l0,1.4
	c-1.1,0.2-1.9,0.3-2.4,0.3c-1.2,0-2.1-0.3-2.6-1c-0.5-0.7-0.7-1.7-0.7-3.2s0.3-2.6,0.8-3.2C125.3,200.1,126.2,199.8,127.4,199.8z
	 M132.1,208v-8h1.7v1c0.9-0.6,1.8-1,2.7-1.1v1.7c-0.9,0.2-1.7,0.4-2.4,0.7l-0.4,0.1v5.6L132.1,208L132.1,208z M138.5,208v-8h1.7v8
	H138.5z M138.5,198.6v-1.8h1.7v1.8H138.5z M143,211.4V200h1.7v0.5c0.7-0.4,1.4-0.7,2.1-0.7c1.1,0,1.8,0.3,2.3,1
	c0.5,0.6,0.7,1.7,0.7,3.2c0,1.5-0.3,2.6-0.8,3.2c-0.6,0.6-1.5,0.9-2.7,0.9c-0.5,0-1-0.1-1.5-0.1v3.4L143,211.4L143,211.4z
	 M146.5,201.4c-0.5,0-1,0.1-1.5,0.3l-0.2,0.1v4.7c0.4,0.1,0.9,0.1,1.4,0.1c0.7,0,1.2-0.2,1.5-0.6c0.3-0.4,0.4-1.1,0.4-2.1
	C148.1,202.2,147.6,201.4,146.5,201.4z M156.6,201.5h-2.2v3.5c0,0.7,0,1.1,0.1,1.3c0.1,0.2,0.3,0.3,0.7,0.3l1.3,0l0.1,1.4
	c-0.7,0.1-1.3,0.2-1.6,0.2c-0.9,0-1.5-0.2-1.9-0.6c-0.3-0.4-0.5-1.2-0.5-2.4v-3.7h-1V200h1v-2.3h1.7v2.3h2.2L156.6,201.5
	L156.6,201.5z"/>
<circle class="st2" cx="52" cy="202" r="16"/>
<path class="st4" d="M44,194h16v16H44V194z M56.2,207.4c-0.7,0-1.2-0.4-1.5-0.9l-1.2,0.7c0.4,0.9,1.3,1.5,2.7,1.5
	c1.4,0,2.5-0.7,2.5-2.1c0-1.3-0.7-1.8-2-2.4l-0.4-0.2c-0.6-0.3-0.9-0.5-0.9-0.9c0-0.4,0.3-0.6,0.7-0.6c0.4,0,0.7,0.2,1,0.6l1.2-0.8
	c-0.5-0.9-1.2-1.2-2.1-1.2c-1.3,0-2.2,0.9-2.2,2c0,1.2,0.7,1.8,1.8,2.3l0.4,0.2c0.7,0.3,1.1,0.5,1.1,1
	C57.3,207.1,56.9,207.4,56.2,207.4L56.2,207.4z M50.4,207.4c-0.5,0-0.7-0.4-1-0.8l-1.2,0.7c0.4,0.8,1.1,1.4,2.3,1.4
	c1.3,0,2.2-0.7,2.2-2.3v-5.1h-1.5v5.1C51.2,207.2,50.9,207.4,50.4,207.4L50.4,207.4z"/>
<path class="st5" d="M54,2H2v56"/>
<path class="st1" d="M28,292h212c4.4,0,8,3.6,8,8v32c0,4.4-3.6,8-8,8H28c-4.4,0-8-3.6-8-8v-32C20,295.6,23.6,292,28,292z"/>
<path class="st2" d="M85.3,322v-11h6.9v1.6H87v3.1h4.2v1.5H87v3.2h5.1v1.6H85.3z M93.8,314h1.9l1.6,2.8l1.6-2.8h1.9l-2.4,3.9
	l2.4,4.1h-1.9l-1.6-2.7l-1.6,2.7h-1.9l2.3-4C96.1,318,93.8,314,93.8,314z M106.9,315.5h-2.2v3.5c0,0.7,0,1.1,0.1,1.3
	c0.1,0.2,0.3,0.3,0.7,0.3l1.3,0l0.1,1.4c-0.7,0.1-1.3,0.2-1.6,0.2c-0.9,0-1.5-0.2-1.9-0.6c-0.3-0.4-0.5-1.2-0.5-2.4v-3.7h-1V314h1
	v-2.3h1.7v2.3h2.2L106.9,315.5L106.9,315.5z M114.7,320.6l0.4,0l0,1.3c-1.2,0.2-2.3,0.4-3.2,0.4c-1.2,0-2-0.3-2.6-1
	c-0.5-0.7-0.8-1.7-0.8-3.1c0-2.8,1.2-4.3,3.5-4.3c2.2,0,3.4,1.2,3.4,3.7l-0.1,1.2h-5c0,0.7,0.2,1.1,0.4,1.5s0.8,0.5,1.6,0.5
	S113.9,320.6,114.7,320.6L114.7,320.6z M113.7,317.4c0-0.8-0.1-1.3-0.4-1.6c-0.2-0.3-0.7-0.5-1.3-0.5s-1,0.2-1.3,0.5
	c-0.3,0.3-0.4,0.9-0.4,1.6L113.7,317.4L113.7,317.4z M119.5,322h-1.7v-8h1.7v0.5c0.8-0.4,1.5-0.7,2.2-0.7c1.1,0,1.8,0.3,2.2,0.9
	c0.4,0.6,0.6,1.6,0.6,3v4.3h-1.7v-4.2c0-0.9-0.1-1.5-0.3-1.8c-0.2-0.4-0.6-0.5-1.1-0.5c-0.5,0-1.1,0.1-1.6,0.3l-0.2,0.1V322z
	 M133.6,310.7V322h-1.7v-0.4c-0.8,0.4-1.5,0.6-2.1,0.6c-1,0-1.8-0.3-2.3-0.9c-0.5-0.6-0.7-1.7-0.7-3.2s0.3-2.6,0.8-3.2
	c0.5-0.7,1.4-1,2.5-1c0.4,0,1,0.1,1.8,0.2v-3.4L133.6,310.7L133.6,310.7z M131.6,320.3l0.3-0.1v-4.7c-0.6-0.1-1.2-0.2-1.8-0.2
	c-1.1,0-1.6,0.9-1.6,2.7c0,1,0.1,1.7,0.4,2c0.3,0.4,0.7,0.6,1.2,0.6C130.6,320.6,131.1,320.5,131.6,320.3z M139.7,312.6V311h8v1.6
	h-3.1v9.4h-1.8v-9.4H139.7z M154,320.6l0.4,0l0,1.3c-1.2,0.2-2.3,0.4-3.2,0.4c-1.2,0-2-0.3-2.6-1c-0.5-0.7-0.8-1.7-0.8-3.1
	c0-2.8,1.2-4.3,3.5-4.3c2.2,0,3.4,1.2,3.4,3.7l-0.1,1.2h-5c0,0.7,0.2,1.1,0.4,1.5c0.3,0.3,0.8,0.5,1.6,0.5S153.2,320.6,154,320.6
	L154,320.6z M153.1,317.4c0-0.8-0.1-1.3-0.4-1.6c-0.2-0.3-0.7-0.5-1.3-0.5s-1,0.2-1.3,0.5c-0.3,0.3-0.4,0.9-0.4,1.6L153.1,317.4
	L153.1,317.4z M163,316.5v3.6c0,0.2,0.1,0.4,0.2,0.5c0.1,0.1,0.3,0.2,0.5,0.2l0,1.3c-0.9,0-1.6-0.2-2.1-0.6
	c-0.9,0.4-1.7,0.6-2.6,0.6c-1.6,0-2.4-0.8-2.4-2.5c0-0.8,0.2-1.4,0.6-1.8c0.4-0.4,1.1-0.6,2-0.7l2.1-0.2v-0.6c0-0.4-0.1-0.7-0.3-0.9
	c-0.2-0.2-0.5-0.3-0.8-0.3c-0.7,0-1.5,0-2.6,0.1l-0.5,0l-0.1-1.2c1.2-0.3,2.2-0.4,3.2-0.4c1,0,1.7,0.2,2.1,0.6
	C162.8,314.9,163,315.5,163,316.5L163,316.5z M159.4,318.4c-0.7,0.1-1.1,0.5-1.1,1.2s0.3,1.1,1,1.1c0.5,0,1.1-0.1,1.7-0.3l0.3-0.1
	v-2.1L159.4,318.4L159.4,318.4z M167.6,322h-1.7v-8h1.7v0.5c0.8-0.4,1.5-0.7,2.1-0.7c0.9,0,1.6,0.3,2,0.8c1-0.5,1.9-0.8,2.9-0.8
	s1.6,0.3,2,0.9c0.4,0.6,0.6,1.6,0.6,3v4.3h-1.7v-4.2c0-0.9-0.1-1.5-0.3-1.8c-0.2-0.4-0.5-0.5-1.1-0.5c-0.5,0-1,0.1-1.6,0.3l-0.3,0.1
	c0.1,0.2,0.1,0.9,0.1,2v4.1h-1.7v-4.1c0-0.9-0.1-1.6-0.3-2c-0.2-0.4-0.5-0.5-1.1-0.5c-0.5,0-1,0.1-1.5,0.3l-0.2,0.1L167.6,322
	L167.6,322z"/>
<circle class="st2" cx="52" cy="316" r="16"/>
<path class="st4" d="M48.9,319.7l-3.3-3.3c-0.4-0.4-1-0.4-1.3,0c-0.4,0.4-0.4,1,0,1.3l4,4c0.4,0.4,1,0.4,1.3,0l10.1-10.1
	c0.4-0.4,0.4-1,0-1.3c-0.4-0.4-1-0.4-1.3,0L48.9,319.7L48.9,319.7z"/>
<path class="st1" d="M20,228h228v40c0,4.4-3.6,8-8,8H28c-4.4,0-8-3.6-8-8V228z"/>
<path class="st2" d="M88.5,248.4c-1.4,0-2,0.5-2,1.4c0,0.5,0.2,0.8,0.5,1.1c0.3,0.2,1,0.5,2.1,0.8c1.1,0.3,1.9,0.7,2.3,1.1
	c0.4,0.4,0.7,1.1,0.7,2c0,1.2-0.3,2-1,2.6c-0.7,0.6-1.5,0.8-2.7,0.8c-0.9,0-1.9-0.1-3-0.3l-0.6-0.1l0.2-1.4c1.4,0.2,2.5,0.3,3.3,0.3
	c1.3,0,2-0.6,2-1.8c0-0.5-0.2-0.8-0.4-1c-0.3-0.2-1-0.5-2-0.7c-1-0.3-1.8-0.6-2.3-1.1s-0.8-1.2-0.8-2.2c0-1,0.3-1.7,1-2.2
	c0.7-0.5,1.5-0.8,2.7-0.8c0.8,0,1.8,0.1,2.9,0.3l0.6,0.1l-0.1,1.4C90.2,248.5,89.1,248.4,88.5,248.4L88.5,248.4z M98.6,258.2
	c-1.7,0-2.8-0.4-3.5-1.3c-0.7-0.9-1-2.3-1-4.2c0-1.9,0.3-3.4,1-4.3c0.7-0.9,1.8-1.4,3.5-1.4c1.6,0,2.8,0.5,3.5,1.4
	c0.7,0.9,1,2.4,1,4.3c0,1.3-0.1,2.3-0.4,3.1c-0.3,0.8-0.7,1.4-1.3,1.8l1.3,2.2l-1.6,0.8l-1.4-2.3C99.3,258.1,99,258.2,98.6,258.2
	L98.6,258.2z M96.5,255.7c0.4,0.6,1.1,0.9,2.1,0.9s1.7-0.3,2.1-0.9c0.4-0.6,0.5-1.7,0.5-3.1s-0.2-2.5-0.6-3.2c-0.4-0.7-1-1-2-1
	c-1,0-1.7,0.3-2.1,1c-0.4,0.7-0.6,1.7-0.6,3.2S96.1,255.1,96.5,255.7L96.5,255.7z M111.9,258h-6.1v-11h1.8v9.4h4.4
	C111.9,256.4,111.9,258,111.9,258z"/>
<circle class="st2" cx="52" cy="252" r="16"/>
<path class="st4" d="M58.3,256v1.6c0,1.3-3.1,2.3-6.7,2.3s-6.7-1-6.7-2.3V256c1.6,1.2,4.7,1.5,6.7,1.5
	C53.7,257.5,56.7,257.2,58.3,256z M51.7,253.8c-2,0-5.1-0.3-6.7-1.5v1.6c0,1.3,3.1,2.3,6.7,2.3s6.7-1,6.7-2.3v-1.6
	C56.7,253.4,53.7,253.8,51.7,253.8z M51.7,244c-3.6,0-6.7,1-6.7,2.3s3.1,2.3,6.7,2.3s6.7-1,6.7-2.3S55.2,244,51.7,244z M51.7,250
	c-2,0-5.1-0.3-6.7-1.5v1.6c0,1.3,3.1,2.3,6.7,2.3s6.7-1,6.7-2.3v-1.6C56.7,249.6,53.7,250,51.7,250z"/>
</svg>
