<?xml version="1.0" encoding="utf-8"?>
<!-- Generator: Adobe Illustrator 22.0.1, SVG Export Plug-In . SVG Version: 6.00 Build 0)  -->
<svg version="1.1" id="Layer_1" xmlns="http://www.w3.org/2000/svg" xmlns:xlink="http://www.w3.org/1999/xlink" x="0px" y="0px"
	 viewBox="0 0 268 360" style="enable-background:new 0 0 268 360;" xml:space="preserve">
<style type="text/css">
	.st0{fill:none;stroke:#26302B;stroke-width:4;}
	.st1{fill:#101A16;}
	.st2{fill:#EBFFEB;}
	.st3{fill:#131E19;}
	.st4{fill:none;stroke:#F0C808;stroke-width:4;}
</style>
<path d="M2,2h256c4.4,0,8,3.6,8,8v338c0,4.4-3.6,8-8,8H10c-4.4,0-8-3.6-8-8V2z"/>
<path class="st0" d="M70,2h188c4.4,0,8,3.1,8,7v342c0,3.9-3.6,7-8,7H10c-4.4,0-8-3.1-8-7V65.1"/>
<path class="st1" d="M28,20h212c4.4,0,8,3.6,8,8v76c0,4.4-3.6,8-8,8H28c-4.4,0-8-3.6-8-8V28C20,23.6,23.6,20,28,20z"/>
<path class="st2" d="M113.6,63V49.3h3.9l3.1,10.7l3.1-10.7h3.9V63h-2.2V51.8h-0.3l-3.2,10.7h-2.3l-3.2-10.7h-0.3V63
	C115.8,63,113.6,63,113.6,63z M131.1,63V53h2.2v10H131.1z M131.1,51.3V49h2.2v2.3H131.1z M144.9,48.8V63h-2.2v-0.5
	c-1,0.5-1.9,0.7-2.7,0.7c-1.3,0-2.3-0.4-2.9-1.2c-0.6-0.8-0.9-2.1-0.9-4s0.3-3.2,1-4c0.7-0.8,1.7-1.3,3.2-1.3c0.5,0,1.2,0.1,2.3,0.3
	v-4.2H144.9z M142.4,60.9l0.3-0.1v-5.9c-0.8-0.1-1.5-0.2-2.2-0.2c-1.3,0-2,1.1-2,3.4c0,1.2,0.2,2.1,0.5,2.6c0.3,0.5,0.8,0.7,1.5,0.7
	S141.8,61.2,142.4,60.9z M158.8,63.2c-2.1,0-3.5-0.6-4.4-1.7c-0.8-1.1-1.2-2.9-1.2-5.3c0-2.4,0.4-4.2,1.2-5.4
	c0.8-1.2,2.3-1.8,4.3-1.8c2.1,0,3.5,0.6,4.3,1.8c0.8,1.2,1.2,3,1.2,5.4c0,1.6-0.2,2.9-0.5,3.9c-0.3,1-0.9,1.7-1.7,2.3l1.7,2.7
	l-2.1,1l-1.8-2.9C159.7,63.2,159.3,63.2,158.8,63.2z M156.2,60.1c0.5,0.8,1.3,1.2,2.6,1.2s2.1-0.4,2.6-1.1c0.5-0.8,0.7-2.1,0.7-3.9
	s-0.2-3.2-0.7-4c-0.5-0.8-1.3-1.2-2.6-1.2c-1.3,0-2.1,0.4-2.6,1.2c-0.5,0.8-0.7,2.1-0.7,4S155.7,59.3,156.2,60.1z M166.3,63
	l3.4-13.7h4.4l3.4,13.7h-2.2l-0.7-2.9h-5.3l-0.7,2.9H166.3L166.3,63z M171.4,51.2l-1.7,6.9h4.4l-1.7-6.9H171.4L171.4,51.2z
	 M113.6,87V73.3h8.6v1.9h-6.4v3.9h5.2V81h-5.2v4h6.4v2H113.6z M127.4,87h-2.2V77h2.2v0.6c1-0.6,1.9-0.8,2.8-0.8
	c1.3,0,2.2,0.4,2.7,1.1c0.5,0.7,0.7,2,0.7,3.7V87h-2.2v-5.3c0-1.1-0.1-1.8-0.4-2.3c-0.2-0.5-0.7-0.7-1.4-0.7c-0.7,0-1.3,0.1-2,0.4
	l-0.3,0.1V87z M145.6,88.4c0,2.2-1.6,3.3-4.7,3.3c-1.5,0-2.6-0.2-3.4-0.6c-0.7-0.4-1.1-1.2-1.1-2.3c0-0.5,0.1-0.9,0.4-1.3
	c0.2-0.3,0.6-0.7,1.2-1.1c-0.4-0.3-0.7-0.8-0.7-1.5c0-0.3,0.2-0.7,0.5-1.3l0.2-0.3c-1-0.6-1.4-1.6-1.4-3c0-1.2,0.4-2.1,1.1-2.6
	s1.7-0.8,2.9-0.8c0.6,0,1.2,0.1,1.7,0.2l0.3,0.1l3.1-0.1v1.8l-1.7-0.1c0.4,0.5,0.5,1,0.5,1.6c0,1.3-0.3,2.2-1,2.7
	c-0.7,0.5-1.7,0.7-3.1,0.7c-0.3,0-0.6,0-0.9-0.1c-0.2,0.5-0.3,0.8-0.3,1.1c0,0.2,0.1,0.4,0.4,0.5c0.3,0.1,0.9,0.1,1.8,0.2
	c1.6,0,2.7,0.2,3.3,0.6C145.3,86.4,145.6,87.2,145.6,88.4L145.6,88.4z M138.6,88.6c0,0.5,0.2,0.8,0.6,1c0.4,0.2,1,0.3,1.9,0.3
	c1.6,0,2.4-0.5,2.4-1.4c0-0.5-0.1-0.9-0.4-1c-0.3-0.1-0.8-0.2-1.7-0.2l-2-0.1c-0.3,0.2-0.5,0.5-0.6,0.7
	C138.6,88,138.6,88.3,138.6,88.6z M138.7,80.3c0,0.6,0.1,1.1,0.4,1.4c0.3,0.3,0.8,0.4,1.4,0.4c0.7,0,1.1-0.1,1.4-0.4
	c0.3-0.3,0.4-0.7,0.4-1.4s-0.1-1.1-0.4-1.3c-0.3-0.3-0.8-0.4-1.4-0.4C139.3,78.5,138.7,79.1,138.7,80.3z M148.2,87V77h2.2v10H148.2z
	 M148.2,75.3V73h2.2v2.3H148.2z M156,87h-2.2V77h2.2v0.6c1-0.6,1.9-0.8,2.8-0.8c1.3,0,2.2,0.4,2.7,1.1c0.5,0.7,0.7,2,0.7,3.7V87H160
	v-5.3c0-1.1-0.1-1.8-0.4-2.3c-0.2-0.5-0.7-0.7-1.4-0.7c-0.7,0-1.3,0.1-2,0.4l-0.3,0.1V87z M172.7,85.2l0.6-0.1l0,1.6
	c-1.5,0.3-2.9,0.5-4,0.5c-1.5,0-2.5-0.4-3.2-1.2c-0.6-0.8-1-2.1-1-3.9c0-3.5,1.4-5.3,4.3-5.3c2.8,0,4.2,1.5,4.2,4.6l-0.1,1.6h-6.2
	c0,0.8,0.2,1.4,0.5,1.8c0.3,0.4,1,0.6,1.9,0.6C170.7,85.3,171.7,85.3,172.7,85.2L172.7,85.2z M171.5,81.2c0-1-0.2-1.7-0.5-2.1
	c-0.3-0.4-0.8-0.6-1.6-0.6c-0.7,0-1.3,0.2-1.6,0.6c-0.3,0.4-0.5,1.1-0.5,2C167.2,81.2,171.5,81.2,171.5,81.2z M183.6,85.2l0.6-0.1
	l0,1.6c-1.5,0.3-2.9,0.5-4,0.5c-1.5,0-2.5-0.4-3.2-1.2c-0.6-0.8-1-2.1-1-3.9c0-3.5,1.4-5.3,4.3-5.3c2.8,0,4.2,1.5,4.2,4.6l-0.1,1.6
	h-6.2c0,0.8,0.2,1.4,0.5,1.8s1,0.6,1.9,0.6S182.6,85.3,183.6,85.2L183.6,85.2z M182.4,81.2c0-1-0.2-1.7-0.5-2.1
	c-0.3-0.4-0.8-0.6-1.6-0.6c-0.7,0-1.3,0.2-1.6,0.6c-0.3,0.4-0.5,1.1-0.5,2C178.2,81.2,182.4,81.2,182.4,81.2z M187.5,87V77h2.2v1.2
	c1.1-0.7,2.3-1.2,3.4-1.4V79c-1.1,0.2-2.1,0.5-2.9,0.9l-0.4,0.2v7H187.5z"/>
<circle class="st2" cx="66" cy="66" r="30"/>
<path class="st1" d="M65.5,76.4c-3.3,0-5.7-0.9-7-2.7c-1.3-1.8-2-4.6-2-8.5c0-3.9,0.7-6.8,2-8.6c1.3-1.9,3.7-2.8,6.9-2.8
	s5.6,0.9,6.9,2.8c1.3,1.9,2,4.7,2,8.6c0,2.6-0.3,4.6-0.8,6.2c-0.5,1.6-1.4,2.8-2.7,3.6l2.7,4.3l-3.3,1.5l-2.8-4.7
	C67,76.3,66.4,76.4,65.5,76.4z M61.3,71.4c0.7,1.2,2.1,1.9,4.2,1.9c2,0,3.4-0.6,4.1-1.8c0.7-1.2,1.1-3.3,1.1-6.2s-0.4-5-1.1-6.4
	c-0.7-1.3-2.1-2-4.1-2c-2,0-3.4,0.7-4.1,2c-0.7,1.3-1.1,3.4-1.1,6.3S60.6,70.1,61.3,71.4z M20,136c0-4.4,3.6-8,8-8h212
	c4.4,0,8,3.6,8,8v40H20V136z"/>
<path class="st2" d="M85.3,147h4.2c1.1,0,2,0.2,2.5,0.7c0.6,0.4,0.8,1.2,0.8,2.2c0,0.7-0.1,1.2-0.3,1.5c-0.2,0.4-0.5,0.7-1,0.9
	c1,0.4,1.6,1.3,1.6,2.5c0,2.1-1.2,3.1-3.5,3.1h-4.3V147z M89.4,153.2H87v3.2h2.4c0.6,0,1-0.1,1.3-0.4c0.3-0.2,0.4-0.7,0.4-1.3
	s-0.2-1-0.5-1.2C90.4,153.3,89.9,153.2,89.4,153.2z M89.3,148.6H87v3.1h2.4c1,0,1.6-0.5,1.6-1.6C91,149.1,90.4,148.6,89.3,148.6z
	 M95.6,158v-11.3h1.7V158L95.6,158L95.6,158z M106.1,152.5v3.6c0,0.2,0.1,0.4,0.2,0.5c0.1,0.1,0.3,0.2,0.5,0.2l0,1.3
	c-0.9,0-1.6-0.2-2.1-0.6c-0.9,0.4-1.7,0.6-2.6,0.6c-1.6,0-2.4-0.8-2.4-2.5c0-0.8,0.2-1.4,0.6-1.8c0.4-0.4,1.1-0.6,2-0.7l2.1-0.2
	v-0.6c0-0.4-0.1-0.7-0.3-0.9c-0.2-0.2-0.5-0.3-0.8-0.3c-0.7,0-1.5,0-2.6,0.1l-0.5,0l-0.1-1.2c1.2-0.3,2.2-0.4,3.2-0.4
	c1,0,1.7,0.2,2.1,0.6C105.9,150.9,106.1,151.5,106.1,152.5z M102.5,154.4c-0.7,0.1-1.1,0.5-1.1,1.2s0.3,1.1,1,1.1
	c0.5,0,1.1-0.1,1.7-0.3l0.3-0.1v-2.1L102.5,154.4z M111.9,149.8c0.6,0,1.2,0.1,2,0.2l0.4,0.1l-0.1,1.4c-0.8-0.1-1.5-0.1-1.9-0.1
	c-0.8,0-1.4,0.2-1.6,0.5s-0.4,1-0.4,2s0.1,1.7,0.4,2.1s0.8,0.6,1.7,0.6l1.9-0.1l0,1.4c-1.1,0.2-1.9,0.3-2.4,0.3
	c-1.2,0-2.1-0.3-2.6-1c-0.5-0.7-0.7-1.7-0.7-3.2s0.3-2.6,0.8-3.2C109.9,150.1,110.7,149.8,111.9,149.8z M118.4,158h-1.7v-11.3h1.7
	v6.5l1-0.1l1.9-3.1h2l-2.3,3.7l2.4,4.3h-2l-2-3.4l-1,0.1L118.4,158L118.4,158z M129.6,147h4.2c1.1,0,2,0.2,2.5,0.7
	c0.6,0.4,0.8,1.2,0.8,2.2c0,0.7-0.1,1.2-0.3,1.5c-0.2,0.4-0.5,0.7-1,0.9c1,0.4,1.6,1.3,1.6,2.5c0,2.1-1.2,3.1-3.5,3.1h-4.3
	L129.6,147L129.6,147z M133.8,153.2h-2.4v3.2h2.4c0.6,0,1-0.1,1.3-0.4c0.3-0.2,0.4-0.7,0.4-1.3s-0.2-1-0.5-1.2
	C134.7,153.3,134.3,153.2,133.8,153.2z M133.7,148.6h-2.3v3.1h2.4c1,0,1.6-0.5,1.6-1.6C135.3,149.1,134.8,148.6,133.7,148.6z
	 M140.3,150.9c0.6-0.7,1.5-1,2.8-1s2.2,0.3,2.7,1c0.6,0.7,0.8,1.7,0.8,3.1s-0.3,2.4-0.8,3.1s-1.5,1.1-2.8,1.1
	c-1.3,0-2.2-0.4-2.8-1.1s-0.8-1.7-0.8-3.1S139.8,151.6,140.3,150.9L140.3,150.9z M141.6,156.1c0.2,0.4,0.7,0.6,1.4,0.6
	s1.2-0.2,1.4-0.6s0.4-1.1,0.4-2.1s-0.1-1.7-0.4-2.1c-0.3-0.4-0.7-0.6-1.4-0.6s-1.2,0.2-1.4,0.6c-0.3,0.4-0.4,1.1-0.4,2.1
	S141.4,155.6,141.6,156.1z M148,150h1.9l1.6,2.8l1.6-2.8h1.9l-2.4,3.9l2.4,4.1h-1.9l-1.6-2.7l-1.6,2.7H148l2.3-4L148,150z
	 M160.2,148.6V147h8v1.6h-3.1v9.4h-1.8v-9.4L160.2,148.6L160.2,148.6z M174.5,156.6l0.4,0l0,1.3c-1.2,0.2-2.3,0.4-3.2,0.4
	c-1.2,0-2-0.3-2.6-1c-0.5-0.7-0.8-1.7-0.8-3.1c0-2.8,1.2-4.3,3.5-4.3c2.2,0,3.4,1.2,3.4,3.7l-0.1,1.2h-5c0,0.7,0.2,1.1,0.4,1.5
	c0.3,0.3,0.8,0.5,1.6,0.5C172.9,156.7,173.7,156.6,174.5,156.6L174.5,156.6z M173.6,153.4c0-0.8-0.1-1.3-0.4-1.6
	c-0.2-0.3-0.7-0.5-1.3-0.5c-0.6,0-1,0.2-1.3,0.5c-0.3,0.3-0.4,0.9-0.4,1.6L173.6,153.4L173.6,153.4z M183.1,151.6
	c-1.3-0.2-2.2-0.3-2.7-0.3c-0.6,0-1,0.1-1.2,0.2c-0.2,0.1-0.3,0.3-0.3,0.6s0.1,0.5,0.4,0.6c0.2,0.1,0.8,0.3,1.7,0.4
	c0.9,0.1,1.5,0.4,1.9,0.7c0.4,0.3,0.6,0.9,0.6,1.8s-0.3,1.5-0.8,1.9c-0.5,0.4-1.3,0.6-2.4,0.6c-0.6,0-1.5-0.1-2.5-0.3l-0.5-0.1
	l0.1-1.5c1.3,0.2,2.2,0.3,2.8,0.3c0.6,0,1-0.1,1.2-0.2c0.2-0.1,0.4-0.4,0.4-0.7s-0.1-0.5-0.4-0.7c-0.2-0.1-0.8-0.3-1.6-0.4
	c-0.9-0.1-1.5-0.4-1.9-0.7c-0.4-0.3-0.6-0.9-0.6-1.7s0.3-1.4,0.8-1.8c0.6-0.4,1.3-0.6,2.2-0.6c0.7,0,1.5,0.1,2.5,0.3l0.5,0.1
	L183.1,151.6L183.1,151.6z M190,151.5h-2.2v3.5c0,0.7,0,1.1,0.1,1.3c0.1,0.2,0.3,0.3,0.7,0.3l1.3,0l0.1,1.4
	c-0.7,0.1-1.3,0.2-1.6,0.2c-0.9,0-1.5-0.2-1.9-0.6c-0.3-0.4-0.5-1.2-0.5-2.4v-3.7h-1V150h1v-2.3h1.7v2.3h2.2L190,151.5L190,151.5z
	 M192.1,158v-8h1.7v8H192.1z M192.1,148.6v-1.8h1.7v1.8H192.1z M198.4,158h-1.7v-8h1.7v0.5c0.8-0.4,1.5-0.7,2.2-0.7
	c1.1,0,1.8,0.3,2.2,0.9c0.4,0.6,0.6,1.6,0.6,3v4.3h-1.7v-4.2c0-0.9-0.1-1.5-0.3-1.8c-0.2-0.4-0.6-0.5-1.1-0.5
	c-0.5,0-1.1,0.1-1.6,0.3l-0.2,0.1L198.4,158L198.4,158z M213,159.1c0,1.7-1.3,2.6-3.8,2.6c-1.2,0-2.1-0.2-2.7-0.5
	c-0.6-0.3-0.9-0.9-0.9-1.8c0-0.4,0.1-0.7,0.3-1c0.2-0.3,0.5-0.6,0.9-0.9c-0.4-0.2-0.5-0.6-0.5-1.2c0-0.2,0.1-0.6,0.4-1l0.1-0.2
	c-0.8-0.5-1.2-1.3-1.2-2.4c0-1,0.3-1.7,0.9-2.1s1.4-0.7,2.3-0.7c0.5,0,0.9,0.1,1.4,0.2l0.2,0l2.5-0.1v1.4l-1.3-0.1
	c0.3,0.4,0.4,0.8,0.4,1.3c0,1-0.3,1.8-0.8,2.2c-0.5,0.4-1.3,0.6-2.5,0.6c-0.3,0-0.5,0-0.7-0.1c-0.1,0.4-0.2,0.6-0.2,0.8
	c0,0.2,0.1,0.3,0.3,0.4c0.2,0.1,0.7,0.1,1.4,0.1c1.3,0,2.1,0.2,2.6,0.5C212.7,157.5,213,158.2,213,159.1L213,159.1z M207.3,159.2
	c0,0.4,0.1,0.6,0.4,0.8c0.3,0.2,0.8,0.2,1.5,0.2c1.3,0,1.9-0.4,1.9-1.1c0-0.4-0.1-0.7-0.4-0.8c-0.2-0.1-0.7-0.2-1.4-0.2l-1.6-0.1
	c-0.2,0.2-0.4,0.4-0.5,0.5C207.4,158.8,207.3,159,207.3,159.2L207.3,159.2z M207.4,152.6c0,0.5,0.1,0.9,0.4,1.1
	c0.2,0.2,0.6,0.3,1.1,0.3c0.5,0,0.9-0.1,1.1-0.3c0.2-0.2,0.4-0.6,0.4-1.1s-0.1-0.8-0.4-1.1c-0.2-0.2-0.6-0.4-1.1-0.4
	C207.9,151.2,207.4,151.7,207.4,152.6L207.4,152.6z"/>
<circle class="st2" cx="52" cy="152" r="16"/>
<path class="st3" d="M51.7,144l-7.1,2.4l7.1,3.1l7.1-3.1L51.7,144z M45.2,155.2L44,147l7.2,3.2v9.8C51.2,160,45.2,155.2,45.2,155.2z
	 M59.5,147l-7.1,3.2v9.8l6-4.8L59.5,147z"/>
<path class="st1" d="M20,178h228v48H20V178z"/>
<path class="st2" d="M84.3,208l2.7-11h3.5l2.7,11h-1.8l-0.6-2.4h-4.2l-0.6,2.4H84.3z M88.4,198.5l-1.4,5.6h3.5l-1.3-5.6
	C89.2,198.5,88.4,198.5,88.4,198.5z M95.3,211.4V200H97v0.5c0.7-0.4,1.4-0.7,2.1-0.7c1.1,0,1.8,0.3,2.3,1c0.5,0.6,0.7,1.7,0.7,3.2
	c0,1.5-0.3,2.6-0.8,3.2c-0.6,0.6-1.5,0.9-2.7,0.9c-0.5,0-1-0.1-1.5-0.1v3.4H95.3z M98.8,201.4c-0.5,0-1,0.1-1.5,0.3l-0.2,0.1v4.7
	c0.5,0.1,0.9,0.1,1.4,0.1c0.7,0,1.2-0.2,1.5-0.6s0.4-1.1,0.4-2.1C100.3,202.2,99.8,201.4,98.8,201.4z M104.5,211.4V200h1.7v0.5
	c0.7-0.4,1.4-0.7,2.1-0.7c1.1,0,1.8,0.3,2.3,1c0.5,0.6,0.7,1.7,0.7,3.2c0,1.5-0.3,2.6-0.8,3.2c-0.6,0.6-1.5,0.9-2.7,0.9
	c-0.5,0-1-0.1-1.5-0.1v3.4H104.5z M108,201.4c-0.5,0-1,0.1-1.5,0.3l-0.2,0.1v4.7c0.5,0.1,0.9,0.1,1.4,0.1c0.7,0,1.2-0.2,1.5-0.6
	s0.4-1.1,0.4-2.1C109.6,202.2,109.1,201.4,108,201.4z M113.7,208v-8h1.7v8H113.7z M113.7,198.6v-1.8h1.7v1.8H113.7z M123.1,200h1.7
	v8h-1.7v-0.5c-0.8,0.4-1.5,0.7-2.2,0.7c-1.1,0-1.8-0.3-2.2-0.9c-0.4-0.6-0.6-1.6-0.6-3.1V200h1.7v4.2c0,1,0.1,1.6,0.2,1.9
	c0.2,0.3,0.5,0.5,1.1,0.5c0.6,0,1.1-0.1,1.6-0.3l0.2-0.1V200z M129.3,208h-1.7v-8h1.7v0.5c0.8-0.4,1.4-0.7,2.1-0.7
	c0.9,0,1.6,0.3,2,0.8c1-0.5,1.9-0.8,2.9-0.8s1.6,0.3,2,0.9c0.4,0.6,0.6,1.6,0.6,3v4.3h-1.7v-4.2c0-0.9-0.1-1.5-0.3-1.8
	c-0.2-0.4-0.5-0.5-1.1-0.5c-0.5,0-1,0.1-1.6,0.3l-0.3,0.1c0.1,0.2,0.1,0.9,0.1,2v4.1h-1.7v-4.1c0-0.9-0.1-1.6-0.3-2
	c-0.2-0.4-0.5-0.5-1.1-0.5c-0.5,0-1,0.1-1.5,0.3l-0.2,0.1L129.3,208L129.3,208z"/>
<circle class="st2" cx="52" cy="202" r="16"/>
<path class="st3" d="M55.8,201.3c-0.1,0.2-0.2,0.5-0.3,0.7c-1.5-1.9-3.8-3.1-6.3-3.1c-1.9,0-3.7,0.6-5.1,1.8
	c0.7-4.4,4.8-7.3,9.2-6.6c0.5,0.1,1.1,0.2,1.6,0.4c0.3,0.1,0.6,0.3,0.9,0.4v0c0.2,0.4,0.3,0.8,0.4,1.2
	C56.6,197.8,56.5,199.7,55.8,201.3L55.8,201.3z"/>
<path class="st3" d="M54.8,209.5c-4.1,1.6-8.8-0.5-10.3-4.7c-0.3-0.8-0.5-1.6-0.5-2.4c1.3-1.8,3.3-3,5.5-3.3c0.2,0,0.5-0.1,0.7-0.1
	c-1.6,4.1,0.4,8.8,4.5,10.4c0,0,0,0,0,0L54.8,209.5L54.8,209.5L54.8,209.5z"/>
<path class="st3" d="M60,202c0,2.4-1.1,4.6-2.9,6.2c-0.3,0.2-0.5,0.4-0.8,0.6c-2.2-0.2-4.2-1.4-5.6-3.1c-0.1-0.2-0.3-0.4-0.4-0.6
	c4.4-0.6,7.5-4.6,6.9-9c0-0.1,0-0.1,0-0.2C58.9,197.4,60,199.6,60,202L60,202z"/>
<path class="st3" d="M60,202c0,2.4-1.1,4.6-2.9,6.2c-0.3,0.2-0.5,0.4-0.8,0.6c-2.5-0.3-4.7-1.6-6-3.7c3.8,1.2,7.9-0.6,9.6-4.3v0
	C60,201.2,60,201.6,60,202z M47.7,204.5c-0.1,1.8,0.4,3.6,1.5,5c-3-1.1-5-3.9-5.2-7.2v0.1c1.4-2,3.7-3.3,6.2-3.4
	C48.7,200.5,47.8,202.4,47.7,204.5L47.7,204.5L47.7,204.5z"/>
<path class="st3" d="M47.7,204.5c-0.1,1.8,0.4,3.6,1.5,5c-3-1.1-5-3.9-5.2-7.2v0.1c1.4-2,3.7-3.3,6.2-3.4
	C48.7,200.5,47.8,202.4,47.7,204.5L47.7,204.5L47.7,204.5z M55.8,201.3c-0.1,0.2-0.2,0.4-0.3,0.7c-0.5-2-1.7-3.8-3.5-4.9
	c-1.5-1-3.3-1.4-5.1-1.2c2.5-2.1,6-2.4,8.8-0.9c0.2,0.4,0.3,0.8,0.4,1.2C56.6,197.8,56.5,199.7,55.8,201.3L55.8,201.3z"/>
<path class="st4" d="M54,2H2v56"/>
<path class="st1" d="M28,292h212c4.4,0,8,3.6,8,8v32c0,4.4-3.6,8-8,8H28c-4.4,0-8-3.6-8-8v-32C20,295.6,23.6,292,28,292z"/>
<path class="st2" d="M85.3,322v-11h6.9v1.6H87v3.1h4.2v1.5H87v3.2h5.1v1.6H85.3z M93.8,314h1.9l1.6,2.8l1.6-2.8h1.9l-2.4,3.9
	l2.4,4.1h-1.9l-1.6-2.7l-1.6,2.7h-1.9l2.3-4C96.1,318,93.8,314,93.8,314z M106.9,315.5h-2.2v3.5c0,0.7,0,1.1,0.1,1.3
	c0.1,0.2,0.3,0.3,0.7,0.3l1.3,0l0.1,1.4c-0.7,0.1-1.3,0.2-1.6,0.2c-0.9,0-1.5-0.2-1.9-0.6c-0.3-0.4-0.5-1.2-0.5-2.4v-3.7h-1V314h1
	v-2.3h1.7v2.3h2.2L106.9,315.5L106.9,315.5z M114.7,320.6l0.4,0l0,1.3c-1.2,0.2-2.3,0.4-3.2,0.4c-1.2,0-2-0.3-2.6-1
	c-0.5-0.7-0.8-1.7-0.8-3.1c0-2.8,1.2-4.3,3.5-4.3c2.2,0,3.4,1.2,3.4,3.7l-0.1,1.2h-5c0,0.7,0.2,1.1,0.4,1.5s0.8,0.5,1.6,0.5
	S113.9,320.6,114.7,320.6L114.7,320.6z M113.7,317.4c0-0.8-0.1-1.3-0.4-1.6c-0.2-0.3-0.7-0.5-1.3-0.5s-1,0.2-1.3,0.5
	c-0.3,0.3-0.4,0.9-0.4,1.6L113.7,317.4L113.7,317.4z M119.5,322h-1.7v-8h1.7v0.5c0.8-0.4,1.5-0.7,2.2-0.7c1.1,0,1.8,0.3,2.2,0.9
	c0.4,0.6,0.6,1.6,0.6,3v4.3h-1.7v-4.2c0-0.9-0.1-1.5-0.3-1.8c-0.2-0.4-0.6-0.5-1.1-0.5c-0.5,0-1.1,0.1-1.6,0.3l-0.2,0.1V322z
	 M133.6,310.7V322h-1.7v-0.4c-0.8,0.4-1.5,0.6-2.1,0.6c-1,0-1.8-0.3-2.3-0.9c-0.5-0.6-0.7-1.7-0.7-3.2s0.3-2.6,0.8-3.2
	c0.5-0.7,1.4-1,2.5-1c0.4,0,1,0.1,1.8,0.2v-3.4L133.6,310.7L133.6,310.7z M131.6,320.3l0.3-0.1v-4.7c-0.6-0.1-1.2-0.2-1.8-0.2
	c-1.1,0-1.6,0.9-1.6,2.7c0,1,0.1,1.7,0.4,2c0.3,0.4,0.7,0.6,1.2,0.6C130.6,320.6,131.1,320.5,131.6,320.3z M139.7,312.6V311h8v1.6
	h-3.1v9.4h-1.8v-9.4H139.7z M154,320.6l0.4,0l0,1.3c-1.2,0.2-2.3,0.4-3.2,0.4c-1.2,0-2-0.3-2.6-1c-0.5-0.7-0.8-1.7-0.8-3.1
	c0-2.8,1.2-4.3,3.5-4.3c2.2,0,3.4,1.2,3.4,3.7l-0.1,1.2h-5c0,0.7,0.2,1.1,0.4,1.5c0.3,0.3,0.8,0.5,1.6,0.5S153.2,320.6,154,320.6
	L154,320.6z M153.1,317.4c0-0.8-0.1-1.3-0.4-1.6c-0.2-0.3-0.7-0.5-1.3-0.5s-1,0.2-1.3,0.5c-0.3,0.3-0.4,0.9-0.4,1.6L153.1,317.4
	L153.1,317.4z M163,316.5v3.6c0,0.2,0.1,0.4,0.2,0.5c0.1,0.1,0.3,0.2,0.5,0.2l0,1.3c-0.9,0-1.6-0.2-2.1-0.6
	c-0.9,0.4-1.7,0.6-2.6,0.6c-1.6,0-2.4-0.8-2.4-2.5c0-0.8,0.2-1.4,0.6-1.8c0.4-0.4,1.1-0.6,2-0.7l2.1-0.2v-0.6c0-0.4-0.1-0.7-0.3-0.9
	c-0.2-0.2-0.5-0.3-0.8-0.3c-0.7,0-1.5,0-2.6,0.1l-0.5,0l-0.1-1.2c1.2-0.3,2.2-0.4,3.2-0.4c1,0,1.7,0.2,2.1,0.6
	C162.8,314.9,163,315.5,163,316.5L163,316.5z M159.4,318.4c-0.7,0.1-1.1,0.5-1.1,1.2s0.3,1.1,1,1.1c0.5,0,1.1-0.1,1.7-0.3l0.3-0.1
	v-2.1L159.4,318.4L159.4,318.4z M167.6,322h-1.7v-8h1.7v0.5c0.8-0.4,1.5-0.7,2.1-0.7c0.9,0,1.6,0.3,2,0.8c1-0.5,1.9-0.8,2.9-0.8
	s1.6,0.3,2,0.9c0.4,0.6,0.6,1.6,0.6,3v4.3h-1.7v-4.2c0-0.9-0.1-1.5-0.3-1.8c-0.2-0.4-0.5-0.5-1.1-0.5c-0.5,0-1,0.1-1.6,0.3l-0.3,0.1
	c0.1,0.2,0.1,0.9,0.1,2v4.1h-1.7v-4.1c0-0.9-0.1-1.6-0.3-2c-0.2-0.4-0.5-0.5-1.1-0.5c-0.5,0-1,0.1-1.5,0.3l-0.2,0.1L167.6,322
	L167.6,322z"/>
<circle class="st2" cx="52" cy="316" r="16"/>
<path class="st3" d="M48.9,319.7l-3.3-3.3c-0.4-0.4-1-0.4-1.3,0c-0.4,0.4-0.4,1,0,1.3l4,4c0.4,0.4,1,0.4,1.3,0l10.1-10.1
	c0.4-0.4,0.4-1,0-1.3c-0.4-0.4-1-0.4-1.3,0L48.9,319.7L48.9,319.7z"/>
<path class="st1" d="M20,228h228v40c0,4.4-3.6,8-8,8H28c-4.4,0-8-3.6-8-8V228z"/>
<path class="st2" d="M88.9,258.2c-1.6,0-2.7-0.4-3.3-1.3c-0.6-0.9-0.8-2.3-0.8-4.4s0.3-3.5,0.9-4.3c0.6-0.9,1.7-1.3,3.2-1.3
	c0.9,0,2,0.1,3.1,0.4l-0.1,1.4c-1-0.2-1.9-0.3-2.9-0.3s-1.6,0.3-2,0.9c-0.3,0.6-0.5,1.6-0.5,3.2c0,1.6,0.2,2.6,0.5,3.2
	c0.3,0.6,1,0.8,1.9,0.8s1.9-0.1,2.9-0.2l0,1.5C91,258.1,90,258.2,88.9,258.2L88.9,258.2z M99.1,250h1.7v8h-1.7v-0.5
	c-0.8,0.4-1.5,0.7-2.2,0.7c-1.1,0-1.8-0.3-2.2-0.9c-0.4-0.6-0.6-1.6-0.6-3.1V250h1.7v4.2c0,1,0.1,1.6,0.2,1.9
	c0.2,0.3,0.5,0.5,1.1,0.5c0.6,0,1.1-0.1,1.6-0.3l0.2-0.1V250z M106.6,249.8c0.6,0,1.2,0.1,2,0.2l0.4,0.1l-0.1,1.4
	c-0.8-0.1-1.5-0.1-1.9-0.1c-0.8,0-1.4,0.2-1.6,0.5c-0.3,0.4-0.4,1-0.4,2s0.1,1.7,0.4,2.1c0.3,0.4,0.8,0.6,1.7,0.6l1.9-0.1l0,1.4
	c-1.1,0.2-1.9,0.3-2.4,0.3c-1.2,0-2.1-0.3-2.6-1c-0.5-0.7-0.7-1.7-0.7-3.2s0.3-2.6,0.8-3.2C104.6,250.1,105.4,249.8,106.6,249.8
	L106.6,249.8z M116.2,250h1.7v8h-1.7v-0.5c-0.8,0.4-1.5,0.7-2.2,0.7c-1.1,0-1.8-0.3-2.2-0.9c-0.4-0.6-0.6-1.6-0.6-3.1V250h1.7v4.2
	c0,1,0.1,1.6,0.2,1.9c0.2,0.3,0.5,0.5,1.1,0.5c0.6,0,1.1-0.1,1.6-0.3l0.2-0.1V250z M122.4,258h-1.7v-8h1.7v0.5
	c0.8-0.4,1.5-0.7,2.1-0.7c0.9,0,1.6,0.3,2,0.8c1-0.5,1.9-0.8,2.9-0.8s1.6,0.3,2,0.9c0.4,0.6,0.6,1.6,0.6,3v4.3h-1.7v-4.2
	c0-0.9-0.1-1.5-0.3-1.8c-0.2-0.4-0.5-0.5-1.1-0.5c-0.5,0-1,0.1-1.6,0.3l-0.3,0.1c0.1,0.2,0.1,0.9,0.1,2v4.1h-1.7v-4.1
	c0-0.9-0.1-1.6-0.3-2c-0.2-0.4-0.5-0.5-1.1-0.5c-0.5,0-1,0.1-1.5,0.3l-0.2,0.1C122.4,251.8,122.4,258,122.4,258z M138.4,249.8
	c1.1,0,1.9,0.3,2.4,0.9c0.5,0.6,0.7,1.7,0.7,3.2s-0.3,2.6-0.9,3.3c-0.6,0.6-1.6,0.9-3,0.9c-0.5,0-1.3,0-2.4-0.1l-0.5,0v-11.3h1.7
	v3.6C137.2,250,137.8,249.8,138.4,249.8L138.4,249.8z M137.6,256.6c0.9,0,1.4-0.2,1.7-0.6c0.3-0.4,0.4-1.1,0.4-2s-0.1-1.6-0.4-2
	c-0.2-0.4-0.6-0.6-1.2-0.6c-0.5,0-1,0.1-1.5,0.2l-0.3,0.1v4.9C137,256.6,137.4,256.6,137.6,256.6L137.6,256.6z M149.6,256.6l0.4,0
	l0,1.3c-1.2,0.2-2.3,0.4-3.2,0.4c-1.2,0-2-0.3-2.6-1c-0.5-0.7-0.8-1.7-0.8-3.1c0-2.8,1.2-4.3,3.5-4.3c2.2,0,3.4,1.2,3.4,3.7
	l-0.1,1.2h-5c0,0.7,0.2,1.1,0.4,1.5c0.3,0.3,0.8,0.5,1.6,0.5C148,256.7,148.8,256.6,149.6,256.6L149.6,256.6z M148.6,253.4
	c0-0.8-0.1-1.3-0.4-1.6c-0.2-0.3-0.7-0.5-1.3-0.5c-0.6,0-1,0.2-1.3,0.5c-0.3,0.3-0.4,0.9-0.4,1.6L148.6,253.4L148.6,253.4z
	 M152.7,258v-8h1.7v1c0.9-0.6,1.8-1,2.7-1.1v1.7c-0.9,0.2-1.7,0.4-2.4,0.7l-0.4,0.1v5.6H152.7L152.7,258z"/>
<circle class="st2" cx="52" cy="252" r="16"/>
<path class="st3" d="M50.4,260v-2c-3.8-0.9-6.2-4.7-5.3-8.5c0.8-3.2,3.6-5.4,6.9-5.4c0.7,0,1.5,0.1,2.2,0.4c0.1,0,0.2,0.1,0.3,0.1
	l0.1,0c0.2,0.1,0.4,0.2,0.6,0.2c0.1,0.1,0.3,0.1,0.4,0.2c2.2,1.3,3.6,4,3.4,6.7c-0.3,4.1-3.7,7.6-8.1,8.3L50.4,260L50.4,260z
	 M52.1,244.7L52.1,244.7c-3.5,0-6.4,2.8-6.4,6.3c0,3,2.2,5.7,5.1,6.2l0.3,0.1v1.8c3.9-0.8,6.9-3.9,7.1-7.6c0.2-2.4-1.1-4.8-3-6l0,0
	c-0.3-0.2-0.5-0.3-0.8-0.4l-0.1,0c-0.1,0-0.2-0.1-0.2-0.1C53.4,244.8,52.8,244.7,52.1,244.7L52.1,244.7z"/>
<path class="st3" d="M50.7,247.7c0.2,0,0.4,0.1,0.5,0.2c0.1,0.1,0.2,0.2,0.3,0.4c0.2,0.5,0.4,1.2,0.1,1.6c-0.6-0.1-1.1-0.5-1.4-1.1
	c-0.1-0.1-0.1-0.3-0.1-0.5C50.1,248,50.4,247.7,50.7,247.7z M49.1,249.3c0,0,0.1,0,0.1,0c0.2,0,0.3,0,0.5,0.1c0.5,0.2,1,0.7,1.2,1.2
	c-0.4,0.3-1.2,0.3-1.7,0c-0.1-0.1-0.3-0.2-0.4-0.3c-0.3-0.2-0.3-0.6-0.1-0.8c0,0,0.1-0.1,0.1-0.1C48.9,249.4,49,249.3,49.1,249.3
	L49.1,249.3z M49.7,252.9c-0.2,0.1-0.3,0.1-0.5,0.1c-0.3,0-0.5-0.1-0.6-0.4c-0.1-0.2,0-0.5,0.2-0.7c0.1-0.1,0.3-0.2,0.4-0.3
	c0.2-0.1,0.4-0.1,0.6-0.1c0.3,0,0.9-0.1,1.1,0.1C50.8,252.1,50.2,252.7,49.7,252.9L49.7,252.9z M51.8,254c-0.1,0.1-0.1,0.3-0.2,0.4
	c-0.4,0.5-1.2,0.1-1.1-0.5c0-0.2,0-0.3,0.1-0.5c0.2-0.5,0.8-1.1,1.3-1.2C52.1,252.7,52,253.5,51.8,254L51.8,254z M52.6,248.2
	c0.1-0.1,0.2-0.3,0.2-0.4c0.1-0.2,0.3-0.2,0.5-0.2c0.4,0,0.6,0.3,0.6,0.7c0,0.2,0,0.3-0.1,0.5c-0.2,0.5-0.7,0.9-1.3,1.1
	C52.3,249.4,52.4,248.7,52.6,248.2L52.6,248.2z M52.9,254.4c-0.1-0.1-0.2-0.2-0.2-0.4c-0.2-0.5-0.2-1.2,0.1-1.6
	c0.5,0.1,1,0.6,1.2,1.1c0.1,0.1,0.1,0.3,0.1,0.5C54.1,254.5,53.3,254.8,52.9,254.4z M55.1,252.9c-0.2,0-0.3,0-0.5-0.1
	c-0.5-0.2-1-0.7-1.1-1.2c0.3-0.2,0.8-0.2,1.1-0.2c0.2,0,0.4,0,0.6,0.1c0.1,0.1,0.3,0.1,0.4,0.2C56,252.2,55.7,253,55.1,252.9
	L55.1,252.9z"/>
</svg>
