<?xml version="1.0" encoding="utf-8"?>
<!-- Generator: Adobe Illustrator 22.0.1, SVG Export Plug-In . SVG Version: 6.00 Build 0)  -->
<svg version="1.1" id="Layer_1" xmlns="http://www.w3.org/2000/svg" xmlns:xlink="http://www.w3.org/1999/xlink" x="0px" y="0px"
	 viewBox="0 0 268 360" style="enable-background:new 0 0 268 360;" xml:space="preserve">
<style type="text/css">
	.st0{fill:none;stroke:#26302B;stroke-width:4;stroke-miterlimit:10;}
	.st1{fill:#101A16;}
	.st2{fill:#EBFFEB;}
	.st3{fill:#131E19;}
	.st4{fill:none;stroke:#F0C808;stroke-width:4;stroke-miterlimit:10;}
</style>
<path d="M2,2h256c4.4,0,8,3.6,8,8V350c0,4.4-3.6,8-8,8H10c-4.4,0-8-3.6-8-8V2z"/>
<path class="st0" d="M70,2h188c4.4,0,8,3.1,8,7v342c0,3.9-3.6,7-8,7H10c-4.4,0-8-3.1-8-7V65.1"/>
<path class="st1" d="M28,20h212c4.4,0,8,3.6,8,8v76c0,4.4-3.6,8-8,8H28c-4.4,0-8-3.6-8-8V28C20,23.6,23.6,20,28,20z"/>
<path class="st2" d="M117.6,51c-1.7,0-2.5,0.6-2.5,1.8c0,0.6,0.2,1.1,0.6,1.3c0.4,0.3,1.3,0.6,2.6,1c1.4,0.4,2.3,0.8,2.9,1.4
	c0.6,0.5,0.8,1.3,0.8,2.5c0,1.4-0.4,2.5-1.2,3.2c-0.8,0.7-1.9,1.1-3.3,1.1c-1.1,0-2.4-0.1-3.8-0.4l-0.7-0.1l0.2-1.8
	c1.8,0.2,3.2,0.4,4.1,0.4c1.7,0,2.5-0.7,2.5-2.2c0-0.6-0.2-1-0.6-1.3c-0.4-0.3-1.2-0.6-2.5-0.9c-1.3-0.3-2.3-0.8-2.9-1.4
	s-1-1.5-1-2.7s0.4-2.2,1.2-2.8c0.8-0.6,1.9-1,3.4-1c1,0,2.2,0.1,3.6,0.4l0.7,0.1l-0.2,1.8C119.7,51.1,118.4,51,117.6,51z M125,63V53
	h2.2v1.2c1.1-0.7,2.3-1.2,3.4-1.4V55c-1.1,0.2-2.1,0.5-2.9,0.9l-0.4,0.2v7H125z M131.9,63v-2.9h2.3V63H131.9z M143,63V49.3h8.5v1.9
	h-6.3v4.6h5.2v1.9h-5.2V63H143z M159.9,53h2.2v10h-2.2v-0.6c-1,0.6-1.9,0.8-2.7,0.8c-1.4,0-2.3-0.4-2.8-1.1c-0.5-0.7-0.7-2-0.7-3.9
	V53h2.2v5.2c0,1.2,0.1,2,0.3,2.4s0.7,0.6,1.4,0.6c0.7,0,1.4-0.1,2-0.4l0.3-0.1V53z M165.6,63V48.8h2.2V63H165.6z M171.5,63V48.8h2.2
	V63H171.5z M186.7,51c-1.7,0-2.5,0.6-2.5,1.8c0,0.6,0.2,1.1,0.6,1.3c0.4,0.3,1.3,0.6,2.6,1c1.4,0.4,2.3,0.8,2.9,1.4
	c0.6,0.5,0.8,1.3,0.8,2.5c0,1.4-0.4,2.5-1.2,3.2c-0.8,0.7-1.9,1.1-3.3,1.1c-1.1,0-2.4-0.1-3.8-0.4l-0.7-0.1l0.2-1.8
	c1.8,0.2,3.2,0.4,4.1,0.4c1.7,0,2.5-0.7,2.5-2.2c0-0.6-0.2-1-0.6-1.3c-0.4-0.3-1.2-0.6-2.5-0.9c-1.3-0.3-2.3-0.8-2.9-1.4
	s-1-1.5-1-2.7s0.4-2.2,1.2-2.8c0.8-0.6,1.9-1,3.4-1c1,0,2.2,0.1,3.6,0.4l0.7,0.1l-0.2,1.8C188.8,51.1,187.4,51,186.7,51L186.7,51z
	 M199.3,54.9h-2.8v4.4c0,0.8,0.1,1.4,0.2,1.6s0.4,0.4,0.9,0.4l1.6-0.1l0.1,1.7c-0.9,0.2-1.6,0.3-2,0.3c-1.1,0-1.9-0.3-2.3-0.8
	c-0.4-0.5-0.6-1.5-0.6-2.9v-4.6h-1.3V53h1.3v-2.9h2.2V53h2.8L199.3,54.9L199.3,54.9z M209.3,56.1v4.6c0,0.3,0.1,0.5,0.2,0.7
	c0.1,0.1,0.4,0.2,0.7,0.3l-0.1,1.7c-1.1,0-2-0.2-2.7-0.7c-1.1,0.5-2.1,0.7-3.2,0.7c-2,0-3-1.1-3-3.2c0-1,0.3-1.7,0.8-2.2
	c0.5-0.5,1.4-0.7,2.5-0.8l2.6-0.2v-0.7c0-0.5-0.1-0.9-0.4-1.1c-0.2-0.2-0.6-0.3-1-0.3c-0.9,0-1.9,0.1-3.2,0.2l-0.6,0l-0.1-1.5
	c1.5-0.3,2.8-0.5,4-0.5c1.2,0,2.1,0.3,2.6,0.8C209,54.1,209.3,54.9,209.3,56.1L209.3,56.1z M204.8,58.6c-0.9,0.1-1.4,0.6-1.4,1.5
	s0.4,1.4,1.2,1.4c0.7,0,1.4-0.1,2.1-0.3l0.4-0.1v-2.7L204.8,58.6L204.8,58.6z M216.6,52.8c0.7,0,1.5,0.1,2.5,0.3l0.5,0.1l-0.1,1.7
	c-1.1-0.1-1.8-0.2-2.3-0.2c-1,0-1.7,0.2-2,0.7c-0.3,0.5-0.5,1.3-0.5,2.6c0,1.3,0.2,2.1,0.5,2.6c0.3,0.5,1,0.7,2.1,0.7l2.3-0.2
	l0.1,1.7c-1.3,0.2-2.4,0.4-3,0.4c-1.5,0-2.6-0.4-3.2-1.2c-0.6-0.8-0.9-2.2-0.9-4s0.3-3.2,1-4C214,53.2,215.1,52.8,216.6,52.8z
	 M224.6,63h-2.2V48.8h2.2V57l1.2-0.1l2.4-3.9h2.4l-2.9,4.7l3,5.3h-2.5l-2.4-4.2l-1.3,0.1L224.6,63L224.6,63z M118.3,87h-4.7V73.3
	h4.7c2.1,0,3.5,0.5,4.3,1.6s1.2,2.7,1.2,5c0,1.2-0.1,2.1-0.2,3c-0.1,0.8-0.4,1.5-0.8,2.2C122,86.4,120.5,87,118.3,87z M121.5,79.9
	c0-1.7-0.2-2.8-0.6-3.6s-1.3-1.1-2.6-1.1h-2.5V85h2.5c1.3,0,2.2-0.5,2.6-1.5c0.2-0.5,0.4-1,0.4-1.6
	C121.5,81.4,121.5,80.7,121.5,79.9z M134.1,85.2l0.6-0.1l0,1.6c-1.5,0.3-2.9,0.5-4,0.5c-1.5,0-2.5-0.4-3.2-1.2c-0.6-0.8-1-2.1-1-3.9
	c0-3.5,1.4-5.3,4.3-5.3c2.8,0,4.2,1.5,4.2,4.6l-0.1,1.6h-6.2c0,0.8,0.2,1.4,0.5,1.8c0.3,0.4,1,0.6,1.9,0.6
	C132.1,85.3,133.1,85.3,134.1,85.2z M132.9,81.2c0-1-0.2-1.7-0.5-2.1c-0.3-0.4-0.8-0.6-1.6-0.6c-0.7,0-1.3,0.2-1.6,0.6
	c-0.3,0.4-0.5,1.1-0.5,2C128.6,81.2,132.9,81.2,132.9,81.2z M136.8,77h2.3l1.9,8.1h0.6l2-8.1h2.2l-2.6,10h-3.9L136.8,77L136.8,77z
	 M155.3,85.2l0.6-0.1l0,1.6c-1.5,0.3-2.9,0.5-4,0.5c-1.5,0-2.5-0.4-3.2-1.2c-0.6-0.8-1-2.1-1-3.9c0-3.5,1.4-5.3,4.3-5.3
	c2.8,0,4.2,1.5,4.2,4.6l-0.1,1.6h-6.2c0,0.8,0.2,1.4,0.5,1.8s1,0.6,1.9,0.6S154.3,85.3,155.3,85.2L155.3,85.2z M154.1,81.2
	c0-1-0.2-1.7-0.5-2.1c-0.3-0.4-0.8-0.6-1.6-0.6c-0.7,0-1.3,0.2-1.6,0.6c-0.3,0.4-0.5,1.1-0.5,2C149.9,81.2,154.1,81.2,154.1,81.2z
	 M159.3,87V72.8h2.2V87H159.3z M165.6,78.1c0.7-0.9,1.8-1.3,3.4-1.3s2.7,0.4,3.4,1.3c0.7,0.9,1,2.2,1,3.9s-0.3,3-1,3.9
	s-1.8,1.3-3.5,1.3s-2.8-0.4-3.5-1.3s-1-2.2-1-3.9S164.9,78.9,165.6,78.1L165.6,78.1z M167.2,84.6c0.3,0.5,0.9,0.8,1.8,0.8
	s1.5-0.3,1.8-0.8c0.3-0.5,0.5-1.4,0.5-2.6s-0.2-2.1-0.5-2.6c-0.3-0.5-0.9-0.8-1.8-0.8s-1.4,0.3-1.8,0.8c-0.3,0.5-0.5,1.4-0.5,2.6
	S166.9,84,167.2,84.6L167.2,84.6z M176.4,91.3V77h2.2v0.6c0.9-0.6,1.8-0.8,2.6-0.8c1.3,0,2.3,0.4,2.9,1.2c0.6,0.8,0.9,2.2,0.9,4.1
	c0,1.9-0.4,3.2-1.1,4c-0.7,0.8-1.8,1.2-3.4,1.2c-0.5,0-1.2-0.1-1.9-0.2v4.3L176.4,91.3L176.4,91.3z M180.8,78.7
	c-0.6,0-1.3,0.1-1.9,0.4l-0.3,0.1v5.9c0.6,0.1,1.2,0.2,1.8,0.2c0.9,0,1.5-0.3,1.9-0.8c0.3-0.5,0.5-1.4,0.5-2.7
	C182.8,79.8,182.1,78.7,180.8,78.7z M195.1,85.2l0.6-0.1l0,1.6c-1.5,0.3-2.9,0.5-4,0.5c-1.5,0-2.5-0.4-3.2-1.2c-0.6-0.8-1-2.1-1-3.9
	c0-3.5,1.4-5.3,4.3-5.3c2.8,0,4.2,1.5,4.2,4.6l-0.1,1.6h-6.2c0,0.8,0.2,1.4,0.5,1.8c0.3,0.4,1,0.6,1.9,0.6
	C193.1,85.3,194.1,85.3,195.1,85.2L195.1,85.2z M193.9,81.2c0-1-0.2-1.7-0.5-2.1c-0.3-0.4-0.8-0.6-1.6-0.6c-0.7,0-1.3,0.2-1.6,0.6
	c-0.3,0.4-0.5,1.1-0.5,2C189.7,81.2,193.9,81.2,193.9,81.2z M198.9,87V77h2.2v1.2c1.1-0.7,2.3-1.2,3.4-1.4V79
	c-1.1,0.2-2.1,0.5-2.9,0.9l-0.4,0.2v7C201.1,87,198.9,87,198.9,87z"/>
<circle class="st2" cx="66" cy="66" r="30"/>
<path class="st1" d="M59.6,78V56.1h13.6v3.1H63.1v7.4h8.4v3.1h-8.4V78H59.6z M20,136c0-4.4,3.6-8,8-8h212c4.4,0,8,3.6,8,8v40H20V136
	z"/>
<path class="st2" d="M84.3,159.1v-1.6c0.6,0,0.9-0.1,1.2-0.3c0.2-0.2,0.3-0.5,0.3-1.1V147h1.8l0,9.3c0,1.1-0.2,1.9-0.7,2.3
	S85.5,159.1,84.3,159.1L84.3,159.1z M96.3,152.5v3.6c0,0.2,0.1,0.4,0.2,0.5c0.1,0.1,0.3,0.2,0.5,0.2l0,1.3c-0.9,0-1.6-0.2-2.1-0.6
	c-0.9,0.4-1.7,0.6-2.6,0.6c-1.6,0-2.4-0.8-2.4-2.5c0-0.8,0.2-1.4,0.6-1.8c0.4-0.4,1.1-0.6,2-0.7l2.1-0.2v-0.6c0-0.4-0.1-0.7-0.3-0.9
	c-0.2-0.2-0.5-0.3-0.8-0.3c-0.7,0-1.5,0-2.6,0.1l-0.5,0l-0.1-1.2c1.2-0.3,2.2-0.4,3.2-0.4c1,0,1.7,0.2,2.1,0.6
	C96.1,150.9,96.3,151.5,96.3,152.5z M92.8,154.4c-0.7,0.1-1.1,0.5-1.1,1.2s0.3,1.1,1,1.1c0.5,0,1.1-0.1,1.7-0.3l0.3-0.1v-2.1
	L92.8,154.4z M98.3,150h1.8l1.5,6.5h0.5l1.6-6.5h1.8l-2.1,8h-3.1L98.3,150z M113.4,152.5v3.6c0,0.2,0.1,0.4,0.2,0.5
	c0.1,0.1,0.3,0.2,0.5,0.2l0,1.3c-0.9,0-1.6-0.2-2.1-0.6c-0.9,0.4-1.7,0.6-2.6,0.6c-1.6,0-2.4-0.8-2.4-2.5c0-0.8,0.2-1.4,0.6-1.8
	c0.4-0.4,1.1-0.6,2-0.7l2.1-0.2v-0.6c0-0.4-0.1-0.7-0.3-0.9c-0.2-0.2-0.5-0.3-0.8-0.3c-0.7,0-1.5,0-2.6,0.1l-0.5,0l-0.1-1.2
	c1.2-0.3,2.2-0.4,3.2-0.4c1,0,1.7,0.2,2.1,0.6C113.2,150.9,113.4,151.5,113.4,152.5z M109.8,154.4c-0.7,0.1-1.1,0.5-1.1,1.2
	s0.3,1.1,1,1.1c0.5,0,1.1-0.1,1.7-0.3l0.3-0.1v-2.1L109.8,154.4z M121.8,151.6c-1.3-0.2-2.2-0.3-2.7-0.3s-1,0.1-1.2,0.2
	c-0.2,0.1-0.3,0.3-0.3,0.6s0.1,0.5,0.4,0.6c0.2,0.1,0.8,0.3,1.7,0.4c0.9,0.1,1.5,0.4,1.9,0.7s0.6,0.9,0.6,1.8s-0.3,1.5-0.8,1.9
	c-0.5,0.4-1.3,0.6-2.4,0.6c-0.7,0-1.5-0.1-2.5-0.3l-0.5-0.1l0.1-1.5c1.3,0.2,2.2,0.3,2.8,0.3s1-0.1,1.2-0.2c0.2-0.1,0.4-0.4,0.4-0.7
	s-0.1-0.5-0.4-0.7c-0.2-0.1-0.8-0.3-1.6-0.4c-0.9-0.1-1.5-0.4-1.9-0.7s-0.6-0.9-0.6-1.7s0.3-1.4,0.8-1.8c0.6-0.4,1.3-0.6,2.2-0.6
	c0.7,0,1.5,0.1,2.5,0.3l0.5,0.1L121.8,151.6L121.8,151.6z M127.4,149.8c0.6,0,1.2,0.1,2,0.2l0.4,0.1l-0.1,1.4
	c-0.8-0.1-1.5-0.1-1.9-0.1c-0.8,0-1.4,0.2-1.6,0.5c-0.3,0.4-0.4,1-0.4,2s0.1,1.7,0.4,2.1s0.8,0.6,1.7,0.6l1.9-0.1l0,1.4
	c-1.1,0.2-1.9,0.3-2.4,0.3c-1.2,0-2.1-0.3-2.6-1c-0.5-0.7-0.7-1.7-0.7-3.2s0.3-2.6,0.8-3.2C125.3,150.1,126.2,149.8,127.4,149.8z
	 M132.1,158v-8h1.7v1c0.9-0.6,1.8-1,2.7-1.1v1.7c-0.9,0.2-1.7,0.4-2.4,0.7l-0.4,0.1v5.6L132.1,158L132.1,158z M138.5,158v-8h1.7v8
	H138.5z M138.5,148.6v-1.8h1.7v1.8H138.5z M143,161.4V150h1.7v0.5c0.7-0.4,1.4-0.7,2.1-0.7c1.1,0,1.8,0.3,2.3,1
	c0.5,0.6,0.7,1.7,0.7,3.2c0,1.5-0.3,2.6-0.8,3.2c-0.6,0.6-1.5,0.9-2.7,0.9c-0.5,0-1-0.1-1.5-0.1v3.4L143,161.4L143,161.4z
	 M146.5,151.4c-0.5,0-1,0.1-1.5,0.3l-0.2,0.1v4.7c0.4,0.1,0.9,0.1,1.4,0.1c0.7,0,1.2-0.2,1.5-0.6c0.3-0.4,0.4-1.1,0.4-2.1
	C148.1,152.2,147.6,151.4,146.5,151.4z M156.6,151.5h-2.2v3.5c0,0.7,0,1.1,0.1,1.3c0.1,0.2,0.3,0.3,0.7,0.3l1.3,0l0.1,1.4
	c-0.7,0.1-1.3,0.2-1.6,0.2c-0.9,0-1.5-0.2-1.9-0.6c-0.3-0.4-0.5-1.2-0.5-2.4v-3.7h-1V150h1v-2.3h1.7v2.3h2.2L156.6,151.5
	L156.6,151.5z"/>
<circle class="st2" cx="52" cy="152" r="16"/>
<path class="st3" d="M44,144h16v16H44V144z M56.2,157.4c-0.7,0-1.2-0.4-1.5-0.9l-1.2,0.7c0.4,0.9,1.3,1.5,2.7,1.5
	c1.4,0,2.5-0.7,2.5-2.1c0-1.3-0.7-1.8-2-2.4l-0.4-0.2c-0.6-0.3-0.9-0.5-0.9-0.9c0-0.4,0.3-0.6,0.7-0.6c0.4,0,0.7,0.2,1,0.6l1.2-0.8
	c-0.5-0.9-1.2-1.2-2.1-1.2c-1.3,0-2.2,0.9-2.2,2c0,1.2,0.7,1.8,1.8,2.3l0.4,0.2c0.7,0.3,1.1,0.5,1.1,1
	C57.3,157.1,56.9,157.4,56.2,157.4L56.2,157.4z M50.4,157.4c-0.5,0-0.7-0.4-1-0.8l-1.2,0.7c0.4,0.8,1.1,1.4,2.3,1.4
	c1.3,0,2.2-0.7,2.2-2.3v-5.1h-1.5v5.1C51.2,157.2,50.9,157.4,50.4,157.4L50.4,157.4z"/>
<path class="st1" d="M20,178h228v48H20V178z"/>
<path class="st2" d="M85.3,208v-11h3.1l3.3,9.4h0.2V197h1.8v11h-3l-3.4-9.4H87v9.4H85.3z M97,200.9c0.6-0.7,1.5-1,2.8-1
	s2.2,0.3,2.7,1c0.6,0.7,0.8,1.7,0.8,3.1s-0.3,2.4-0.8,3.1c-0.5,0.7-1.5,1.1-2.8,1.1s-2.2-0.4-2.8-1.1s-0.8-1.7-0.8-3.1
	S96.5,201.6,97,200.9z M98.3,206.1c0.2,0.4,0.7,0.6,1.4,0.6s1.2-0.2,1.4-0.6s0.4-1.1,0.4-2.1s-0.1-1.7-0.4-2.1
	c-0.3-0.4-0.7-0.6-1.4-0.6s-1.2,0.2-1.4,0.6c-0.3,0.4-0.4,1.1-0.4,2.1S98.1,205.6,98.3,206.1z M112.2,196.7V208h-1.7v-0.4
	c-0.8,0.4-1.5,0.6-2.1,0.6c-1,0-1.8-0.3-2.3-0.9c-0.5-0.6-0.7-1.7-0.7-3.2s0.3-2.6,0.8-3.2c0.5-0.7,1.4-1,2.5-1c0.4,0,1,0.1,1.8,0.2
	v-3.4C110.5,196.7,112.2,196.7,112.2,196.7z M110.2,206.3l0.3-0.1v-4.7c-0.6-0.1-1.2-0.2-1.8-0.2c-1.1,0-1.6,0.9-1.6,2.7
	c0,1,0.1,1.7,0.4,2c0.3,0.4,0.7,0.6,1.2,0.6S109.7,206.5,110.2,206.3L110.2,206.3z M120.7,206.6l0.4,0l0,1.3
	c-1.2,0.2-2.3,0.4-3.2,0.4c-1.2,0-2-0.3-2.6-1c-0.5-0.7-0.8-1.7-0.8-3.1c0-2.8,1.2-4.3,3.5-4.3c2.2,0,3.4,1.2,3.4,3.7l-0.1,1.2h-5
	c0,0.7,0.2,1.1,0.4,1.5c0.3,0.3,0.8,0.5,1.6,0.5S119.9,206.6,120.7,206.6L120.7,206.6z M119.7,203.4c0-0.8-0.1-1.3-0.4-1.6
	c-0.2-0.3-0.7-0.5-1.3-0.5s-1,0.2-1.3,0.5c-0.3,0.3-0.4,0.9-0.4,1.6L119.7,203.4L119.7,203.4z M122.9,209.1v-1.6
	c0.6,0,0.9-0.1,1.2-0.3c0.2-0.2,0.3-0.5,0.3-1.1V197h1.8l0,9.3c0,1.1-0.2,1.9-0.7,2.3S124.1,209.1,122.9,209.1L122.9,209.1z
	 M132.4,198.4c-1.4,0-2,0.5-2,1.4c0,0.5,0.2,0.8,0.5,1.1c0.3,0.2,1,0.5,2.1,0.8c1.1,0.3,1.9,0.7,2.3,1.1c0.4,0.4,0.7,1.1,0.7,2
	c0,1.2-0.3,2-1,2.6c-0.7,0.6-1.5,0.8-2.7,0.8c-0.9,0-1.9-0.1-3-0.3l-0.6-0.1l0.2-1.4c1.4,0.2,2.5,0.3,3.3,0.3c1.3,0,2-0.6,2-1.8
	c0-0.5-0.1-0.8-0.4-1c-0.3-0.2-1-0.5-2-0.7c-1-0.3-1.8-0.6-2.3-1.1s-0.8-1.2-0.8-2.2c0-1,0.3-1.7,1-2.2c0.7-0.5,1.5-0.8,2.7-0.8
	c0.8,0,1.8,0.1,2.9,0.3l0.6,0.1l-0.1,1.4C134.1,198.5,133,198.4,132.4,198.4L132.4,198.4z"/>
<circle class="st2" cx="52" cy="202" r="16"/>
<path class="st3" d="M52,210c-0.2,0-0.4-0.1-0.6-0.2l-1.9-1.2c-0.3-0.2-0.1-0.2-0.1-0.3c0.3-0.1,0.6-0.2,0.9-0.4c0,0,0.1,0,0.1,0
	l1.5,0.9c0.1,0,0.1,0,0.2,0l5.8-3.4c0.1,0,0.1-0.1,0.1-0.2v-6.8c0-0.1,0-0.1-0.1-0.2l-5.8-3.4c-0.1,0-0.1,0-0.2,0l-5.8,3.4
	c-0.1,0-0.1,0.1-0.1,0.2v6.8c0,0.1,0,0.1,0.1,0.2l1.6,0.9c0.9,0.4,1.4-0.1,1.4-0.6v-6.7c0-0.1,0.1-0.2,0.2-0.2H50
	c0.1,0,0.2,0.1,0.2,0.2v6.7c0,1.2-0.6,1.8-1.7,1.8c-0.3,0-0.6,0-1.3-0.4l-1.5-0.9c-0.4-0.2-0.6-0.6-0.6-1.1v-6.8
	c0-0.4,0.2-0.9,0.6-1.1l5.8-3.4c0.4-0.2,0.8-0.2,1.2,0l5.8,3.4c0.4,0.2,0.6,0.6,0.6,1.1v6.8c0,0.4-0.2,0.8-0.6,1.1l-5.8,3.4
	C52.4,209.9,52.2,210,52,210"/>
<path class="st3" d="M53.8,205.3c-2.5,0-3.1-1.2-3.1-2.2c0-0.1,0.1-0.2,0.2-0.2h0.7c0.1,0,0.2,0.1,0.2,0.1c0.1,0.8,0.5,1.2,2,1.2
	c1.2,0,1.7-0.3,1.7-0.9c0-0.4-0.1-0.7-2-0.8c-1.6-0.2-2.6-0.5-2.6-1.8c0-1.2,1-1.9,2.6-1.9c1.9,0,2.8,0.7,2.9,2.1
	c0,0.1-0.1,0.2-0.2,0.2c0,0,0,0,0,0h-0.8c-0.1,0-0.1-0.1-0.2-0.1c-0.2-0.8-0.6-1.1-1.8-1.1c-1.3,0-1.5,0.5-1.5,0.8
	c0,0.4,0.2,0.6,2,0.8c1.8,0.2,2.6,0.6,2.6,1.8C56.7,204.6,55.6,205.3,53.8,205.3C53.8,205.3,53.8,205.3,53.8,205.3z"/>
<path class="st4" d="M54,2H2v56"/>
<path class="st1" d="M28,292h212c4.4,0,8,3.6,8,8v32c0,4.4-3.6,8-8,8H28c-4.4,0-8-3.6-8-8v-32C20,295.6,23.6,292,28,292z"/>
<path class="st2" d="M85.3,322v-11h6.9v1.6H87v3.1h4.2v1.5H87v3.2h5.1v1.6H85.3z M93.8,314h1.9l1.6,2.8l1.6-2.8h1.9l-2.4,3.9
	l2.4,4.1h-1.9l-1.6-2.7l-1.6,2.7h-1.9l2.3-4C96.1,318,93.8,314,93.8,314z M106.9,315.5h-2.2v3.5c0,0.7,0,1.1,0.1,1.3
	c0.1,0.2,0.3,0.3,0.7,0.3l1.3,0l0.1,1.4c-0.7,0.1-1.3,0.2-1.6,0.2c-0.9,0-1.5-0.2-1.9-0.6c-0.3-0.4-0.5-1.2-0.5-2.4v-3.7h-1V314h1
	v-2.3h1.7v2.3h2.2L106.9,315.5L106.9,315.5z M114.7,320.6l0.4,0l0,1.3c-1.2,0.2-2.3,0.4-3.2,0.4c-1.2,0-2-0.3-2.6-1
	c-0.5-0.7-0.8-1.7-0.8-3.1c0-2.8,1.2-4.3,3.5-4.3c2.2,0,3.4,1.2,3.4,3.7l-0.1,1.2h-5c0,0.7,0.2,1.1,0.4,1.5s0.8,0.5,1.6,0.5
	S113.9,320.6,114.7,320.6L114.7,320.6z M113.7,317.4c0-0.8-0.1-1.3-0.4-1.6c-0.2-0.3-0.7-0.5-1.3-0.5s-1,0.2-1.3,0.5
	c-0.3,0.3-0.4,0.9-0.4,1.6L113.7,317.4L113.7,317.4z M119.5,322h-1.7v-8h1.7v0.5c0.8-0.4,1.5-0.7,2.2-0.7c1.1,0,1.8,0.3,2.2,0.9
	c0.4,0.6,0.6,1.6,0.6,3v4.3h-1.7v-4.2c0-0.9-0.1-1.5-0.3-1.8c-0.2-0.4-0.6-0.5-1.1-0.5c-0.5,0-1.1,0.1-1.6,0.3l-0.2,0.1V322z
	 M133.6,310.7V322h-1.7v-0.4c-0.8,0.4-1.5,0.6-2.1,0.6c-1,0-1.8-0.3-2.3-0.9c-0.5-0.6-0.7-1.7-0.7-3.2s0.3-2.6,0.8-3.2
	c0.5-0.7,1.4-1,2.5-1c0.4,0,1,0.1,1.8,0.2v-3.4L133.6,310.7L133.6,310.7z M131.6,320.3l0.3-0.1v-4.7c-0.6-0.1-1.2-0.2-1.8-0.2
	c-1.1,0-1.6,0.9-1.6,2.7c0,1,0.1,1.7,0.4,2c0.3,0.4,0.7,0.6,1.2,0.6C130.6,320.6,131.1,320.5,131.6,320.3z M139.7,312.6V311h8v1.6
	h-3.1v9.4h-1.8v-9.4H139.7z M154,320.6l0.4,0l0,1.3c-1.2,0.2-2.3,0.4-3.2,0.4c-1.2,0-2-0.3-2.6-1c-0.5-0.7-0.8-1.7-0.8-3.1
	c0-2.8,1.2-4.3,3.5-4.3c2.2,0,3.4,1.2,3.4,3.7l-0.1,1.2h-5c0,0.7,0.2,1.1,0.4,1.5c0.3,0.3,0.8,0.5,1.6,0.5S153.2,320.6,154,320.6
	L154,320.6z M153.1,317.4c0-0.8-0.1-1.3-0.4-1.6c-0.2-0.3-0.7-0.5-1.3-0.5s-1,0.2-1.3,0.5c-0.3,0.3-0.4,0.9-0.4,1.6L153.1,317.4
	L153.1,317.4z M163,316.5v3.6c0,0.2,0.1,0.4,0.2,0.5c0.1,0.1,0.3,0.2,0.5,0.2l0,1.3c-0.9,0-1.6-0.2-2.1-0.6
	c-0.9,0.4-1.7,0.6-2.6,0.6c-1.6,0-2.4-0.8-2.4-2.5c0-0.8,0.2-1.4,0.6-1.8c0.4-0.4,1.1-0.6,2-0.7l2.1-0.2v-0.6c0-0.4-0.1-0.7-0.3-0.9
	c-0.2-0.2-0.5-0.3-0.8-0.3c-0.7,0-1.5,0-2.6,0.1l-0.5,0l-0.1-1.2c1.2-0.3,2.2-0.4,3.2-0.4c1,0,1.7,0.2,2.1,0.6
	C162.8,314.9,163,315.5,163,316.5L163,316.5z M159.4,318.4c-0.7,0.1-1.1,0.5-1.1,1.2s0.3,1.1,1,1.1c0.5,0,1.1-0.1,1.7-0.3l0.3-0.1
	v-2.1L159.4,318.4L159.4,318.4z M167.6,322h-1.7v-8h1.7v0.5c0.8-0.4,1.5-0.7,2.1-0.7c0.9,0,1.6,0.3,2,0.8c1-0.5,1.9-0.8,2.9-0.8
	s1.6,0.3,2,0.9c0.4,0.6,0.6,1.6,0.6,3v4.3h-1.7v-4.2c0-0.9-0.1-1.5-0.3-1.8c-0.2-0.4-0.5-0.5-1.1-0.5c-0.5,0-1,0.1-1.6,0.3l-0.3,0.1
	c0.1,0.2,0.1,0.9,0.1,2v4.1h-1.7v-4.1c0-0.9-0.1-1.6-0.3-2c-0.2-0.4-0.5-0.5-1.1-0.5c-0.5,0-1,0.1-1.5,0.3l-0.2,0.1L167.6,322
	L167.6,322z"/>
<circle class="st2" cx="52" cy="316" r="16"/>
<path class="st3" d="M48.9,319.7l-3.3-3.3c-0.4-0.4-1-0.4-1.3,0c-0.4,0.4-0.4,1,0,1.3l4,4c0.4,0.4,1,0.4,1.3,0l10.1-10.1
	c0.4-0.4,0.4-1,0-1.3c-0.4-0.4-1-0.4-1.3,0L48.9,319.7L48.9,319.7z"/>
<path class="st1" d="M20,228h228v40c0,4.4-3.6,8-8,8H28c-4.4,0-8-3.6-8-8V228z"/>
<path class="st2" d="M88.9,258.2c-1.6,0-2.7-0.4-3.3-1.3c-0.6-0.9-0.8-2.3-0.8-4.4s0.3-3.5,0.9-4.3c0.6-0.9,1.7-1.3,3.2-1.3
	c0.9,0,2,0.1,3.1,0.4l-0.1,1.4c-1-0.2-1.9-0.3-2.9-0.3s-1.6,0.3-2,0.9c-0.3,0.6-0.5,1.6-0.5,3.2c0,1.6,0.2,2.6,0.5,3.2
	c0.3,0.6,1,0.8,1.9,0.8s1.9-0.1,2.9-0.2l0,1.5C91,258.1,90,258.2,88.9,258.2L88.9,258.2z M97.8,248.4c-1.4,0-2,0.5-2,1.4
	c0,0.5,0.2,0.8,0.5,1.1c0.3,0.2,1,0.5,2.1,0.8c1.1,0.3,1.9,0.7,2.3,1.1c0.4,0.4,0.7,1.1,0.7,2c0,1.2-0.3,2-1,2.6
	c-0.7,0.6-1.5,0.8-2.7,0.8c-0.9,0-1.9-0.1-3-0.3l-0.6-0.1l0.2-1.4c1.4,0.2,2.5,0.3,3.3,0.3c1.3,0,2-0.6,2-1.8c0-0.5-0.2-0.8-0.4-1
	c-0.3-0.2-1-0.5-2-0.7c-1-0.3-1.8-0.6-2.3-1.1s-0.8-1.2-0.8-2.2c0-1,0.3-1.7,1-2.2c0.7-0.5,1.5-0.8,2.7-0.8c0.8,0,1.8,0.1,2.9,0.3
	l0.6,0.1l-0.1,1.4C99.5,248.5,98.4,248.4,97.8,248.4L97.8,248.4z M107.2,248.4c-1.4,0-2,0.5-2,1.4c0,0.5,0.2,0.8,0.5,1.1
	c0.3,0.2,1,0.5,2.1,0.8c1.1,0.3,1.9,0.7,2.3,1.1c0.4,0.4,0.7,1.1,0.7,2c0,1.2-0.3,2-1,2.6c-0.7,0.6-1.5,0.8-2.7,0.8
	c-0.9,0-1.9-0.1-3-0.3l-0.6-0.1l0.2-1.4c1.4,0.2,2.5,0.3,3.3,0.3c1.3,0,2-0.6,2-1.8c0-0.5-0.2-0.8-0.4-1c-0.3-0.2-1-0.5-2-0.7
	c-1-0.3-1.8-0.6-2.3-1.1s-0.8-1.2-0.8-2.2c0-1,0.3-1.7,1-2.2c0.7-0.5,1.5-0.8,2.7-0.8c0.8,0,1.8,0.1,2.9,0.3l0.6,0.1l-0.1,1.4
	C108.8,248.5,107.8,248.4,107.2,248.4L107.2,248.4z"/>
<circle class="st2" cx="52" cy="252" r="16"/>
<path class="st3" d="M45,244c0,0,0.3,3.3,0.6,7.2c0.3,3.9,0.6,7.2,0.6,7.2c0,0,1.3,0.4,2.9,0.8l2.9,0.8l2.9-0.8
	c1.6-0.4,2.9-0.8,2.9-0.8l0.6-7.2c0.3-3.9,0.6-7.2,0.6-7.2l0,0L45,244L45,244L45,244z M56.5,247c0,0-0.1,1-0.6,6.5
	c-0.1,0.8-0.1,1.7-0.2,2.5c0,0-3.6,1-3.6,1c0,0-3.6-1-3.6-1c0-0.4-0.1-0.9-0.1-1.3c-0.1-0.7-0.1-1.4-0.1-1.4l0,0h0.9
	c0.5,0,0.9,0,0.9,0c0,0.5,0.1,0.9,0.1,1.4c0,0,0.4,0.1,1,0.3l1,0.3l1-0.3c0.5-0.1,1-0.3,1-0.3c0,0,0.2-2.2,0.2-2.2v0h-6.1v0
	c0,0,0-0.4-0.1-0.9l-0.1-0.9c0,0,1.5,0,3.2,0h3.2v0c0,0,0-0.4,0.1-0.9c0-0.5,0.1-0.9,0.1-0.9c0,0-0.3,0-3.4,0l-3.4,0l-0.1-0.8
	l-0.1-0.9l0-0.1L56.5,247C56.5,246.9,56.5,247,56.5,247z"/>
</svg>
