<svg width="124" height="44" viewBox="0 0 124 44" fill="none" xmlns="http://www.w3.org/2000/svg">
<path d="M50.7971 10.899C49.4654 10.899 48.7904 11.4461 48.7904 12.5264V20.2745H38.7612V12.5264C38.7612 11.7843 38.4184 10.899 36.788 10.899C35.4563 10.899 34.7812 11.4461 34.7812 12.5264V32.312C34.7812 33.3908 35.4563 33.9393 36.788 33.9393C38.4184 33.9393 38.7612 33.054 38.7612 32.312V23.8385H48.7904V32.312C48.7904 33.3908 49.4654 33.9393 50.7971 33.9393C52.4275 33.9393 52.7704 33.054 52.7704 32.312V12.5264C52.7704 11.7843 52.4275 10.899 50.7971 10.899" fill="#809CBF"/>
<path d="M67.3683 29.4397C66.8878 29.4856 66.4279 29.6574 66.035 29.9379C65.1634 30.4221 64.1795 30.6675 63.1826 30.6495C62.6966 30.6911 62.2071 30.635 61.743 30.4845C61.279 30.334 60.8497 30.0921 60.4806 29.7732C60.1114 29.4543 59.8098 29.0648 59.5935 28.6275C59.3771 28.1903 59.2505 27.7142 59.2209 27.2272H67.0879C68.3572 27.2272 69.407 27.0368 69.407 24.7009C69.4565 23.7829 69.3139 22.8648 68.9881 22.0051C68.6624 21.1455 68.1607 20.3633 67.5153 19.7087C66.8698 19.0541 66.0948 18.5414 65.2399 18.2036C64.3849 17.8657 63.4688 17.7101 62.5503 17.7466C58.1315 17.7466 55.2852 20.9784 55.2852 25.9747C55.2852 31.0228 58.1696 34.0353 62.9998 34.0353C64.719 34.0893 66.4179 33.6516 67.897 32.7736C68.2071 32.634 68.4745 32.4143 68.6716 32.1371C68.8687 31.86 68.9884 31.5353 69.0185 31.1965C69.0258 30.9715 68.9886 30.7472 68.909 30.5366C68.8294 30.326 68.709 30.1332 68.5547 29.9692C68.4003 29.8053 68.2151 29.6734 68.0097 29.5813C67.8043 29.4891 67.5827 29.4384 67.3576 29.4321L67.3683 29.4397ZM62.4817 20.9251C62.9138 20.9098 63.3442 20.9884 63.743 21.1554C64.1419 21.3224 64.4999 21.5738 64.7923 21.8924C65.0846 22.211 65.3045 22.5892 65.4367 23.0009C65.5689 23.4126 65.6103 23.8481 65.5581 24.2773H59.1874C59.5211 22.0831 60.6608 20.9251 62.4908 20.9251" fill="#809CBF"/>
<path d="M29.2865 15.3986C29.587 15.4117 29.887 15.3628 30.1678 15.2548C30.4486 15.1469 30.7041 14.9824 30.9186 14.7714C31.133 14.5604 31.3016 14.3075 31.4141 14.0285C31.5265 13.7495 31.5803 13.4503 31.572 13.1496C31.5805 12.8488 31.5269 12.5494 31.4145 12.2702C31.3022 11.991 31.1336 11.738 30.9191 11.5268C30.7047 11.3157 30.449 11.1509 30.1682 11.0429C29.8873 10.9349 29.5871 10.886 29.2865 10.899C28.9859 10.886 28.6859 10.9349 28.4051 11.0428C28.1243 11.1507 27.8688 11.3153 27.6544 11.5263C27.4399 11.7373 27.2713 11.9902 27.1588 12.2692C27.0464 12.5482 26.9926 12.8474 27.0009 13.1481C26.9924 13.4489 27.046 13.7482 27.1584 14.0274C27.2707 14.3066 27.4393 14.5597 27.6538 14.7708C27.8682 14.982 28.1239 15.1467 28.4048 15.2547C28.6857 15.3627 28.9858 15.4117 29.2865 15.3986" fill="#809CBF"/>
<path d="M29.2857 17.9219C27.6553 17.9219 27.3125 18.8072 27.3125 19.5492V32.3135C27.3125 33.0555 27.6553 33.9408 29.2857 33.9408C30.9161 33.9408 31.259 33.0555 31.259 32.3135V19.5492C31.259 18.8072 30.9161 17.9219 29.2857 17.9219" fill="#809CBF"/>
<path d="M79.8904 17.8518C79.0213 17.832 78.1638 18.0533 77.4128 18.4911C76.6619 18.929 76.0469 19.5663 75.6361 20.3324V19.5523C75.6565 19.3456 75.6338 19.137 75.5696 18.9395C75.5053 18.7421 75.4009 18.56 75.2628 18.4049C75.0647 18.2295 74.833 18.0962 74.5819 18.0129C74.3307 17.9296 74.0652 17.8981 73.8016 17.9204C72.5384 17.9204 71.8984 18.4674 71.8984 19.5477V32.312C71.8984 33.054 72.2397 33.9393 73.8717 33.9393C75.5036 33.9393 75.8434 33.054 75.8434 32.312V23.517C76.2059 22.8321 76.7661 22.2721 77.4512 21.9098C78.1363 21.5476 78.9145 21.3999 79.6847 21.4859C81.0347 21.4509 81.5863 20.9191 81.5863 19.6574C81.5863 18.3958 81.0789 17.8579 79.8904 17.8579" fill="#809CBF"/>
<path d="M90.65 17.8518C89.4021 17.8003 88.1691 18.139 87.1226 18.8209V11.6273C87.1226 10.8853 86.7798 10 85.1494 10C83.519 10 83.1762 10.8853 83.1762 11.6273V29.9943C83.0848 30.5578 83.1706 31.1356 83.4217 31.6482C83.6728 32.1608 84.0768 32.5828 84.578 32.8559C86.142 33.6696 87.8847 34.0793 89.6475 34.0475C90.7586 34.1355 91.8756 33.9809 92.921 33.5942C93.9664 33.2076 94.9153 32.5983 95.7018 31.8084C96.4883 31.0186 97.0936 30.0672 97.4758 29.0201C97.858 27.9731 98.0079 26.8554 97.9152 25.7447C97.9152 20.9525 95.0628 17.8563 90.65 17.8563V17.8518ZM89.6475 30.7928C88.76 30.7977 87.8877 30.5629 87.1226 30.1132V21.9856C87.8812 21.3928 88.8222 21.082 89.7846 21.1064C92.3018 21.1064 93.8651 22.9745 93.8651 25.9824C93.8651 28.9902 92.2881 30.7897 89.6459 30.7897" fill="#809CBF"/>
<path d="M96.919 12.7778L96.5015 12.1546C96.6106 12.117 96.7046 12.0452 96.7696 11.95C96.8347 11.8547 96.8673 11.7411 96.8626 11.6258C96.8626 11.2601 96.6036 11.0407 96.1709 11.0407H95.5401C95.4456 11.0407 95.4258 11.0971 95.4258 11.1458V12.8219C95.4258 12.892 95.4639 12.9271 95.5401 12.9271H95.7839C95.8601 12.9271 95.8981 12.892 95.8981 12.8219V12.2125H96.0276L96.4467 12.8509C96.462 12.8752 96.4834 12.8951 96.5088 12.9085C96.5342 12.9218 96.5627 12.9283 96.5914 12.9271H96.8215C96.8412 12.9294 96.8611 12.9266 96.8792 12.9189C96.8974 12.9111 96.9133 12.8987 96.9251 12.8829C96.9344 12.8672 96.9392 12.8493 96.9392 12.8311C96.9392 12.8129 96.9344 12.795 96.9251 12.7793L96.919 12.7778ZM96.4132 11.6289C96.4132 11.7584 96.34 11.8132 96.1709 11.8132H95.9042V11.443H96.1663C96.3415 11.443 96.4132 11.4963 96.4132 11.6273" fill="#809CBF"/>
<path d="M96.1365 10.1324C95.7704 10.1324 95.4124 10.241 95.108 10.4445C94.8035 10.6479 94.5662 10.937 94.4261 11.2753C94.286 11.6136 94.2493 11.9858 94.3207 12.345C94.3922 12.7041 94.5685 13.0339 94.8274 13.2929C95.0863 13.5518 95.4162 13.7281 95.7753 13.7995C96.1344 13.871 96.5067 13.8343 96.845 13.6942C97.1832 13.5541 97.4724 13.3168 97.6758 13.0123C97.8793 12.7079 97.9879 12.3499 97.9879 11.9838C97.9875 11.4929 97.7923 11.0222 97.4451 10.6751C97.098 10.328 96.6274 10.1328 96.1365 10.1324V10.1324ZM96.1365 13.4846C95.8397 13.4846 95.5495 13.3966 95.3027 13.2317C95.0559 13.0668 94.8635 12.8324 94.7499 12.5581C94.6363 12.2839 94.6065 11.9821 94.6645 11.691C94.7224 11.3998 94.8653 11.1324 95.0752 10.9225C95.2851 10.7126 95.5526 10.5697 95.8437 10.5117C96.1349 10.4538 96.4366 10.4836 96.7109 10.5972C96.9851 10.7107 97.2195 10.9031 97.3845 11.1499C97.5494 11.3968 97.6374 11.6869 97.6374 11.9838C97.6362 12.3815 97.4777 12.7625 97.1965 13.0437C96.9153 13.3249 96.5342 13.4834 96.1365 13.4846" fill="#809CBF"/>
</svg>
