<svg width="60" height="60" viewBox="0 0 60 60" fill="none" xmlns="http://www.w3.org/2000/svg">
<path d="M17.5753 0.209814C14.3833 0.360414 12.2035 0.869816 10.2979 1.61862C8.32568 2.38722 6.65407 3.41862 4.99087 5.08783C3.32766 6.75704 2.30346 8.42984 1.54025 10.405C0.801651 12.3149 0.30125 14.4965 0.160249 17.6903C0.0192487 20.8841 -0.0119514 21.9107 0.00364866 30.0575C0.0192487 38.2043 0.0552489 39.2255 0.210049 42.426C0.36245 45.6174 0.870052 47.7966 1.61885 49.7028C2.38866 51.675 3.41886 53.346 5.08867 55.0098C6.75847 56.6736 8.43008 57.6954 10.4101 58.4598C12.3181 59.1972 14.5003 59.7 17.6935 59.8398C20.8867 59.9796 21.9145 60.012 30.059 59.9964C38.2034 59.9808 39.2288 59.9448 42.4286 59.793C45.6284 59.6412 47.7962 59.13 49.703 58.3848C51.6752 57.6132 53.3474 56.5848 55.01 54.9144C56.6727 53.244 57.6963 51.57 58.4589 49.5936C59.1981 47.6856 59.7003 45.5034 59.8389 42.3126C59.9787 39.1103 60.0117 38.0879 59.9961 29.9423C59.9805 21.7967 59.9439 20.7755 59.7921 17.5763C59.6403 14.3771 59.1321 12.2045 58.3839 10.297C57.6129 8.32484 56.5838 6.65504 54.9146 4.99003C53.2454 3.32502 51.5702 2.30202 49.5944 1.54122C47.6852 0.802616 45.5042 0.299214 42.311 0.161213C39.1178 0.0232129 38.09 -0.0121872 29.9426 0.00341285C21.7951 0.0190129 20.7751 0.053813 17.5753 0.209814ZM17.9257 54.4428C15.0007 54.3156 13.4125 53.8296 12.3541 53.4228C10.9525 52.8828 9.95408 52.23 8.89928 51.1854C7.84448 50.1408 7.19647 49.1388 6.64927 47.7402C6.23827 46.6818 5.74327 45.0954 5.60647 42.1704C5.45767 39.0089 5.42647 38.0597 5.40907 30.0503C5.39167 22.0409 5.42227 21.0929 5.56087 17.9303C5.68567 15.0077 6.17467 13.4177 6.58087 12.3599C7.12087 10.9565 7.77128 9.95985 8.81828 8.90564C9.86528 7.85144 10.8643 7.20224 12.2641 6.65504C13.3213 6.24223 14.9077 5.75143 17.8315 5.61223C20.9953 5.46223 21.9433 5.43223 29.9516 5.41483C37.9598 5.39743 38.9102 5.42743 42.0752 5.56663C44.9978 5.69383 46.5884 6.17803 47.645 6.58664C49.0472 7.12664 50.045 7.77524 51.0992 8.82404C52.1534 9.87285 52.8032 10.8683 53.3504 12.2711C53.7638 13.3253 54.2546 14.9111 54.3926 17.8367C54.5432 21.0005 54.5774 21.9491 54.5918 29.9567C54.6062 37.9643 54.578 38.9153 54.4394 42.0768C54.3116 45.0018 53.8268 46.5906 53.4194 47.6502C52.8794 49.0512 52.2284 50.0502 51.1808 51.1038C50.1332 52.1574 49.1354 52.8066 47.735 53.3538C46.679 53.766 45.0908 54.258 42.1694 54.3972C39.0056 54.546 38.0576 54.5772 30.0464 54.5946C22.0351 54.612 21.0901 54.5796 17.9263 54.4428M42.3824 13.9661C42.3836 14.6781 42.5959 15.3738 42.9925 15.9652C43.3891 16.5566 43.9522 17.0171 44.6106 17.2884C45.2689 17.5598 45.9929 17.6298 46.6911 17.4896C47.3892 17.3495 48.0301 17.0054 48.5327 16.501C49.0352 15.9965 49.377 15.3544 49.5146 14.6558C49.6522 13.9571 49.5795 13.2334 49.3057 12.576C49.032 11.9187 48.5694 11.3573 47.9766 10.9628C47.3838 10.5684 46.6873 10.3586 45.9752 10.36C45.0206 10.362 44.1059 10.7429 43.4322 11.4191C42.7584 12.0954 42.3808 13.0115 42.3824 13.9661M14.5963 30.0299C14.6131 38.5379 21.5227 45.4194 30.029 45.4032C38.5352 45.387 45.4214 38.4779 45.4052 29.9699C45.389 21.4619 38.4776 14.5787 29.9702 14.5955C21.4627 14.6123 14.5801 21.5231 14.5963 30.0299ZM19.9999 30.0191C19.996 28.0413 20.5787 26.1067 21.6743 24.46C22.7699 22.8133 24.3291 21.5284 26.1549 20.7679C27.9807 20.0074 29.9911 19.8054 31.9317 20.1874C33.8723 20.5694 35.656 21.5183 37.0574 22.9141C38.4587 24.3099 39.4146 26.0899 39.8043 28.029C40.194 29.9681 40 31.9792 39.2467 33.808C38.4934 35.6368 37.2148 37.2011 35.5724 38.3032C33.9301 39.4053 31.9978 39.9956 30.02 39.9995C28.7067 40.0023 27.4057 39.7463 26.1913 39.2462C24.977 38.7461 23.873 38.0117 22.9426 37.0849C22.0121 36.1581 21.2733 35.0571 20.7684 33.8447C20.2635 32.6324 20.0024 31.3324 19.9999 30.0191" fill="#809CBF"/>
</svg>
