<svg width="25" height="24" viewBox="0 0 25 24" fill="none" xmlns="http://www.w3.org/2000/svg">
<path fill-rule="evenodd" clip-rule="evenodd" d="M22.224 0.000152331H1.77108C0.810981 -0.0106908 0.0117019 0.770009 0 1.73011V22.268C0.0112725 23.2286 0.810444 24.0102 1.77108 23.9999H22.224C23.187 24.012 23.989 23.2305 24.0019 22.268V1.72871C23.989 0.766574 23.1859 -0.0125158 22.224 0.000152331ZM16.8947 20.4495H20.4511L20.4526 14.1665C20.4526 11.082 19.788 8.71112 16.1835 8.71112C14.8074 8.66002 13.4622 9.37254 12.767 10.5611V8.99594H9.35296V20.449H12.9093V14.7832C12.9093 13.2892 13.1927 11.8422 15.045 11.8422C16.871 11.8422 16.8947 13.5519 16.8947 14.88V20.4495ZM7.11832 20.4495H3.55825V8.99594H7.11832V20.4495ZM3.2759 5.36662C3.2759 6.49881 4.20798 7.43035 5.34017 7.43035C6.47214 7.43024 7.40357 6.49816 7.40357 5.36619C7.40336 4.23421 6.47181 3.30278 5.33973 3.30278C4.20754 3.30278 3.2759 4.23443 3.2759 5.36662Z" fill="#809CBF"/>
</svg>
