<svg width="124" height="44" viewBox="0 0 124 44" fill="none" xmlns="http://www.w3.org/2000/svg">
<path d="M44.1295 13.7314V11.1551H32.1139L32.1156 29.3987H44.1295V26.8537H34.8397V21.621H42.7904V19.1628H34.8397V13.7314H44.1295ZM121.133 11V29.6937H123.86V11H124H120.994H121.133Z" fill="#809CBF"/>
<path d="M86.0678 11.1909H83.3476V21.9575C83.3476 25.0007 81.3166 27.1258 78.4083 27.1258C75.5341 27.1258 73.5266 24.9772 73.5266 21.901V11.1915H70.8069V22.1014C70.8069 26.435 74.0746 29.7027 78.4083 29.7027C82.7743 29.7027 86.0672 26.435 86.0672 22.1014L86.0678 11.1909ZM107.198 29.4166H110.48L106.168 22.149L106.32 22.0879C108.99 21.0136 110.46 19.1292 110.46 16.7819C110.46 13.5942 107.843 11.1909 104.372 11.1909H96.9447V29.4166H99.6072V22.3348H103.399L107.198 29.4166ZM99.6643 13.6816H104.144C106.21 13.6816 107.768 15.0392 107.768 16.8396C107.768 19.0178 105.945 20.1576 104.144 20.1576H99.6643V13.6816Z" fill="#809CBF"/>
<path d="M18.9546 23.1522V25.467C18.9546 29.532 20.2238 31.6369 23.0666 32.2779L23.7126 31.3077C21.9659 30.4226 21.7084 28.3949 21.7045 26.318L21.7028 26.2654L21.6636 11.1741H19.6449L10.8422 24.4929L2.3983 11.173H0V29.4317H2.62391L2.60376 16.8384L10.2829 28.1766H11.2531L18.958 16.8407V23.1561L18.9546 23.1522ZM50.9006 27.3682C51.527 28.1139 53.0822 29.631 55.3585 29.631C58.8468 29.631 61.1006 27.2187 61.1006 23.4858V11.1562H58.3967V23.5166C58.3967 26.1103 56.8706 27.2714 55.3585 27.2714C54.2803 27.2714 52.9792 26.257 52.4362 25.6943L52.1848 25.9395L51.1576 27.053L50.9006 27.3682Z" fill="#809CBF"/>
</svg>
