<?xml version="1.0" encoding="utf-8"?>
<!-- Generator: Adobe Illustrator 22.0.1, SVG Export Plug-In . SVG Version: 6.00 Build 0)  -->
<svg version="1.1" id="Layer_1" xmlns="http://www.w3.org/2000/svg" xmlns:xlink="http://www.w3.org/1999/xlink" x="0px" y="0px"
	 viewBox="0 0 970 396" style="enable-background:new 0 0 970 396;" xml:space="preserve">
<style type="text/css">
	.st0{fill:none;stroke:#F0C808;stroke-miterlimit:10;stroke-dasharray:2,4;}
	.st1{fill:none;stroke:#131E19;stroke-width:4;stroke-miterlimit:10;}
	.st2{fill:url(#SVGID_1_);}
	.st3{fill:#EAFFEC;}
	.st4{fill:url(#SVGID_2_);}
</style>
<path class="st0" d="M320.1,204v-65 M94.1,131V66"/>
<path class="st1" d="M486.1,204h-339"/>
<path class="st0" d="M604.9,91.7l64.6-64.6 M643.9,130.7l64.6-64.6 M683.9,173.7l65.6-65.6 M725.9,214.7l65.6-65.6 M725.3,186
	l67.6,67.6 M686.3,225l67.6,67.6 M643.3,265l69.6,69.6 M602.3,307l69.6,69.6"/>
<linearGradient id="SVGID_1_" gradientUnits="userSpaceOnUse" x1="72.9131" y1="262.2571" x2="127.9131" y2="90.2572" gradientTransform="matrix(1 0 0 -1 0 398)">
	<stop  offset="0" style="stop-color:#131E19"/>
	<stop  offset="0.1007" style="stop-color:#192319"/>
	<stop  offset="0.2383" style="stop-color:#2B3017"/>
	<stop  offset="0.3972" style="stop-color:#484615"/>
	<stop  offset="0.5722" style="stop-color:#706512"/>
	<stop  offset="0.7602" style="stop-color:#A38D0E"/>
	<stop  offset="0.9563" style="stop-color:#E1BD09"/>
	<stop  offset="1" style="stop-color:#F0C808"/>
</linearGradient>
<circle class="st2" cx="94.1" cy="202" r="70"/>
<circle class="st1" cx="94.1" cy="202" r="92"/>
<path class="st3" d="M79.4,188h-1.8v-4.5l-3.4-6.4h2l2.3,4.7l2.3-4.7h2l-3.4,6.4V188L79.4,188z M86.2,185.7c0.4,0.6,1.1,0.9,2.1,0.9
	s1.7-0.3,2.1-0.9c0.4-0.6,0.5-1.7,0.5-3.1c0-1.5-0.2-2.5-0.6-3.2s-1-1-2-1s-1.7,0.3-2.1,1s-0.6,1.7-0.6,3.2
	C85.7,184,85.9,185.1,86.2,185.7z M91.8,186.8c-0.7,0.9-1.8,1.3-3.5,1.3s-2.8-0.4-3.5-1.3c-0.7-0.9-1-2.3-1-4.3s0.3-3.4,1-4.3
	c0.7-0.9,1.8-1.4,3.5-1.4c1.6,0,2.8,0.5,3.5,1.4s1,2.4,1,4.3S92.4,185.9,91.8,186.8z M97.2,184.5c0,1.4,0.7,2.1,2.2,2.1
	s2.2-0.7,2.2-2.1V177h1.8v7.4c0,1.3-0.3,2.2-1,2.8s-1.7,0.9-3,0.9s-2.3-0.3-3-0.9c-0.7-0.6-1-1.5-1-2.8V177h1.8V184.5L97.2,184.5z
	 M108.3,184.1v3.9h-1.8v-11h4.2c2.5,0,3.7,1.2,3.7,3.5c0,1.6-0.6,2.6-1.8,3.2l1.8,4.3h-2l-1.6-3.9
	C110.9,184.1,108.3,184.1,108.3,184.1z M112.6,180.5c0-1.3-0.6-2-1.9-2h-2.4v4h2.4c0.6,0,1.1-0.2,1.4-0.5
	C112.4,181.6,112.6,181.2,112.6,180.5L112.6,180.5z M70.3,205.7c0.4,0.6,1.1,0.9,2.1,0.9s1.7-0.3,2.1-0.9c0.4-0.6,0.5-1.7,0.5-3.1
	c0-1.5-0.2-2.5-0.6-3.2s-1-1-2-1s-1.7,0.3-2.1,1s-0.6,1.7-0.6,3.2C69.8,204,70,205.1,70.3,205.7z M75.9,206.8
	c-0.7,0.9-1.8,1.3-3.5,1.3s-2.8-0.4-3.5-1.3c-0.7-0.9-1-2.3-1-4.3s0.3-3.4,1-4.3c0.7-0.9,1.8-1.4,3.5-1.4s2.8,0.5,3.5,1.4
	s1,2.4,1,4.3S76.5,205.9,75.9,206.8z M79.6,208v-11h3.1l3.3,9.4h0.2V197H88v11h-3l-3.4-9.4h-0.2v9.4H79.6L79.6,208z M94.4,198.4
	c-1.4,0-2,0.5-2,1.4c0,0.5,0.2,0.8,0.5,1.1c0.3,0.2,1,0.5,2.1,0.8s1.9,0.7,2.3,1.1c0.4,0.4,0.7,1.1,0.7,2c0,1.2-0.3,2-1,2.6
	s-1.5,0.8-2.7,0.8c-0.9,0-1.9-0.1-3-0.3l-0.6-0.1l0.2-1.4c1.4,0.2,2.5,0.3,3.3,0.3c1.3,0,2-0.6,2-1.8c0-0.5-0.2-0.8-0.4-1
	c-0.3-0.2-1-0.5-2-0.7c-1-0.3-1.8-0.6-2.3-1.1s-0.8-1.2-0.8-2.2s0.3-1.7,1-2.2s1.5-0.8,2.7-0.8c0.8,0,1.8,0.1,2.9,0.3l0.6,0.1
	l-0.1,1.4C96.1,198.5,95,198.4,94.4,198.4L94.4,198.4z M100.5,208v-11h1.8v11H100.5L100.5,208z M104.4,198.6V197h8v1.6h-3.1v9.4
	h-1.8v-9.4H104.4L104.4,198.6z M114.5,208v-11h6.9v1.6h-5.1v3.1h4.2v1.5h-4.2v3.2h5.1v1.6L114.5,208L114.5,208z M73.7,218.6V217h8
	v1.6h-3.1v9.4h-1.8v-9.4H73.7z M83.8,228v-11h6.9v1.6h-5.1v3.1h4.2v1.5h-4.2v3.2h5.1v1.6L83.8,228L83.8,228z M92.3,228l2.7-11h3.5
	l2.7,11h-1.8l-0.6-2.4h-4.2L94,228H92.3z M96.4,218.5l-1.4,5.6h3.5l-1.3-5.6H96.4z M103.5,228v-11h3.1l2.4,8.6l2.4-8.6h3.1v11h-1.8
	v-9h-0.2l-2.6,8.5H108l-2.6-8.5h-0.2v9H103.5L103.5,228z"/>
<linearGradient id="SVGID_2_" gradientUnits="userSpaceOnUse" x1="522.0208" y1="242.3233" x2="888.0208" y2="67.3233" gradientTransform="matrix(1 0 0 -1 0 398)">
	<stop  offset="0" style="stop-color:#131E19"/>
	<stop  offset="0.1007" style="stop-color:#192319"/>
	<stop  offset="0.2383" style="stop-color:#2B3017"/>
	<stop  offset="0.3972" style="stop-color:#484615"/>
	<stop  offset="0.5722" style="stop-color:#706512"/>
	<stop  offset="0.7602" style="stop-color:#A38D0E"/>
	<stop  offset="0.9563" style="stop-color:#E1BD09"/>
	<stop  offset="1" style="stop-color:#F0C808"/>
</linearGradient>
<path class="st4" d="M624.5,60.7l135.7,135.7c3.1,3.1,3.1,8.2,0,11.3L624.5,343.3c-3.1,3.1-8.2,3.1-11.3,0L477.5,207.7
	c-3.1-3.1-3.1-8.2,0-11.3L613.2,60.7C616.3,57.5,621.4,57.5,624.5,60.7z"/>
<path class="st1" d="M627.3,28.5l165.8,165.8c4.7,4.7,4.7,12.3,0,17L627.3,377c-4.7,4.7-12.3,4.7-17,0L444.6,211.2
	c-4.7-4.7-4.7-12.3,0-17L610.4,28.5C615.1,23.8,622.7,23.8,627.3,28.5z"/>
<path class="st3" d="M235.1,101h-1.2v-4.7l-3.5-6.4h1.4l2.8,5.2l2.8-5.2h1.4l-3.5,6.4v4.7H235.1z M238.4,97c0-1.5,0.3-2.5,0.8-3.2
	s1.4-1,2.6-1c1.2,0,2.1,0.3,2.6,1s0.8,1.7,0.8,3.2s-0.2,2.5-0.7,3.2s-1.4,1-2.7,1s-2.2-0.3-2.7-1C238.7,99.5,238.4,98.4,238.4,97z
	 M239.7,97c0,1.2,0.1,2,0.4,2.4c0.3,0.5,0.9,0.7,1.8,0.7c0.9,0,1.5-0.2,1.8-0.7s0.4-1.3,0.4-2.5s-0.2-2-0.5-2.4s-0.9-0.7-1.7-0.7
	s-1.4,0.2-1.7,0.7C239.8,95,239.7,95.8,239.7,97z M252.2,93h1.2v8h-1.2v-0.6c-0.8,0.5-1.6,0.7-2.4,0.7c-1.1,0-1.8-0.3-2.2-0.8
	c-0.4-0.6-0.5-1.6-0.5-3.1V93h1.2v4.2c0,1.2,0.1,1.9,0.3,2.3s0.7,0.6,1.4,0.6c0.4,0,0.7,0,1.1-0.1c0.4-0.1,0.6-0.2,0.8-0.3l0.3-0.1
	L252.2,93L252.2,93z M255.7,101v-8h1.2v1.1c0.9-0.6,1.9-1.1,2.9-1.3V94c-0.5,0.1-1,0.2-1.4,0.4c-0.4,0.1-0.7,0.3-1.1,0.5l-0.4,0.2
	v5.9H255.7L255.7,101z M269,97.3h-2.8v3.7H265V89.9h4c1.2,0,2.1,0.3,2.7,0.9s0.9,1.5,0.9,2.7C272.6,96,271.4,97.3,269,97.3z
	 M266.2,96.2h2.8c1.5,0,2.3-0.9,2.3-2.7c0-0.9-0.2-1.5-0.5-1.9c-0.4-0.4-0.9-0.6-1.7-0.6h-2.8C266.2,91,266.2,96.2,266.2,96.2z
	 M274.3,101v-8h1.2v1.1c0.9-0.6,1.9-1.1,2.9-1.3V94c-0.5,0.1-1,0.2-1.4,0.4c-0.4,0.1-0.7,0.3-1.1,0.5l-0.4,0.2v5.9H274.3z M279.3,97
	c0-1.5,0.3-2.5,0.8-3.2s1.4-1,2.6-1s2.1,0.3,2.6,1s0.8,1.7,0.8,3.2s-0.2,2.5-0.7,3.2s-1.4,1-2.7,1s-2.2-0.3-2.7-1
	C279.5,99.5,279.3,98.4,279.3,97L279.3,97z M280.5,97c0,1.2,0.1,2,0.4,2.4c0.3,0.5,0.9,0.7,1.8,0.7s1.5-0.2,1.8-0.7s0.4-1.3,0.4-2.5
	s-0.2-2-0.5-2.4s-0.9-0.7-1.7-0.7c-0.8,0-1.4,0.2-1.7,0.7C280.7,95,280.5,95.8,280.5,97z M291.1,92.8c0.4,0,0.9,0.1,1.8,0.2h0.4v1
	c-0.9-0.1-1.5-0.1-1.9-0.1c-0.9,0-1.5,0.2-1.9,0.7c-0.3,0.4-0.5,1.2-0.5,2.4c0,1.2,0.1,2,0.4,2.4c0.3,0.5,0.9,0.7,1.9,0.7l1.9-0.1v1
	c-1,0.1-1.7,0.2-2.2,0.2c-1.2,0-2.1-0.3-2.6-1c-0.5-0.6-0.7-1.7-0.7-3.2s0.3-2.6,0.8-3.2C289,93.1,289.9,92.8,291.1,92.8L291.1,92.8
	z M300.4,100h0.5v0.9c-1.2,0.2-2.3,0.3-3.1,0.3c-1.2,0-2-0.3-2.4-1c-0.5-0.7-0.7-1.7-0.7-3.1c0-2.8,1.1-4.2,3.3-4.2
	c1.1,0,1.9,0.3,2.4,0.9s0.8,1.5,0.8,2.8l-0.1,0.9h-5.3c0,0.9,0.2,1.5,0.5,2s0.9,0.6,1.7,0.6C298.8,100.1,299.6,100.1,300.4,100z
	 M300,96.5c0-1-0.2-1.7-0.5-2.1s-0.8-0.6-1.5-0.6s-1.2,0.2-1.6,0.6s-0.5,1.1-0.5,2L300,96.5L300,96.5z M305.6,93.9
	c-1.2,0-1.7,0.4-1.7,1.2c0,0.4,0.1,0.6,0.4,0.8c0.3,0.2,0.9,0.3,1.8,0.5c1,0.2,1.6,0.4,2,0.7c0.4,0.3,0.6,0.9,0.6,1.7
	s-0.3,1.4-0.8,1.8s-1.3,0.6-2.3,0.6c-0.7,0-1.4-0.1-2.3-0.2l-0.5-0.1l0.1-1c1.2,0.2,2.1,0.3,2.8,0.3c0.6,0,1.1-0.1,1.4-0.3
	c0.3-0.2,0.5-0.5,0.5-1s-0.1-0.8-0.4-0.9c-0.3-0.2-0.9-0.3-1.8-0.5s-1.6-0.4-2-0.7c-0.4-0.3-0.6-0.8-0.6-1.6s0.3-1.4,0.8-1.7
	c0.6-0.4,1.2-0.6,2.1-0.6c0.7,0,1.5,0.1,2.4,0.2l0.4,0.1v1C307.2,94,306.2,93.9,305.6,93.9L305.6,93.9z M313,93.9
	c-1.2,0-1.7,0.4-1.7,1.2c0,0.4,0.1,0.6,0.4,0.8c0.3,0.2,0.9,0.3,1.8,0.5s1.6,0.4,2,0.7c0.4,0.3,0.6,0.9,0.6,1.7s-0.3,1.4-0.8,1.8
	s-1.3,0.6-2.3,0.6c-0.7,0-1.4-0.1-2.3-0.2l-0.5-0.1l0.1-1c1.2,0.2,2.1,0.3,2.8,0.3c0.6,0,1.1-0.1,1.4-0.3c0.3-0.2,0.5-0.5,0.5-1
	s-0.1-0.8-0.4-0.9c-0.3-0.2-0.9-0.3-1.8-0.5s-1.6-0.4-2-0.7c-0.4-0.3-0.6-0.8-0.6-1.6s0.3-1.4,0.8-1.7c0.6-0.4,1.2-0.6,2.1-0.6
	c0.6,0,1.5,0.1,2.4,0.2l0.4,0.1v1C314.6,94,313.7,93.9,313,93.9L313,93.9z M323.4,100h0.5v0.9c-1.2,0.2-2.3,0.3-3.1,0.3
	c-1.2,0-2-0.3-2.4-1c-0.5-0.7-0.7-1.7-0.7-3.1c0-2.8,1.1-4.2,3.3-4.2c1.1,0,1.9,0.3,2.4,0.9s0.8,1.5,0.8,2.8l-0.1,0.9h-5.3
	c0,0.9,0.2,1.5,0.5,2s0.9,0.6,1.7,0.6C321.7,100.1,322.5,100.1,323.4,100z M322.9,96.5c0-1-0.2-1.7-0.5-2.1s-0.8-0.6-1.5-0.6
	s-1.2,0.2-1.6,0.6s-0.5,1.1-0.5,2L322.9,96.5L322.9,96.5z M328.5,93.9c-1.2,0-1.7,0.4-1.7,1.2c0,0.4,0.1,0.6,0.4,0.8
	c0.3,0.2,0.9,0.3,1.8,0.5c1,0.2,1.6,0.4,2,0.7c0.4,0.3,0.6,0.9,0.6,1.7s-0.3,1.4-0.8,1.8s-1.3,0.6-2.3,0.6c-0.7,0-1.4-0.1-2.3-0.2
	l-0.5-0.1l0.1-1c1.2,0.2,2.1,0.3,2.8,0.3c0.6,0,1.1-0.1,1.4-0.3c0.3-0.2,0.5-0.5,0.5-1s-0.1-0.8-0.4-0.9c-0.3-0.2-0.9-0.3-1.8-0.5
	s-1.6-0.4-2-0.7c-0.4-0.3-0.6-0.8-0.6-1.6s0.3-1.4,0.8-1.7c0.6-0.4,1.2-0.6,2.1-0.6c0.7,0,1.5,0.1,2.4,0.2l0.4,0.1v1
	C330.1,94,329.2,93.9,328.5,93.9L328.5,93.9z M338,92.1c0-0.7,0.2-1.3,0.7-1.7c0.5-0.4,1.2-0.6,2.1-0.6s1.6,0.2,2,0.6
	c0.5,0.4,0.7,1,0.7,1.8c0,0.7-0.2,1.3-0.6,1.8c-0.4,0.4-1,0.8-1.9,1.3l2.4,2.4c0.2-0.7,0.4-1.5,0.4-2.6h1.2
	c-0.1,1.3-0.4,2.4-0.7,3.3l2.1,2l-0.7,0.8l-1.9-1.8c-0.7,1.2-1.9,1.8-3.3,1.8c-1.5,0-2.5-0.3-3.1-0.9s-0.9-1.4-0.9-2.4
	s0.2-1.8,0.6-2.2c0.4-0.5,1-0.9,1.9-1.2c-0.4-0.4-0.6-0.8-0.7-1.1C338.1,93.1,338,92.6,338,92.1L338,92.1z M340.3,100.1
	c1.3,0,2.2-0.5,2.7-1.4l-3.4-3.4c-0.7,0.2-1.2,0.5-1.5,0.9s-0.4,0.9-0.4,1.6C337.7,99.3,338.6,100.1,340.3,100.1z M339.2,92.3
	c0,0.7,0.2,1.2,0.7,1.7l0.5,0.4c0.7-0.3,1.2-0.6,1.5-0.9s0.4-0.7,0.4-1.3c0-1-0.5-1.5-1.6-1.5C339.8,90.8,339.2,91.3,339.2,92.3z
	 M351.7,101V89.9h2.2l3.1,9.4l3.1-9.4h2.2V101h-1.2v-9.8h-0.2l-3.2,9.4h-1.4l-3.2-9.4h-0.2v9.8H351.7L351.7,101z M370.3,100h0.5v0.9
	c-1.2,0.2-2.3,0.3-3.1,0.3c-1.2,0-2-0.3-2.4-1c-0.5-0.7-0.7-1.7-0.7-3.1c0-2.8,1.1-4.2,3.3-4.2c1.1,0,1.9,0.3,2.4,0.9
	s0.8,1.5,0.8,2.8l-0.1,0.9h-5.3c0,0.9,0.2,1.5,0.5,2s0.9,0.6,1.7,0.6C368.6,100.1,369.5,100.1,370.3,100z M369.8,96.5
	c0-1-0.2-1.7-0.5-2.1s-0.8-0.6-1.5-0.6s-1.2,0.2-1.6,0.6s-0.5,1.1-0.5,2L369.8,96.5L369.8,96.5z M377,94h-2.5v3.8
	c0,0.9,0.1,1.5,0.2,1.8s0.5,0.4,1,0.4l1.4-0.1l0.1,1c-0.7,0.1-1.3,0.2-1.6,0.2c-0.8,0-1.4-0.2-1.7-0.6s-0.5-1.2-0.5-2.3V94h-1.1v-1
	h1.1v-2.4h1.2V93h2.5L377,94L377,94z M379.7,101h-1.2V89.5h1.2v3.9c0.9-0.4,1.7-0.6,2.5-0.6c1.1,0,1.8,0.3,2.1,0.9
	c0.4,0.6,0.6,1.6,0.6,3.1v4.2h-1.2v-4.2c0-1.1-0.1-1.9-0.3-2.3c-0.2-0.4-0.7-0.6-1.4-0.6c-0.7,0-1.3,0.1-2,0.4l-0.3,0.1L379.7,101
	L379.7,101z M386.7,97c0-1.5,0.3-2.5,0.8-3.2s1.4-1,2.6-1s2.1,0.3,2.6,1s0.8,1.7,0.8,3.2s-0.2,2.5-0.7,3.2s-1.4,1-2.7,1
	c-1.3,0-2.2-0.3-2.7-1C387,99.5,386.7,98.4,386.7,97L386.7,97z M387.9,97c0,1.2,0.1,2,0.4,2.4c0.3,0.5,0.9,0.7,1.8,0.7
	s1.5-0.2,1.8-0.7s0.4-1.3,0.4-2.5s-0.2-2-0.5-2.4s-0.9-0.7-1.7-0.7c-0.8,0-1.4,0.2-1.7,0.7C388.1,95,387.9,95.8,387.9,97z
	 M401.7,89.5V101h-1.2v-0.5c-0.8,0.5-1.6,0.7-2.4,0.7c-0.4,0-0.8-0.1-1.1-0.2c-0.3-0.1-0.6-0.3-0.9-0.6c-0.6-0.6-0.9-1.6-0.9-3.2
	s0.3-2.7,0.8-3.4c0.5-0.7,1.4-1,2.6-1c0.6,0,1.3,0.1,2,0.2v-3.5H401.7L401.7,89.5z M397,99.6c0.2,0.2,0.4,0.3,0.5,0.4
	c0.2,0.1,0.4,0.1,0.7,0.1c0.3,0,0.6,0,1-0.1s0.7-0.2,0.9-0.3l0.3-0.1v-5.4c-0.6-0.1-1.3-0.2-1.9-0.2c-0.8,0-1.4,0.3-1.7,0.8
	c-0.3,0.5-0.5,1.3-0.5,2.4C396.4,98.3,396.6,99.1,397,99.6L397,99.6z M406.5,93.9c-1.2,0-1.7,0.4-1.7,1.2c0,0.4,0.1,0.6,0.4,0.8
	c0.3,0.2,0.9,0.3,1.8,0.5c1,0.2,1.6,0.4,2,0.7c0.4,0.3,0.6,0.9,0.6,1.7s-0.3,1.4-0.8,1.8s-1.3,0.6-2.3,0.6c-0.7,0-1.4-0.1-2.3-0.2
	l-0.5-0.1l0.1-1c1.2,0.2,2.1,0.3,2.8,0.3c0.6,0,1.1-0.1,1.4-0.3c0.3-0.2,0.5-0.5,0.5-1s-0.1-0.8-0.4-0.9c-0.3-0.2-0.9-0.3-1.8-0.5
	s-1.6-0.4-2-0.7c-0.4-0.3-0.6-0.8-0.6-1.6s0.3-1.4,0.8-1.7c0.6-0.4,1.2-0.6,2.1-0.6c0.7,0,1.5,0.1,2.4,0.2l0.4,0.1v1
	C408.1,94,407.2,93.9,406.5,93.9L406.5,93.9z M39.1,26h-1.2v-4.7l-3.5-6.4h1.4l2.8,5.2l2.8-5.2h1.4l-3.5,6.4
	C39.1,21.3,39.1,26,39.1,26z M42.4,22c0-1.5,0.3-2.5,0.8-3.2c0.5-0.6,1.4-1,2.6-1c1.2,0,2.1,0.3,2.6,1c0.5,0.6,0.8,1.7,0.8,3.2
	s-0.2,2.5-0.7,3.2s-1.4,1-2.7,1s-2.2-0.3-2.7-1C42.7,24.5,42.4,23.4,42.4,22z M43.7,22c0,1.2,0.1,2,0.4,2.4c0.3,0.5,0.9,0.7,1.8,0.7
	c0.9,0,1.5-0.2,1.8-0.7C47.9,24,48,23.1,48,22c0-1.2-0.2-2-0.5-2.4s-0.9-0.7-1.7-0.7s-1.4,0.2-1.7,0.7C43.8,20,43.7,20.8,43.7,22z
	 M56.2,18h1.2v8h-1.2v-0.6c-0.8,0.5-1.6,0.7-2.4,0.7c-1.1,0-1.8-0.3-2.2-0.8c-0.4-0.6-0.5-1.6-0.5-3.1V18h1.2v4.2
	c0,1.2,0.1,1.9,0.3,2.3s0.7,0.6,1.4,0.6c0.4,0,0.7,0,1.1-0.1c0.4-0.1,0.6-0.2,0.8-0.3l0.3-0.1C56.2,24.6,56.2,18,56.2,18z M59.7,26
	v-8h1.2v1.1c0.9-0.6,1.9-1.1,2.9-1.3V19c-0.5,0.1-1,0.2-1.4,0.4c-0.4,0.1-0.7,0.3-1.1,0.5l-0.4,0.2V26H59.7z M69.8,20.5
	c0,1.6,0.2,2.8,0.6,3.5s1.2,1.1,2.5,1.1c1.2,0,2-0.3,2.5-1c0.4-0.7,0.6-1.9,0.6-3.5s-0.2-2.8-0.7-3.6c-0.4-0.7-1.3-1.1-2.5-1.1
	s-2,0.4-2.4,1.1S69.8,18.9,69.8,20.5L69.8,20.5z M77.3,20.5c0,2-0.3,3.4-0.9,4.3s-1.8,1.3-3.4,1.3c-1.7,0-2.8-0.5-3.4-1.4
	s-0.9-2.3-0.9-4.3s0.3-3.4,1-4.3c0.6-0.9,1.8-1.4,3.4-1.4s2.8,0.5,3.4,1.4C77,17.1,77.3,18.6,77.3,20.5L77.3,20.5z M79.3,26v-8h1.2
	v1.1c0.9-0.6,1.9-1.1,2.9-1.3V19c-0.5,0.1-1,0.2-1.4,0.4c-0.4,0.1-0.7,0.3-1.1,0.5l-0.4,0.2V26H79.3z M87.8,29.8
	c-1.3,0-2.2-0.2-2.7-0.5s-0.8-1-0.8-1.9c0-0.4,0.1-0.8,0.3-1.1c0.2-0.3,0.5-0.6,1-0.9c-0.3-0.2-0.4-0.6-0.4-1.1c0-0.2,0.1-0.5,0.4-1
	l0.1-0.3c-0.8-0.4-1.3-1.2-1.3-2.4c0-1.8,1-2.7,3-2.7c0.5,0,1,0,1.4,0.2H89l2.4-0.1v1H90c0.4,0.4,0.5,0.9,0.5,1.6
	c0,1-0.3,1.7-0.8,2.1s-1.3,0.6-2.3,0.6c-0.3,0-0.6,0-0.8-0.1c-0.2,0.5-0.3,0.8-0.3,0.9c0,0.3,0.1,0.5,0.3,0.6
	c0.2,0.1,0.8,0.1,1.8,0.1s1.8,0.2,2.2,0.5s0.7,0.9,0.7,1.9C91.4,28.9,90.2,29.8,87.8,29.8z M85.6,27.2c0,0.6,0.2,1,0.5,1.2
	s0.9,0.3,1.7,0.3c0.9,0,1.5-0.1,1.8-0.4c0.4-0.2,0.6-0.6,0.6-1.2c0-0.5-0.1-0.9-0.4-1.1s-0.8-0.2-1.6-0.2l-1.7-0.1
	c-0.4,0.3-0.6,0.5-0.7,0.7C85.6,26.7,85.6,26.9,85.6,27.2z M85.7,20.6c0,0.6,0.1,1.1,0.4,1.3c0.3,0.3,0.8,0.4,1.4,0.4
	c0.7,0,1.1-0.1,1.4-0.4s0.4-0.7,0.4-1.3c0-0.6-0.1-1.1-0.4-1.4s-0.7-0.4-1.4-0.4c-0.7,0-1.1,0.1-1.4,0.4
	C85.8,19.5,85.7,19.9,85.7,20.6z M98.6,20.4v4.1c0,0.4,0.3,0.6,0.9,0.7v0.9c-0.8,0-1.5-0.2-1.9-0.6c-1,0.4-1.9,0.6-2.9,0.6
	c-0.7,0-1.3-0.2-1.7-0.6s-0.6-1-0.6-1.8s0.2-1.4,0.6-1.7c0.4-0.4,1-0.6,1.9-0.7l2.5-0.2v-0.7c0-0.5-0.1-0.9-0.4-1.2
	c-0.2-0.2-0.6-0.4-1-0.4c-0.9,0-1.7,0.1-2.7,0.2h-0.5v-0.9c1.2-0.2,2.2-0.4,3.1-0.4s1.6,0.2,2,0.6C98.4,18.9,98.6,19.5,98.6,20.4
	L98.6,20.4z M93.7,23.7c0,1,0.4,1.5,1.2,1.5c0.7,0,1.4-0.1,2.1-0.4l0.4-0.1V22L95,22.2c-0.5,0-0.8,0.2-1,0.4
	C93.8,22.9,93.7,23.2,93.7,23.7z M102.2,26H101v-8h1.2v0.6c0.9-0.5,1.7-0.7,2.5-0.7c1.1,0,1.8,0.3,2.1,0.9c0.4,0.6,0.6,1.6,0.6,3.1
	V26h-1.2v-4.2c0-1.1-0.1-1.9-0.3-2.3c-0.2-0.4-0.7-0.6-1.4-0.6c-0.4,0-0.7,0.1-1.1,0.2c-0.3,0.1-0.6,0.2-0.9,0.3l-0.3,0.1
	C102.2,19.5,102.2,26,102.2,26z M109.6,26v-8h1.2v8H109.6z M109.6,16.2v-1.4h1.2v1.4C110.8,16.2,109.6,16.2,109.6,16.2z M112.6,19.1
	V18h5.9v1.1L114,25h4.5v1h-5.9v-1.1l4.5-5.9C117.1,19.1,112.6,19.1,112.6,19.1z M126,20.4v4.1c0,0.4,0.3,0.6,0.9,0.7v0.9
	c-0.8,0-1.5-0.2-1.9-0.6c-1,0.4-1.9,0.6-2.9,0.6c-0.7,0-1.3-0.2-1.7-0.6s-0.6-1-0.6-1.8s0.2-1.4,0.6-1.7c0.4-0.4,1-0.6,1.9-0.7
	l2.5-0.2v-0.7c0-0.5-0.1-0.9-0.4-1.2c-0.2-0.2-0.6-0.4-1-0.4c-0.9,0-1.7,0.1-2.7,0.2h-0.5v-0.9c1.2-0.2,2.2-0.4,3.1-0.4
	s1.6,0.2,2,0.6C125.8,18.9,126,19.5,126,20.4L126,20.4z M121.1,23.7c0,1,0.4,1.5,1.2,1.5c0.7,0,1.4-0.1,2.1-0.4l0.4-0.1V22l-2.4,0.2
	c-0.5,0-0.8,0.2-1,0.4C121.2,22.9,121.1,23.2,121.1,23.7z M132.5,19H130v3.8c0,0.9,0.1,1.5,0.2,1.8c0.1,0.3,0.5,0.4,1,0.4l1.4-0.1
	l0.1,1c-0.7,0.1-1.3,0.2-1.6,0.2c-0.8,0-1.4-0.2-1.7-0.6s-0.5-1.2-0.5-2.3V19h-1.1v-1h1.1v-2.4h1.2V18h2.5L132.5,19L132.5,19z
	 M134,26v-8h1.2v8H134z M134,16.2v-1.4h1.2v1.4H134z M137.1,22c0-1.5,0.3-2.5,0.8-3.2c0.5-0.6,1.4-1,2.6-1c1.2,0,2.1,0.3,2.6,1
	c0.5,0.6,0.8,1.7,0.8,3.2s-0.2,2.5-0.7,3.2s-1.4,1-2.7,1s-2.2-0.3-2.7-1C137.4,24.5,137.1,23.4,137.1,22z M138.4,22
	c0,1.2,0.1,2,0.4,2.4c0.3,0.5,0.9,0.7,1.8,0.7c0.9,0,1.5-0.2,1.8-0.7s0.4-1.3,0.4-2.5s-0.2-2-0.5-2.4s-0.9-0.7-1.7-0.7
	s-1.4,0.2-1.7,0.7C138.5,20,138.4,20.8,138.4,22z M147.1,26h-1.2v-8h1.2v0.6c0.9-0.5,1.7-0.7,2.5-0.7c1.1,0,1.8,0.3,2.1,0.9
	c0.4,0.6,0.6,1.6,0.6,3.1V26h-1.2v-4.2c0-1.1-0.1-1.9-0.3-2.3s-0.7-0.6-1.4-0.6c-0.4,0-0.7,0.1-1.1,0.2c-0.3,0.1-0.6,0.2-0.9,0.3
	l-0.3,0.1L147.1,26L147.1,26z"/>
<circle class="st3" cx="684.9" cy="12" r="4"/>
<path class="st3" d="M706.2,18V6.9h6.7V8h-5.5v3.8h4.5v1.1h-4.5v4h5.5V18H706.2z M716.1,18h-1.2v-8h1.2v0.6c0.8-0.5,1.6-0.7,2.3-0.7
	c1,0,1.7,0.3,2.1,0.8c0.4-0.2,0.8-0.4,1.4-0.6c0.6-0.2,1.1-0.3,1.5-0.3c1.1,0,1.8,0.3,2.1,0.9c0.4,0.6,0.6,1.6,0.6,3.1V18h-1.2v-4.2
	c0-1.1-0.1-1.9-0.3-2.3c-0.2-0.4-0.7-0.6-1.4-0.6c-0.4,0-0.7,0.1-1.1,0.2c-0.3,0.1-0.6,0.2-0.9,0.3l-0.3,0.1
	c0.1,0.4,0.2,1.1,0.2,2.3V18h-1.2v-4.1c0-1.2-0.1-1.9-0.3-2.3c-0.2-0.4-0.7-0.6-1.4-0.6c-0.3,0-0.7,0.1-1.1,0.2
	c-0.3,0.1-0.6,0.2-0.8,0.3l-0.3,0.1L716.1,18L716.1,18z M728.2,21.6V10h1.2v0.6c0.8-0.5,1.6-0.7,2.4-0.7c1,0,1.7,0.3,2.2,1
	c0.5,0.6,0.7,1.7,0.7,3.2s-0.3,2.5-0.8,3.2c-0.5,0.6-1.4,1-2.7,1c-0.6,0-1.2-0.1-1.8-0.2v3.6h-1.2V21.6z M731.6,10.9
	c-0.3,0-0.7,0.1-1,0.2c-0.3,0.1-0.6,0.2-0.9,0.3l-0.3,0.2V17c0.8,0.1,1.3,0.2,1.7,0.2c0.9,0,1.5-0.2,1.8-0.7
	c0.4-0.5,0.5-1.3,0.5-2.4s-0.2-1.9-0.5-2.4C732.7,11.1,732.3,10.9,731.6,10.9L731.6,10.9z M736.8,18V6.5h1.2V18H736.8z M740,14
	c0-1.5,0.3-2.5,0.8-3.2c0.5-0.6,1.4-1,2.6-1c1.2,0,2.1,0.3,2.6,1c0.5,0.6,0.8,1.7,0.8,3.2s-0.2,2.5-0.7,3.2s-1.4,1-2.7,1
	s-2.2-0.3-2.7-1C740.3,16.5,740,15.4,740,14z M741.3,14c0,1.2,0.1,2,0.4,2.4c0.3,0.5,0.9,0.7,1.8,0.7c0.9,0,1.5-0.2,1.8-0.7
	s0.4-1.3,0.4-2.5s-0.2-2-0.5-2.4s-0.9-0.7-1.7-0.7s-1.4,0.2-1.7,0.7C741.4,12,741.3,12.8,741.3,14z M747.9,10h1.2l2,7h0.5l2-7h1.2
	l-3.3,11.6h-1.2l1-3.6h-1.2C750.2,18,747.9,10,747.9,10z M761.7,17h0.5v0.9c-1.2,0.2-2.3,0.3-3.1,0.3c-1.2,0-2-0.3-2.4-1
	c-0.5-0.7-0.7-1.7-0.7-3.1c0-2.8,1.1-4.2,3.3-4.2c1.1,0,1.9,0.3,2.4,0.9c0.5,0.6,0.8,1.5,0.8,2.8l-0.1,0.9h-5.3c0,0.9,0.2,1.5,0.5,2
	s0.9,0.6,1.7,0.6C760.1,17.1,760.9,17.1,761.7,17L761.7,17z M761.3,13.5c0-1-0.2-1.7-0.5-2.1c-0.3-0.4-0.8-0.6-1.5-0.6
	s-1.2,0.2-1.6,0.6c-0.4,0.4-0.5,1.1-0.5,2C757.1,13.5,761.3,13.5,761.3,13.5z M769.8,17h0.5v0.9c-1.2,0.2-2.3,0.3-3.1,0.3
	c-1.2,0-2-0.3-2.4-1c-0.5-0.7-0.7-1.7-0.7-3.1c0-2.8,1.1-4.2,3.3-4.2c1.1,0,1.9,0.3,2.4,0.9c0.5,0.6,0.8,1.5,0.8,2.8l-0.1,0.9h-5.3
	c0,0.9,0.2,1.5,0.5,2s0.9,0.6,1.7,0.6C768.2,17.1,769,17.1,769.8,17L769.8,17z M769.4,13.5c0-1-0.2-1.7-0.5-2.1
	c-0.3-0.4-0.8-0.6-1.5-0.6s-1.2,0.2-1.6,0.6c-0.4,0.4-0.5,1.1-0.5,2C765.2,13.5,769.4,13.5,769.4,13.5z M780.2,14.3h-2.8V18h-1.2
	V6.9h4c1.2,0,2.1,0.3,2.7,0.9s0.9,1.5,0.9,2.7C783.7,13,782.5,14.3,780.2,14.3z M777.4,13.2h2.8c1.5,0,2.3-0.9,2.3-2.7
	c0-0.9-0.2-1.5-0.5-1.9c-0.4-0.4-1-0.6-1.8-0.6h-2.8V13.2z M790.8,17h0.5v0.9c-1.2,0.2-2.3,0.3-3.1,0.3c-1.2,0-2-0.3-2.4-1
	c-0.5-0.7-0.7-1.7-0.7-3.1c0-2.8,1.1-4.2,3.3-4.2c1.1,0,1.9,0.3,2.4,0.9c0.5,0.6,0.8,1.5,0.8,2.8l-0.1,0.9h-5.3c0,0.9,0.2,1.5,0.5,2
	s0.9,0.6,1.7,0.6C789.2,17.1,790,17.1,790.8,17L790.8,17z M790.4,13.5c0-1-0.2-1.7-0.5-2.1c-0.3-0.4-0.8-0.6-1.5-0.6
	s-1.2,0.2-1.6,0.6c-0.4,0.4-0.5,1.1-0.5,2C786.2,13.5,790.4,13.5,790.4,13.5z M793.4,18v-8h1.2v1.1c0.9-0.6,1.9-1.1,2.9-1.3V11
	c-0.5,0.1-1,0.2-1.4,0.4c-0.4,0.1-0.7,0.3-1.1,0.5l-0.4,0.2V18H793.4L793.4,18z M800.5,11v7h-1.2v-7h-1v-1h1V9.3
	c0-1.1,0.2-1.9,0.5-2.3s0.9-0.6,1.7-0.6l1.6,0.1v1c-0.5,0-1,0-1.5,0c-0.4,0-0.7,0.1-0.8,0.4c-0.2,0.3-0.2,0.8-0.2,1.5V10h2.3v1
	H800.5L800.5,11z M803.8,14c0-1.5,0.3-2.5,0.8-3.2c0.5-0.6,1.4-1,2.6-1c1.2,0,2.1,0.3,2.6,1c0.5,0.6,0.8,1.7,0.8,3.2
	s-0.2,2.5-0.7,3.2s-1.4,1-2.7,1s-2.2-0.3-2.7-1C804,16.5,803.8,15.4,803.8,14z M805,14c0,1.2,0.1,2,0.4,2.4c0.3,0.5,0.9,0.7,1.8,0.7
	c0.9,0,1.5-0.2,1.8-0.7s0.4-1.3,0.4-2.5s-0.2-2-0.5-2.4s-0.9-0.7-1.7-0.7s-1.4,0.2-1.7,0.7S805,12.8,805,14z M812.6,18v-8h1.2v1.1
	c0.9-0.6,1.9-1.1,2.9-1.3V11c-0.5,0.1-1,0.2-1.4,0.4c-0.4,0.1-0.7,0.3-1.1,0.5l-0.4,0.2V18H812.6L812.6,18z M819.3,18h-1.2v-8h1.2
	v0.6c0.8-0.5,1.6-0.7,2.3-0.7c1,0,1.7,0.3,2.1,0.8c0.4-0.2,0.8-0.4,1.4-0.6c0.6-0.2,1.1-0.3,1.5-0.3c1.1,0,1.8,0.3,2.1,0.9
	c0.4,0.6,0.6,1.6,0.6,3.1V18h-1.2v-4.2c0-1.1-0.1-1.9-0.3-2.3c-0.2-0.4-0.7-0.6-1.4-0.6c-0.4,0-0.7,0.1-1.1,0.2
	c-0.3,0.1-0.6,0.2-0.9,0.3l-0.3,0.1c0.1,0.4,0.2,1.1,0.2,2.3V18h-1.2v-4.1c0-1.2-0.1-1.9-0.3-2.3c-0.2-0.4-0.7-0.6-1.4-0.6
	c-0.3,0-0.7,0.1-1.1,0.2c-0.3,0.1-0.6,0.2-0.8,0.3l-0.3,0.1L819.3,18L819.3,18z M837.1,12.4v4.1c0,0.4,0.3,0.6,0.9,0.7v0.9
	c-0.8,0-1.5-0.2-1.9-0.6c-1,0.4-1.9,0.6-2.9,0.6c-0.7,0-1.3-0.2-1.7-0.6s-0.6-1-0.6-1.8s0.2-1.4,0.6-1.7c0.4-0.4,1-0.6,1.9-0.7
	l2.5-0.2v-0.7c0-0.5-0.1-0.9-0.4-1.2c-0.2-0.2-0.6-0.4-1-0.4c-0.9,0-1.7,0.1-2.7,0.2h-0.5v-0.9c1.2-0.2,2.2-0.4,3.1-0.4
	c0.9,0,1.6,0.2,2,0.6C836.9,10.9,837.1,11.5,837.1,12.4L837.1,12.4z M832.2,15.7c0,1,0.4,1.5,1.2,1.5c0.7,0,1.4-0.1,2.1-0.4l0.4-0.1
	V14l-2.4,0.2c-0.5,0-0.8,0.2-1,0.4C832.3,14.9,832.2,15.2,832.2,15.7z M840.7,18h-1.2v-8h1.2v0.6c0.9-0.5,1.7-0.7,2.5-0.7
	c1.1,0,1.8,0.3,2.1,0.9c0.4,0.6,0.6,1.6,0.6,3.1V18h-1.2v-4.2c0-1.1-0.1-1.9-0.3-2.3c-0.2-0.4-0.7-0.6-1.4-0.6
	c-0.4,0-0.7,0.1-1.1,0.2c-0.3,0.1-0.6,0.2-0.9,0.3l-0.3,0.1L840.7,18L840.7,18z M851.1,9.8c0.4,0,0.9,0.1,1.8,0.2h0.4v1
	c-0.9-0.1-1.5-0.1-1.9-0.1c-0.9,0-1.5,0.2-1.9,0.7c-0.3,0.4-0.5,1.2-0.5,2.4s0.1,2,0.4,2.4c0.3,0.5,0.9,0.7,1.9,0.7l1.9-0.1v1
	c-1,0.1-1.7,0.2-2.2,0.2c-1.2,0-2.1-0.3-2.6-1c-0.5-0.6-0.7-1.7-0.7-3.2s0.3-2.6,0.8-3.2C849,10.1,849.9,9.8,851.1,9.8z M860.4,17
	h0.5v0.9c-1.2,0.2-2.3,0.3-3.1,0.3c-1.2,0-2-0.3-2.4-1c-0.5-0.7-0.7-1.7-0.7-3.1c0-2.8,1.1-4.2,3.3-4.2c1.1,0,1.9,0.3,2.4,0.9
	c0.5,0.6,0.8,1.5,0.8,2.8l-0.1,0.9h-5.3c0,0.9,0.2,1.5,0.5,2s0.9,0.6,1.7,0.6C858.8,17.1,859.6,17.1,860.4,17L860.4,17z M860,13.5
	c0-1-0.2-1.7-0.5-2.1c-0.3-0.4-0.8-0.6-1.5-0.6s-1.2,0.2-1.6,0.6c-0.4,0.4-0.5,1.1-0.5,2C855.8,13.5,860,13.5,860,13.5z M866.8,18
	V6.9h6.7V8H868v3.8h4.5v1.1H868v4h5.5V18H866.8z M874.5,10h1.3l1.9,7h0.6l1.9-7h1.2l-2.3,8h-2.4L874.5,10z M888.5,12.4v4.1
	c0,0.4,0.3,0.6,0.9,0.7v0.9c-0.8,0-1.5-0.2-1.9-0.6c-1,0.4-1.9,0.6-2.9,0.6c-0.7,0-1.3-0.2-1.7-0.6s-0.6-1-0.6-1.8s0.2-1.4,0.6-1.7
	c0.4-0.4,1-0.6,1.9-0.7l2.5-0.2v-0.7c0-0.5-0.1-0.9-0.4-1.2c-0.2-0.2-0.6-0.4-1-0.4c-0.9,0-1.7,0.1-2.7,0.2h-0.5v-0.9
	c1.2-0.2,2.2-0.4,3.1-0.4c0.9,0,1.6,0.2,2,0.6C888.3,10.9,888.5,11.5,888.5,12.4L888.5,12.4z M883.5,15.7c0,1,0.4,1.5,1.2,1.5
	c0.7,0,1.4-0.1,2.1-0.4l0.4-0.1V14l-2.4,0.2c-0.5,0-0.8,0.2-1,0.4C883.6,14.9,883.5,15.2,883.5,15.7z M890.9,18V6.5h1.2V18H890.9z
	 M899.5,10h1.2v8h-1.2v-0.6c-0.8,0.5-1.6,0.7-2.4,0.7c-1.1,0-1.8-0.3-2.2-0.8c-0.4-0.6-0.5-1.6-0.5-3.1V10h1.2v4.2
	c0,1.2,0.1,1.9,0.3,2.3s0.7,0.6,1.4,0.6c0.4,0,0.7,0,1.1-0.1c0.4-0.1,0.6-0.2,0.8-0.3l0.3-0.1L899.5,10L899.5,10z M908.7,12.4v4.1
	c0,0.4,0.3,0.6,0.9,0.7v0.9c-0.8,0-1.5-0.2-1.9-0.6c-1,0.4-1.9,0.6-2.9,0.6c-0.7,0-1.3-0.2-1.7-0.6s-0.6-1-0.6-1.8s0.2-1.4,0.6-1.7
	c0.4-0.4,1-0.6,1.9-0.7l2.5-0.2v-0.7c0-0.5-0.1-0.9-0.4-1.2c-0.2-0.2-0.6-0.4-1-0.4c-0.9,0-1.7,0.1-2.7,0.2h-0.5v-0.9
	c1.2-0.2,2.2-0.4,3.1-0.4c0.9,0,1.6,0.2,2,0.6C908.5,10.9,908.7,11.5,908.7,12.4L908.7,12.4z M903.8,15.7c0,1,0.4,1.5,1.2,1.5
	c0.7,0,1.4-0.1,2.1-0.4l0.4-0.1V14l-2.4,0.2c-0.5,0-0.8,0.2-1,0.4C903.9,14.9,903.8,15.2,903.8,15.7z M915.2,11h-2.5v3.8
	c0,0.9,0.1,1.5,0.2,1.8c0.1,0.3,0.5,0.4,1,0.4l1.4-0.1l0.1,1c-0.7,0.1-1.3,0.2-1.6,0.2c-0.8,0-1.4-0.2-1.7-0.6s-0.5-1.2-0.5-2.3V11
	h-1.1v-1h1.1V7.6h1.2V10h2.5L915.2,11L915.2,11z M916.7,18v-8h1.2v8H916.7z M916.7,8.2V6.8h1.2v1.4H916.7z M919.8,14
	c0-1.5,0.3-2.5,0.8-3.2c0.5-0.6,1.4-1,2.6-1c1.2,0,2.1,0.3,2.6,1c0.5,0.6,0.8,1.7,0.8,3.2s-0.2,2.5-0.7,3.2s-1.4,1-2.7,1
	s-2.2-0.3-2.7-1C920,16.5,919.8,15.4,919.8,14z M921,14c0,1.2,0.1,2,0.4,2.4c0.3,0.5,0.9,0.7,1.8,0.7c0.9,0,1.5-0.2,1.8-0.7
	s0.4-1.3,0.4-2.5s-0.2-2-0.5-2.4s-0.9-0.7-1.7-0.7s-1.4,0.2-1.7,0.7S921,12.8,921,14z M929.8,18h-1.2v-8h1.2v0.6
	c0.9-0.5,1.7-0.7,2.5-0.7c1.1,0,1.8,0.3,2.1,0.9c0.4,0.6,0.6,1.6,0.6,3.1V18h-1.2v-4.2c0-1.1-0.1-1.9-0.3-2.3
	c-0.2-0.4-0.7-0.6-1.4-0.6c-0.3,0-0.7,0.1-1.1,0.2c-0.3,0.1-0.6,0.2-0.9,0.3l-0.3,0.1L929.8,18L929.8,18z M939.7,10.9
	c-1.2,0-1.7,0.4-1.7,1.2c0,0.4,0.1,0.6,0.4,0.8c0.3,0.1,0.9,0.3,1.8,0.5c1,0.2,1.6,0.4,2,0.7s0.6,0.9,0.6,1.7c0,0.8-0.3,1.4-0.8,1.8
	s-1.3,0.6-2.3,0.6c-0.7,0-1.4-0.1-2.3-0.2l-0.5-0.1l0.1-1c1.2,0.2,2.1,0.3,2.8,0.3c0.6,0,1.1-0.1,1.4-0.3c0.3-0.2,0.5-0.5,0.5-1
	s-0.1-0.8-0.4-0.9c-0.3-0.2-0.9-0.3-1.8-0.5c-0.9-0.1-1.6-0.4-2-0.7s-0.6-0.8-0.6-1.6s0.3-1.4,0.8-1.7c0.6-0.4,1.2-0.6,2.1-0.6
	c0.7,0,1.5,0.1,2.4,0.2l0.4,0.1v1C941.3,11,940.4,10.9,939.7,10.9L939.7,10.9z"/>
<circle class="st3" cx="724.9" cy="52" r="4"/>
<path class="st3" d="M752.9,57.8c-1.1,0.2-2.1,0.3-3,0.3s-1.6-0.1-2.1-0.4c-0.5-0.2-1-0.6-1.2-1.1c-0.3-0.5-0.5-1.1-0.6-1.7
	c-0.1-0.7-0.2-1.5-0.2-2.5s0.1-1.8,0.2-2.5c0.1-0.7,0.3-1.3,0.6-1.8s0.7-0.9,1.2-1.1c0.5-0.2,1.2-0.4,2.1-0.4c0.9,0,1.9,0.1,3,0.4v1
	c-1.1-0.2-2-0.3-2.9-0.3c-1.2,0-2,0.4-2.3,1.1c-0.4,0.7-0.6,1.9-0.6,3.6c0,0.8,0,1.5,0.1,2s0.2,1,0.4,1.4s0.5,0.7,0.9,0.9
	s1,0.3,1.7,0.3c0.8,0,1.6-0.1,2.7-0.3C752.9,56.8,752.9,57.8,752.9,57.8z M760.4,52.4v4.1c0,0.4,0.3,0.6,0.9,0.7v0.9
	c-0.8,0-1.5-0.2-1.9-0.6c-1,0.4-1.9,0.6-2.9,0.6c-0.7,0-1.3-0.2-1.7-0.6s-0.6-1-0.6-1.8s0.2-1.3,0.6-1.7c0.4-0.4,1-0.6,1.9-0.7
	l2.5-0.2v-0.7c0-0.5-0.1-0.9-0.4-1.2s-0.6-0.4-1-0.4c-0.9,0-1.7,0.1-2.7,0.2h-0.5v-0.9c1.2-0.2,2.2-0.4,3.1-0.4s1.6,0.2,2,0.6
	C760.2,50.9,760.4,51.5,760.4,52.4L760.4,52.4z M755.4,55.7c0,1,0.4,1.5,1.2,1.5c0.7,0,1.4-0.1,2.1-0.4l0.4-0.1V54l-2.4,0.2
	c-0.5,0-0.8,0.2-1,0.4C755.5,54.9,755.4,55.2,755.4,55.7z M762.7,58v-8h1.2v1.1c0.9-0.6,1.9-1.1,2.9-1.3V51c-0.5,0.1-1,0.2-1.4,0.4
	c-0.4,0.1-0.7,0.3-1.1,0.5l-0.4,0.2V58H762.7L762.7,58z M773.5,57h0.5v0.9c-1.2,0.2-2.3,0.3-3.1,0.3c-1.2,0-2-0.3-2.4-1
	c-0.5-0.7-0.7-1.7-0.7-3.1c0-2.8,1.1-4.2,3.3-4.2c1.1,0,1.9,0.3,2.4,0.9c0.5,0.6,0.8,1.5,0.8,2.8l-0.1,0.9H769c0,0.9,0.2,1.5,0.5,2
	s0.9,0.6,1.7,0.6C771.9,57.1,772.7,57.1,773.5,57L773.5,57z M773.1,53.5c0-1-0.2-1.7-0.5-2.1c-0.3-0.4-0.8-0.6-1.5-0.6
	s-1.2,0.2-1.6,0.6c-0.4,0.4-0.5,1.1-0.5,2L773.1,53.5L773.1,53.5z M781.6,57h0.5v0.9c-1.2,0.2-2.3,0.3-3.1,0.3c-1.2,0-2-0.3-2.4-1
	c-0.5-0.7-0.7-1.7-0.7-3.1c0-2.8,1.1-4.2,3.3-4.2c1.1,0,1.9,0.3,2.4,0.9c0.5,0.6,0.8,1.5,0.8,2.8l-0.1,0.9H777c0,0.9,0.2,1.5,0.5,2
	s0.9,0.6,1.7,0.6C780,57.1,780.8,57.1,781.6,57L781.6,57z M781.2,53.5c0-1-0.2-1.7-0.5-2.1c-0.3-0.4-0.8-0.6-1.5-0.6
	s-1.2,0.2-1.6,0.6c-0.4,0.4-0.5,1.1-0.5,2L781.2,53.5L781.2,53.5z M784.3,58v-8h1.2v1.1c0.9-0.6,1.9-1.1,2.9-1.3V51
	c-0.5,0.1-1,0.2-1.4,0.4c-0.4,0.1-0.7,0.3-1.1,0.5l-0.4,0.2V58H784.3L784.3,58z M797.5,58h-4V46.9h4c1.8,0,3,0.7,3.6,2.1
	c0.3,0.8,0.5,1.9,0.5,3.2c0,2.8-0.7,4.5-2.1,5.3C798.9,57.9,798.3,58,797.5,58z M800.3,52.3c0-2.1-0.5-3.4-1.4-4
	c-0.4-0.2-0.9-0.3-1.4-0.3h-2.7v8.9h2.7C799.4,56.9,800.3,55.4,800.3,52.3L800.3,52.3z M809.1,57h0.5v0.9c-1.2,0.2-2.3,0.3-3.1,0.3
	c-1.2,0-2-0.3-2.4-1c-0.5-0.7-0.7-1.7-0.7-3.1c0-2.8,1.1-4.2,3.3-4.2c1.1,0,1.9,0.3,2.4,0.9c0.5,0.6,0.8,1.5,0.8,2.8l-0.1,0.9h-5.3
	c0,0.9,0.2,1.5,0.5,2s0.9,0.6,1.7,0.6C807.4,57.1,808.2,57.1,809.1,57L809.1,57z M808.6,53.5c0-1-0.2-1.7-0.5-2.1
	c-0.3-0.4-0.8-0.6-1.5-0.6s-1.2,0.2-1.6,0.6c-0.4,0.4-0.5,1.1-0.5,2L808.6,53.5L808.6,53.5z M810.8,50h1.3l1.9,7h0.6l1.9-7h1.2
	l-2.3,8H813L810.8,50z M824.6,57h0.5v0.9c-1.2,0.2-2.3,0.3-3.1,0.3c-1.2,0-2-0.3-2.4-1c-0.5-0.7-0.7-1.7-0.7-3.1
	c0-2.8,1.1-4.2,3.3-4.2c1.1,0,1.9,0.3,2.4,0.9c0.5,0.6,0.8,1.5,0.8,2.8l-0.1,0.9H820c0,0.9,0.2,1.5,0.5,2s0.9,0.6,1.7,0.6
	C822.9,57.1,823.8,57.1,824.6,57L824.6,57z M824.1,53.5c0-1-0.2-1.7-0.5-2.1c-0.3-0.4-0.8-0.6-1.5-0.6s-1.2,0.2-1.6,0.6
	c-0.4,0.4-0.5,1.1-0.5,2L824.1,53.5L824.1,53.5z M827.3,58V46.5h1.2V58H827.3z M830.6,54c0-1.5,0.3-2.5,0.8-3.2s1.4-1,2.6-1
	c1.2,0,2.1,0.3,2.6,1s0.8,1.7,0.8,3.2s-0.2,2.5-0.7,3.2s-1.4,1-2.7,1s-2.2-0.3-2.7-1C830.8,56.5,830.6,55.4,830.6,54z M831.8,54
	c0,1.2,0.1,2,0.4,2.4c0.3,0.5,0.9,0.7,1.8,0.7c0.9,0,1.5-0.2,1.8-0.7s0.4-1.3,0.4-2.5s-0.2-2-0.5-2.4s-0.9-0.7-1.7-0.7
	s-1.4,0.2-1.7,0.7S831.8,52.8,831.8,54z M839.4,61.6V50h1.2v0.6c0.8-0.5,1.6-0.7,2.4-0.7c1,0,1.8,0.3,2.2,1c0.5,0.6,0.7,1.7,0.7,3.2
	s-0.3,2.5-0.8,3.2c-0.5,0.6-1.4,1-2.7,1c-0.7,0-1.2-0.1-1.8-0.2v3.6L839.4,61.6L839.4,61.6z M842.8,50.9c-0.3,0-0.7,0.1-1,0.2
	c-0.4,0.1-0.7,0.2-0.9,0.3l-0.3,0.2V57c0.8,0.1,1.3,0.2,1.7,0.2c0.9,0,1.5-0.2,1.8-0.7c0.4-0.5,0.5-1.3,0.5-2.4s-0.2-1.9-0.5-2.4
	C843.8,51.1,843.4,50.9,842.8,50.9L842.8,50.9z M849,58h-1.2v-8h1.2v0.6c0.8-0.5,1.6-0.7,2.3-0.7c1,0,1.7,0.3,2.1,0.8
	c0.4-0.2,0.8-0.4,1.4-0.6c0.6-0.2,1.1-0.3,1.5-0.3c1.1,0,1.8,0.3,2.1,0.9c0.4,0.6,0.6,1.6,0.6,3.1V58h-1.2v-4.2
	c0-1.1-0.1-1.9-0.3-2.3c-0.2-0.4-0.7-0.6-1.4-0.6c-0.4,0-0.7,0.1-1.1,0.2c-0.3,0.1-0.6,0.2-0.9,0.3l-0.3,0.1
	c0.1,0.4,0.2,1.1,0.2,2.3V58h-1.2v-4.1c0-1.2-0.1-1.9-0.3-2.3c-0.2-0.4-0.7-0.6-1.4-0.6c-0.3,0-0.7,0.1-1.1,0.2
	c-0.3,0.1-0.6,0.2-0.8,0.3l-0.3,0.1L849,58L849,58z M866.6,57h0.5v0.9c-1.2,0.2-2.3,0.3-3.1,0.3c-1.2,0-2-0.3-2.4-1
	c-0.5-0.7-0.7-1.7-0.7-3.1c0-2.8,1.1-4.2,3.3-4.2c1.1,0,1.9,0.3,2.4,0.9c0.5,0.6,0.8,1.5,0.8,2.8l-0.1,0.9H862c0,0.9,0.2,1.5,0.5,2
	s0.9,0.6,1.7,0.6C865,57.1,865.8,57.1,866.6,57L866.6,57z M866.2,53.5c0-1-0.2-1.7-0.5-2.1c-0.3-0.4-0.8-0.6-1.5-0.6
	s-1.2,0.2-1.6,0.6c-0.4,0.4-0.5,1.1-0.5,2C862,53.5,866.2,53.5,866.2,53.5z M870.5,58h-1.2v-8h1.2v0.6c0.9-0.5,1.7-0.7,2.5-0.7
	c1.1,0,1.8,0.3,2.1,0.9c0.4,0.6,0.6,1.6,0.6,3.1V58h-1.2v-4.2c0-1.1-0.1-1.9-0.3-2.3c-0.2-0.4-0.7-0.6-1.4-0.6
	c-0.3,0-0.7,0.1-1.1,0.2c-0.3,0.1-0.6,0.2-0.9,0.3l-0.3,0.1L870.5,58L870.5,58z M882,51h-2.5v3.8c0,0.9,0.1,1.5,0.2,1.8
	c0.1,0.3,0.5,0.4,1,0.4h1.3l0.1,1c-0.7,0.1-1.3,0.2-1.6,0.2c-0.8,0-1.4-0.2-1.7-0.6c-0.3-0.4-0.5-1.2-0.5-2.3V51h-1.1v-1h1.1v-2.4
	h1.2V50h2.5V51L882,51z M888,49.1c0-0.7,0.2-1.3,0.7-1.7s1.2-0.6,2.1-0.6s1.6,0.2,2,0.6c0.5,0.4,0.7,1,0.7,1.8
	c0,0.7-0.2,1.3-0.6,1.8c-0.4,0.4-1,0.8-1.9,1.3l2.4,2.4c0.2-0.7,0.4-1.5,0.4-2.6h1.2c-0.1,1.3-0.4,2.4-0.7,3.3l2.1,2l-0.7,0.8
	l-1.9-1.8c-0.7,1.2-1.9,1.8-3.3,1.8c-1.5,0-2.5-0.3-3.1-0.9c-0.6-0.6-0.9-1.4-0.9-2.4s0.2-1.8,0.6-2.2c0.4-0.5,1-0.9,1.9-1.2
	c-0.4-0.4-0.6-0.8-0.7-1.1C888.1,50.1,888,49.6,888,49.1L888,49.1z M890.3,57.1c1.3,0,2.2-0.5,2.7-1.4l-3.4-3.4
	c-0.7,0.2-1.2,0.5-1.5,0.9s-0.4,0.9-0.4,1.6C887.7,56.3,888.5,57.1,890.3,57.1z M889.2,49.3c0,0.7,0.2,1.2,0.7,1.7l0.5,0.4
	c0.7-0.3,1.2-0.6,1.5-0.9c0.3-0.3,0.4-0.7,0.4-1.3c0-1-0.5-1.5-1.6-1.5C889.7,47.8,889.2,48.3,889.2,49.3z M900.5,48v-1.1h8V48h-3.4
	v10h-1.2V48C903.9,48,900.5,48,900.5,48z M908.5,58v-8h1.2v1.1c0.9-0.6,1.9-1.1,2.9-1.3V51c-0.5,0.1-1,0.2-1.4,0.4
	c-0.4,0.1-0.7,0.3-1.1,0.5l-0.4,0.2V58H908.5L908.5,58z M919.7,52.4v4.1c0,0.4,0.3,0.6,0.9,0.7v0.9c-0.8,0-1.5-0.2-1.9-0.6
	c-1,0.4-1.9,0.6-2.9,0.6c-0.7,0-1.3-0.2-1.7-0.6s-0.6-1-0.6-1.8s0.2-1.3,0.6-1.7c0.4-0.4,1-0.6,1.9-0.7l2.5-0.2v-0.7
	c0-0.5-0.1-0.9-0.4-1.2s-0.6-0.4-1-0.4c-0.9,0-1.7,0.1-2.7,0.2h-0.5v-0.9c1.2-0.2,2.2-0.4,3.1-0.4s1.6,0.2,2,0.6
	C919.5,50.9,919.7,51.5,919.7,52.4L919.7,52.4z M914.8,55.7c0,1,0.4,1.5,1.2,1.5c0.7,0,1.4-0.1,2.1-0.4l0.4-0.1V54l-2.4,0.2
	c-0.5,0-0.8,0.2-1,0.4C914.9,54.9,914.8,55.2,914.8,55.7z M922.1,58v-8h1.2v8H922.1z M922.1,48.2v-1.4h1.2v1.4H922.1z M926.8,58
	h-1.2v-8h1.2v0.6c0.9-0.5,1.7-0.7,2.5-0.7c1.1,0,1.8,0.3,2.1,0.9c0.4,0.6,0.6,1.6,0.6,3.1V58h-1.2v-4.2c0-1.1-0.1-1.9-0.3-2.3
	c-0.2-0.4-0.7-0.6-1.4-0.6c-0.3,0-0.7,0.1-1.1,0.2c-0.3,0.1-0.6,0.2-0.9,0.3l-0.3,0.1L926.8,58L926.8,58z M934.2,58v-8h1.2v8H934.2z
	 M934.2,48.2v-1.4h1.2v1.4H934.2z M938.9,58h-1.2v-8h1.2v0.6c0.9-0.5,1.7-0.7,2.5-0.7c1.1,0,1.8,0.3,2.1,0.9
	c0.4,0.6,0.6,1.6,0.6,3.1V58h-1.2v-4.2c0-1.1-0.1-1.9-0.3-2.3c-0.2-0.4-0.7-0.6-1.4-0.6c-0.4,0-0.7,0.1-1.1,0.2
	c-0.3,0.1-0.6,0.2-0.9,0.3l-0.3,0.1L938.9,58L938.9,58z M949.3,61.8c-1.3,0-2.2-0.2-2.7-0.5s-0.8-1-0.8-1.9c0-0.4,0.1-0.8,0.3-1.1
	s0.5-0.6,1-0.9c-0.3-0.2-0.4-0.6-0.4-1.1c0-0.2,0.1-0.5,0.4-1l0.1-0.3c-0.8-0.4-1.3-1.2-1.3-2.4c0-1.8,1-2.7,3-2.7
	c0.5,0,1,0.1,1.4,0.2h0.2L953,50v1h-1.5c0.4,0.4,0.5,0.9,0.5,1.6c0,1-0.3,1.7-0.8,2.1c-0.5,0.4-1.3,0.6-2.3,0.6
	c-0.3,0-0.5,0-0.8-0.1c-0.2,0.5-0.3,0.8-0.3,0.9c0,0.3,0.1,0.5,0.3,0.6s0.8,0.1,1.8,0.1s1.8,0.2,2.2,0.5s0.7,0.9,0.7,1.9
	C952.9,60.9,951.7,61.8,949.3,61.8L949.3,61.8z M947.1,59.2c0,0.6,0.2,1,0.5,1.2s0.9,0.3,1.7,0.3c0.9,0,1.5-0.1,1.8-0.4
	c0.4-0.2,0.6-0.6,0.6-1.2c0-0.5-0.1-0.9-0.4-1.1c-0.3-0.2-0.8-0.2-1.6-0.2l-1.7-0.1c-0.4,0.3-0.6,0.5-0.7,0.7
	C947.1,58.7,947.1,58.9,947.1,59.2L947.1,59.2z M947.2,52.6c0,0.6,0.1,1.1,0.4,1.3c0.3,0.3,0.8,0.4,1.4,0.4c0.7,0,1.1-0.1,1.4-0.4
	c0.3-0.3,0.4-0.7,0.4-1.3s-0.1-1.1-0.4-1.4c-0.3-0.3-0.7-0.4-1.4-0.4s-1.1,0.1-1.4,0.4S947.2,51.9,947.2,52.6z"/>
<circle class="st3" cx="764.9" cy="92" r="4"/>
<path class="st3" d="M790.3,94.3h-2.8V98h-1.2V86.9h4c1.2,0,2.1,0.3,2.7,0.9s0.9,1.5,0.9,2.7C793.8,93,792.6,94.3,790.3,94.3z
	 M787.5,93.2h2.8c1.5,0,2.3-0.9,2.3-2.7c0-0.9-0.2-1.5-0.5-1.9c-0.4-0.4-0.9-0.6-1.7-0.6h-2.8C787.5,88,787.5,93.2,787.5,93.2z
	 M801.1,92.4v4.1c0,0.4,0.3,0.6,0.9,0.7v0.9c-0.8,0-1.5-0.2-1.9-0.6c-1,0.4-1.9,0.6-2.9,0.6c-0.7,0-1.3-0.2-1.7-0.6s-0.6-1-0.6-1.8
	s0.2-1.3,0.6-1.7c0.4-0.4,1-0.6,1.9-0.7l2.5-0.2v-0.7c0-0.5-0.1-0.9-0.4-1.2s-0.6-0.4-1-0.4c-0.9,0-1.7,0.1-2.7,0.2h-0.5v-0.9
	c1.2-0.2,2.2-0.4,3.1-0.4s1.6,0.2,2,0.6C800.9,90.9,801.1,91.5,801.1,92.4L801.1,92.4z M796.1,95.7c0,1,0.4,1.5,1.2,1.5
	c0.7,0,1.4-0.1,2.1-0.4l0.4-0.1V94l-2.4,0.2c-0.5,0-0.8,0.2-1,0.4C796.2,94.9,796.1,95.2,796.1,95.7z M802.6,90h1.2l2,7h0.5l2-7h1.2
	l-3.3,11.6H805l1-3.6h-1.2L802.6,90z M811.1,98v-8h1.2v1.1c0.9-0.6,1.9-1.1,2.9-1.3V91c-0.5,0.1-1,0.2-1.4,0.4
	c-0.4,0.1-0.7,0.3-1.1,0.5l-0.4,0.2V98H811.1L811.1,98z M816.1,94c0-1.5,0.3-2.5,0.8-3.2s1.4-1,2.6-1c1.2,0,2.1,0.3,2.6,1
	s0.8,1.7,0.8,3.2s-0.2,2.5-0.7,3.2s-1.4,1-2.7,1s-2.2-0.3-2.7-1C816.4,96.5,816.1,95.4,816.1,94z M817.3,94c0,1.2,0.1,2,0.4,2.4
	c0.3,0.5,0.9,0.7,1.8,0.7c0.9,0,1.5-0.2,1.8-0.7s0.4-1.3,0.4-2.5s-0.2-2-0.5-2.4s-0.9-0.7-1.7-0.7s-1.4,0.2-1.7,0.7
	S817.3,92.8,817.3,94z M825,98V86.5h1.2V98H825z M828.7,98V86.5h1.2V98H828.7z M836.9,89.1c0-0.7,0.2-1.3,0.7-1.7
	c0.5-0.4,1.2-0.6,2.1-0.6s1.6,0.2,2,0.6c0.5,0.4,0.7,1,0.7,1.8c0,0.7-0.2,1.3-0.6,1.8c-0.4,0.4-1,0.8-1.9,1.3l2.4,2.4
	c0.2-0.7,0.4-1.5,0.4-2.6h1.2c-0.1,1.3-0.4,2.4-0.7,3.3l2.1,2l-0.7,0.8l-1.9-1.8c-0.7,1.2-1.9,1.8-3.3,1.8s-2.5-0.3-3.1-0.9
	s-0.9-1.4-0.9-2.4s0.2-1.8,0.6-2.2c0.4-0.5,1-0.9,1.9-1.2c-0.4-0.4-0.6-0.8-0.7-1.1C837,90.1,836.9,89.6,836.9,89.1L836.9,89.1z
	 M839.2,97.1c1.3,0,2.2-0.5,2.7-1.4l-3.4-3.4c-0.7,0.2-1.2,0.5-1.5,0.9s-0.4,0.9-0.4,1.6C836.6,96.3,837.5,97.1,839.2,97.1z
	 M838.1,89.3c0,0.7,0.2,1.2,0.7,1.7l0.5,0.4c0.7-0.3,1.2-0.6,1.5-0.9s0.4-0.7,0.4-1.3c0-1-0.5-1.5-1.6-1.5
	C838.7,87.8,838.1,88.3,838.1,89.3z M849.6,98l3-11.1h2.7l3,11.1h-1.2l-0.8-2.8h-4.7l-0.8,2.8H849.6z M853.6,88l-1.7,6.1h4.2
	l-1.7-6.1H853.6L853.6,88z M866,86.5V98h-1.2v-0.5c-0.8,0.5-1.6,0.7-2.4,0.7c-0.4,0-0.8-0.1-1.1-0.2s-0.6-0.3-0.9-0.6
	c-0.6-0.6-0.9-1.6-0.9-3.2s0.3-2.7,0.8-3.4c0.5-0.7,1.4-1,2.6-1c0.6,0,1.3,0.1,2,0.2v-3.5H866z M861.3,96.6c0.2,0.2,0.4,0.3,0.5,0.4
	s0.4,0.1,0.7,0.1s0.7,0,1-0.1c0.4-0.1,0.7-0.2,0.9-0.3l0.3-0.1v-5.4c-0.6-0.1-1.3-0.2-1.9-0.2c-0.8,0-1.4,0.3-1.7,0.8
	s-0.5,1.3-0.5,2.4C860.7,95.3,860.9,96.1,861.3,96.6L861.3,96.6z M869.5,98h-1.2v-8h1.2v0.6c0.8-0.5,1.6-0.7,2.3-0.7
	c1,0,1.7,0.3,2.1,0.8c0.4-0.2,0.8-0.4,1.4-0.6c0.6-0.2,1.1-0.3,1.5-0.3c1.1,0,1.8,0.3,2.1,0.9c0.4,0.6,0.6,1.6,0.6,3.1V98h-1.2v-4.2
	c0-1.1-0.1-1.9-0.3-2.3s-0.7-0.6-1.4-0.6c-0.4,0-0.7,0.1-1.1,0.2c-0.3,0.1-0.6,0.2-0.9,0.3l-0.3,0.1c0.1,0.4,0.2,1.1,0.2,2.3V98
	h-1.2v-4.1c0-1.2-0.1-1.9-0.3-2.3s-0.7-0.6-1.4-0.6c-0.3,0-0.7,0.1-1.1,0.2c-0.3,0.1-0.6,0.2-0.8,0.3l-0.3,0.1L869.5,98L869.5,98z
	 M881.7,98v-8h1.2v8H881.7z M881.7,88.2v-1.4h1.2v1.4H881.7z M886.4,98h-1.2v-8h1.2v0.6c0.9-0.5,1.7-0.7,2.5-0.7
	c1.1,0,1.8,0.3,2.1,0.9c0.4,0.6,0.6,1.6,0.6,3.1V98h-1.2v-4.2c0-1.1-0.1-1.9-0.3-2.3s-0.7-0.6-1.4-0.6c-0.4,0-0.7,0.1-1.1,0.2
	c-0.3,0.1-0.6,0.2-0.9,0.3l-0.3,0.1L886.4,98L886.4,98z M893.7,98v-8h1.2v8H893.7z M893.7,88.2v-1.4h1.2v1.4H893.7z M899.8,90.9
	c-1.2,0-1.7,0.4-1.7,1.2c0,0.4,0.1,0.6,0.4,0.8c0.3,0.2,0.9,0.3,1.8,0.5c1,0.2,1.6,0.4,2,0.7c0.4,0.3,0.6,0.9,0.6,1.7
	s-0.3,1.4-0.8,1.8s-1.3,0.6-2.3,0.6c-0.7,0-1.4-0.1-2.3-0.2l-0.5-0.1l0.1-1c1.2,0.2,2.1,0.3,2.8,0.3c0.6,0,1.1-0.1,1.4-0.3
	c0.3-0.2,0.5-0.5,0.5-1s-0.1-0.8-0.4-0.9c-0.3-0.2-0.9-0.3-1.8-0.5c-0.9-0.2-1.6-0.4-2-0.7c-0.4-0.3-0.6-0.8-0.6-1.6
	s0.3-1.4,0.8-1.7c0.6-0.4,1.2-0.6,2.1-0.6c0.7,0,1.5,0.1,2.4,0.2l0.4,0.1v1C901.4,91,900.4,90.9,899.8,90.9L899.8,90.9z M908.8,91
	h-2.5v3.8c0,0.9,0.1,1.5,0.2,1.8c0.1,0.3,0.5,0.4,1,0.4l1.4-0.1l0.1,1c-0.7,0.1-1.3,0.2-1.6,0.2c-0.8,0-1.4-0.2-1.7-0.6
	s-0.5-1.2-0.5-2.3V91H904v-1h1.1v-2.4h1.2V90h2.5V91L908.8,91z M910.3,98v-8h1.2v1.1c0.9-0.6,1.9-1.1,2.9-1.3V91
	c-0.5,0.1-1,0.2-1.4,0.4c-0.4,0.1-0.7,0.3-1.1,0.5l-0.4,0.2V98H910.3L910.3,98z M921.5,92.4v4.1c0,0.4,0.3,0.6,0.9,0.7v0.9
	c-0.8,0-1.5-0.2-1.9-0.6c-1,0.4-1.9,0.6-2.9,0.6c-0.7,0-1.3-0.2-1.7-0.6s-0.6-1-0.6-1.8s0.2-1.3,0.6-1.7c0.4-0.4,1-0.6,1.9-0.7
	l2.5-0.2v-0.7c0-0.5-0.1-0.9-0.4-1.2c-0.2-0.2-0.6-0.4-1-0.4c-0.9,0-1.7,0.1-2.7,0.2h-0.5v-0.9c1.2-0.2,2.2-0.4,3.1-0.4
	c0.9,0,1.6,0.2,2,0.6C921.3,90.9,921.5,91.5,921.5,92.4L921.5,92.4z M916.5,95.7c0,1,0.4,1.5,1.2,1.5c0.7,0,1.4-0.1,2.1-0.4l0.4-0.1
	V94l-2.4,0.2c-0.5,0-0.8,0.2-1,0.4C916.7,94.9,916.5,95.2,916.5,95.7z M928,91h-2.5v3.8c0,0.9,0.1,1.5,0.2,1.8
	c0.1,0.3,0.5,0.4,1,0.4l1.3,0l0.1,1c-0.7,0.1-1.3,0.2-1.6,0.2c-0.8,0-1.4-0.2-1.7-0.6s-0.5-1.2-0.5-2.3V91h-1.1v-1h1.1v-2.4h1.2V90
	h2.5V91L928,91z M929.5,98v-8h1.2v8H929.5z M929.5,88.2v-1.4h1.2v1.4H929.5z M932.6,94c0-1.5,0.3-2.5,0.8-3.2s1.4-1,2.6-1
	c1.2,0,2.1,0.3,2.6,1s0.8,1.7,0.8,3.2s-0.2,2.5-0.7,3.2s-1.4,1-2.7,1s-2.2-0.3-2.7-1C932.8,96.5,932.6,95.4,932.6,94z M933.8,94
	c0,1.2,0.1,2,0.4,2.4c0.3,0.5,0.9,0.7,1.8,0.7c0.9,0,1.5-0.2,1.8-0.7s0.4-1.3,0.4-2.5s-0.2-2-0.5-2.4s-0.9-0.7-1.7-0.7
	s-1.4,0.2-1.7,0.7S933.8,92.8,933.8,94z M942.6,98h-1.2v-8h1.2v0.6c0.9-0.5,1.7-0.7,2.5-0.7c1.1,0,1.8,0.3,2.1,0.9
	c0.4,0.6,0.6,1.6,0.6,3.1V98h-1.2v-4.2c0-1.1-0.1-1.9-0.3-2.3s-0.7-0.6-1.4-0.6c-0.4,0-0.7,0.1-1.1,0.2c-0.3,0.1-0.6,0.2-0.9,0.3
	l-0.3,0.1L942.6,98L942.6,98z"/>
<circle class="st3" cx="808.9" cy="132" r="4"/>
<path class="st3" d="M834.3,134.3h-2.8v3.7h-1.2v-11.1h4c1.2,0,2.1,0.3,2.7,0.9c0.6,0.6,0.9,1.5,0.9,2.7
	C837.8,133,836.6,134.3,834.3,134.3z M831.5,133.2h2.8c1.5,0,2.3-0.9,2.3-2.7c0-0.9-0.2-1.5-0.5-1.9c-0.4-0.4-0.9-0.6-1.7-0.6h-2.8
	L831.5,133.2L831.5,133.2z M839.5,138v-8h1.2v1.1c0.9-0.6,1.9-1.1,2.9-1.3v1.2c-0.5,0.1-1,0.2-1.4,0.4c-0.5,0.2-0.8,0.3-1.1,0.5
	l-0.4,0.2v5.9L839.5,138L839.5,138z M844.5,134c0-1.5,0.3-2.5,0.8-3.2s1.4-1,2.6-1c1.2,0,2.1,0.3,2.6,1s0.8,1.7,0.8,3.2
	s-0.2,2.5-0.7,3.2s-1.4,1-2.7,1s-2.2-0.3-2.7-1C844.8,136.5,844.5,135.4,844.5,134z M845.8,134c0,1.2,0.1,2,0.4,2.4
	c0.3,0.5,0.9,0.7,1.8,0.7c0.9,0,1.5-0.2,1.8-0.7s0.4-1.3,0.4-2.5s-0.2-2-0.5-2.4s-0.9-0.7-1.7-0.7s-1.4,0.2-1.7,0.7
	C845.9,132,845.8,132.8,845.8,134L845.8,134z M853.3,137.8V130h1.2v7.8c0,1-0.2,1.7-0.5,2.2s-1.1,1-2.1,1.6l-0.5-0.9
	c0.8-0.5,1.4-0.9,1.6-1.2C853.2,139.1,853.3,138.5,853.3,137.8L853.3,137.8z M853.3,128.2v-1.4h1.2v1.4H853.3L853.3,128.2z
	 M862.3,137h0.5v0.9c-1.2,0.2-2.3,0.3-3.1,0.3c-1.2,0-2-0.3-2.4-1c-0.5-0.7-0.7-1.7-0.7-3.1c0-2.8,1.1-4.2,3.3-4.2
	c1.1,0,1.9,0.3,2.4,0.9c0.5,0.6,0.8,1.5,0.8,2.8l-0.1,0.9h-5.3c0,0.9,0.2,1.5,0.5,2s0.9,0.6,1.7,0.6
	C860.6,137.1,861.4,137.1,862.3,137L862.3,137z M861.8,133.5c0-1-0.2-1.7-0.5-2.1c-0.3-0.4-0.8-0.6-1.5-0.6s-1.2,0.2-1.6,0.6
	c-0.4,0.4-0.5,1.1-0.5,2h4.1V133.5z M867.9,129.8c0.4,0,1,0.1,1.8,0.2h0.4v1c-0.9-0.1-1.5-0.1-1.9-0.1c-0.9,0-1.5,0.2-1.9,0.7
	c-0.3,0.4-0.5,1.2-0.5,2.4s0.2,2,0.4,2.4c0.3,0.5,0.9,0.7,1.9,0.7l1.9-0.1v1c-1,0.1-1.7,0.2-2.2,0.2c-1.2,0-2.1-0.3-2.6-1
	c-0.5-0.6-0.7-1.7-0.7-3.2s0.3-2.6,0.8-3.2C865.8,130.1,866.7,129.8,867.9,129.8L867.9,129.8z M876,131h-2.5v3.8
	c0,0.9,0.1,1.5,0.2,1.8c0.1,0.3,0.5,0.4,1,0.4l1.4-0.1l0.1,1c-0.7,0.1-1.3,0.2-1.6,0.2c-0.8,0-1.4-0.2-1.7-0.6s-0.5-1.2-0.5-2.3V131
	h-1.1v-1h1.1v-2.4h1.2v2.4h2.5L876,131L876,131z M881.2,138v-11.1h2.2l3.1,9.4l3.1-9.4h2.2V138h-1.2v-9.8h-0.2l-3.2,9.4h-1.4
	l-3.2-9.4h-0.2v9.8H881.2L881.2,138z M900.1,132.4v4.1c0,0.4,0.3,0.6,0.9,0.7v0.9c-0.8,0-1.5-0.2-1.9-0.6c-1,0.4-1.9,0.6-2.9,0.6
	c-0.7,0-1.3-0.2-1.7-0.6s-0.6-1-0.6-1.8s0.2-1.3,0.6-1.7c0.4-0.4,1-0.6,1.9-0.7l2.5-0.2v-0.7c0-0.5-0.1-0.9-0.4-1.2
	c-0.2-0.2-0.6-0.4-1-0.4c-0.9,0-1.7,0.1-2.7,0.2h-0.5v-0.9c1.2-0.2,2.2-0.4,3.1-0.4c0.9,0,1.6,0.2,2,0.6
	C899.9,130.9,900.1,131.5,900.1,132.4L900.1,132.4z M895.2,135.7c0,1,0.4,1.5,1.2,1.5c0.7,0,1.4-0.1,2.1-0.4l0.4-0.1V134l-2.4,0.2
	c-0.5,0-0.8,0.2-1,0.4C895.3,134.9,895.2,135.2,895.2,135.7z M903.7,138h-1.2v-8h1.2v0.6c0.9-0.5,1.7-0.7,2.5-0.7
	c1.1,0,1.8,0.3,2.1,0.9c0.4,0.6,0.6,1.6,0.6,3.1v4.2h-1.2v-4.2c0-1.1-0.1-1.9-0.3-2.3c-0.2-0.4-0.7-0.6-1.4-0.6
	c-0.4,0-0.7,0.1-1.1,0.2c-0.3,0.1-0.6,0.2-0.9,0.3l-0.3,0.1L903.7,138L903.7,138z M916.7,132.4v4.1c0,0.4,0.3,0.6,0.9,0.7v0.9
	c-0.8,0-1.5-0.2-1.9-0.6c-1,0.4-1.9,0.6-2.9,0.6c-0.7,0-1.3-0.2-1.7-0.6s-0.6-1-0.6-1.8s0.2-1.3,0.6-1.7c0.4-0.4,1-0.6,1.9-0.7
	l2.5-0.2v-0.7c0-0.5-0.1-0.9-0.4-1.2s-0.6-0.4-1-0.4c-0.9,0-1.7,0.1-2.7,0.2h-0.5v-0.9c1.2-0.2,2.2-0.4,3.1-0.4s1.6,0.2,2,0.6
	C916.5,130.9,916.7,131.5,916.7,132.4L916.7,132.4z M911.8,135.7c0,1,0.4,1.5,1.2,1.5c0.7,0,1.4-0.1,2.1-0.4l0.4-0.1V134l-2.4,0.2
	c-0.5,0-0.8,0.2-1,0.4C911.9,134.9,911.8,135.2,911.8,135.7z M922.2,141.8c-1.3,0-2.2-0.2-2.7-0.5s-0.8-1-0.8-1.9
	c0-0.4,0.1-0.8,0.3-1.1s0.5-0.6,1-0.9c-0.3-0.2-0.4-0.6-0.4-1.1c0-0.2,0.1-0.5,0.4-1l0.1-0.3c-0.8-0.4-1.3-1.2-1.3-2.4
	c0-1.8,1-2.7,3-2.7c0.5,0,1,0.1,1.4,0.2h0.2l2.4-0.1v1h-1.5c0.4,0.4,0.5,0.9,0.5,1.6c0,1-0.3,1.7-0.8,2.1c-0.5,0.4-1.3,0.6-2.3,0.6
	c-0.3,0-0.5,0-0.8-0.1c-0.2,0.5-0.3,0.8-0.3,0.9c0,0.3,0.1,0.5,0.3,0.6s0.8,0.1,1.8,0.1s1.8,0.2,2.2,0.5s0.7,0.9,0.7,1.9
	C925.7,140.9,924.5,141.8,922.2,141.8L922.2,141.8z M919.9,139.2c0,0.6,0.2,1,0.5,1.2s0.9,0.3,1.7,0.3c0.9,0,1.5-0.1,1.8-0.4
	c0.4-0.2,0.6-0.6,0.6-1.2c0-0.5-0.1-0.9-0.4-1.1c-0.3-0.2-0.8-0.2-1.6-0.2l-1.7-0.1c-0.4,0.3-0.6,0.5-0.7,0.7
	C920,138.7,919.9,138.9,919.9,139.2L919.9,139.2z M920,132.6c0,0.6,0.1,1.1,0.4,1.3c0.3,0.3,0.8,0.4,1.4,0.4c0.7,0,1.1-0.1,1.4-0.4
	c0.3-0.3,0.4-0.7,0.4-1.3s-0.1-1.1-0.4-1.4c-0.3-0.3-0.7-0.4-1.4-0.4s-1.1,0.1-1.4,0.4S920,131.9,920,132.6z M932.7,137h0.5v0.9
	c-1.2,0.2-2.3,0.3-3.1,0.3c-1.2,0-2-0.3-2.4-1c-0.5-0.7-0.7-1.7-0.7-3.1c0-2.8,1.1-4.2,3.3-4.2c1.1,0,1.9,0.3,2.4,0.9
	c0.5,0.6,0.8,1.5,0.8,2.8l-0.1,0.9h-5.3c0,0.9,0.2,1.5,0.5,2s0.9,0.6,1.7,0.6C931.1,137.1,931.9,137.1,932.7,137L932.7,137z
	 M932.3,133.5c0-1-0.2-1.7-0.5-2.1c-0.3-0.4-0.8-0.6-1.5-0.6s-1.2,0.2-1.6,0.6c-0.4,0.4-0.5,1.1-0.5,2h4.1V133.5z M936.6,138h-1.2
	v-8h1.2v0.6c0.8-0.5,1.6-0.7,2.3-0.7c1,0,1.7,0.3,2.1,0.8c0.4-0.2,0.8-0.4,1.4-0.6c0.6-0.2,1.1-0.3,1.5-0.3c1.1,0,1.8,0.3,2.1,0.9
	c0.4,0.6,0.6,1.6,0.6,3.1v4.2h-1.2v-4.2c0-1.1-0.1-1.9-0.3-2.3c-0.2-0.4-0.7-0.6-1.4-0.6c-0.4,0-0.7,0.1-1.1,0.2
	c-0.3,0.1-0.6,0.2-0.9,0.3l-0.3,0.1c0.1,0.4,0.2,1.1,0.2,2.3v4.2h-1.2v-4.1c0-1.2-0.1-1.9-0.3-2.3c-0.2-0.4-0.7-0.6-1.4-0.6
	c-0.3,0-0.7,0.1-1.1,0.2c-0.3,0.1-0.6,0.2-0.8,0.3l-0.3,0.1L936.6,138L936.6,138z M954.2,137h0.5v0.9c-1.2,0.2-2.3,0.3-3.1,0.3
	c-1.2,0-2-0.3-2.4-1c-0.5-0.7-0.7-1.7-0.7-3.1c0-2.8,1.1-4.2,3.3-4.2c1.1,0,1.9,0.3,2.4,0.9c0.5,0.6,0.8,1.5,0.8,2.8l-0.1,0.9h-5.3
	c0,0.9,0.2,1.5,0.5,2s0.9,0.6,1.7,0.6C952.5,137.1,953.4,137.1,954.2,137L954.2,137z M953.7,133.5c0-1-0.2-1.7-0.5-2.1
	c-0.3-0.4-0.8-0.6-1.5-0.6s-1.2,0.2-1.6,0.6c-0.4,0.4-0.5,1.1-0.5,2h4.1V133.5z M958,138h-1.2v-8h1.2v0.6c0.9-0.5,1.7-0.7,2.5-0.7
	c1.1,0,1.8,0.3,2.1,0.9c0.4,0.6,0.6,1.6,0.6,3.1v4.2H962v-4.2c0-1.1-0.1-1.9-0.3-2.3c-0.2-0.4-0.7-0.6-1.4-0.6
	c-0.3,0-0.7,0.1-1.1,0.2c-0.3,0.1-0.6,0.2-0.9,0.3l-0.3,0.1V138L958,138z M969.5,131H967v3.8c0,0.9,0.1,1.5,0.2,1.8
	c0.1,0.3,0.5,0.4,1,0.4l1.4-0.1l0.1,1c-0.7,0.1-1.3,0.2-1.6,0.2c-0.8,0-1.4-0.2-1.7-0.6s-0.5-1.2-0.5-2.3V131h-1.1v-1h1.1v-2.4h1.2
	v2.4h2.5L969.5,131L969.5,131z"/>
<circle class="st3" cx="808.9" cy="264" r="4"/>
<path class="st3" d="M836.3,270h-6.1v-11.1h1.2v10h4.9L836.3,270L836.3,270z M843,269h0.5v0.9c-1.2,0.2-2.3,0.3-3.1,0.3
	c-1.2,0-2-0.3-2.4-1c-0.5-0.7-0.7-1.7-0.7-3.1c0-2.8,1.1-4.2,3.3-4.2c1.1,0,1.9,0.3,2.4,0.9s0.8,1.5,0.8,2.8l-0.1,0.9h-5.3
	c0,0.9,0.2,1.5,0.5,2s0.9,0.6,1.7,0.6C841.4,269.1,842.2,269.1,843,269L843,269z M842.6,265.5c0-1-0.2-1.7-0.5-2.1s-0.8-0.6-1.5-0.6
	s-1.2,0.2-1.6,0.6c-0.4,0.4-0.5,1.1-0.5,2L842.6,265.5L842.6,265.5z M848.8,273.8c-1.3,0-2.2-0.2-2.7-0.5s-0.8-1-0.8-1.9
	c0-0.4,0.1-0.8,0.3-1.1c0.2-0.3,0.5-0.6,1-0.9c-0.3-0.2-0.4-0.6-0.4-1.1c0-0.2,0.1-0.5,0.4-1l0.1-0.3c-0.8-0.4-1.3-1.2-1.3-2.4
	c0-1.8,1-2.7,3-2.7c0.5,0,1,0.1,1.4,0.2h0.2l2.4-0.1v1h-1.5c0.4,0.4,0.5,0.9,0.5,1.6c0,1-0.3,1.7-0.8,2.1s-1.3,0.6-2.3,0.6
	c-0.3,0-0.5,0-0.8-0.1c-0.2,0.5-0.3,0.8-0.3,0.9c0,0.3,0.1,0.5,0.3,0.6s0.8,0.1,1.8,0.1s1.8,0.2,2.2,0.5s0.7,0.9,0.7,1.9
	C852.3,272.9,851.1,273.8,848.8,273.8L848.8,273.8z M846.5,271.2c0,0.6,0.2,1,0.5,1.2s0.9,0.3,1.7,0.3c0.9,0,1.5-0.1,1.8-0.4
	c0.4-0.2,0.6-0.6,0.6-1.2c0-0.5-0.1-0.9-0.4-1.1s-0.8-0.2-1.6-0.2l-1.7-0.1c-0.4,0.3-0.6,0.5-0.7,0.7
	C846.6,270.7,846.5,270.9,846.5,271.2L846.5,271.2z M846.6,264.6c0,0.6,0.1,1.1,0.4,1.3c0.3,0.3,0.8,0.4,1.4,0.4s1.1-0.1,1.4-0.4
	c0.3-0.3,0.4-0.7,0.4-1.3c0-0.6-0.1-1.1-0.4-1.4c-0.3-0.3-0.7-0.4-1.4-0.4s-1.1,0.1-1.4,0.4C846.8,263.5,846.6,263.9,846.6,264.6z
	 M859.5,264.4v4.1c0,0.4,0.3,0.6,0.9,0.7v0.9c-0.8,0-1.5-0.2-1.9-0.6c-1,0.4-1.9,0.6-2.9,0.6c-0.7,0-1.3-0.2-1.7-0.6s-0.6-1-0.6-1.8
	s0.2-1.3,0.6-1.7c0.4-0.4,1-0.6,1.9-0.7l2.5-0.2v-0.7c0-0.5-0.1-0.9-0.4-1.2c-0.2-0.2-0.6-0.4-1-0.4c-0.9,0-1.7,0.1-2.7,0.2h-0.5
	v-0.9c1.2-0.2,2.2-0.4,3.1-0.4c0.9,0,1.6,0.2,2,0.6C859.3,262.9,859.5,263.5,859.5,264.4L859.5,264.4z M854.6,267.7
	c0,1,0.4,1.5,1.2,1.5c0.7,0,1.4-0.1,2.1-0.4l0.4-0.1V266l-2.4,0.2c-0.5,0-0.8,0.2-1,0.4C854.7,266.9,854.6,267.2,854.6,267.7
	L854.6,267.7z M862,270v-11.5h1.2V270H862L862,270z M872.4,259.8c-1.6,0-2.4,0.6-2.4,1.8c0,0.7,0.2,1.1,0.5,1.4
	c0.4,0.2,1.1,0.5,2.2,0.8c1.1,0.2,1.9,0.6,2.4,1s0.7,1.1,0.7,2c0,2.3-1.2,3.4-3.5,3.4c-0.8,0-1.8-0.1-2.9-0.3l-0.6-0.1l0.1-1
	c1.5,0.2,2.6,0.3,3.3,0.3c1.6,0,2.4-0.7,2.4-2.2c0-0.6-0.2-1-0.5-1.3s-1-0.5-1.9-0.7c-1.2-0.3-2.1-0.6-2.7-1
	c-0.5-0.4-0.8-1.1-0.8-2.1c0-2,1.2-3,3.6-3c0.8,0,1.7,0.1,2.8,0.2l0.5,0.1l-0.1,1C874.1,259.9,873,259.8,872.4,259.8L872.4,259.8z
	 M882.8,262h1.2v8h-1.2v-0.6c-0.8,0.5-1.6,0.7-2.4,0.7c-1.1,0-1.8-0.3-2.2-0.8c-0.4-0.6-0.5-1.6-0.5-3.1V262h1.2v4.2
	c0,1.2,0.1,1.9,0.3,2.3s0.7,0.6,1.4,0.6c0.4,0,0.7,0,1.1-0.1c0.4-0.1,0.6-0.2,0.8-0.3l0.3-0.1L882.8,262L882.8,262z M886.3,273.6
	V262h1.2v0.6c0.8-0.5,1.6-0.7,2.4-0.7c1,0,1.7,0.3,2.2,1c0.5,0.6,0.7,1.7,0.7,3.2s-0.3,2.5-0.8,3.2c-0.5,0.6-1.4,1-2.7,1
	c-0.6,0-1.2-0.1-1.8-0.2v3.6L886.3,273.6L886.3,273.6z M889.7,262.9c-0.3,0-0.7,0.1-1,0.2s-0.6,0.2-0.9,0.3l-0.3,0.2v5.4
	c0.8,0.1,1.3,0.2,1.7,0.2c0.9,0,1.5-0.2,1.8-0.7c0.4-0.5,0.5-1.3,0.5-2.4s-0.2-1.9-0.5-2.4C890.8,263.1,890.3,262.9,889.7,262.9
	L889.7,262.9z M894.7,273.6V262h1.2v0.6c0.8-0.5,1.6-0.7,2.4-0.7c1,0,1.7,0.3,2.2,1c0.5,0.6,0.7,1.7,0.7,3.2s-0.3,2.5-0.8,3.2
	c-0.5,0.6-1.4,1-2.7,1c-0.6,0-1.2-0.1-1.8-0.2v3.6L894.7,273.6L894.7,273.6z M898.1,262.9c-0.3,0-0.7,0.1-1,0.2s-0.6,0.2-0.9,0.3
	l-0.3,0.2v5.4c0.8,0.1,1.3,0.2,1.7,0.2c0.9,0,1.5-0.2,1.8-0.7c0.4-0.5,0.5-1.3,0.5-2.4s-0.2-1.9-0.5-2.4
	C899.2,263.1,898.8,262.9,898.1,262.9L898.1,262.9z M902.8,266c0-1.5,0.3-2.5,0.8-3.2s1.4-1,2.6-1c1.2,0,2.1,0.3,2.6,1
	s0.8,1.7,0.8,3.2s-0.2,2.5-0.7,3.2s-1.4,1-2.7,1s-2.2-0.3-2.7-1C903.1,268.5,902.8,267.4,902.8,266z M904.1,266c0,1.2,0.1,2,0.4,2.4
	c0.3,0.5,0.9,0.7,1.8,0.7c0.9,0,1.5-0.2,1.8-0.7s0.4-1.3,0.4-2.5s-0.2-2-0.5-2.4s-0.9-0.7-1.7-0.7s-1.4,0.2-1.7,0.7
	C904.2,264,904.1,264.8,904.1,266L904.1,266z M911.6,270v-8h1.2v1.1c0.9-0.6,1.9-1.1,2.9-1.3v1.2c-0.5,0.1-1,0.2-1.4,0.4
	c-0.5,0.2-0.8,0.3-1.1,0.5l-0.4,0.2v5.9L911.6,270L911.6,270z M921.3,263h-2.5v3.8c0,0.9,0.1,1.5,0.2,1.8c0.1,0.3,0.5,0.4,1,0.4
	l1.4-0.1l0.1,1c-0.7,0.1-1.3,0.2-1.6,0.2c-0.8,0-1.4-0.2-1.7-0.6s-0.5-1.2-0.5-2.3V263h-1.1v-1h1.1v-2.4h1.2v2.4h2.5L921.3,263
	L921.3,263z"/>
<circle class="st3" cx="768.9" cy="304" r="4"/>
<path class="st3" d="M791.5,305.8v4.2h-1.2v-11.1h4.1c1.2,0,2.1,0.3,2.6,0.8c0.6,0.5,0.9,1.4,0.9,2.5c0,1.7-0.7,2.8-2,3.2l2.1,4.5
	h-1.4l-2-4.2L791.5,305.8L791.5,305.8z M794.3,304.7c1.5,0,2.3-0.8,2.3-2.3c0-1.6-0.8-2.3-2.3-2.3h-2.9v4.7h2.9V304.7z M805.2,309
	h0.5v0.9c-1.2,0.2-2.3,0.3-3.1,0.3c-1.2,0-2-0.3-2.4-1c-0.5-0.7-0.7-1.7-0.7-3.1c0-2.8,1.1-4.2,3.3-4.2c1.1,0,1.9,0.3,2.4,0.9
	s0.8,1.5,0.8,2.8l-0.1,0.9h-5.3c0,0.9,0.2,1.5,0.5,2s0.9,0.6,1.7,0.6C803.5,309.1,804.4,309.1,805.2,309L805.2,309z M804.7,305.5
	c0-1-0.2-1.7-0.5-2.1s-0.8-0.6-1.5-0.6s-1.2,0.2-1.6,0.6c-0.4,0.4-0.5,1.1-0.5,2L804.7,305.5L804.7,305.5z M810.8,301.8
	c0.4,0,0.9,0.1,1.8,0.2h0.4v1c-0.9-0.1-1.5-0.1-1.9-0.1c-0.9,0-1.5,0.2-1.9,0.7c-0.3,0.4-0.5,1.2-0.5,2.4c0,1.2,0.1,2,0.4,2.4
	c0.3,0.5,0.9,0.7,1.9,0.7l1.9-0.1v1c-1,0.1-1.7,0.2-2.2,0.2c-1.2,0-2.1-0.3-2.6-1c-0.5-0.6-0.7-1.7-0.7-3.2s0.3-2.6,0.8-3.2
	C808.8,302.1,809.6,301.8,810.8,301.8L810.8,301.8z M814.8,310v-8h1.2v1.1c0.9-0.6,1.9-1.1,2.9-1.3v1.2c-0.5,0.1-1,0.2-1.4,0.4
	c-0.5,0.2-0.8,0.3-1.1,0.5l-0.4,0.2v5.9L814.8,310L814.8,310z M825.3,302h1.2v8h-1.2v-0.6c-0.8,0.5-1.6,0.7-2.4,0.7
	c-1.1,0-1.8-0.3-2.2-0.8c-0.4-0.6-0.5-1.6-0.5-3.1V302h1.2v4.2c0,1.2,0.1,1.9,0.3,2.3s0.7,0.6,1.4,0.6c0.4,0,0.7,0,1.1-0.1
	c0.4-0.1,0.6-0.2,0.8-0.3l0.3-0.1L825.3,302L825.3,302z M828.8,310v-8h1.2v8H828.8z M828.8,300.2v-1.4h1.2v1.4H828.8z M836.5,303
	H834v3.8c0,0.9,0.1,1.5,0.2,1.8c0.1,0.3,0.5,0.4,1,0.4l1.4-0.1l0.1,1c-0.7,0.1-1.3,0.2-1.6,0.2c-0.8,0-1.4-0.2-1.7-0.6
	s-0.5-1.2-0.5-2.3V303h-1.1v-1h1.1v-2.4h1.2v2.4h2.5L836.5,303L836.5,303z M837.9,310v-8h1.2v8H837.9z M837.9,300.2v-1.4h1.2v1.4
	H837.9L837.9,300.2z M842.6,310h-1.2v-8h1.2v0.6c0.9-0.5,1.7-0.7,2.5-0.7c1.1,0,1.8,0.3,2.1,0.9c0.4,0.6,0.6,1.6,0.6,3.1v4.2h-1.2
	v-4.2c0-1.1-0.1-1.9-0.3-2.3s-0.7-0.6-1.4-0.6c-0.4,0-0.7,0.1-1.1,0.2c-0.3,0.1-0.6,0.2-0.9,0.3l-0.3,0.1L842.6,310L842.6,310z
	 M853.1,313.8c-1.3,0-2.2-0.2-2.7-0.5s-0.8-1-0.8-1.9c0-0.4,0.1-0.8,0.3-1.1c0.2-0.3,0.5-0.6,1-0.9c-0.3-0.2-0.4-0.6-0.4-1.1
	c0-0.2,0.1-0.5,0.4-1l0.1-0.3c-0.8-0.4-1.3-1.2-1.3-2.4c0-1.8,1-2.7,3-2.7c0.5,0,1,0.1,1.4,0.2h0.2l2.4-0.1v1h-1.5
	c0.4,0.4,0.5,0.9,0.5,1.6c0,1-0.3,1.7-0.8,2.1s-1.3,0.6-2.3,0.6c-0.3,0-0.5,0-0.8-0.1c-0.2,0.5-0.3,0.8-0.3,0.9
	c0,0.3,0.1,0.5,0.3,0.6s0.8,0.1,1.8,0.1s1.8,0.2,2.2,0.5s0.7,0.9,0.7,1.9C856.7,312.9,855.5,313.8,853.1,313.8L853.1,313.8z
	 M850.8,311.2c0,0.6,0.2,1,0.5,1.2s0.9,0.3,1.7,0.3c0.9,0,1.5-0.1,1.8-0.4c0.4-0.2,0.6-0.6,0.6-1.2c0-0.5-0.1-0.9-0.4-1.1
	c-0.3-0.2-0.8-0.2-1.6-0.2l-1.7-0.1c-0.4,0.3-0.6,0.5-0.7,0.7C850.9,310.7,850.8,310.9,850.8,311.2L850.8,311.2z M851,304.6
	c0,0.6,0.1,1.1,0.4,1.3c0.3,0.3,0.8,0.4,1.4,0.4c0.7,0,1.1-0.1,1.4-0.4c0.3-0.3,0.4-0.7,0.4-1.3c0-0.6-0.1-1.1-0.4-1.4
	c-0.3-0.3-0.7-0.4-1.4-0.4s-1.1,0.1-1.4,0.4S851,303.9,851,304.6z M862.8,301.1c0-0.7,0.2-1.3,0.7-1.7c0.5-0.4,1.2-0.6,2.1-0.6
	s1.6,0.2,2,0.6c0.5,0.4,0.7,1,0.7,1.8c0,0.7-0.2,1.3-0.6,1.8c-0.4,0.4-1,0.8-1.9,1.3l2.4,2.4c0.2-0.7,0.4-1.5,0.4-2.6h1.2
	c-0.1,1.3-0.4,2.4-0.7,3.3l2.1,2l-0.7,0.8l-1.9-1.8c-0.7,1.2-1.8,1.8-3.3,1.8s-2.5-0.3-3.1-0.9s-0.9-1.4-0.9-2.4s0.2-1.8,0.6-2.2
	c0.4-0.5,1-0.9,1.9-1.2c-0.4-0.4-0.6-0.8-0.7-1.1C862.9,302.1,862.8,301.6,862.8,301.1L862.8,301.1z M865.1,309.1
	c1.3,0,2.2-0.5,2.7-1.4l-3.4-3.4c-0.7,0.2-1.2,0.5-1.5,0.9s-0.4,0.9-0.4,1.6C862.5,308.3,863.4,309.1,865.1,309.1z M864,301.3
	c0,0.7,0.2,1.2,0.7,1.7l0.5,0.4c0.7-0.3,1.2-0.6,1.5-0.9s0.4-0.7,0.4-1.3c0-1-0.5-1.5-1.6-1.5C864.6,299.8,864,300.3,864,301.3z
	 M879.5,299.8c-1.6,0-2.4,0.6-2.4,1.8c0,0.7,0.2,1.1,0.5,1.4c0.4,0.2,1.1,0.5,2.2,0.8c1.1,0.2,1.9,0.6,2.4,1s0.7,1.1,0.7,2
	c0,2.3-1.2,3.4-3.5,3.4c-0.8,0-1.8-0.1-2.9-0.3l-0.6-0.1l0.1-1c1.5,0.2,2.6,0.3,3.3,0.3c1.6,0,2.4-0.7,2.4-2.2c0-0.6-0.2-1-0.5-1.3
	s-1-0.5-1.9-0.7c-1.2-0.3-2.1-0.6-2.7-1c-0.5-0.4-0.8-1.1-0.8-2.1c0-2,1.2-3,3.6-3c0.8,0,1.7,0.1,2.8,0.2l0.5,0.1l-0.1,1
	C881.2,299.9,880.2,299.8,879.5,299.8L879.5,299.8z M890.4,309h0.5v0.9c-1.2,0.2-2.3,0.3-3.1,0.3c-1.2,0-2-0.3-2.4-1
	c-0.5-0.7-0.7-1.7-0.7-3.1c0-2.8,1.1-4.2,3.3-4.2c1.1,0,1.9,0.3,2.4,0.9s0.8,1.5,0.8,2.8l-0.1,0.9h-5.3c0,0.9,0.2,1.5,0.5,2
	s0.9,0.6,1.7,0.6C888.8,309.1,889.6,309.1,890.4,309L890.4,309z M890,305.5c0-1-0.2-1.7-0.5-2.1s-0.8-0.6-1.5-0.6s-1.2,0.2-1.6,0.6
	c-0.4,0.4-0.5,1.1-0.5,2L890,305.5L890,305.5z M893.1,310v-11.5h1.2V310H893.1z M902.2,309h0.5v0.9c-1.2,0.2-2.3,0.3-3.1,0.3
	c-1.2,0-2-0.3-2.4-1c-0.5-0.7-0.7-1.7-0.7-3.1c0-2.8,1.1-4.2,3.3-4.2c1.1,0,1.9,0.3,2.4,0.9s0.8,1.5,0.8,2.8l-0.1,0.9h-5.3
	c0,0.9,0.2,1.5,0.5,2s0.9,0.6,1.7,0.6C900.5,309.1,901.4,309.1,902.2,309L902.2,309z M901.7,305.5c0-1-0.2-1.7-0.5-2.1
	s-0.8-0.6-1.5-0.6s-1.2,0.2-1.6,0.6c-0.4,0.4-0.5,1.1-0.5,2L901.7,305.5L901.7,305.5z M907.8,301.8c0.4,0,0.9,0.1,1.8,0.2h0.4v1
	c-0.9-0.1-1.5-0.1-1.9-0.1c-0.9,0-1.5,0.2-1.9,0.7c-0.3,0.4-0.5,1.2-0.5,2.4c0,1.2,0.1,2,0.4,2.4c0.3,0.5,0.9,0.7,1.9,0.7l1.9-0.1v1
	c-1,0.1-1.7,0.2-2.2,0.2c-1.2,0-2.1-0.3-2.6-1c-0.5-0.6-0.7-1.7-0.7-3.2s0.3-2.6,0.8-3.2C905.8,302.1,906.6,301.8,907.8,301.8
	L907.8,301.8z M915.9,303h-2.5v3.8c0,0.9,0.1,1.5,0.2,1.8c0.1,0.3,0.5,0.4,1,0.4l1.4-0.1l0.1,1c-0.7,0.1-1.3,0.2-1.6,0.2
	c-0.8,0-1.4-0.2-1.7-0.6s-0.5-1.2-0.5-2.3V303h-1.1v-1h1.1v-2.4h1.2v2.4h2.5L915.9,303L915.9,303z M917.4,310v-8h1.2v8H917.4z
	 M917.4,300.2v-1.4h1.2v1.4H917.4z M920.5,306c0-1.5,0.3-2.5,0.8-3.2s1.4-1,2.6-1c1.2,0,2.1,0.3,2.6,1s0.8,1.7,0.8,3.2
	s-0.2,2.5-0.7,3.2s-1.4,1-2.7,1s-2.2-0.3-2.7-1C920.8,308.5,920.5,307.4,920.5,306z M921.8,306c0,1.2,0.1,2,0.4,2.4
	c0.3,0.5,0.9,0.7,1.8,0.7c0.9,0,1.5-0.2,1.8-0.7s0.4-1.3,0.4-2.5s-0.2-2-0.5-2.4s-0.9-0.7-1.7-0.7s-1.4,0.2-1.7,0.7
	C921.9,304,921.8,304.8,921.8,306L921.8,306z M930.5,310h-1.2v-8h1.2v0.6c0.9-0.5,1.7-0.7,2.5-0.7c1.1,0,1.8,0.3,2.1,0.9
	c0.4,0.6,0.6,1.6,0.6,3.1v4.2h-1.2v-4.2c0-1.1-0.1-1.9-0.3-2.3s-0.7-0.6-1.4-0.6c-0.4,0-0.7,0.1-1.1,0.2c-0.3,0.1-0.6,0.2-0.9,0.3
	l-0.3,0.1L930.5,310L930.5,310z"/>
<circle class="st3" cx="728.9" cy="344" r="4"/>
<path class="st3" d="M754.3,346.3h-2.8v3.7h-1.2v-11.1h4c1.2,0,2.1,0.3,2.7,0.9s0.9,1.5,0.9,2.7C757.8,345,756.6,346.3,754.3,346.3z
	 M751.5,345.2h2.8c1.5,0,2.3-0.9,2.3-2.7c0-0.9-0.2-1.5-0.5-1.9c-0.4-0.4-0.9-0.6-1.7-0.6h-2.8L751.5,345.2L751.5,345.2z M764.9,349
	h0.5v0.9c-1.2,0.2-2.3,0.3-3.1,0.3c-1.2,0-2-0.3-2.4-1c-0.5-0.7-0.7-1.7-0.7-3.1c0-2.8,1.1-4.2,3.3-4.2c1.1,0,1.9,0.3,2.4,0.9
	s0.8,1.5,0.8,2.8l-0.1,0.9h-5.3c0,0.9,0.2,1.5,0.5,2s0.9,0.6,1.7,0.6C763.2,349.1,764.1,349.1,764.9,349L764.9,349z M764.4,345.5
	c0-1-0.2-1.7-0.5-2.1s-0.8-0.6-1.5-0.6s-1.2,0.2-1.6,0.6c-0.4,0.4-0.5,1.1-0.5,2L764.4,345.5L764.4,345.5z M767.2,346
	c0-1.5,0.3-2.5,0.8-3.2s1.4-1,2.6-1c1.2,0,2.1,0.3,2.6,1s0.8,1.7,0.8,3.2s-0.2,2.5-0.7,3.2s-1.4,1-2.7,1s-2.2-0.3-2.7-1
	C767.4,348.5,767.2,347.4,767.2,346z M768.4,346c0,1.2,0.1,2,0.4,2.4c0.3,0.5,0.9,0.7,1.8,0.7c0.9,0,1.5-0.2,1.8-0.7
	s0.4-1.3,0.4-2.5s-0.2-2-0.5-2.4s-0.9-0.7-1.7-0.7s-1.4,0.2-1.7,0.7C768.5,344,768.4,344.8,768.4,346L768.4,346z M776,353.6V342h1.2
	v0.6c0.8-0.5,1.6-0.7,2.4-0.7c1,0,1.7,0.3,2.2,1c0.5,0.6,0.7,1.7,0.7,3.2s-0.3,2.5-0.8,3.2c-0.5,0.6-1.4,1-2.7,1
	c-0.6,0-1.2-0.1-1.8-0.2v3.6L776,353.6L776,353.6z M779.4,342.9c-0.3,0-0.7,0.1-1,0.2s-0.6,0.2-0.9,0.3l-0.3,0.2v5.4
	c0.8,0.1,1.3,0.2,1.7,0.2c0.9,0,1.5-0.2,1.8-0.7c0.4-0.5,0.5-1.3,0.5-2.4s-0.2-1.9-0.5-2.4C780.4,343.1,780,342.9,779.4,342.9
	L779.4,342.9z M784.5,350v-11.5h1.2V350H784.5L784.5,350z M793.5,349h0.5v0.9c-1.2,0.2-2.3,0.3-3.1,0.3c-1.2,0-2-0.3-2.4-1
	c-0.5-0.7-0.7-1.7-0.7-3.1c0-2.8,1.1-4.2,3.3-4.2c1.1,0,1.9,0.3,2.4,0.9s0.8,1.5,0.8,2.8l-0.1,0.9H789c0,0.9,0.2,1.5,0.5,2
	s0.9,0.6,1.7,0.6C791.9,349.1,792.7,349.1,793.5,349L793.5,349z M793.1,345.5c0-1-0.2-1.7-0.5-2.1s-0.8-0.6-1.5-0.6
	s-1.2,0.2-1.6,0.6c-0.4,0.4-0.5,1.1-0.5,2L793.1,345.5L793.1,345.5z M801.1,345.8v4.2h-1.2v-11.1h4.1c1.2,0,2.1,0.3,2.6,0.8
	c0.6,0.5,0.9,1.4,0.9,2.5c0,1.7-0.7,2.8-2,3.2l2.1,4.5h-1.4l-2-4.2h-3.1V345.8z M804,344.7c1.5,0,2.3-0.8,2.3-2.3
	c0-1.6-0.8-2.3-2.3-2.3h-2.9v4.7h2.9V344.7z M814.9,349h0.5v0.9c-1.2,0.2-2.3,0.3-3.1,0.3c-1.2,0-2-0.3-2.4-1
	c-0.5-0.7-0.7-1.7-0.7-3.1c0-2.8,1.1-4.2,3.3-4.2c1.1,0,1.9,0.3,2.4,0.9s0.8,1.5,0.8,2.8l-0.1,0.9h-5.3c0,0.9,0.2,1.5,0.5,2
	s0.9,0.6,1.7,0.6C813.2,349.1,814,349.1,814.9,349L814.9,349z M814.4,345.5c0-1-0.2-1.7-0.5-2.1s-0.8-0.6-1.5-0.6s-1.2,0.2-1.6,0.6
	c-0.4,0.4-0.5,1.1-0.5,2L814.4,345.5L814.4,345.5z M821.6,343h-2.5v3.8c0,0.9,0.1,1.5,0.2,1.8c0.1,0.3,0.5,0.4,1,0.4l1.4-0.1l0.1,1
	c-0.7,0.1-1.3,0.2-1.6,0.2c-0.8,0-1.4-0.2-1.7-0.6s-0.5-1.2-0.5-2.3V343h-1.1v-1h1.1v-2.4h1.2v2.4h2.5L821.6,343L821.6,343z
	 M828.5,349h0.5v0.9c-1.2,0.2-2.3,0.3-3.1,0.3c-1.2,0-2-0.3-2.4-1c-0.5-0.7-0.7-1.7-0.7-3.1c0-2.8,1.1-4.2,3.3-4.2
	c1.1,0,1.9,0.3,2.4,0.9s0.8,1.5,0.8,2.8l-0.1,0.9h-5.3c0,0.9,0.2,1.5,0.5,2s0.9,0.6,1.7,0.6C826.9,349.1,827.7,349.1,828.5,349
	L828.5,349z M828.1,345.5c0-1-0.2-1.7-0.5-2.1s-0.8-0.6-1.5-0.6s-1.2,0.2-1.6,0.6c-0.4,0.4-0.5,1.1-0.5,2L828.1,345.5L828.1,345.5z
	 M832.3,350h-1.2v-8h1.2v0.6c0.9-0.5,1.7-0.7,2.5-0.7c1.1,0,1.8,0.3,2.1,0.9c0.4,0.6,0.6,1.6,0.6,3.1v4.2h-1.2v-4.2
	c0-1.1-0.1-1.9-0.3-2.3s-0.7-0.6-1.4-0.6c-0.3,0-0.7,0.1-1.1,0.2c-0.3,0.1-0.6,0.2-0.9,0.3l-0.3,0.1L832.3,350L832.3,350z
	 M843.8,343h-2.5v3.8c0,0.9,0.1,1.5,0.2,1.8c0.1,0.3,0.5,0.4,1,0.4l1.4-0.1l0.1,1c-0.7,0.1-1.3,0.2-1.6,0.2c-0.8,0-1.4-0.2-1.7-0.6
	s-0.5-1.2-0.5-2.3V343H839v-1h1.1v-2.4h1.2v2.4h2.5V343L843.8,343z M845.3,350v-8h1.2v8H845.3z M845.3,340.2v-1.4h1.2v1.4H845.3
	L845.3,340.2z M848.4,346c0-1.5,0.3-2.5,0.8-3.2s1.4-1,2.6-1c1.2,0,2.1,0.3,2.6,1s0.8,1.7,0.8,3.2s-0.2,2.5-0.7,3.2s-1.4,1-2.7,1
	s-2.2-0.3-2.7-1C848.7,348.5,848.4,347.4,848.4,346z M849.7,346c0,1.2,0.1,2,0.4,2.4c0.3,0.5,0.9,0.7,1.8,0.7c0.9,0,1.5-0.2,1.8-0.7
	s0.4-1.3,0.4-2.5s-0.2-2-0.5-2.4s-0.9-0.7-1.7-0.7s-1.4,0.2-1.7,0.7C849.8,344,849.7,344.8,849.7,346L849.7,346z M858.4,350h-1.2v-8
	h1.2v0.6c0.9-0.5,1.7-0.7,2.5-0.7c1.1,0,1.8,0.3,2.1,0.9c0.4,0.6,0.6,1.6,0.6,3.1v4.2h-1.2v-4.2c0-1.1-0.1-1.9-0.3-2.3
	s-0.7-0.6-1.4-0.6c-0.4,0-0.7,0.1-1.1,0.2c-0.3,0.1-0.6,0.2-0.9,0.3l-0.3,0.1L858.4,350L858.4,350z M870.4,341.1
	c0-0.7,0.2-1.3,0.7-1.7c0.5-0.4,1.2-0.6,2.1-0.6s1.6,0.2,2,0.6c0.5,0.4,0.7,1,0.7,1.8c0,0.7-0.2,1.3-0.6,1.8c-0.4,0.4-1,0.8-1.9,1.3
	l2.4,2.4c0.2-0.7,0.4-1.5,0.4-2.6h1.2c-0.1,1.3-0.4,2.4-0.7,3.3l2.1,2l-0.7,0.8l-1.9-1.8c-0.7,1.2-1.9,1.8-3.3,1.8
	c-1.5,0-2.5-0.3-3.1-0.9s-0.9-1.4-0.9-2.4s0.2-1.8,0.6-2.2c0.4-0.5,1-0.9,1.9-1.2c-0.4-0.4-0.6-0.8-0.7-1.1
	C870.5,342.1,870.4,341.6,870.4,341.1L870.4,341.1z M872.7,349.1c1.3,0,2.2-0.5,2.7-1.4l-3.4-3.4c-0.7,0.2-1.2,0.5-1.5,0.9
	s-0.4,0.9-0.4,1.6C870.1,348.3,871,349.1,872.7,349.1z M871.6,341.3c0,0.7,0.2,1.2,0.7,1.7l0.5,0.4c0.7-0.3,1.2-0.6,1.5-0.9
	s0.4-0.7,0.4-1.3c0-1-0.5-1.5-1.6-1.5C872.2,339.8,871.6,340.3,871.6,341.3z M884.1,350v-11.1h2.2l3.1,9.4l3.1-9.4h2.2V350h-1.2
	v-9.8h-0.2l-3.2,9.4h-1.4l-3.2-9.4h-0.2v9.8H884.1z M896.9,346c0-1.5,0.3-2.5,0.8-3.2s1.4-1,2.6-1c1.2,0,2.1,0.3,2.6,1
	s0.8,1.7,0.8,3.2s-0.2,2.5-0.7,3.2s-1.4,1-2.7,1s-2.2-0.3-2.7-1C897.1,348.5,896.9,347.4,896.9,346z M898.1,346c0,1.2,0.1,2,0.4,2.4
	c0.3,0.5,0.9,0.7,1.8,0.7c0.9,0,1.5-0.2,1.8-0.7s0.4-1.3,0.4-2.5s-0.2-2-0.5-2.4s-0.9-0.7-1.7-0.7s-1.4,0.2-1.7,0.7
	S898.1,344.8,898.1,346L898.1,346z M909.8,343h-2.5v3.8c0,0.9,0.1,1.5,0.2,1.8c0.1,0.3,0.5,0.4,1,0.4l1.4-0.1l0.1,1
	c-0.7,0.1-1.3,0.2-1.6,0.2c-0.8,0-1.4-0.2-1.7-0.6s-0.5-1.2-0.5-2.3V343h-1.1v-1h1.1v-2.4h1.2v2.4h2.5L909.8,343L909.8,343z
	 M911.2,350v-8h1.2v8H911.2z M911.2,340.2v-1.4h1.2v1.4H911.2z M914,342h1.3l1.9,7h0.6l1.9-7h1.2l-2.3,8h-2.4L914,342z M928,344.4
	v4.1c0,0.4,0.3,0.6,0.9,0.7v0.9c-0.8,0-1.5-0.2-1.9-0.6c-1,0.4-1.9,0.6-2.9,0.6c-0.7,0-1.3-0.2-1.7-0.6s-0.6-1-0.6-1.8
	s0.2-1.3,0.6-1.7c0.4-0.4,1-0.6,1.9-0.7l2.5-0.2v-0.7c0-0.5-0.1-0.9-0.4-1.2c-0.2-0.2-0.6-0.4-1-0.4c-0.9,0-1.7,0.1-2.7,0.2h-0.5
	v-0.9c1.2-0.2,2.2-0.4,3.1-0.4c0.9,0,1.6,0.2,2,0.6C927.8,342.9,928,343.5,928,344.4L928,344.4z M923,347.7c0,1,0.4,1.5,1.2,1.5
	c0.7,0,1.4-0.1,2.1-0.4l0.4-0.1V346l-2.4,0.2c-0.5,0-0.8,0.2-1,0.4C923.2,346.9,923,347.2,923,347.7L923,347.7z M934.5,343H932v3.8
	c0,0.9,0.1,1.5,0.2,1.8c0.1,0.3,0.5,0.4,1,0.4l1.4-0.1l0.1,1c-0.7,0.1-1.3,0.2-1.6,0.2c-0.8,0-1.4-0.2-1.7-0.6s-0.5-1.2-0.5-2.3V343
	h-1.1v-1h1.1v-2.4h1.2v2.4h2.5L934.5,343L934.5,343z M936,350v-8h1.2v8H936z M936,340.2v-1.4h1.2v1.4H936L936,340.2z M939.1,346
	c0-1.5,0.3-2.5,0.8-3.2s1.4-1,2.6-1c1.2,0,2.1,0.3,2.6,1s0.8,1.7,0.8,3.2s-0.2,2.5-0.7,3.2s-1.4,1-2.7,1s-2.2-0.3-2.7-1
	C939.3,348.5,939.1,347.4,939.1,346z M940.3,346c0,1.2,0.1,2,0.4,2.4c0.3,0.5,0.9,0.7,1.8,0.7c0.9,0,1.5-0.2,1.8-0.7
	s0.4-1.3,0.4-2.5s-0.2-2-0.5-2.4s-0.9-0.7-1.7-0.7s-1.4,0.2-1.7,0.7S940.3,344.8,940.3,346L940.3,346z M949.1,350h-1.2v-8h1.2v0.6
	c0.9-0.5,1.7-0.7,2.5-0.7c1.1,0,1.8,0.3,2.1,0.9c0.4,0.6,0.6,1.6,0.6,3.1v4.2h-1.2v-4.2c0-1.1-0.1-1.9-0.3-2.3s-0.7-0.6-1.4-0.6
	c-0.4,0-0.7,0.1-1.1,0.2c-0.3,0.1-0.6,0.2-0.9,0.3l-0.3,0.1L949.1,350L949.1,350z"/>
<circle class="st3" cx="687.9" cy="384" r="4"/>
<path class="st3" d="M708.1,380v-1.1h8v1.1h-3.4v10h-1.2v-10H708.1z M721.4,389h0.5v0.9c-1.2,0.2-2.3,0.3-3.1,0.3
	c-1.2,0-2-0.3-2.4-1c-0.5-0.7-0.7-1.7-0.7-3.1c0-2.8,1.1-4.2,3.3-4.2c1.1,0,1.9,0.3,2.4,0.9s0.8,1.5,0.8,2.8l-0.1,0.9h-5.3
	c0,0.9,0.2,1.5,0.5,2s0.9,0.6,1.7,0.6C719.8,389.1,720.6,389.1,721.4,389L721.4,389z M721,385.5c0-1-0.2-1.7-0.5-2.1
	s-0.8-0.6-1.5-0.6s-1.2,0.2-1.6,0.6c-0.4,0.4-0.5,1.1-0.5,2L721,385.5L721,385.5z M727.1,381.8c0.4,0,0.9,0.1,1.8,0.2h0.4v1
	c-0.9-0.1-1.5-0.1-1.9-0.1c-0.9,0-1.5,0.2-1.9,0.7c-0.3,0.4-0.5,1.2-0.5,2.4c0,1.2,0.1,2,0.4,2.4c0.3,0.5,0.9,0.7,1.9,0.7l1.9-0.1v1
	c-1,0.1-1.7,0.2-2.2,0.2c-1.2,0-2.1-0.3-2.6-1c-0.5-0.6-0.7-1.7-0.7-3.2s0.3-2.6,0.8-3.2C725,382.1,725.9,381.8,727.1,381.8
	L727.1,381.8z M732.2,390H731v-11.5h1.2v3.9c0.9-0.4,1.7-0.6,2.5-0.6c1.1,0,1.8,0.3,2.1,0.9c0.4,0.6,0.6,1.6,0.6,3.1v4.2h-1.2v-4.2
	c0-1.1-0.1-1.9-0.3-2.3s-0.7-0.6-1.4-0.6s-1.3,0.1-2,0.4l-0.3,0.1L732.2,390L732.2,390z M740.8,390h-1.2v-8h1.2v0.6
	c0.9-0.5,1.7-0.7,2.5-0.7c1.1,0,1.8,0.3,2.1,0.9c0.4,0.6,0.6,1.6,0.6,3.1v4.2h-1.2v-4.2c0-1.1-0.1-1.9-0.3-2.3s-0.7-0.6-1.4-0.6
	c-0.4,0-0.7,0.1-1.1,0.2c-0.3,0.1-0.6,0.2-0.9,0.3l-0.3,0.1L740.8,390L740.8,390z M748.2,390v-8h1.2v8H748.2z M748.2,380.2v-1.4h1.2
	v1.4H748.2L748.2,380.2z M754.7,381.8c0.4,0,0.9,0.1,1.8,0.2h0.4v1c-0.9-0.1-1.5-0.1-1.9-0.1c-0.9,0-1.5,0.2-1.9,0.7
	c-0.3,0.4-0.5,1.2-0.5,2.4c0,1.2,0.1,2,0.4,2.4c0.3,0.5,0.9,0.7,1.9,0.7l1.9-0.1v1c-1,0.1-1.7,0.2-2.2,0.2c-1.2,0-2.1-0.3-2.6-1
	c-0.5-0.6-0.7-1.7-0.7-3.2s0.3-2.6,0.8-3.2C752.7,382.1,753.5,381.8,754.7,381.8L754.7,381.8z M764.3,384.4v4.1
	c0,0.4,0.3,0.6,0.9,0.7v0.9c-0.8,0-1.5-0.2-1.9-0.6c-1,0.4-1.9,0.6-2.9,0.6c-0.7,0-1.3-0.2-1.7-0.6s-0.6-1-0.6-1.8s0.2-1.3,0.6-1.7
	c0.4-0.4,1-0.6,1.9-0.7l2.5-0.2v-0.7c0-0.5-0.1-0.9-0.4-1.2c-0.2-0.2-0.6-0.4-1-0.4c-0.9,0-1.7,0.1-2.7,0.2h-0.5v-0.9
	c1.2-0.2,2.2-0.4,3.1-0.4c0.9,0,1.6,0.2,2,0.6C764.1,382.9,764.3,383.5,764.3,384.4L764.3,384.4z M759.4,387.7c0,1,0.4,1.5,1.2,1.5
	c0.7,0,1.4-0.1,2.1-0.4l0.4-0.1V386l-2.4,0.2c-0.5,0-0.8,0.2-1,0.4C759.5,386.9,759.4,387.2,759.4,387.7L759.4,387.7z M766.8,390
	v-11.5h1.2V390H766.8L766.8,390z M773.2,390l3-11.1h2.7l3,11.1h-1.2l-0.8-2.8h-4.7l-0.8,2.8H773.2L773.2,390z M777.1,380l-1.7,6.1
	h4.2L778,380H777.1L777.1,380z M786.4,381.8c0.4,0,0.9,0.1,1.8,0.2h0.4v1c-0.9-0.1-1.5-0.1-1.9-0.1c-0.9,0-1.5,0.2-1.9,0.7
	c-0.3,0.4-0.5,1.2-0.5,2.4c0,1.2,0.1,2,0.4,2.4c0.3,0.5,0.9,0.7,1.9,0.7l1.9-0.1v1c-1,0.1-1.7,0.2-2.2,0.2c-1.2,0-2.1-0.3-2.6-1
	c-0.5-0.6-0.7-1.7-0.7-3.2s0.3-2.6,0.8-3.2C784.3,382.1,785.2,381.8,786.4,381.8L786.4,381.8z M793.2,381.8c0.4,0,0.9,0.1,1.8,0.2
	h0.4v1c-0.9-0.1-1.5-0.1-1.9-0.1c-0.9,0-1.5,0.2-1.9,0.7c-0.3,0.4-0.5,1.2-0.5,2.4c0,1.2,0.1,2,0.4,2.4c0.3,0.5,0.9,0.7,1.9,0.7
	l1.9-0.1v1c-1,0.1-1.7,0.2-2.2,0.2c-1.2,0-2.1-0.3-2.6-1c-0.5-0.6-0.7-1.7-0.7-3.2s0.3-2.6,0.8-3.2
	C791.2,382.1,792,381.8,793.2,381.8L793.2,381.8z M796.8,386c0-1.5,0.3-2.5,0.8-3.2s1.4-1,2.6-1c1.2,0,2.1,0.3,2.6,1
	s0.8,1.7,0.8,3.2s-0.2,2.5-0.7,3.2s-1.4,1-2.7,1s-2.2-0.3-2.7-1C797,388.5,796.8,387.4,796.8,386z M798,386c0,1.2,0.1,2,0.4,2.4
	c0.3,0.5,0.9,0.7,1.8,0.7c0.9,0,1.5-0.2,1.8-0.7s0.4-1.3,0.4-2.5s-0.2-2-0.5-2.4s-0.9-0.7-1.7-0.7s-1.4,0.2-1.7,0.7
	C798.1,384,798,384.8,798,386L798,386z M810.6,382h1.2v8h-1.2v-0.6c-0.8,0.5-1.6,0.7-2.4,0.7c-1.1,0-1.8-0.3-2.2-0.8
	c-0.4-0.6-0.5-1.6-0.5-3.1V382h1.2v4.2c0,1.2,0.1,1.9,0.3,2.3s0.7,0.6,1.4,0.6c0.4,0,0.7,0,1.1-0.1c0.4-0.1,0.6-0.2,0.8-0.3l0.3-0.1
	L810.6,382L810.6,382z M815.3,390h-1.2v-8h1.2v0.6c0.9-0.5,1.7-0.7,2.5-0.7c1.1,0,1.8,0.3,2.1,0.9c0.4,0.6,0.6,1.6,0.6,3.1v4.2h-1.2
	v-4.2c0-1.1-0.1-1.9-0.3-2.3s-0.7-0.6-1.4-0.6c-0.3,0-0.7,0.1-1.1,0.2c-0.3,0.1-0.6,0.2-0.9,0.3l-0.3,0.1L815.3,390L815.3,390z
	 M826.8,383h-2.5v3.8c0,0.9,0.1,1.5,0.2,1.8c0.1,0.3,0.5,0.4,1,0.4l1.4-0.1l0.1,1c-0.7,0.1-1.3,0.2-1.6,0.2c-0.8,0-1.4-0.2-1.7-0.6
	s-0.5-1.2-0.5-2.3V383h-1.1v-1h1.1v-2.4h1.2v2.4h2.5L826.8,383L826.8,383z M831.9,390v-11.1h2.2l3.1,9.4l3.1-9.4h2.2V390h-1.2v-9.8
	h-0.2l-3.2,9.4h-1.4l-3.2-9.4h-0.2v9.8H831.9z M850.8,384.4v4.1c0,0.4,0.3,0.6,0.9,0.7v0.9c-0.8,0-1.5-0.2-1.9-0.6
	c-1,0.4-1.9,0.6-2.9,0.6c-0.7,0-1.3-0.2-1.7-0.6s-0.6-1-0.6-1.8s0.2-1.3,0.6-1.7c0.4-0.4,1-0.6,1.9-0.7l2.5-0.2v-0.7
	c0-0.5-0.1-0.9-0.4-1.2s-0.6-0.4-1-0.4c-0.9,0-1.7,0.1-2.7,0.2H845v-0.9c1.2-0.2,2.2-0.4,3.1-0.4s1.6,0.2,2,0.6
	C850.6,382.9,850.8,383.5,850.8,384.4L850.8,384.4z M845.9,387.7c0,1,0.4,1.5,1.2,1.5c0.7,0,1.4-0.1,2.1-0.4l0.4-0.1V386l-2.4,0.2
	c-0.5,0-0.8,0.2-1,0.4C846,386.9,845.9,387.2,845.9,387.7L845.9,387.7z M854.4,390h-1.2v-8h1.2v0.6c0.9-0.5,1.7-0.7,2.5-0.7
	c1.1,0,1.8,0.3,2.1,0.9c0.4,0.6,0.6,1.6,0.6,3.1v4.2h-1.2v-4.2c0-1.1-0.1-1.9-0.3-2.3s-0.7-0.6-1.4-0.6c-0.3,0-0.7,0.1-1.1,0.2
	c-0.3,0.1-0.6,0.2-0.9,0.3l-0.3,0.1L854.4,390L854.4,390z M867.4,384.4v4.1c0,0.4,0.3,0.6,0.9,0.7v0.9c-0.8,0-1.5-0.2-1.9-0.6
	c-1,0.4-1.9,0.6-2.9,0.6c-0.7,0-1.3-0.2-1.7-0.6s-0.6-1-0.6-1.8s0.2-1.3,0.6-1.7c0.4-0.4,1-0.6,1.9-0.7l2.5-0.2v-0.7
	c0-0.5-0.1-0.9-0.4-1.2c-0.2-0.2-0.6-0.4-1-0.4c-0.9,0-1.7,0.1-2.7,0.2h-0.5v-0.9c1.2-0.2,2.2-0.4,3.1-0.4c0.9,0,1.6,0.2,2,0.6
	C867.2,382.9,867.4,383.5,867.4,384.4L867.4,384.4z M862.5,387.7c0,1,0.4,1.5,1.2,1.5c0.7,0,1.4-0.1,2.1-0.4l0.4-0.1V386l-2.4,0.2
	c-0.5,0-0.8,0.2-1,0.4C862.6,386.9,862.5,387.2,862.5,387.7L862.5,387.7z M872.9,393.8c-1.3,0-2.2-0.2-2.7-0.5s-0.8-1-0.8-1.9
	c0-0.4,0.1-0.8,0.3-1.1c0.2-0.3,0.5-0.6,1-0.9c-0.3-0.2-0.4-0.6-0.4-1.1c0-0.2,0.1-0.5,0.4-1l0.1-0.3c-0.8-0.4-1.3-1.2-1.3-2.4
	c0-1.8,1-2.7,3-2.7c0.5,0,1,0.1,1.4,0.2h0.2l2.4-0.1v1H875c0.4,0.4,0.5,0.9,0.5,1.6c0,1-0.3,1.7-0.8,2.1s-1.3,0.6-2.3,0.6
	c-0.3,0-0.5,0-0.8-0.1c-0.2,0.5-0.3,0.8-0.3,0.9c0,0.3,0.1,0.5,0.3,0.6s0.8,0.1,1.8,0.1s1.8,0.2,2.2,0.5s0.7,0.9,0.7,1.9
	C876.4,392.9,875.3,393.8,872.9,393.8L872.9,393.8z M870.6,391.2c0,0.6,0.2,1,0.5,1.2s0.9,0.3,1.7,0.3c0.9,0,1.5-0.1,1.8-0.4
	c0.4-0.2,0.6-0.6,0.6-1.2c0-0.5-0.1-0.9-0.4-1.1s-0.8-0.2-1.6-0.2l-1.7-0.1c-0.4,0.3-0.6,0.5-0.7,0.7
	C870.7,390.7,870.6,390.9,870.6,391.2L870.6,391.2z M870.7,384.6c0,0.6,0.1,1.1,0.4,1.3c0.3,0.3,0.8,0.4,1.4,0.4s1.1-0.1,1.4-0.4
	c0.3-0.3,0.4-0.7,0.4-1.3c0-0.6-0.1-1.1-0.4-1.4c-0.3-0.3-0.7-0.4-1.4-0.4s-1.1,0.1-1.4,0.4C870.9,383.5,870.7,383.9,870.7,384.6z
	 M883.5,389h0.5v0.9c-1.2,0.2-2.3,0.3-3.1,0.3c-1.2,0-2-0.3-2.4-1c-0.5-0.7-0.7-1.7-0.7-3.1c0-2.8,1.1-4.2,3.3-4.2
	c1.1,0,1.9,0.3,2.4,0.9s0.8,1.5,0.8,2.8l-0.1,0.9h-5.3c0,0.9,0.2,1.5,0.5,2s0.9,0.6,1.7,0.6C881.8,389.1,882.6,389.1,883.5,389
	L883.5,389z M883,385.5c0-1-0.2-1.7-0.5-2.1s-0.8-0.6-1.5-0.6s-1.2,0.2-1.6,0.6c-0.4,0.4-0.5,1.1-0.5,2L883,385.5L883,385.5z
	 M887.3,390h-1.2v-8h1.2v0.6c0.8-0.5,1.6-0.7,2.3-0.7c1,0,1.7,0.3,2.1,0.8c0.4-0.2,0.8-0.4,1.4-0.6c0.6-0.2,1.1-0.3,1.5-0.3
	c1.1,0,1.8,0.3,2.1,0.9c0.4,0.6,0.6,1.6,0.6,3.1v4.2H896v-4.2c0-1.1-0.1-1.9-0.3-2.3s-0.7-0.6-1.4-0.6c-0.4,0-0.7,0.1-1.1,0.2
	c-0.3,0.1-0.6,0.2-0.9,0.3l-0.3,0.1c0.1,0.4,0.2,1.1,0.2,2.3v4.2H891v-4.1c0-1.2-0.1-1.9-0.3-2.3s-0.7-0.6-1.4-0.6
	c-0.3,0-0.7,0.1-1.1,0.2c-0.3,0.1-0.6,0.2-0.8,0.3l-0.3,0.1L887.3,390L887.3,390z M904.9,389h0.5v0.9c-1.2,0.2-2.3,0.3-3.1,0.3
	c-1.2,0-2-0.3-2.4-1c-0.5-0.7-0.7-1.7-0.7-3.1c0-2.8,1.1-4.2,3.3-4.2c1.1,0,1.9,0.3,2.4,0.9s0.8,1.5,0.8,2.8l-0.1,0.9h-5.3
	c0,0.9,0.2,1.5,0.5,2s0.9,0.6,1.7,0.6C903.3,389.1,904.1,389.1,904.9,389L904.9,389z M904.5,385.5c0-1-0.2-1.7-0.5-2.1
	s-0.8-0.6-1.5-0.6s-1.2,0.2-1.6,0.6c-0.4,0.4-0.5,1.1-0.5,2L904.5,385.5L904.5,385.5z M908.7,390h-1.2v-8h1.2v0.6
	c0.9-0.5,1.7-0.7,2.5-0.7c1.1,0,1.8,0.3,2.1,0.9c0.4,0.6,0.6,1.6,0.6,3.1v4.2h-1.2v-4.2c0-1.1-0.1-1.9-0.3-2.3s-0.7-0.6-1.4-0.6
	c-0.4,0-0.7,0.1-1.1,0.2c-0.3,0.1-0.6,0.2-0.9,0.3l-0.3,0.1L908.7,390L908.7,390z M920.2,383h-2.5v3.8c0,0.9,0.1,1.5,0.2,1.8
	c0.1,0.3,0.5,0.4,1,0.4l1.4-0.1l0.1,1c-0.7,0.1-1.3,0.2-1.6,0.2c-0.8,0-1.4-0.2-1.7-0.6s-0.5-1.2-0.5-2.3V383h-1.1v-1h1.1v-2.4h1.2
	v2.4h2.5L920.2,383L920.2,383z"/>
<circle class="st3" cx="320.1" cy="120" r="4"/>
<circle class="st3" cx="94.1" cy="47" r="4"/>
<image style="overflow:visible;" width="12917" height="2066" xlink:href="../../Logosss/Services Ground.png"  transform="matrix(1.577929e-02 0 0 1.577929e-02 519.9749 185.6625)">
</image>
</svg>
