<?xml version="1.0" encoding="utf-8"?>
<!-- Generator: Adobe Illustrator 22.0.1, SVG Export Plug-In . SVG Version: 6.00 Build 0)  -->
<svg version="1.1" id="Layer_1" xmlns="http://www.w3.org/2000/svg" xmlns:xlink="http://www.w3.org/1999/xlink" x="0px" y="0px"
	 viewBox="0 0 476 468" style="enable-background:new 0 0 476 468;" xml:space="preserve">
<style type="text/css">
	.st0{fill:#CEAB17;}
	.st1{opacity:0.5;}
	.st2{fill:#030D1A;}
	.st3{fill:#101A16;}
	.st4{fill:#F0C808;}
</style>
<path class="st0" d="M296.8,57.7l-46.4-46.4c-6.2-6.2-16.4-6.2-22.6,0l-46.4,46.4c-6.2,6.2-6.2,16.4,0,22.6l46.4,46.4
	c6.2,6.2,16.4,6.2,22.6,0l46.4-46.4C303,74.1,303,64,296.8,57.7z"/>
<path class="st0" d="M296.8,387.7l-46.4-46.4c-6.2-6.2-16.4-6.2-22.6,0l-46.4,46.4c-6.2,6.2-6.2,16.4,0,22.6l46.4,46.4
	c6.2,6.2,16.4,6.2,22.6,0l46.4-46.4C303,404,303,393.9,296.8,387.7z"/>
<path class="st0" d="M126.9,223.1l-46.4-46.4c-6.2-6.2-16.4-6.2-22.6,0l-46.4,46.4c-6.2,6.2-6.2,16.4,0,22.6l46.4,46.4
	c6.2,6.2,16.4,6.2,22.6,0l46.4-46.4C133.1,239.5,133.1,229.4,126.9,223.1z"/>
<path class="st0" d="M464,223.1l-46.4-46.4c-6.2-6.2-16.4-6.2-22.6,0l-46.4,46.4c-6.2,6.2-6.2,16.4,0,22.6l46.4,46.4
	c6.2,6.2,16.4,6.2,22.6,0l46.4-46.4C470.3,239.5,470.3,229.4,464,223.1z"/>
<g class="st1">
	<path class="st2" d="M400.4,317.4l-56.6-56.6c-6.2-6.2-16.4-6.2-22.6,0l-56.6,56.6c-6.2,6.2-6.2,16.4,0,22.6l56.6,56.6
		c6.2,6.2,16.4,6.2,22.6,0l56.6-56.6C406.7,333.8,406.7,323.7,400.4,317.4z"/>
</g>
<path class="st3" d="M400.4,317.4l-56.6-56.6c-6.2-6.2-16.4-6.2-22.6,0l-56.6,56.6c-6.2,6.2-6.2,16.4,0,22.6l56.6,56.6
	c6.2,6.2,16.4,6.2,22.6,0l56.6-56.6C406.7,333.8,406.7,323.7,400.4,317.4z"/>
<g class="st1">
	<path class="st2" d="M212.4,317.4l-56.6-56.6c-6.2-6.2-16.4-6.2-22.6,0l-56.6,56.6c-6.2,6.2-6.2,16.4,0,22.6l56.6,56.6
		c6.2,6.2,16.4,6.2,22.6,0l56.6-56.6C218.6,333.8,218.6,323.7,212.4,317.4z"/>
</g>
<path class="st3" d="M212.4,317.4l-56.6-56.6c-6.2-6.2-16.4-6.2-22.6,0l-56.6,56.6c-6.2,6.2-6.2,16.4,0,22.6l56.6,56.6
	c6.2,6.2,16.4,6.2,22.6,0l56.6-56.6C218.6,333.8,218.6,323.7,212.4,317.4z"/>
<g class="st1">
	<path class="st2" d="M212.4,129.4l-56.6-56.6c-6.2-6.2-16.4-6.2-22.6,0l-56.6,56.6c-6.2,6.2-6.2,16.4,0,22.6l56.6,56.6
		c6.2,6.2,16.4,6.2,22.6,0l56.6-56.6C218.6,145.8,218.6,135.7,212.4,129.4z"/>
</g>
<path class="st3" d="M212.4,129.4l-56.6-56.6c-6.2-6.2-16.4-6.2-22.6,0l-56.6,56.6c-6.2,6.2-6.2,16.4,0,22.6l56.6,56.6
	c6.2,6.2,16.4,6.2,22.6,0l56.6-56.6C218.6,145.8,218.6,135.7,212.4,129.4z"/>
<g class="st1">
	<path class="st2" d="M400.4,129.4l-56.6-56.6c-6.2-6.2-16.4-6.2-22.6,0l-56.6,56.6c-6.2,6.2-6.2,16.4,0,22.6l56.6,56.6
		c6.2,6.2,16.4,6.2,22.6,0l56.6-56.6C406.7,145.8,406.7,135.7,400.4,129.4z"/>
</g>
<path class="st3" d="M400.4,129.4l-56.6-56.6c-6.2-6.2-16.4-6.2-22.6,0l-56.6,56.6c-6.2,6.2-6.2,16.4,0,22.6l56.6,56.6
	c6.2,6.2,16.4,6.2,22.6,0l56.6-56.6C406.7,145.8,406.7,135.7,400.4,129.4z"/>
<g class="st1">
	<image style="overflow:visible;" width="305" height="306" xlink:href="84F04A27.png"  transform="matrix(1 0 0 1 87 82)">
	</image>
</g>
<path class="st4" d="M317.8,223.7L251,156.9c-6.2-6.2-16.4-6.2-22.6,0l-66.9,66.9c-6.2,6.2-6.2,16.4,0,22.6l66.9,66.9
	c6.2,6.2,16.4,6.2,22.6,0l66.9-66.9C324.1,240.1,324.1,230,317.8,223.7z"/>
</svg>
