<?xml version="1.0" encoding="utf-8"?>
<!-- Generator: Adobe Illustrator 22.0.1, SVG Export Plug-In . SVG Version: 6.00 Build 0)  -->
<svg version="1.1" id="Layer_1" xmlns="http://www.w3.org/2000/svg" xmlns:xlink="http://www.w3.org/1999/xlink" x="0px" y="0px"
	 viewBox="0 0 472 472" style="enable-background:new 0 0 472 472;" xml:space="preserve">
<style type="text/css">
	.st0{stroke:#25312B;stroke-miterlimit:10;}
	.st1{fill:#25312B;}
	.st2{fill:#CEAB17;}
	.st3{clip-path:url(#SVGID_2_);fill:url(#SVGID_3_);stroke:#25312B;stroke-miterlimit:10;}
	.st4{fill:#EAFFEC;}
	.st5{fill:#09254A;}
</style>
<path class="st0" d="M472,236c0,130.3-105.7,236-236,236S0,366.3,0,236S105.7,0,236,0S472,105.7,472,236z"/>
<path class="st1" d="M381.6,50.2c1.8-2.1,4.9-2.4,7-0.7C442.6,93.7,477,160.8,477,236c0,133.1-107.9,241-241,241S-5,369.1-5,236
	c0-52.2,16.6-100.5,44.7-139.9c1.6-2.2,4.7-2.8,7-1.2c2.2,1.6,2.8,4.7,1.2,7C20.9,139.7,5,186,5,236c0,127.6,103.4,231,231,231
	s231-103.4,231-231c0-72-33-136.4-84.7-178.8C380.2,55.5,379.9,52.3,381.6,50.2z"/>
<path class="st2" d="M236,5C164.2,5,100,37.8,57.7,89.2c-1.8,2.1-4.9,2.4-7,0.7c-2.1-1.8-2.4-4.9-0.7-7C94.1,29.2,161.1-5,236-5
	c50.4,0,97.1,15.5,135.8,41.9c2.3,1.6,2.9,4.7,1.3,6.9c-1.6,2.3-4.7,2.9-6.9,1.3C329.1,19.8,284.3,5,236,5z"/>
<g>
	<g>
		<defs>
			<circle id="SVGID_1_" cx="236" cy="236" r="236"/>
		</defs>
		<clipPath id="SVGID_2_">
			<use xlink:href="#SVGID_1_"  style="overflow:visible;"/>
		</clipPath>
		
			<linearGradient id="SVGID_3_" gradientUnits="userSpaceOnUse" x1="199.1673" y1="474.2132" x2="275.1673" y2="-2.7868" gradientTransform="matrix(1 0 0 -1 0 474)">
			<stop  offset="0" style="stop-color:#F0C807"/>
			<stop  offset="1" style="stop-color:#000000;stop-opacity:0.7"/>
		</linearGradient>
		<path class="st3" d="M84.5,88h-43V-4h296l39,39l-28,28H326l-18.5,18.5l-9-9V63l4.5-4.5V43h-19l-10.5-10.5L263,43l20,20l-9.5,9.5
			V114L259,128.5h-26.5L190,171l36.5,36.5H192L178.5,221l8.5,8.5l8.5-8.5h8l8.5,8.5h18l13,13h20v7.5l17,17h17.5l10,10v11.5l-10,10
			V314l-7.5,7.5V332h-10l-6.5,6.5v19L243,388v28l16,16h-20l-16-16v-17l-11-11v-66.5L173.5,283v-21.5L185,250l-29-29h-26.5l-45-45
			v-38l24-24L84.5,88z"/>
	</g>
</g>
<path class="st4" d="M249.5,49c-1,0-2,0-3,0v-2c1,0,2,0,3,0V49z M261.4,49.7c-2-0.2-3.9-0.3-5.9-0.5l0.1-2c2,0.1,4,0.3,6,0.5
	L261.4,49.7z M273.1,51.3c-1.9-0.3-3.9-0.7-5.9-0.9l0.3-2c2,0.3,4,0.6,6,0.9L273.1,51.3z M284.8,53.9c-1.9-0.5-3.8-1-5.8-1.4l0.4-2
	c2,0.4,3.9,0.9,5.9,1.4L284.8,53.9z M296.2,57.3c-1.9-0.6-3.8-1.3-5.7-1.8l0.6-1.9c1.9,0.6,3.8,1.2,5.7,1.9L296.2,57.3z M307.2,61.7
	c-1.8-0.8-3.6-1.6-5.5-2.3l0.7-1.9c1.9,0.7,3.7,1.5,5.6,2.3L307.2,61.7z M317.9,66.9c-1.7-0.9-3.5-1.8-5.3-2.7l0.9-1.8
	c1.8,0.9,3.6,1.8,5.4,2.7L317.9,66.9z M328.2,72.9c-1.7-1.1-3.4-2.1-5.1-3.1l1-1.7c1.7,1,3.4,2.1,5.1,3.2L328.2,72.9z M337.9,79.7
	c-1.6-1.2-3.2-2.4-4.8-3.5l1.1-1.6c1.6,1.2,3.3,2.3,4.9,3.5L337.9,79.7z M347.1,87.3c-1.5-1.3-3-2.6-4.5-3.9l1.3-1.5
	c1.6,1.3,3.1,2.6,4.6,3.9L347.1,87.3z M355.7,95.5c-1.4-1.4-2.8-2.8-4.2-4.2l1.4-1.4c1.4,1.4,2.9,2.8,4.3,4.3L355.7,95.5z
	 M363.6,104.4c-1.3-1.5-2.5-3-3.9-4.5l1.5-1.3c1.3,1.5,2.6,3,3.9,4.6L363.6,104.4z M370.8,113.9c-1.1-1.6-2.3-3.2-3.5-4.8l1.6-1.2
	c1.2,1.6,2.4,3.2,3.5,4.9L370.8,113.9z M377.2,123.9c-1-1.7-2-3.4-3.1-5.1l1.7-1.1c1.1,1.7,2.1,3.4,3.2,5.1L377.2,123.9z
	 M382.8,134.4c-0.9-1.8-1.8-3.6-2.7-5.3l1.8-0.9c0.9,1.8,1.9,3.6,2.7,5.4L382.8,134.4z M387.6,145.3c-0.7-1.8-1.5-3.7-2.3-5.5
	l1.8-0.8c0.8,1.8,1.6,3.7,2.3,5.6L387.6,145.3z M391.5,156.5c-0.6-1.9-1.2-3.8-1.8-5.7l1.9-0.7c0.7,1.9,1.3,3.8,1.9,5.7L391.5,156.5
	z M394.5,168c-0.4-1.9-0.9-3.9-1.4-5.8l1.9-0.5c0.5,1.9,1,3.9,1.4,5.9L394.5,168z M396.6,179.7c-0.3-2-0.6-3.9-0.9-5.9l2-0.4
	c0.4,2,0.7,4,0.9,6L396.6,179.7z M397.7,191.6c-0.1-2-0.3-4-0.5-5.9l2-0.2c0.2,2,0.4,4,0.5,6L397.7,191.6z M398,200.5c0-1,0-2,0-3h2
	c0,1,0,2,0,3s0,2,0,3h-2C398,202.5,398,201.5,398,200.5z M397.3,215.4c0.2-2,0.3-3.9,0.5-5.9l2,0.1c-0.1,2-0.3,4-0.5,6L397.3,215.4z
	 M395.7,227.1c0.3-1.9,0.7-3.9,0.9-5.9l2,0.3c-0.3,2-0.6,4-0.9,6L395.7,227.1z M393.1,238.8c0.5-1.9,1-3.8,1.4-5.8l2,0.4
	c-0.4,2-0.9,3.9-1.4,5.9L393.1,238.8z M389.7,250.2c0.6-1.9,1.3-3.8,1.8-5.7l1.9,0.6c-0.6,1.9-1.2,3.8-1.9,5.7L389.7,250.2z
	 M385.3,261.2c0.8-1.8,1.6-3.6,2.3-5.5l1.9,0.7c-0.7,1.9-1.5,3.7-2.3,5.6L385.3,261.2z M380.1,271.9c0.9-1.7,1.8-3.5,2.7-5.3
	l1.8,0.9c-0.9,1.8-1.8,3.6-2.7,5.4L380.1,271.9z M374.1,282.2c1.1-1.7,2.1-3.4,3.1-5.1l1.7,1c-1,1.7-2.1,3.4-3.2,5.1L374.1,282.2z
	 M367.3,291.9c1.2-1.6,2.4-3.2,3.5-4.8l1.6,1.1c-1.2,1.6-2.3,3.3-3.5,4.9L367.3,291.9z M359.7,301.1c1.3-1.5,2.6-3,3.9-4.5l1.5,1.3
	c-1.3,1.6-2.6,3.1-3.9,4.6L359.7,301.1z M351.5,309.7c1.4-1.4,2.8-2.8,4.2-4.2l1.4,1.4c-1.4,1.4-2.8,2.9-4.3,4.3L351.5,309.7z
	 M342.6,317.6c1.5-1.3,3-2.5,4.5-3.9l1.3,1.5c-1.5,1.3-3,2.6-4.6,3.9L342.6,317.6z M333.1,324.8c1.6-1.1,3.2-2.3,4.8-3.5l1.2,1.6
	c-1.6,1.2-3.2,2.4-4.9,3.5L333.1,324.8z M323.1,331.2c1.7-1,3.4-2,5.1-3.1l1.1,1.7c-1.7,1.1-3.4,2.1-5.1,3.2L323.1,331.2z
	 M312.6,336.8c1.8-0.9,3.6-1.8,5.3-2.7l0.9,1.8c-1.8,0.9-3.6,1.9-5.4,2.7L312.6,336.8z M301.7,341.6c1.8-0.7,3.7-1.5,5.5-2.3
	l0.8,1.8c-1.8,0.8-3.7,1.6-5.6,2.3L301.7,341.6z M290.5,345.5c1.9-0.6,3.8-1.2,5.7-1.8l0.7,1.9c-1.9,0.7-3.8,1.3-5.7,1.9
	L290.5,345.5z M279,348.5c1.9-0.4,3.9-0.9,5.8-1.4l0.5,1.9c-1.9,0.5-3.9,1-5.9,1.4L279,348.5z M267.3,350.6c2-0.3,3.9-0.6,5.9-0.9
	l0.3,2c-2,0.4-4,0.7-6,0.9L267.3,350.6z M255.4,351.7c2-0.1,4-0.3,5.9-0.5l0.2,2c-2,0.2-4,0.4-6,0.5L255.4,351.7z M246.5,352
	c1,0,2,0,3,0v2c-1,0-2,0-3,0V352z"/>
<path class="st4" d="M229,133.7c-0.8-0.5-1.7-1-2.5-1.4l1-1.8c0.9,0.5,1.7,0.9,2.5,1.4L229,133.7z M238.7,139.9
	c-1.6-1.1-3.2-2.2-4.8-3.2l1.1-1.7c1.6,1,3.3,2.1,4.9,3.2L238.7,139.9z M247.9,146.8c-1.5-1.2-3-2.4-4.5-3.6l1.2-1.6
	c1.6,1.2,3.1,2.4,4.6,3.6L247.9,146.8z M256.5,154.5c-1.4-1.3-2.8-2.6-4.2-3.9l1.3-1.5c1.4,1.3,2.9,2.6,4.3,4L256.5,154.5z
	 M264.4,162.8c-1.3-1.4-2.6-2.9-3.9-4.2l1.5-1.4c1.3,1.4,2.6,2.8,3.9,4.3L264.4,162.8z M271.6,171.8c-1.1-1.5-2.3-3.1-3.5-4.6
	l1.6-1.3c1.2,1.5,2.4,3.1,3.6,4.6L271.6,171.8z M278.1,181.3c-1-1.6-2.1-3.2-3.1-4.8l1.7-1.1c1.1,1.6,2.1,3.2,3.2,4.9L278.1,181.3z
	 M283.7,191.3c-0.9-1.7-1.8-3.4-2.7-5.1l1.7-1c1,1.7,1.9,3.4,2.8,5.1L283.7,191.3z M288.5,201.7c-0.7-1.8-1.5-3.5-2.3-5.3l1.8-0.8
	c0.8,1.8,1.6,3.5,2.3,5.3L288.5,201.7z M292.4,212.6c-0.6-1.8-1.2-3.6-1.9-5.4l1.9-0.7c0.7,1.8,1.3,3.7,1.9,5.5L292.4,212.6z
	 M295.5,223.6c-0.4-1.9-0.9-3.7-1.4-5.6l1.9-0.5c0.5,1.9,1,3.8,1.4,5.7L295.5,223.6z M297.6,234.9c-0.3-1.9-0.6-3.8-0.9-5.7l2-0.4
	c0.4,1.9,0.7,3.8,0.9,5.8L297.6,234.9z M298.7,246.4c-0.1-1.9-0.3-3.8-0.5-5.7l2-0.2c0.2,1.9,0.4,3.9,0.5,5.8L298.7,246.4z M299,255
	c0-1,0-1.9,0-2.9h2c0,1,0,1.9,0,2.9s0,2,0,3h-2C299,257,299,256,299,255z M298.2,269.7c0.2-1.9,0.4-3.9,0.5-5.9l2,0.1
	c-0.1,2-0.3,4-0.5,6L298.2,269.7z M296.5,281.4c0.4-1.9,0.7-3.9,1-5.8l2,0.3c-0.3,2-0.6,3.9-1,5.9L296.5,281.4z M293.8,292.9
	c0.5-1.9,1-3.8,1.5-5.7l1.9,0.5c-0.5,1.9-1,3.9-1.5,5.8L293.8,292.9z M290.1,304.1c0.7-1.8,1.3-3.7,2-5.6l1.9,0.6
	c-0.6,1.9-1.3,3.8-2,5.6L290.1,304.1z M285.5,315c0.8-1.8,1.6-3.6,2.4-5.4l1.8,0.8c-0.8,1.8-1.6,3.7-2.5,5.5L285.5,315z M280,325.4
	c1-1.7,1.9-3.4,2.9-5.2l1.8,0.9c-0.9,1.8-1.9,3.5-2.9,5.2L280,325.4z M273.7,335.3c1.1-1.6,2.2-3.2,3.3-4.9l1.7,1.1
	c-1.1,1.7-2.2,3.3-3.3,5L273.7,335.3z M266.5,344.7c1.3-1.5,2.5-3,3.7-4.6l1.6,1.2c-1.2,1.6-2.5,3.1-3.7,4.7L266.5,344.7z
	 M260.6,351.3c0.7-0.7,1.3-1.4,2-2.2l1.5,1.3c-0.7,0.7-1.4,1.5-2,2.2L260.6,351.3z"/>
<path class="st4" d="M145.8,74.4c1-0.2,2-0.5,3-0.7l0.4,2c-1,0.2-2,0.4-2.9,0.7L145.8,74.4z M134.1,77.8c1.9-0.6,3.9-1.2,5.8-1.8
	l0.6,1.9c-1.9,0.6-3.8,1.1-5.7,1.8L134.1,77.8z M122.7,82.1c1.9-0.8,3.8-1.5,5.7-2.3l0.7,1.9c-1.9,0.7-3.7,1.5-5.6,2.2L122.7,82.1z
	 M111.7,87.3c1.8-0.9,3.6-1.8,5.5-2.7l0.9,1.8c-1.8,0.9-3.6,1.7-5.4,2.7L111.7,87.3z M101.1,93.3c1.7-1.1,3.5-2.1,5.2-3.1l1,1.7
	c-1.7,1-3.5,2-5.2,3.1L101.1,93.3z M91.1,100.2c1.6-1.2,3.3-2.4,5-3.5l1.1,1.7c-1.7,1.1-3.3,2.3-4.9,3.5L91.1,100.2z M81.6,107.8
	c1.5-1.3,3.1-2.6,4.7-3.9l1.3,1.6c-1.6,1.3-3.1,2.5-4.6,3.9L81.6,107.8z M72.7,116.2c1.4-1.5,2.9-2.9,4.3-4.3l1.4,1.5
	c-1.5,1.4-2.9,2.8-4.3,4.2L72.7,116.2z M64.6,125.3c1.3-1.6,2.6-3.1,4-4.6L70,122c-1.3,1.5-2.7,3-3.9,4.5L64.6,125.3z M57.1,134.9
	c1.2-1.7,2.4-3.3,3.6-4.9l1.6,1.2c-1.2,1.6-2.4,3.2-3.6,4.8L57.1,134.9z M50.5,145.1c1-1.7,2.1-3.5,3.2-5.2l1.7,1.1
	c-1.1,1.7-2.2,3.4-3.2,5.1L50.5,145.1z M44.7,155.8c0.9-1.8,1.8-3.6,2.8-5.4l1.8,1c-1,1.8-1.9,3.5-2.8,5.3L44.7,155.8z M39.7,167
	c0.7-1.9,1.5-3.8,2.4-5.6l1.8,0.8c-0.8,1.8-1.6,3.7-2.3,5.5L39.7,167z M35.7,178.5c0.6-1.9,1.2-3.9,1.9-5.8l1.9,0.7
	c-0.7,1.9-1.3,3.8-1.9,5.7L35.7,178.5z M32.6,190.3c0.4-2,0.9-4,1.4-5.9l1.9,0.5c-0.5,1.9-1,3.9-1.4,5.8L32.6,190.3z M30.5,202.2
	c0.3-2,0.6-4,1-6l2,0.4c-0.4,2-0.7,3.9-0.9,5.9L30.5,202.2z M29.3,214.4c0.1-2,0.3-4.1,0.5-6.1l2,0.2c-0.2,2-0.4,4-0.5,6L29.3,214.4
	z M29,223.5c0-1,0-2,0-3.1h2c0,1,0,2,0,3s0,2,0,3h-2C29,225.5,29,224.5,29,223.5z M29.7,238.6c-0.2-2-0.3-4-0.5-6l2-0.1
	c0.1,2,0.3,4,0.5,5.9L29.7,238.6z M31.4,250.5c-0.4-2-0.7-4-0.9-6l2-0.3c0.3,2,0.6,3.9,0.9,5.9L31.4,250.5z M33.9,262.3
	c-0.5-1.9-1-3.9-1.4-5.9l2-0.4c0.4,1.9,0.9,3.9,1.4,5.8L33.9,262.3z M37.4,273.8c-0.7-1.9-1.3-3.8-1.9-5.7l1.9-0.6
	c0.6,1.9,1.2,3.8,1.8,5.7L37.4,273.8z M41.8,285c-0.8-1.8-1.6-3.7-2.3-5.6l1.9-0.7c0.7,1.8,1.5,3.7,2.3,5.5L41.8,285z M47.1,295.9
	c-0.9-1.8-1.9-3.6-2.7-5.4l1.8-0.9c0.9,1.8,1.8,3.6,2.7,5.3L47.1,295.9z M53.2,306.3c-1.1-1.7-2.1-3.4-3.2-5.1l1.7-1
	c1,1.7,2,3.4,3.1,5.1L53.2,306.3z M60.1,316.1c-1.2-1.6-2.4-3.2-3.5-4.9l1.6-1.1c1.1,1.6,2.3,3.2,3.5,4.8L60.1,316.1z M67.8,325.5
	c-1.3-1.5-2.6-3-3.9-4.6l1.5-1.3c1.3,1.5,2.5,3,3.9,4.5L67.8,325.5z M76.1,334.2c-1.4-1.4-2.9-2.8-4.3-4.3l1.4-1.4
	c1.4,1.4,2.8,2.8,4.2,4.2L76.1,334.2z M85.1,342.2c-1.6-1.3-3.1-2.6-4.6-3.9l1.3-1.5c1.5,1.3,3,2.6,4.5,3.9L85.1,342.2z M94.7,349.4
	c-1.6-1.2-3.3-2.3-4.9-3.5l1.2-1.6c1.6,1.2,3.2,2.4,4.8,3.5L94.7,349.4z M104.9,356c-1.7-1-3.4-2.1-5.1-3.2l1.1-1.7
	c1.7,1.1,3.4,2.1,5.1,3.1L104.9,356z M257.5,357.5c-0.9,0.5-1.9,1.1-2.9,1.6l-0.9-1.8c0.9-0.5,1.9-1,2.8-1.5L257.5,357.5z
	 M115.5,361.6c-1.8-0.9-3.6-1.8-5.4-2.7l0.9-1.8c1.7,0.9,3.5,1.8,5.3,2.7L115.5,361.6z M248.8,362c-2,0.9-3.9,1.8-5.9,2.7l-0.8-1.8
	c2-0.8,3.9-1.7,5.9-2.7L248.8,362z M126.5,366.5c-1.9-0.7-3.7-1.5-5.6-2.3l0.8-1.8c1.8,0.8,3.6,1.6,5.5,2.3L126.5,366.5z
	 M236.8,367.1c-2,0.8-4.1,1.5-6.2,2.2l-0.6-1.9c2-0.7,4.1-1.4,6.1-2.2L236.8,367.1z M137.9,370.4c-1.9-0.6-3.8-1.2-5.7-1.9l0.7-1.9
	c1.9,0.6,3.8,1.3,5.7,1.8L137.9,370.4z M224.4,371.2c-2.1,0.6-4.2,1.1-6.3,1.6l-0.5-1.9c2.1-0.5,4.2-1,6.2-1.6L224.4,371.2z
	 M149.6,373.5c-2-0.4-3.9-0.9-5.9-1.4l0.5-1.9c1.9,0.5,3.8,1,5.8,1.4L149.6,373.5z M211.7,374.2c-2.1,0.4-4.3,0.8-6.4,1.1l-0.3-2
	c2.1-0.3,4.3-0.7,6.4-1.1L211.7,374.2z M161.5,375.6c-2-0.3-4-0.6-6-0.9l0.4-2c1.9,0.3,3.9,0.7,5.9,0.9L161.5,375.6z M198.8,376.1
	c-2.2,0.2-4.3,0.4-6.5,0.5l-0.1-2c2.2-0.1,4.3-0.3,6.4-0.5L198.8,376.1z M173.5,376.7c-2-0.1-4-0.3-6-0.5l0.2-2
	c2,0.2,3.9,0.3,5.9,0.5L173.5,376.7z M185.8,377c-1.1,0-2.2,0-3.3,0c-1,0-2,0-3,0v-2c1,0,2,0,3,0c1.1,0,2.2,0,3.2,0L185.8,377z"/>
<path class="st4" d="M96.1,135.6c0.7-0.7,1.5-1.4,2.2-2.1l1.4,1.5c-0.7,0.7-1.5,1.4-2.2,2.1L96.1,135.6z M87.6,144.7
	c1.3-1.6,2.7-3.1,4.1-4.6l1.5,1.4c-1.4,1.5-2.8,3-4.1,4.6L87.6,144.7z M80,154.4c1.2-1.7,2.4-3.3,3.7-5l1.6,1.2
	c-1.3,1.6-2.5,3.2-3.6,4.9L80,154.4z M73.3,164.9c1-1.8,2.1-3.6,3.2-5.3l1.7,1.1c-1.1,1.7-2.2,3.5-3.2,5.2L73.3,164.9z M67.5,175.9
	c0.9-1.9,1.8-3.7,2.7-5.6l1.8,0.9c-0.9,1.8-1.8,3.6-2.7,5.5L67.5,175.9z M62.8,187.4c0.7-2,1.4-3.9,2.2-5.8l1.9,0.8
	c-0.8,1.9-1.5,3.8-2.2,5.7L62.8,187.4z M59.2,199.2c0.5-2,1.1-4,1.7-6l1.9,0.6c-0.6,1.9-1.1,3.9-1.6,5.9L59.2,199.2z M56.7,211.4
	c0.3-2.1,0.7-4.1,1.1-6.1l2,0.4c-0.4,2-0.8,4-1.1,6L56.7,211.4z M55.3,223.7c0.1-2.1,0.3-4.1,0.6-6.2l2,0.2c-0.2,2-0.4,4-0.6,6.1
	L55.3,223.7z M55,233c0-1,0-2.1,0-3.1h2c0,1,0,2,0,3.1c0,1,0,2,0,2.9h-2C55,235,55,234,55,233z M55.8,247.8c-0.2-2-0.4-3.9-0.5-5.9
	l2-0.1c0.1,2,0.3,3.9,0.5,5.8L55.8,247.8z M57.6,259.5c-0.4-1.9-0.7-3.9-1-5.8l2-0.3c0.3,1.9,0.6,3.9,1,5.8L57.6,259.5z M60.4,271.1
	c-0.6-1.9-1.1-3.8-1.5-5.7l1.9-0.5c0.5,1.9,1,3.8,1.5,5.6L60.4,271.1z M64.2,282.3c-0.7-1.8-1.4-3.7-2-5.6l1.9-0.6
	c0.6,1.8,1.3,3.7,2,5.5L64.2,282.3z M69,293.2c-0.9-1.8-1.7-3.6-2.5-5.4l1.8-0.8c0.8,1.8,1.6,3.6,2.5,5.3L69,293.2z M74.7,303.6
	c-1-1.7-2-3.4-3-5.1l1.8-1c0.9,1.7,1.9,3.4,2.9,5.1L74.7,303.6z M81.3,313.4c-1.2-1.6-2.3-3.2-3.4-4.9l1.7-1.1
	c1.1,1.6,2.2,3.2,3.4,4.8L81.3,313.4z M88.7,322.7c-1.3-1.5-2.6-3-3.8-4.5l1.6-1.3c1.2,1.5,2.5,3,3.8,4.5L88.7,322.7z M97,331.2
	c-1.4-1.4-2.8-2.8-4.2-4.2l1.4-1.4c1.3,1.4,2.7,2.8,4.1,4.1L97,331.2z M105.9,339.1c-1.5-1.2-3.1-2.5-4.5-3.8l1.3-1.5
	c1.5,1.3,3,2.5,4.5,3.8L105.9,339.1z M115.4,346.1c-1.6-1.1-3.3-2.2-4.9-3.4l1.2-1.6c1.6,1.2,3.2,2.3,4.8,3.4L115.4,346.1z
	 M125.6,352.3c-1.7-1-3.4-1.9-5.1-3l1-1.7c1.7,1,3.4,2,5.1,2.9L125.6,352.3z M257.5,351.7c-0.8,0.5-1.7,0.9-2.5,1.4l-0.9-1.8
	c0.8-0.4,1.7-0.9,2.5-1.4L257.5,351.7z M136.2,357.5c-1.8-0.8-3.6-1.6-5.4-2.5l0.9-1.8c1.7,0.9,3.5,1.7,5.3,2.5L136.2,357.5z
	 M249.8,355.7c-1.7,0.8-3.5,1.6-5.3,2.4l-0.8-1.8c1.8-0.8,3.5-1.5,5.2-2.4L249.8,355.7z M147.3,361.8c-1.9-0.6-3.7-1.3-5.6-2
	l0.7-1.9c1.8,0.7,3.6,1.4,5.5,2L147.3,361.8z M239.1,360.2c-1.8,0.7-3.6,1.3-5.5,1.9l-0.6-1.9c1.8-0.6,3.6-1.2,5.4-1.9L239.1,360.2z
	 M158.7,365.1c-1.9-0.5-3.8-1-5.7-1.5l0.6-1.9c1.9,0.5,3.8,1,5.6,1.5L158.7,365.1z M228.2,363.9c-1.9,0.5-3.7,1-5.6,1.5l-0.5-1.9
	c1.9-0.4,3.7-0.9,5.5-1.4L228.2,363.9z M170.3,367.4c-2-0.3-3.9-0.6-5.8-1l0.4-2c1.9,0.4,3.8,0.7,5.8,1L170.3,367.4z M216.9,366.5
	c-1.9,0.4-3.8,0.7-5.7,1l-0.3-2c1.9-0.3,3.8-0.6,5.6-1L216.9,366.5z M182.1,368.7c-2-0.1-4-0.3-5.9-0.5l0.2-2
	c1.9,0.2,3.9,0.4,5.8,0.5L182.1,368.7z M205.4,368.2c-1.9,0.2-3.8,0.4-5.8,0.5l-0.1-2c1.9-0.1,3.8-0.3,5.7-0.5L205.4,368.2z
	 M191,369c-1,0-2,0-3,0v-2c1,0,2,0,2.9,0c1,0,1.9,0,2.9,0v2C192.9,369,192,369,191,369z"/>
<path class="st4" d="M154.3,161.6c0.7-0.8,1.4-1.5,2.1-2.3l1.5,1.4c-0.7,0.7-1.4,1.5-2.1,2.3L154.3,161.6z M146.5,171.3
	c1.2-1.7,2.5-3.3,3.8-5l1.6,1.2c-1.3,1.6-2.5,3.2-3.7,4.9L146.5,171.3z M139.8,181.8c1-1.8,2.1-3.6,3.2-5.3l1.7,1.1
	c-1.1,1.7-2.1,3.5-3.2,5.3L139.8,181.8z M134.3,193c0.8-1.9,1.7-3.8,2.6-5.7l1.8,0.9c-0.9,1.8-1.8,3.7-2.6,5.6L134.3,193z
	 M130,204.7c0.6-2,1.3-4,2-5.9l1.9,0.7c-0.7,1.9-1.3,3.8-1.9,5.8L130,204.7z M127,216.8c0.4-2,0.8-4.1,1.3-6.1l1.9,0.5
	c-0.5,2-0.9,4-1.3,6L127,216.8z M125.4,229.2c0.2-2.1,0.4-4.1,0.7-6.2l2,0.3c-0.3,2-0.5,4-0.7,6.1L125.4,229.2z M125,238.5
	c0-1,0-2.1,0-3.1l2,0.1c0,1,0,2,0,3.1c0,1,0,2,0,3l-2,0.1C125,240.5,125,239.5,125,238.5z M126,253.6c-0.3-2-0.5-4-0.6-6l2-0.2
	c0.2,2,0.4,4,0.6,5.9L126,253.6z M128.2,265.5c-0.5-2-0.9-3.9-1.3-5.9l2-0.4c0.4,2,0.8,3.9,1.2,5.8L128.2,265.5z M131.6,277.1
	c-0.7-1.9-1.3-3.8-1.9-5.8l1.9-0.6c0.6,1.9,1.2,3.8,1.8,5.7L131.6,277.1z M136.2,288.2c-0.9-1.8-1.7-3.7-2.5-5.5l1.8-0.8
	c0.8,1.8,1.6,3.6,2.4,5.4L136.2,288.2z M142,298.9c-1.1-1.7-2.1-3.5-3-5.2l1.8-1c0.9,1.7,1.9,3.5,3,5.1L142,298.9z M148.9,308.8
	c-1.2-1.6-2.4-3.2-3.6-4.9l1.6-1.1c1.1,1.6,2.3,3.2,3.5,4.8L148.9,308.8z M156.7,318c-1.4-1.5-2.7-3-4-4.5l1.5-1.3
	c1.3,1.5,2.6,3,4,4.4L156.7,318z M165.5,326.3c-1.5-1.3-3-2.7-4.5-4l1.4-1.5c1.4,1.4,2.9,2.7,4.4,4L165.5,326.3z M175.1,333.7
	c-1.7-1.1-3.3-2.3-4.9-3.6l1.2-1.6c1.6,1.2,3.2,2.4,4.8,3.5L175.1,333.7z M185.4,340c-1.8-1-3.5-2-5.2-3l1-1.7c1.7,1,3.4,2,5.1,3
	L185.4,340z M196.3,345.2c-1.9-0.8-3.7-1.6-5.5-2.5l0.9-1.8c1.8,0.9,3.6,1.7,5.4,2.4L196.3,345.2z M207.7,349.3
	c-1.9-0.6-3.9-1.2-5.8-1.9l0.7-1.9c1.9,0.7,3.7,1.3,5.7,1.8L207.7,349.3z M219.4,352.1c-2-0.4-4-0.8-5.9-1.3l0.5-1.9
	c1.9,0.5,3.9,0.9,5.8,1.2L219.4,352.1z M258.2,352.7c-1.5,0.2-2.9,0.4-4.4,0.6l-0.2-2c1.4-0.2,2.9-0.4,4.3-0.6L258.2,352.7z
	 M231.4,353.6c-2-0.2-4-0.4-6-0.6l0.3-2c2,0.3,3.9,0.5,5.9,0.6L231.4,353.6z M244.9,353.9c-1.5,0.1-2.9,0.1-4.4,0.1c-1,0-2,0-3,0
	l0.1-2c1,0,2,0,3,0c1.5,0,2.9,0,4.4-0.1L244.9,353.9z"/>
<path class="st4" d="M270.3,89.2c1,0.3,2,0.6,2.9,1l-0.6,1.9c-1-0.3-1.9-0.6-2.9-0.9L270.3,89.2z M279,92.3c1.9,0.7,3.8,1.5,5.7,2.4
	l-0.8,1.8c-1.9-0.8-3.7-1.6-5.6-2.3L279,92.3z M290.3,97.3c1.8,0.9,3.7,1.9,5.5,2.9l-1,1.7c-1.8-1-3.6-1.9-5.4-2.8L290.3,97.3z
	 M301.1,103.3c1.8,1.1,3.5,2.2,5.2,3.4l-1.1,1.7c-1.7-1.1-3.4-2.2-5.1-3.3L301.1,103.3z M311.3,110.2c1.6,1.2,3.3,2.5,4.9,3.8
	l-1.3,1.5c-1.6-1.3-3.2-2.5-4.8-3.8L311.3,110.2z M320.9,118.1c1.5,1.4,3,2.8,4.5,4.2l-1.4,1.4c-1.4-1.4-2.9-2.8-4.4-4.2
	L320.9,118.1z M329.7,126.8c1.4,1.5,2.8,3.1,4.1,4.6l-1.5,1.3c-1.3-1.5-2.7-3.1-4-4.6L329.7,126.8z M337.6,136.2
	c1.3,1.6,2.5,3.3,3.7,5l-1.6,1.1c-1.2-1.7-2.4-3.3-3.6-4.9L337.6,136.2z M344.7,146.3c1.1,1.7,2.2,3.5,3.2,5.3l-1.7,1
	c-1-1.8-2.1-3.5-3.2-5.2L344.7,146.3z M350.9,157c0.9,1.8,1.8,3.7,2.7,5.6l-1.8,0.8c-0.8-1.8-1.7-3.7-2.7-5.5L350.9,157z
	 M356.1,168.3c0.8,1.9,1.5,3.8,2.2,5.8l-1.9,0.7c-0.7-1.9-1.4-3.8-2.2-5.7L356.1,168.3z M360.2,179.9c0.6,2,1.1,4,1.7,6l-1.9,0.5
	c-0.5-2-1-3.9-1.6-5.9L360.2,179.9z M363.2,191.9c0.4,2,0.8,4,1.1,6.1l-2,0.3c-0.3-2-0.7-4-1.1-6L363.2,191.9z M365.1,204.1
	c0.2,2,0.4,4.1,0.6,6.2l-2,0.1c-0.1-2-0.3-4.1-0.5-6.1L365.1,204.1z M366,216.4c0,1,0,2.1,0,3.1s0,2.1,0,3.1h-2c0-1,0-2,0-3.1
	c0-1,0-2,0-3.1H366z M365.7,228.8c-0.1,2.1-0.3,4.1-0.6,6.2l-2-0.2c0.2-2,0.4-4.1,0.6-6.1L365.7,228.8z M364.3,241.2
	c-0.3,2.1-0.7,4.1-1.1,6.1l-2-0.4c0.4-2,0.8-4,1.1-6L364.3,241.2z M361.8,253.4c-0.5,2-1.1,4-1.7,6l-1.9-0.6
	c0.6-1.9,1.1-3.9,1.6-5.9L361.8,253.4z M358.1,265.2c-0.7,2-1.4,3.9-2.2,5.8l-1.9-0.8c0.8-1.9,1.5-3.8,2.2-5.7L358.1,265.2z
	 M353.4,276.8c-0.9,1.9-1.8,3.7-2.7,5.6l-1.8-0.9c0.9-1.8,1.8-3.6,2.7-5.5L353.4,276.8z M347.7,287.8c-1,1.8-2.1,3.6-3.2,5.3
	l-1.7-1.1c1.1-1.7,2.2-3.5,3.2-5.2L347.7,287.8z M341,298.3c-1.2,1.7-2.4,3.4-3.7,5l-1.6-1.2c1.3-1.6,2.5-3.3,3.7-4.9L341,298.3z
	 M333.4,308.1c-1.3,1.6-2.7,3.1-4.1,4.6l-1.5-1.4c1.4-1.5,2.8-3,4.1-4.6L333.4,308.1z M324.9,317.1c-1.5,1.4-3,2.9-4.5,4.2l-1.3-1.5
	c1.5-1.4,3-2.8,4.5-4.2L324.9,317.1z M315.6,325.4c-1.6,1.3-3.2,2.6-4.9,3.8l-1.2-1.6c1.6-1.2,3.3-2.5,4.8-3.8L315.6,325.4z
	 M305.6,332.8c-1.7,1.2-3.5,2.3-5.2,3.4l-1-1.7c1.7-1.1,3.5-2.2,5.2-3.3L305.6,332.8z M295,339.3c-1.8,1-3.7,1.9-5.5,2.9l-0.9-1.8
	c1.8-0.9,3.6-1.8,5.4-2.8L295,339.3z M283.8,344.8c-1.9,0.8-3.8,1.6-5.8,2.3l-0.7-1.9c1.9-0.7,3.8-1.5,5.7-2.3L283.8,344.8z
	 M272.2,349.2c-2,0.6-3.9,1.2-5.9,1.8l-0.5-1.9c2-0.6,3.9-1.1,5.9-1.8L272.2,349.2z M260.2,352.5c-1,0.2-2,0.5-3,0.7l-0.4-2
	c1-0.2,2-0.4,3-0.7L260.2,352.5z"/>
<path class="st4" d="M249,57c0,16.6-13.4,30-30,30s-30-13.4-30-30s13.4-30,30-30S249,40.4,249,57z"/>
<path class="st4" d="M173,77c0,12.2-9.9,22-22,22s-22-9.8-22-22s9.9-22,22-22S173,64.8,173,77z"/>
<path class="st4" d="M189,163c0,16.6-13.4,30-30,30s-30-13.4-30-30s13.4-30,30-30S189,146.4,189,163z"/>
<path class="st4" d="M247,132c0,12.1-9.9,22-22,22s-22-9.9-22-22s9.9-22,22-22S247,119.8,247,132z"/>
<path class="st4" d="M113,133c0,7.7-6.3,14-14,14s-14-6.3-14-14s6.3-14,14-14S113,125.3,113,133z"/>
<path class="st4" d="M287,93c0,7.7-6.3,14-14,14s-14-6.3-14-14s6.3-14,14-14S287,85.3,287,93z"/>
<path class="st1" d="M225.7,49.2c0,3.4-2.8,6.2-6.2,6.2s-6.2-2.8-6.2-6.2s2.8-6.2,6.2-6.2S225.7,45.8,225.7,49.2z"/>
<path class="st1" d="M236.3,51.9c0,2.5-2,4.4-4.4,4.4c-2.5,0-4.4-2-4.4-4.4c0-2.5,2-4.4,4.4-4.4C234.3,47.4,236.3,49.4,236.3,51.9z"
	/>
<path class="st1" d="M211.4,51.9c0,2.5-2,4.4-4.4,4.4s-4.4-2-4.4-4.4c0-2.5,2-4.4,4.4-4.4S211.4,49.4,211.4,51.9z"/>
<path class="st1" d="M231.9,70.6c0-1.6-0.3-3.3-0.9-4.8c-0.6-1.5-1.5-2.9-2.7-4c-1.2-1.2-2.5-2.1-4-2.7s-3.1-0.9-4.8-0.9
	c-1.6,0-3.3,0.3-4.8,0.9c-1.5,0.6-2.9,1.5-4,2.7c-1.2,1.2-2.1,2.5-2.7,4c-0.6,1.5-0.9,3.1-0.9,4.8H231.9z"/>
<path class="st1" d="M238.8,70.6c0.2-1.2,0.2-2.5,0-3.7c-0.3-1.2-0.8-2.3-1.5-3.3c-0.7-1-1.7-1.8-2.7-2.5c-1.1-0.6-2.3-1-3.5-1.1
	s-2.5,0-3.7,0.4s-2.3,1-3.2,1.8s-1.7,1.8-2.2,2.9s-0.8,2.3-0.8,3.6l8.9,0.2L238.8,70.6z"/>
<path class="st1" d="M228.3,65.2l10.7,2.7v2.7h-10.7V65.2z"/>
<path class="st1" d="M199.4,70.5c-0.4-1.2-0.5-2.5-0.3-3.8s0.6-2.5,1.3-3.6s1.6-2,2.7-2.7c1.1-0.7,2.3-1.1,3.6-1.3s2.6-0.1,3.8,0.3
	c1.2,0.4,2.4,1,3.3,1.9c1,0.9,1.7,1.9,2.2,3.1c0.5,1.2,0.8,2.5,0.7,3.8l-8.9-0.3L199.4,70.5z"/>
<path class="st1" d="M209.7,65.2L199,67.9v2.7h10.7V65.2z"/>
<path class="st1" d="M155.9,71.3c0,2.5-2,4.6-4.6,4.6s-4.6-2-4.6-4.6c0-2.5,2-4.6,4.6-4.6S155.9,68.8,155.9,71.3z"/>
<path class="st1" d="M163.7,73.3c0,1.8-1.5,3.3-3.3,3.3s-3.3-1.5-3.3-3.3s1.5-3.3,3.3-3.3S163.7,71.5,163.7,73.3z"/>
<path class="st1" d="M145.5,73.3c0,1.8-1.5,3.3-3.3,3.3s-3.3-1.5-3.3-3.3s1.5-3.3,3.3-3.3S145.5,71.5,145.5,73.3z"/>
<path class="st1" d="M160.5,86.9c0-1.2-0.2-2.4-0.7-3.5s-1.1-2.1-2-3c-0.8-0.8-1.9-1.5-3-2s-2.3-0.7-3.5-0.7s-2.4,0.2-3.5,0.7
	s-2.1,1.1-3,2c-0.8,0.8-1.5,1.9-2,3s-0.7,2.3-0.7,3.5H160.5z"/>
<path class="st1" d="M165.5,86.9c0.2-0.9,0.2-1.8,0-2.7s-0.6-1.7-1.1-2.5c-0.5-0.7-1.2-1.3-2-1.8s-1.7-0.7-2.6-0.8
	c-0.9-0.1-1.8,0-2.7,0.3s-1.7,0.7-2.3,1.3c-0.7,0.6-1.2,1.3-1.6,2.2c-0.4,0.8-0.6,1.7-0.6,2.6l6.5,0.1L165.5,86.9z"/>
<path class="st1" d="M157.8,83l7.8,2v2h-7.8V83z"/>
<path class="st1" d="M136.6,86.9c-0.3-0.9-0.4-1.9-0.2-2.8c0.1-0.9,0.5-1.8,1-2.6c0.5-0.8,1.2-1.5,2-2s1.7-0.8,2.6-1
	c0.9-0.1,1.9-0.1,2.8,0.2c0.9,0.3,1.7,0.8,2.4,1.4s1.3,1.4,1.6,2.3c0.4,0.9,0.6,1.8,0.5,2.8l-6.5-0.2L136.6,86.9z"/>
<path class="st1" d="M144.2,83l-7.8,2v2h7.8V83z"/>
<path class="st1" d="M165.7,155.2c0,3.4-2.8,6.2-6.2,6.2s-6.2-2.8-6.2-6.2s2.8-6.2,6.2-6.2S165.7,151.8,165.7,155.2z"/>
<path class="st1" d="M176.3,157.9c0,2.5-2,4.4-4.4,4.4c-2.5,0-4.4-2-4.4-4.4c0-2.5,2-4.4,4.4-4.4
	C174.3,153.4,176.3,155.4,176.3,157.9z"/>
<path class="st1" d="M151.4,157.9c0,2.5-2,4.4-4.4,4.4s-4.4-2-4.4-4.4c0-2.5,2-4.4,4.4-4.4S151.4,155.4,151.4,157.9z"/>
<path class="st1" d="M171.9,176.6c0-1.6-0.3-3.3-0.9-4.8c-0.6-1.5-1.5-2.9-2.7-4c-1.2-1.2-2.5-2.1-4-2.7c-1.5-0.6-3.1-0.9-4.8-0.9
	c-1.6,0-3.3,0.3-4.8,0.9c-1.5,0.6-2.9,1.5-4,2.7c-1.2,1.2-2.1,2.5-2.7,4c-0.6,1.5-0.9,3.1-0.9,4.8H171.9z"/>
<path class="st1" d="M178.8,176.6c0.2-1.2,0.2-2.5,0-3.7c-0.3-1.2-0.8-2.3-1.5-3.3s-1.7-1.8-2.7-2.5c-1.1-0.6-2.3-1-3.5-1.1
	s-2.5,0-3.7,0.4s-2.3,1-3.2,1.8s-1.7,1.8-2.2,2.9c-0.5,1.1-0.8,2.3-0.8,3.6l8.9,0.2L178.8,176.6z"/>
<path class="st1" d="M168.3,171.2l10.7,2.7v2.7h-10.7V171.2z"/>
<path class="st1" d="M139.4,176.5c-0.4-1.2-0.5-2.5-0.3-3.8s0.6-2.5,1.3-3.6s1.6-2,2.7-2.7c1.1-0.7,2.3-1.1,3.6-1.3s2.6-0.1,3.8,0.3
	c1.2,0.4,2.4,1,3.3,1.9c1,0.9,1.7,1.9,2.2,3.1c0.5,1.2,0.8,2.5,0.7,3.8l-8.9-0.3L139.4,176.5z"/>
<path class="st1" d="M149.7,171.2l-10.7,2.7v2.7h10.7V171.2z"/>
<path class="st1" d="M229.9,126.3c0,2.5-2,4.6-4.6,4.6s-4.6-2-4.6-4.6s2-4.6,4.6-4.6S229.9,123.8,229.9,126.3z"/>
<path class="st1" d="M237.7,128.3c0,1.8-1.5,3.3-3.3,3.3s-3.3-1.5-3.3-3.3s1.5-3.3,3.3-3.3S237.7,126.5,237.7,128.3z"/>
<path class="st1" d="M219.5,128.3c0,1.8-1.5,3.3-3.3,3.3s-3.3-1.5-3.3-3.3s1.5-3.3,3.3-3.3S219.5,126.5,219.5,128.3z"/>
<path class="st1" d="M234.5,141.9c0-1.2-0.2-2.4-0.7-3.5s-1.1-2.1-2-3c-0.8-0.8-1.9-1.5-3-2s-2.3-0.7-3.5-0.7s-2.4,0.2-3.5,0.7
	s-2.1,1.1-3,2c-0.8,0.8-1.5,1.9-2,3s-0.7,2.3-0.7,3.5H234.5z"/>
<path class="st1" d="M239.5,141.9c0.2-0.9,0.2-1.8,0-2.7s-0.6-1.7-1.1-2.5c-0.5-0.7-1.2-1.3-2-1.8s-1.7-0.7-2.6-0.8
	c-0.9-0.1-1.8,0-2.7,0.3s-1.7,0.7-2.3,1.3s-1.2,1.3-1.6,2.2c-0.4,0.8-0.6,1.7-0.6,2.6l6.5,0.1L239.5,141.9z"/>
<path class="st1" d="M231.8,138l7.8,2v2h-7.8V138z"/>
<path class="st1" d="M210.6,141.9c-0.3-0.9-0.4-1.9-0.2-2.8c0.1-0.9,0.5-1.8,1-2.6s1.2-1.5,2-2s1.7-0.8,2.6-1
	c0.9-0.1,1.9-0.1,2.8,0.2c0.9,0.3,1.7,0.8,2.4,1.4c0.7,0.6,1.3,1.4,1.6,2.3c0.4,0.9,0.6,1.8,0.5,2.8l-6.5-0.2L210.6,141.9z"/>
<path class="st1" d="M218.2,138l-7.8,2v2h7.8V138z"/>
<path class="st1" d="M102.1,129.4c0,1.6-1.3,2.9-2.9,2.9s-2.9-1.3-2.9-2.9c0-1.6,1.3-2.9,2.9-2.9
	C100.8,126.5,102.1,127.8,102.1,129.4z"/>
<path class="st1" d="M107.1,130.6c0,1.1-0.9,2.1-2.1,2.1c-1.1,0-2.1-0.9-2.1-2.1c0-1.1,0.9-2.1,2.1-2.1S107.1,129.5,107.1,130.6z"/>
<path class="st1" d="M95.5,130.6c0,1.1-0.9,2.1-2.1,2.1s-2.1-0.9-2.1-2.1c0-1.1,0.9-2.1,2.1-2.1S95.5,129.5,95.5,130.6z"/>
<path class="st1" d="M105,139.3c0-0.8-0.2-1.5-0.4-2.2c-0.3-0.7-0.7-1.3-1.3-1.9c-0.5-0.5-1.2-1-1.9-1.3c-0.7-0.3-1.5-0.4-2.2-0.4
	c-0.8,0-1.5,0.2-2.2,0.4c-0.7,0.3-1.3,0.7-1.9,1.3c-0.5,0.5-1,1.2-1.3,1.9s-0.4,1.5-0.4,2.2H105z"/>
<path class="st1" d="M108.2,139.3c0.1-0.6,0.1-1.1,0-1.7c-0.1-0.6-0.4-1.1-0.7-1.6c-0.3-0.5-0.8-0.9-1.3-1.1
	c-0.5-0.3-1.1-0.5-1.6-0.5c-0.6-0.1-1.2,0-1.7,0.2s-1.1,0.5-1.5,0.8c-0.4,0.4-0.8,0.8-1,1.4c-0.2,0.5-0.4,1.1-0.4,1.7l4.1,0.1
	L108.2,139.3z"/>
<path class="st1" d="M103.4,136.8l5,1.2v1.2h-5V136.8z"/>
<path class="st1" d="M89.9,139.3c-0.2-0.6-0.2-1.2-0.2-1.8c0.1-0.6,0.3-1.2,0.6-1.7c0.3-0.5,0.8-0.9,1.3-1.3
	c0.5-0.3,1.1-0.5,1.7-0.6s1.2,0,1.8,0.1c0.6,0.2,1.1,0.5,1.6,0.9c0.4,0.4,0.8,0.9,1,1.5s0.4,1.2,0.3,1.8l-4.1-0.1L89.9,139.3z"/>
<path class="st1" d="M94.6,136.8l-5,1.2v1.2h5V136.8z"/>
<path class="st1" d="M276.1,89.4c0,1.6-1.3,2.9-2.9,2.9s-2.9-1.3-2.9-2.9s1.3-2.9,2.9-2.9C274.8,86.5,276.1,87.8,276.1,89.4z"/>
<path class="st1" d="M281.1,90.6c0,1.1-0.9,2.1-2.1,2.1c-1.1,0-2.1-0.9-2.1-2.1s0.9-2.1,2.1-2.1S281.1,89.5,281.1,90.6z"/>
<path class="st1" d="M269.5,90.6c0,1.1-0.9,2.1-2.1,2.1c-1.1,0-2.1-0.9-2.1-2.1s0.9-2.1,2.1-2.1C268.5,88.5,269.5,89.5,269.5,90.6z"
	/>
<path class="st1" d="M279,99.3c0-0.8-0.1-1.5-0.4-2.2s-0.7-1.3-1.3-1.9c-0.5-0.5-1.2-1-1.9-1.3c-0.7-0.3-1.5-0.4-2.2-0.4
	c-0.8,0-1.5,0.2-2.2,0.4c-0.7,0.3-1.3,0.7-1.9,1.3c-0.5,0.5-1,1.2-1.3,1.9c-0.3,0.7-0.4,1.5-0.4,2.2H279z"/>
<path class="st1" d="M282.2,99.3c0.1-0.6,0.1-1.1,0-1.7s-0.4-1.1-0.7-1.6c-0.3-0.5-0.8-0.9-1.3-1.1c-0.5-0.3-1.1-0.5-1.6-0.5
	c-0.6-0.1-1.2,0-1.7,0.2c-0.6,0.2-1.1,0.5-1.5,0.8c-0.4,0.4-0.8,0.8-1,1.4c-0.2,0.5-0.4,1.1-0.4,1.7l4.1,0.1L282.2,99.3z"/>
<path class="st1" d="M277.4,96.8l5,1.2v1.2h-5V96.8z"/>
<path class="st1" d="M263.9,99.3c-0.2-0.6-0.2-1.2-0.2-1.8c0.1-0.6,0.3-1.2,0.6-1.7c0.3-0.5,0.8-0.9,1.3-1.3
	c0.5-0.3,1.1-0.5,1.7-0.6s1.2,0,1.8,0.1c0.6,0.2,1.1,0.5,1.6,0.9c0.4,0.4,0.8,0.9,1,1.5s0.3,1.2,0.3,1.8l-4.1-0.1L263.9,99.3z"/>
<path class="st1" d="M268.6,96.8l-5,1.2v1.2h5V96.8z"/>
<path class="st5" d="M280,354c0,12.1-9.9,22-22,22s-22-9.9-22-22s9.9-22,22-22S280,341.9,280,354z"/>
<path d="M258,374c11,0,20-9,20-20s-9-20-20-20s-20,9-20,20S247,374,258,374z M258,376c12.1,0,22-9.9,22-22s-9.9-22-22-22
	s-22,9.9-22,22S245.9,376,258,376z"/>
<path class="st1" d="M258,370c8.8,0,16-7.2,16-16s-7.2-16-16-16s-16,7.2-16,16S249.2,370,258,370z M258,372c9.9,0,18-8.1,18-18
	s-8.1-18-18-18s-18,8.1-18,18S248.1,372,258,372z"/>
<image style="overflow:visible;" width="51" height="50" xlink:href="../../Logosss/favicon-white SG.png"  transform="matrix(0.4021 0 0 0.4021 247.7459 344.294)">
</image>
</svg>
