<svg width="124" height="44" viewBox="0 0 124 44" fill="none" xmlns="http://www.w3.org/2000/svg">
<path fill-rule="evenodd" clip-rule="evenodd" d="M8.50508 19.7805C8.50508 21.5673 7.73765 22.6933 6.20321 23.1581L8.99269 27.0929H6.70637L4.16111 23.4521H1.79829V27.0929H0V16.2636H3.96271C5.58878 16.2636 6.75219 16.5426 7.45334 17.1002C8.1545 17.6578 8.50508 18.5514 8.50508 19.7805ZM4.0388 21.7947C5.05535 21.7947 5.74627 21.6346 6.11199 21.3144C6.4777 20.9939 6.66056 20.4803 6.66056 19.7726C6.66056 19.0653 6.47279 18.5797 6.09644 18.3165C5.7205 18.0533 5.05003 17.921 4.08461 17.921H1.79829V21.7947H4.0388ZM20.9704 16.2636V17.9834H15.2851V20.8496H20.3912V22.4762H15.2851V25.3736H21.1533V27.0929H13.4868V16.2636H20.9704ZM29.0689 17.689C28.5452 17.689 28.1161 17.7975 27.7807 18.0142C27.4457 18.2312 27.2779 18.5593 27.2779 18.998C27.2779 19.4371 27.4457 19.7726 27.7807 20.0051C28.1161 20.2375 28.83 20.4882 29.9222 20.7564C31.0148 21.025 31.8375 21.4018 32.3914 21.8874C32.9453 22.3731 33.2222 23.0883 33.2222 24.0334C33.2222 24.9781 32.8716 25.7453 32.1705 26.3337C31.4693 26.9229 30.5497 27.2169 29.4117 27.2169C27.7451 27.2169 26.2667 26.6335 24.9765 25.4663L26.1043 24.0875C27.1814 25.0376 28.299 25.5129 29.4575 25.5129C30.0367 25.5129 30.4961 25.3865 30.8369 25.1337C31.1772 24.88 31.3474 24.5445 31.3474 24.1261C31.3474 23.7078 31.187 23.3827 30.8671 23.1502C30.5473 22.9178 29.9958 22.7057 29.2133 22.5149C28.4311 22.324 27.8367 22.1481 27.4301 21.9885C27.0235 21.828 26.6631 21.6188 26.3481 21.3606C25.7181 20.8754 25.4031 20.1315 25.4031 19.1298C25.4031 18.1277 25.7611 17.356 26.4774 16.8133C27.1941 16.2711 28.0805 16 29.1372 16C29.8183 16 30.4937 16.1139 31.1646 16.341C31.835 16.5684 32.4143 16.8886 32.9023 17.3015L31.9418 18.6807C31.6268 18.3913 31.2001 18.1539 30.6614 17.9676C30.123 17.7817 29.5921 17.689 29.0689 17.689ZM45.4359 18.82C44.709 18.0558 43.8176 17.6732 42.761 17.6732C41.7044 17.6732 40.8126 18.0558 40.0861 18.82C39.3591 19.5843 38.9963 20.5111 38.9963 21.6009C38.9963 22.6904 39.3591 23.6176 40.0861 24.3819C40.8126 25.1461 41.7044 25.5283 42.761 25.5283C43.8176 25.5283 44.709 25.1461 45.4359 24.3819C46.1625 23.6176 46.5257 22.6904 46.5257 21.6009C46.5257 20.5111 46.1625 19.5843 45.4359 18.82ZM46.7544 25.5981C45.6773 26.6672 44.3462 27.2015 42.761 27.2015C41.1758 27.2015 39.8447 26.6672 38.7672 25.5981C37.6905 24.5291 37.1518 23.1968 37.1518 21.6009C37.1518 20.0051 37.6905 18.6728 38.7672 17.6038C39.8447 16.5347 41.1758 16 42.761 16C44.3462 16 45.6773 16.5347 46.7544 17.6038C47.8315 18.6728 48.3698 20.0051 48.3698 21.6009C48.3698 23.1968 47.8315 24.5291 46.7544 25.5981ZM61.5363 19.7805C61.5363 21.5673 60.7693 22.6933 59.2349 23.1581L62.0239 27.0929H59.7376L57.1923 23.4521H54.8299V27.0929H53.0312V16.2636H56.9944C58.62 16.2636 59.7834 16.5426 60.4846 17.1002C61.1857 17.6578 61.5363 18.5514 61.5363 19.7805ZM57.0704 21.7947C58.0866 21.7947 58.7775 21.6346 59.1432 21.3144C59.5089 20.9939 59.6922 20.4803 59.6922 19.7726C59.6922 19.0653 59.504 18.5797 59.1281 18.3165C58.7521 18.0533 58.0817 17.921 57.1159 17.921H54.8299V21.7947H57.0704ZM70.5417 17.9368V27.0929H68.7434V17.9368H65.5121V16.2636H73.773V17.9368H70.5417ZM81.7724 16.2636C83.3883 16.2636 84.5668 16.5784 85.3089 17.2083C86.0505 17.8387 86.4212 18.8096 86.4212 20.1215C86.4212 21.433 86.0428 22.3935 85.286 23.003C84.5288 23.6122 83.3678 23.917 81.8031 23.917H79.9128V27.0929H78.1145V16.2636H81.7724ZM82.0011 22.2592C82.9968 22.2592 83.675 22.0658 84.0358 21.6783C84.3966 21.2907 84.577 20.7232 84.577 19.9743C84.577 19.225 84.3484 18.6957 83.891 18.3859C83.4337 18.0765 82.7174 17.921 81.7417 17.921H79.9128V22.2592H82.0011ZM92.4391 24.6297L91.3722 27.0929H89.452L94.1461 16.2636H96.0667L100.761 27.0929H98.8407L97.7738 24.6297H92.4391ZM97.0424 22.9411L95.1066 18.4791L93.1709 22.9411H97.0424ZM107.854 17.689C107.331 17.689 106.901 17.7975 106.566 18.0142C106.231 18.2312 106.063 18.5593 106.063 18.998C106.063 19.4371 106.231 19.7726 106.566 20.0051C106.901 20.2375 107.615 20.4882 108.708 20.7564C109.8 21.025 110.623 21.4018 111.177 21.8874C111.73 22.3731 112.008 23.0883 112.008 24.0334C112.008 24.9781 111.657 25.7453 110.956 26.3337C110.255 26.9229 109.335 27.2169 108.197 27.2169C106.53 27.2169 105.052 26.6335 103.761 25.4663L104.889 24.0875C105.966 25.0376 107.084 25.5129 108.242 25.5129C108.822 25.5129 109.281 25.3865 109.622 25.1337C109.962 24.88 110.132 24.5445 110.132 24.1261C110.132 23.7078 109.972 23.3827 109.652 23.1502C109.332 22.9178 108.781 22.7057 107.999 22.5149C107.216 22.324 106.622 22.1481 106.215 21.9885C105.809 21.828 105.448 21.6188 105.133 21.3606C104.503 20.8754 104.188 20.1315 104.188 19.1298C104.188 18.1277 104.546 17.356 105.262 16.8133C105.979 16.2711 106.866 16 107.923 16C108.603 16 109.279 16.1139 109.95 16.341C110.62 16.5684 111.199 16.8886 111.687 17.3015L110.727 18.6807C110.412 18.3913 109.985 18.1539 109.446 17.9676C108.908 17.7817 108.377 17.689 107.854 17.689ZM119.847 17.689C119.323 17.689 118.894 17.7975 118.558 18.0142C118.223 18.2312 118.055 18.5593 118.055 18.998C118.055 19.4371 118.223 19.7726 118.558 20.0051C118.894 20.2375 119.608 20.4882 120.7 20.7564C121.793 21.025 122.616 21.4018 123.169 21.8874C123.723 22.3731 124 23.0883 124 24.0334C124 24.9781 123.649 25.7453 122.948 26.3337C122.247 26.9229 121.328 27.2169 120.189 27.2169C118.523 27.2169 117.044 26.6335 115.754 25.4663L116.882 24.0875C117.959 25.0376 119.077 25.5129 120.235 25.5129C120.815 25.5129 121.274 25.3865 121.615 25.1337C121.955 24.88 122.125 24.5445 122.125 24.1261C122.125 23.7078 121.965 23.3827 121.645 23.1502C121.325 22.9178 120.774 22.7057 119.991 22.5149C119.209 22.324 118.615 22.1481 118.208 21.9885C117.801 21.828 117.441 21.6188 117.126 21.3606C116.496 20.8754 116.181 20.1315 116.181 19.1298C116.181 18.1277 116.539 17.356 117.255 16.8133C117.972 16.2711 118.858 16 119.915 16C120.596 16 121.271 16.1139 121.942 16.341C122.613 16.5684 123.192 16.8886 123.68 17.3015L122.72 18.6807C122.405 18.3913 121.978 18.1539 121.439 17.9676C120.901 17.7817 120.37 17.689 119.847 17.689Z" fill="#809CBF"/>
</svg>
