<svg width="124" height="44" viewBox="0 0 124 44" fill="none" xmlns="http://www.w3.org/2000/svg">
<path d="M43.2663 26.8971L45.8623 25.431C46.468 26.9834 47.6795 28.0182 49.8428 28.0182C51.8763 28.0182 52.6119 27.1558 52.6119 26.2503C52.6119 24.9998 51.4437 24.5255 48.8909 23.7924C46.2517 23.0594 43.699 21.9383 43.699 18.7473C43.699 15.5565 46.4248 13.7023 49.3669 13.7023C52.1792 13.7023 54.3858 15.1253 55.5107 17.4969L52.6551 19.1355C52.0494 17.8419 51.0975 16.9795 49.3669 16.9795C47.9391 16.9795 47.117 17.7125 47.117 18.6611C47.117 19.696 47.766 20.2566 50.4052 21.0327C53.131 21.8952 56.0299 22.7576 56.0299 26.2072C56.0299 29.355 53.4339 31.2954 49.7563 31.2954C46.3815 31.2954 44.1316 29.7862 43.1365 27.4577C42.9635 27.2421 43.05 26.9834 43.2663 26.8971Z" fill="#809CBF"/>
<path d="M70.394 24.7407C70.394 28.406 67.6682 31.2088 64.3799 31.2088C62.5627 31.2088 61.2647 30.562 60.3995 29.3977V35.7364H57.241V19.0489C57.241 18.7901 57.414 18.6177 57.6737 18.6177H60.0966L60.4427 20.0837C61.3081 18.9626 62.6492 18.2727 64.4232 18.2727C67.6682 18.2727 70.394 21.0755 70.394 24.7407ZM67.1923 24.7407C67.1923 22.714 65.7212 21.3342 63.7742 21.3342C61.8273 21.3342 60.3562 22.714 60.3562 24.7407C60.3562 26.7674 61.8273 28.1472 63.7742 28.1472C65.7645 28.1472 67.1923 26.7674 67.1923 24.7407Z" fill="#809CBF"/>
<path d="M71.1304 24.6554C71.1304 20.9902 74.0292 18.1442 77.6202 18.1442C81.2546 18.1442 84.1535 20.9902 84.1535 24.6554C84.1535 28.3206 81.2546 31.1665 77.6202 31.1665C74.0292 31.1234 71.1304 28.3206 71.1304 24.6554ZM81.0383 24.6554C81.0383 22.6718 79.5672 21.2489 77.6202 21.2489C75.7165 21.2489 74.2022 22.6718 74.2022 24.6554C74.2022 26.6389 75.6733 28.0619 77.6202 28.0619C79.5672 28.0619 81.0383 26.6389 81.0383 24.6554Z" fill="#809CBF"/>
<path d="M89.4752 26.7236V21.6354L91.3356 21.3336C91.4221 20.3849 91.5952 19.4363 91.8548 18.5738H89.4752V15.1242L86.6196 15.9866C86.4466 16.0297 86.3168 16.2022 86.3168 16.4179V18.5738H84.5861C84.3265 18.5738 84.1534 18.7463 84.1534 19.0051V21.5923H86.2734V26.6805C86.2734 30.0007 87.7878 31.2943 92.2442 30.82V27.9309C90.427 28.1034 89.4752 28.0603 89.4752 26.7236Z" fill="#809CBF"/>
<path d="M93.2394 22.3254C93.2394 17.2804 97.2197 13.3996 102.196 13.3996C107.171 13.3996 111.152 17.2804 111.152 22.3254C111.152 27.3274 107.171 31.2514 102.196 31.2514C97.2197 31.2514 93.2394 27.3274 93.2394 22.3254ZM107.734 22.3254C107.734 19.0483 105.311 16.763 102.153 16.763C99.0375 16.763 96.5706 19.0483 96.5706 22.3254C96.5706 25.5595 98.9943 27.8449 102.153 27.8449C105.311 27.8449 107.734 25.5595 107.734 22.3254Z" fill="#809CBF"/>
<path d="M124 23.3609V30.9069H120.842V23.749C120.842 22.0672 119.847 21.2049 118.419 21.2049C116.861 21.2049 115.693 22.1104 115.693 24.2664V30.9069H112.491V19.0489C112.491 18.7901 112.664 18.6177 112.924 18.6177H115.347L115.693 19.9975C116.428 18.8764 117.727 18.2727 119.371 18.2727C121.967 18.2727 124 20.0837 124 23.3609Z" fill="#809CBF"/>
<path d="M18.3881 4C8.22059 4 0 11.9772 0 22.3261C0 32.7181 8.22059 40.6522 18.3881 40.6522C28.5558 40.6522 36.7763 32.675 36.7763 22.3261C36.8196 11.9772 28.5558 4 18.3881 4ZM18.3881 31.1657C13.4991 31.1657 9.5618 27.3281 9.5618 22.3693C9.5618 17.3673 13.4991 13.5727 18.3881 13.5727C23.2773 13.5296 27.2578 17.3673 27.2578 22.3261C27.2578 27.3281 23.2773 31.1657 18.3881 31.1657Z" fill="#809CBF"/>
<path d="M18.3881 4C8.22059 4 0 11.9772 0 22.3261C0 32.7181 8.22059 40.6522 18.3881 40.6522C28.5558 40.6522 36.7763 32.675 36.7763 22.3261C36.8196 11.9772 28.5558 4 18.3881 4ZM18.3881 31.1657C13.4991 31.1657 9.5618 27.3281 9.5618 22.3693C9.5618 17.3673 13.4991 13.5727 18.3881 13.5727C23.2773 13.5296 27.2578 17.3673 27.2578 22.3261C27.2578 27.3281 23.2773 31.1657 18.3881 31.1657Z" fill="#809CBF"/>
</svg>
